G04 Layer_Color=65535*
%FSLAX44Y44*%
%MOMM*%
G71*
G01*
G75*
%ADD28C,0.2032*%
%ADD45C,0.2540*%
%ADD62C,0.2500*%
%ADD63C,0.6000*%
%ADD64C,0.0250*%
%ADD65C,0.3000*%
%ADD66C,0.0203*%
%ADD67C,0.2000*%
%ADD68C,0.0508*%
%ADD69C,0.0250*%
%ADD70R,0.8000X2.8000*%
G36*
X1180630Y523870D02*
Y533870D01*
X1190630D01*
X1180630Y523870D01*
D02*
G37*
G36*
X698430Y565772D02*
Y571570D01*
X704228D01*
X698430Y565772D01*
D02*
G37*
D28*
X1402588Y891032D02*
X1406820D01*
X1404704D01*
Y903728D01*
X1402588Y901612D01*
X1413168D02*
X1415284Y903728D01*
X1419516D01*
X1421632Y901612D01*
Y893148D01*
X1419516Y891032D01*
X1415284D01*
X1413168Y893148D01*
Y901612D01*
X1402588Y867748D02*
X1404704Y865632D01*
X1408936D01*
X1411052Y867748D01*
Y876212D01*
X1408936Y878328D01*
X1404704D01*
X1402588Y876212D01*
Y874096D01*
X1404704Y871980D01*
X1411052D01*
X1265428Y865632D02*
X1269660D01*
X1267544D01*
Y878328D01*
X1265428Y876212D01*
X1268812Y891032D02*
X1260348D01*
X1268812Y899496D01*
Y901612D01*
X1266696Y903728D01*
X1262464D01*
X1260348Y901612D01*
X229870Y796290D02*
X234102D01*
X231986D01*
Y808986D01*
X229870Y806870D01*
X233254Y821690D02*
X224790D01*
X233254Y830154D01*
Y832270D01*
X231138Y834386D01*
X226906D01*
X224790Y832270D01*
X297178Y821690D02*
Y834386D01*
X290830Y828038D01*
X299294D01*
X290830Y806870D02*
X292946Y808986D01*
X297178D01*
X299294Y806870D01*
Y804754D01*
X297178Y802638D01*
X295062D01*
X297178D01*
X299294Y800522D01*
Y798406D01*
X297178Y796290D01*
X292946D01*
X290830Y798406D01*
X35560Y769620D02*
X39792D01*
X37676D01*
Y782316D01*
X35560Y780200D01*
X38944Y795020D02*
X30480D01*
X38944Y803484D01*
Y805600D01*
X36828Y807716D01*
X32596D01*
X30480Y805600D01*
X102868Y795020D02*
Y807716D01*
X96520Y801368D01*
X104984D01*
X96520Y780200D02*
X98636Y782316D01*
X102868D01*
X104984Y780200D01*
Y778084D01*
X102868Y775968D01*
X100752D01*
X102868D01*
X104984Y773852D01*
Y771736D01*
X102868Y769620D01*
X98636D01*
X96520Y771736D01*
X282790Y556260D02*
X280674Y558376D01*
Y562608D01*
X282790Y564724D01*
X284906D01*
X287022Y562608D01*
X289138Y564724D01*
X291254D01*
X293370Y562608D01*
Y558376D01*
X291254Y556260D01*
X289138D01*
X287022Y558376D01*
X284906Y556260D01*
X282790D01*
X287022Y558376D02*
Y562608D01*
X306074Y556260D02*
Y564724D01*
X308190D01*
X316654Y556260D01*
X318770D01*
Y444500D02*
Y448732D01*
Y446616D01*
X306074D01*
X308190Y444500D01*
X293370Y447884D02*
Y439420D01*
X284906Y447884D01*
X282790D01*
X280674Y445768D01*
Y441536D01*
X282790Y439420D01*
X1280160Y300570D02*
X1278044Y298454D01*
X1273812D01*
X1271696Y300570D01*
Y302686D01*
X1273812Y304802D01*
X1271696Y306918D01*
Y309034D01*
X1273812Y311150D01*
X1278044D01*
X1280160Y309034D01*
Y306918D01*
X1278044Y304802D01*
X1280160Y302686D01*
Y300570D01*
X1278044Y304802D02*
X1273812D01*
X1280160Y323854D02*
X1271696D01*
Y325970D01*
X1280160Y334434D01*
Y336550D01*
X1391920D02*
X1387688D01*
X1389804D01*
Y323854D01*
X1391920Y325970D01*
X1388536Y311150D02*
X1397000D01*
X1388536Y302686D01*
Y300570D01*
X1390652Y298454D01*
X1394884D01*
X1397000Y300570D01*
X1108710Y306070D02*
X1112942D01*
X1110826D01*
Y318766D01*
X1108710Y316650D01*
X1112094Y331470D02*
X1103630D01*
X1112094Y339934D01*
Y342050D01*
X1109978Y344166D01*
X1105746D01*
X1103630Y342050D01*
X1203534Y318766D02*
X1195070D01*
Y312418D01*
X1199302Y314534D01*
X1201418D01*
X1203534Y312418D01*
Y308186D01*
X1201418Y306070D01*
X1197186D01*
X1195070Y308186D01*
X1203534Y344166D02*
X1199302Y342050D01*
X1195070Y337818D01*
Y333586D01*
X1197186Y331470D01*
X1201418D01*
X1203534Y333586D01*
Y335702D01*
X1201418Y337818D01*
X1195070D01*
X606890Y339550D02*
X609006Y341666D01*
X613238D01*
X615354Y339550D01*
Y337434D01*
X613238Y335318D01*
X611122D01*
X613238D01*
X615354Y333202D01*
Y331086D01*
X613238Y328970D01*
X609006D01*
X606890Y331086D01*
X619586Y339550D02*
X621702Y341666D01*
X625934D01*
X628050Y339550D01*
Y337434D01*
X625934Y335318D01*
X628050Y333202D01*
Y331086D01*
X625934Y328970D01*
X621702D01*
X619586Y331086D01*
Y333202D01*
X621702Y335318D01*
X619586Y337434D01*
Y339550D01*
X621702Y335318D02*
X625934D01*
X606890Y314150D02*
X609006Y316266D01*
X613238D01*
X615354Y314150D01*
Y312034D01*
X613238Y309918D01*
X611122D01*
X613238D01*
X615354Y307802D01*
Y305686D01*
X613238Y303570D01*
X609006D01*
X606890Y305686D01*
X619586Y316266D02*
X628050D01*
Y314150D01*
X619586Y305686D01*
Y303570D01*
X109050D02*
X113282D01*
X111166D01*
Y316266D01*
X109050Y314150D01*
X117514Y328970D02*
X109050D01*
X117514Y337434D01*
Y339550D01*
X115398Y341666D01*
X111166D01*
X109050Y339550D01*
X1066800Y338240D02*
X1068916Y340356D01*
X1073148D01*
X1075264Y338240D01*
Y336124D01*
X1073148Y334008D01*
X1071032D01*
X1073148D01*
X1075264Y331892D01*
Y329776D01*
X1073148Y327660D01*
X1068916D01*
X1066800Y329776D01*
X1087960Y327660D02*
X1079496D01*
X1087960Y336124D01*
Y338240D01*
X1085844Y340356D01*
X1081612D01*
X1079496Y338240D01*
X1066800Y312840D02*
X1068916Y314956D01*
X1073148D01*
X1075264Y312840D01*
Y310724D01*
X1073148Y308608D01*
X1071032D01*
X1073148D01*
X1075264Y306492D01*
Y304376D01*
X1073148Y302260D01*
X1068916D01*
X1066800Y304376D01*
X1079496Y302260D02*
X1083728D01*
X1081612D01*
Y314956D01*
X1079496Y312840D01*
X645160Y302260D02*
X649392D01*
X647276D01*
Y314956D01*
X645160Y312840D01*
X653624Y327660D02*
X645160D01*
X653624Y336124D01*
Y338240D01*
X651508Y340356D01*
X647276D01*
X645160Y338240D01*
X811530Y931330D02*
X813646Y933446D01*
X817878D01*
X819994Y931330D01*
Y929214D01*
X817878Y927098D01*
X815762D01*
X817878D01*
X819994Y924982D01*
Y922866D01*
X817878Y920750D01*
X813646D01*
X811530Y922866D01*
X817878Y946150D02*
Y958846D01*
X811530Y952498D01*
X819994D01*
X753954Y946150D02*
X745490D01*
X753954Y954614D01*
Y956730D01*
X751838Y958846D01*
X747606D01*
X745490Y956730D01*
X750570Y920750D02*
X754802D01*
X752686D01*
Y933446D01*
X750570Y931330D01*
X889000Y787400D02*
X893232D01*
X891116D01*
Y800096D01*
X889000Y797980D01*
X908044Y800096D02*
X903812Y797980D01*
X899580Y793748D01*
Y789516D01*
X901696Y787400D01*
X905928D01*
X908044Y789516D01*
Y791632D01*
X905928Y793748D01*
X899580D01*
X889000Y762000D02*
X893232D01*
X891116D01*
Y774696D01*
X889000Y772580D01*
X908044Y774696D02*
X899580D01*
Y768348D01*
X903812Y770464D01*
X905928D01*
X908044Y768348D01*
Y764116D01*
X905928Y762000D01*
X901696D01*
X899580Y764116D01*
X670560Y762000D02*
X674792D01*
X672676D01*
Y774696D01*
X670560Y772580D01*
X679024Y787400D02*
X670560D01*
X679024Y795864D01*
Y797980D01*
X676908Y800096D01*
X672676D01*
X670560Y797980D01*
X927944Y43180D02*
X919480D01*
X927944Y51644D01*
Y53760D01*
X925828Y55876D01*
X921596D01*
X919480Y53760D01*
Y17780D02*
X923712D01*
X921596D01*
Y30476D01*
X919480Y28360D01*
X1092200Y17780D02*
X1096432D01*
X1094316D01*
Y30476D01*
X1092200Y28360D01*
X1102360Y17780D02*
X1106592D01*
X1104476D01*
Y30476D01*
X1102360Y28360D01*
X1092200Y43180D02*
X1096432D01*
X1094316D01*
Y55876D01*
X1092200Y53760D01*
X1111244Y43180D02*
X1102780D01*
X1111244Y51644D01*
Y53760D01*
X1109128Y55876D01*
X1104896D01*
X1102780Y53760D01*
X1267460Y612140D02*
X1263228D01*
X1265344D01*
Y599444D01*
X1267460Y601560D01*
X1264076Y586740D02*
X1272540D01*
X1264076Y578276D01*
Y576160D01*
X1266192Y574044D01*
X1270424D01*
X1272540Y576160D01*
X1172636Y599444D02*
X1181100D01*
Y605792D01*
X1176868Y603676D01*
X1174752D01*
X1172636Y605792D01*
Y610024D01*
X1174752Y612140D01*
X1178984D01*
X1181100Y610024D01*
X1172636Y574044D02*
X1176868Y576160D01*
X1181100Y580392D01*
Y584624D01*
X1178984Y586740D01*
X1174752D01*
X1172636Y584624D01*
Y582508D01*
X1174752Y580392D01*
X1181100D01*
X953790Y697150D02*
X955906Y699266D01*
X960138D01*
X962254Y697150D01*
Y695034D01*
X960138Y692918D01*
X958022D01*
X960138D01*
X962254Y690802D01*
Y688686D01*
X960138Y686570D01*
X955906D01*
X953790Y688686D01*
X966486Y697150D02*
X968602Y699266D01*
X972834D01*
X974950Y697150D01*
Y695034D01*
X972834Y692918D01*
X974950Y690802D01*
Y688686D01*
X972834Y686570D01*
X968602D01*
X966486Y688686D01*
Y690802D01*
X968602Y692918D01*
X966486Y695034D01*
Y697150D01*
X968602Y692918D02*
X972834D01*
X953790Y671750D02*
X955906Y673866D01*
X960138D01*
X962254Y671750D01*
Y669634D01*
X960138Y667518D01*
X958022D01*
X960138D01*
X962254Y665402D01*
Y663286D01*
X960138Y661170D01*
X955906D01*
X953790Y663286D01*
X966486Y673866D02*
X974950D01*
Y671750D01*
X966486Y663286D01*
Y661170D01*
X455950D02*
X460182D01*
X458066D01*
Y673866D01*
X455950Y671750D01*
X464414Y686570D02*
X455950D01*
X464414Y695034D01*
Y697150D01*
X462298Y699266D01*
X458066D01*
X455950Y697150D01*
X1413510Y698920D02*
X1415626Y701036D01*
X1419858D01*
X1421974Y698920D01*
Y696804D01*
X1419858Y694688D01*
X1417742D01*
X1419858D01*
X1421974Y692572D01*
Y690456D01*
X1419858Y688340D01*
X1415626D01*
X1413510Y690456D01*
X1434670Y688340D02*
X1426206D01*
X1434670Y696804D01*
Y698920D01*
X1432554Y701036D01*
X1428322D01*
X1426206Y698920D01*
X1413510Y673520D02*
X1415626Y675636D01*
X1419858D01*
X1421974Y673520D01*
Y671404D01*
X1419858Y669288D01*
X1417742D01*
X1419858D01*
X1421974Y667172D01*
Y665056D01*
X1419858Y662940D01*
X1415626D01*
X1413510Y665056D01*
X1426206Y662940D02*
X1430438D01*
X1428322D01*
Y675636D01*
X1426206Y673520D01*
X991870Y662940D02*
X996102D01*
X993986D01*
Y675636D01*
X991870Y673520D01*
X1000334Y688340D02*
X991870D01*
X1000334Y696804D01*
Y698920D01*
X998218Y701036D01*
X993986D01*
X991870Y698920D01*
X1468120Y82124D02*
Y73660D01*
X1459656Y82124D01*
X1457540D01*
X1455424Y80008D01*
Y75776D01*
X1457540Y73660D01*
X1493520D02*
Y77892D01*
Y75776D01*
X1480824D01*
X1482940Y73660D01*
X1493520Y342900D02*
Y347132D01*
Y345016D01*
X1480824D01*
X1482940Y342900D01*
X1491404Y353480D02*
X1493520Y355596D01*
Y359828D01*
X1491404Y361944D01*
X1482940D01*
X1480824Y359828D01*
Y355596D01*
X1482940Y353480D01*
X1485056D01*
X1487172Y355596D01*
Y361944D01*
X1468120Y351364D02*
Y342900D01*
X1459656Y351364D01*
X1457540D01*
X1455424Y349248D01*
Y345016D01*
X1457540Y342900D01*
Y355596D02*
X1455424Y357712D01*
Y361944D01*
X1457540Y364060D01*
X1466004D01*
X1468120Y361944D01*
Y357712D01*
X1466004Y355596D01*
X1457540D01*
X38420Y459036D02*
Y467500D01*
X46884Y459036D01*
X49000D01*
X51116Y461152D01*
Y465384D01*
X49000Y467500D01*
X13020Y462420D02*
Y458188D01*
Y460304D01*
X25716D01*
X23600Y462420D01*
X15136Y325260D02*
X13020Y323144D01*
Y318912D01*
X15136Y316796D01*
X23600D01*
X25716Y318912D01*
Y323144D01*
X23600Y325260D01*
X21484D01*
X19368Y323144D01*
Y316796D01*
X38420Y325260D02*
Y321028D01*
Y323144D01*
X51116D01*
X49000Y325260D01*
Y314680D02*
X51116Y312564D01*
Y308332D01*
X49000Y306216D01*
X40536D01*
X38420Y308332D01*
Y312564D01*
X40536Y314680D01*
X49000D01*
D45*
X218300Y151130D02*
G03*
X218300Y151130I-2400J0D01*
G01*
X182880Y3810D02*
G03*
X182880Y3810I-1270J0D01*
G01*
X365760D02*
G03*
X365760Y3810I-1270J0D01*
G01*
X11430Y254000D02*
G03*
X11430Y254000I-1270J0D01*
G01*
X156210Y41910D02*
G03*
X156210Y41910I-1270J0D01*
G01*
X508000Y49530D02*
G03*
X508000Y49530I-1270J0D01*
G01*
X577850Y19050D02*
G03*
X577850Y19050I-1270J0D01*
G01*
X668020Y20320D02*
G03*
X668020Y20320I-1270J0D01*
G01*
X631190Y45720D02*
G03*
X631190Y45720I-1270J0D01*
G01*
X720090Y48260D02*
G03*
X720090Y48260I-1270J0D01*
G01*
X1214120Y99060D02*
G03*
X1214120Y99060I-1270J0D01*
G01*
X1457960Y553720D02*
G03*
X1457960Y553720I-1270J0D01*
G01*
X1334770Y567690D02*
G03*
X1334770Y567690I-1270J0D01*
G01*
X1131570Y563880D02*
G03*
X1131570Y563880I-1270J0D01*
G01*
X911860Y513080D02*
G03*
X911860Y513080I-1270J0D01*
G01*
X932180Y407670D02*
G03*
X932180Y407670I-1270J0D01*
G01*
X1306830Y749300D02*
G03*
X1306830Y749300I-1270J0D01*
G01*
X1033780Y941070D02*
G03*
X1033780Y941070I-1270J0D01*
G01*
X1093470Y962660D02*
G03*
X1093470Y962660I-1270J0D01*
G01*
X1428750Y955040D02*
G03*
X1428750Y955040I-1270J0D01*
G01*
X953770Y962660D02*
G03*
X953770Y962660I-1270J0D01*
G01*
X547370Y927100D02*
G03*
X547370Y927100I-1270J0D01*
G01*
X471170Y834390D02*
G03*
X471170Y834390I-1270J0D01*
G01*
X469900Y920750D02*
G03*
X469900Y920750I-1270J0D01*
G01*
X335280Y878840D02*
G03*
X335280Y878840I-1270J0D01*
G01*
X156210Y875030D02*
G03*
X156210Y875030I-1270J0D01*
G01*
X355600Y800100D02*
G03*
X355600Y800100I-1270J0D01*
G01*
X635000Y377190D02*
G03*
X635000Y377190I-1270J0D01*
G01*
X826770Y15240D02*
G03*
X826770Y15240I-1270J0D01*
G01*
X650240Y806450D02*
G03*
X650240Y806450I-1270J0D01*
G01*
X246600Y40640D02*
Y64770D01*
X236440Y35560D02*
X246600Y25400D01*
Y5700D02*
Y25400D01*
X215900Y64770D02*
X275900D01*
X216600Y5700D02*
X276600D01*
X428210Y41910D02*
Y66040D01*
X418050Y36830D02*
X428210Y26670D01*
Y6970D02*
Y26670D01*
X397510Y66040D02*
X457510D01*
X398210Y6970D02*
X458210D01*
X1224510Y102590D02*
X1324510D01*
X1224510Y2590D02*
X1324510D01*
X508100Y1003710D02*
X692400D01*
X508100Y914110D02*
Y1003710D01*
X507900Y913910D02*
X508100Y914110D01*
X507900Y913910D02*
X692500D01*
X692600Y914010D01*
Y1003710D01*
X1480820Y492540D02*
X1504950D01*
X1465580D02*
X1475740Y502700D01*
X1445880Y492540D02*
X1465580D01*
X1504950Y463240D02*
Y523240D01*
X1445880Y462540D02*
Y522540D01*
X40640Y194090D02*
X64770D01*
X25400D02*
X35560Y204250D01*
X5700Y194090D02*
X25400D01*
X64770Y164790D02*
Y224790D01*
X5700Y164090D02*
Y224090D01*
X193548Y242570D02*
X193802D01*
X207264Y256032D01*
X420116Y284734D02*
X420370D01*
X424434Y280670D01*
X203197Y256535D02*
X198119D01*
X195580Y253996D01*
Y243839D01*
X198119Y241300D01*
X203197D01*
X205737Y243839D01*
Y253996D01*
X203197Y256535D01*
X210820Y251455D02*
Y243838D01*
X213359Y241298D01*
X220977D01*
Y238759D01*
X218438Y236220D01*
X215898D01*
X220977Y241298D02*
Y251455D01*
X226055D02*
X231133Y241298D01*
X236212Y251455D01*
X241290Y241298D02*
X246369D01*
X243829D01*
Y251455D01*
X241290D01*
X253986Y241298D02*
Y251455D01*
X261604D01*
X264143Y248916D01*
Y241298D01*
X279378Y256533D02*
Y241298D01*
X271760D01*
X269221Y243838D01*
Y248916D01*
X271760Y251455D01*
X279378D01*
X299691Y241298D02*
Y256533D01*
X307309D01*
X309848Y253994D01*
Y248916D01*
X307309Y246377D01*
X299691D01*
X304770D02*
X309848Y241298D01*
X317465D02*
X322544D01*
X325083Y243838D01*
Y248916D01*
X322544Y251455D01*
X317465D01*
X314926Y248916D01*
Y243838D01*
X317465Y241298D01*
X330161Y256533D02*
Y241298D01*
X337779D01*
X340318Y243838D01*
Y246377D01*
Y248916D01*
X337779Y251455D01*
X330161D01*
X353014Y241298D02*
X347936D01*
X345396Y243838D01*
Y248916D01*
X347936Y251455D01*
X353014D01*
X355553Y248916D01*
Y246377D01*
X345396D01*
X360631Y251455D02*
Y241298D01*
Y246377D01*
X363171Y248916D01*
X365710Y251455D01*
X368249D01*
X378406Y253994D02*
Y251455D01*
X375867D01*
X380945D01*
X378406D01*
Y243838D01*
X380945Y241298D01*
X388563D02*
X396180D01*
X398719Y243838D01*
X396180Y246377D01*
X391102D01*
X388563Y248916D01*
X391102Y251455D01*
X398719D01*
X411415Y241298D02*
X406337D01*
X403798Y243838D01*
Y248916D01*
X406337Y251455D01*
X411415D01*
X413954Y248916D01*
Y246377D01*
X403798D01*
X419033Y241298D02*
Y251455D01*
X426650D01*
X429189Y248916D01*
Y241298D01*
X1275842Y933699D02*
Y918464D01*
Y926081D01*
X1285999D01*
Y933699D01*
Y918464D01*
X1291077Y931160D02*
X1293616Y933699D01*
X1298695D01*
X1301234Y931160D01*
Y928621D01*
X1298695Y926081D01*
X1296155D01*
X1298695D01*
X1301234Y923542D01*
Y921003D01*
X1298695Y918464D01*
X1293616D01*
X1291077Y921003D01*
X1306312Y918464D02*
X1311391D01*
X1308851D01*
Y933699D01*
X1306312Y931160D01*
X811911Y121534D02*
Y106299D01*
Y113917D01*
X822068D01*
Y121534D01*
Y106299D01*
X827146Y118995D02*
X829685Y121534D01*
X834764D01*
X837303Y118995D01*
Y116456D01*
X834764Y113917D01*
X832224D01*
X834764D01*
X837303Y111377D01*
Y108838D01*
X834764Y106299D01*
X829685D01*
X827146Y108838D01*
X842381Y118995D02*
X844920Y121534D01*
X849999D01*
X852538Y118995D01*
Y108838D01*
X849999Y106299D01*
X844920D01*
X842381Y108838D01*
Y118995D01*
X507868Y819023D02*
X492633D01*
Y811405D01*
X495172Y808866D01*
X505329D01*
X507868Y811405D01*
Y819023D01*
X492633Y803788D02*
Y798710D01*
Y801249D01*
X507868D01*
X505329Y803788D01*
X900811Y592704D02*
Y577469D01*
Y585087D01*
X910968D01*
Y592704D01*
Y577469D01*
X926203D02*
X916046D01*
X926203Y587626D01*
Y590165D01*
X923664Y592704D01*
X918585D01*
X916046Y590165D01*
X931281Y580008D02*
X933820Y577469D01*
X938899D01*
X941438Y580008D01*
Y590165D01*
X938899Y592704D01*
X933820D01*
X931281Y590165D01*
Y587626D01*
X933820Y585087D01*
X941438D01*
X1117327Y647355D02*
Y632120D01*
Y639738D01*
X1127483D01*
Y647355D01*
Y632120D01*
X1142718D02*
X1132562D01*
X1142718Y642277D01*
Y644816D01*
X1140179Y647355D01*
X1135101D01*
X1132562Y644816D01*
X1147797Y647355D02*
X1157953D01*
Y644816D01*
X1147797Y634659D01*
Y632120D01*
X1320526Y651165D02*
Y635930D01*
Y643548D01*
X1330683D01*
Y651165D01*
Y635930D01*
X1345918D02*
X1335762D01*
X1345918Y646087D01*
Y648626D01*
X1343379Y651165D01*
X1338301D01*
X1335762Y648626D01*
X1361153Y651165D02*
X1356075Y648626D01*
X1350997Y643548D01*
Y638469D01*
X1353536Y635930D01*
X1358614D01*
X1361153Y638469D01*
Y641008D01*
X1358614Y643548D01*
X1350997D01*
X1318999Y805343D02*
X1308842D01*
Y790108D01*
X1318999D01*
X1308842Y797726D02*
X1313921D01*
X1334234Y805343D02*
X1324078D01*
Y797726D01*
X1329156D01*
X1324078D01*
Y790108D01*
X1339313D02*
Y805343D01*
X1344391Y800265D01*
X1349469Y805343D01*
Y790108D01*
X1369783Y805343D02*
Y790108D01*
X1379940D01*
X1395175Y805343D02*
X1385018D01*
Y797726D01*
X1390096D01*
X1385018D01*
Y790108D01*
X1407870Y805343D02*
X1402792D01*
X1400253Y802804D01*
Y792647D01*
X1402792Y790108D01*
X1407870D01*
X1410410Y792647D01*
Y802804D01*
X1407870Y805343D01*
X1425645Y802804D02*
X1423105Y805343D01*
X1418027D01*
X1415488Y802804D01*
Y800265D01*
X1418027Y797726D01*
X1423105D01*
X1425645Y795186D01*
Y792647D01*
X1423105Y790108D01*
X1418027D01*
X1415488Y792647D01*
X1440880Y802804D02*
X1438341Y805343D01*
X1433262D01*
X1430723Y802804D01*
Y792647D01*
X1433262Y790108D01*
X1438341D01*
X1440880Y792647D01*
X1154915Y825155D02*
X1144759D01*
Y809920D01*
X1154915D01*
X1144759Y817538D02*
X1149837D01*
X1170150Y825155D02*
X1159994D01*
Y817538D01*
X1165072D01*
X1159994D01*
Y809920D01*
X1175229D02*
Y825155D01*
X1180307Y820077D01*
X1185385Y825155D01*
Y809920D01*
X1205699Y825155D02*
Y809920D01*
Y817538D01*
X1215855D01*
Y825155D01*
Y809920D01*
X1231091Y825155D02*
X1220934D01*
Y817538D01*
X1226012D01*
X1220934D01*
Y809920D01*
X1243786Y825155D02*
X1238708D01*
X1236169Y822616D01*
Y812459D01*
X1238708Y809920D01*
X1243786D01*
X1246326Y812459D01*
Y822616D01*
X1243786Y825155D01*
X1261561Y822616D02*
X1259022Y825155D01*
X1253943D01*
X1251404Y822616D01*
Y820077D01*
X1253943Y817538D01*
X1259022D01*
X1261561Y814998D01*
Y812459D01*
X1259022Y809920D01*
X1253943D01*
X1251404Y812459D01*
X1276796Y822616D02*
X1274257Y825155D01*
X1269178D01*
X1266639Y822616D01*
Y812459D01*
X1269178Y809920D01*
X1274257D01*
X1276796Y812459D01*
X175260Y807715D02*
Y792480D01*
Y800098D01*
X185417D01*
Y807715D01*
Y792480D01*
X200652D02*
X190495D01*
X200652Y802637D01*
Y805176D01*
X198113Y807715D01*
X193034D01*
X190495Y805176D01*
X215887Y807715D02*
X205730D01*
Y800098D01*
X210809Y802637D01*
X213348D01*
X215887Y800098D01*
Y795019D01*
X213348Y792480D01*
X208269D01*
X205730Y795019D01*
X41910Y839465D02*
Y824230D01*
Y831848D01*
X52067D01*
Y839465D01*
Y824230D01*
X67302D02*
X57145D01*
X67302Y834387D01*
Y836926D01*
X64763Y839465D01*
X59684D01*
X57145Y836926D01*
X79998Y824230D02*
Y839465D01*
X72380Y831848D01*
X82537D01*
X506603Y780664D02*
Y770507D01*
X511681Y765429D01*
X516760Y770507D01*
Y780664D01*
X521838Y765429D02*
Y780664D01*
X529456D01*
X531995Y778125D01*
Y773046D01*
X529456Y770507D01*
X521838D01*
X526916D02*
X531995Y765429D01*
X547230Y780664D02*
X537073D01*
Y765429D01*
X547230D01*
X537073Y773046D02*
X542151D01*
X562465Y778125D02*
X559926Y780664D01*
X554847D01*
X552308Y778125D01*
Y767968D01*
X554847Y765429D01*
X559926D01*
X562465Y767968D01*
Y773046D01*
X557387D01*
X577700Y780664D02*
X567543D01*
Y773046D01*
X572622Y775586D01*
X575161D01*
X577700Y773046D01*
Y767968D01*
X575161Y765429D01*
X570083D01*
X567543Y767968D01*
X847730Y855091D02*
X857887D01*
X862965Y860169D01*
X857887Y865248D01*
X847730D01*
X862965Y870326D02*
X847730D01*
Y877944D01*
X850269Y880483D01*
X855348D01*
X857887Y877944D01*
Y870326D01*
Y875404D02*
X862965Y880483D01*
X850269Y885561D02*
X847730Y888100D01*
Y893179D01*
X850269Y895718D01*
X852808D01*
X855348Y893179D01*
Y890639D01*
Y893179D01*
X857887Y895718D01*
X860426D01*
X862965Y893179D01*
Y888100D01*
X860426Y885561D01*
X850269Y900796D02*
X847730Y903335D01*
Y908414D01*
X850269Y910953D01*
X852808D01*
X855348Y908414D01*
Y905875D01*
Y908414D01*
X857887Y910953D01*
X860426D01*
X862965Y908414D01*
Y903335D01*
X860426Y900796D01*
X1090808Y868045D02*
X1100965D01*
X1106043Y873123D01*
X1100965Y878202D01*
X1090808D01*
X1106043Y883280D02*
X1090808D01*
Y890898D01*
X1093347Y893437D01*
X1098426D01*
X1100965Y890898D01*
Y883280D01*
Y888358D02*
X1106043Y893437D01*
Y898515D02*
Y903594D01*
Y901054D01*
X1090808D01*
X1093347Y898515D01*
X1106043Y921368D02*
Y911211D01*
X1095886Y921368D01*
X1093347D01*
X1090808Y918829D01*
Y913750D01*
X1093347Y911211D01*
X543946Y795401D02*
X559181D01*
X551563D01*
Y805558D01*
X543946D01*
X559181D01*
Y820793D02*
Y810636D01*
X549024Y820793D01*
X546485D01*
X543946Y818254D01*
Y813175D01*
X546485Y810636D01*
Y825871D02*
X543946Y828410D01*
Y833489D01*
X546485Y836028D01*
X549024D01*
X551563Y833489D01*
Y830949D01*
Y833489D01*
X554103Y836028D01*
X556642D01*
X559181Y833489D01*
Y828410D01*
X556642Y825871D01*
X1435100Y99060D02*
X1424943D01*
X1419865Y104138D01*
X1424943Y109217D01*
X1435100D01*
X1427482D01*
Y99060D01*
X1435100Y114295D02*
X1419865D01*
Y121913D01*
X1422404Y124452D01*
X1427482D01*
X1430022Y121913D01*
Y114295D01*
Y119373D02*
X1435100Y124452D01*
Y129530D02*
X1419865D01*
X1424943Y134608D01*
X1419865Y139687D01*
X1435100D01*
Y170157D02*
Y160000D01*
X1424943Y170157D01*
X1422404D01*
X1419865Y167618D01*
Y162540D01*
X1422404Y160000D01*
Y175235D02*
X1419865Y177775D01*
Y182853D01*
X1422404Y185392D01*
X1432561D01*
X1435100Y182853D01*
Y177775D01*
X1432561Y175235D01*
X1422404D01*
X151130Y847085D02*
Y831850D01*
X158748D01*
X161287Y834389D01*
Y836928D01*
X158748Y839467D01*
X151130D01*
X158748D01*
X161287Y842007D01*
Y844546D01*
X158748Y847085D01*
X151130D01*
X166365Y831850D02*
Y847085D01*
X176522Y831850D01*
Y847085D01*
X191757Y844546D02*
X189218Y847085D01*
X184139D01*
X181600Y844546D01*
Y834389D01*
X184139Y831850D01*
X189218D01*
X191757Y834389D01*
X196835Y847085D02*
X206992Y831850D01*
Y847085D02*
X196835Y831850D01*
X326390Y848355D02*
Y833120D01*
X334007D01*
X336547Y835659D01*
Y838198D01*
X334007Y840738D01*
X326390D01*
X334007D01*
X336547Y843277D01*
Y845816D01*
X334007Y848355D01*
X326390D01*
X341625Y833120D02*
Y848355D01*
X351782Y833120D01*
Y848355D01*
X367017Y845816D02*
X364478Y848355D01*
X359399D01*
X356860Y845816D01*
Y835659D01*
X359399Y833120D01*
X364478D01*
X367017Y835659D01*
X372095Y848355D02*
Y845816D01*
X377174Y840738D01*
X382252Y845816D01*
Y848355D01*
X377174Y840738D02*
Y833120D01*
X906125Y494066D02*
Y478831D01*
Y486449D01*
X916282D01*
Y494066D01*
Y478831D01*
X931517D02*
X921361D01*
X931517Y488988D01*
Y491527D01*
X928978Y494066D01*
X923900D01*
X921361Y491527D01*
X936596D02*
X939135Y494066D01*
X944213D01*
X946752Y491527D01*
Y488988D01*
X944213Y486449D01*
X946752Y483909D01*
Y481370D01*
X944213Y478831D01*
X939135D01*
X936596Y481370D01*
Y483909D01*
X939135Y486449D01*
X936596Y488988D01*
Y491527D01*
X939135Y486449D02*
X944213D01*
X25908Y728975D02*
Y713740D01*
X33526D01*
X36065Y716279D01*
Y726436D01*
X33526Y728975D01*
X25908D01*
X41143Y713740D02*
Y723897D01*
X46221Y728975D01*
X51300Y723897D01*
Y713740D01*
Y721357D01*
X41143D01*
X66535Y726436D02*
X63996Y728975D01*
X58917D01*
X56378Y726436D01*
Y716279D01*
X58917Y713740D01*
X63996D01*
X66535Y716279D01*
X71613Y728975D02*
X81770Y713740D01*
Y728975D02*
X71613Y713740D01*
X194818Y728975D02*
Y713740D01*
X202435D01*
X204975Y716279D01*
Y726436D01*
X202435Y728975D01*
X194818D01*
X210053Y713740D02*
Y723897D01*
X215131Y728975D01*
X220210Y723897D01*
Y713740D01*
Y721357D01*
X210053D01*
X235445Y726436D02*
X232906Y728975D01*
X227827D01*
X225288Y726436D01*
Y716279D01*
X227827Y713740D01*
X232906D01*
X235445Y716279D01*
X240523Y728975D02*
Y726436D01*
X245602Y721357D01*
X250680Y726436D01*
Y728975D01*
X245602Y721357D02*
Y713740D01*
X1184272Y561970D02*
X1174115D01*
Y546735D01*
X1184272D01*
X1174115Y554352D02*
X1179193D01*
X1199507Y561970D02*
X1189350D01*
Y554352D01*
X1194428D01*
X1189350D01*
Y546735D01*
X1204585D02*
Y561970D01*
X1209663Y556892D01*
X1214742Y561970D01*
Y546735D01*
X1219820Y559431D02*
X1222359Y561970D01*
X1227438D01*
X1229977Y559431D01*
Y556892D01*
X1227438Y554352D01*
X1224899D01*
X1227438D01*
X1229977Y551813D01*
Y549274D01*
X1227438Y546735D01*
X1222359D01*
X1219820Y549274D01*
X1245212Y546735D02*
X1235055D01*
X1245212Y556892D01*
Y559431D01*
X1242673Y561970D01*
X1237595D01*
X1235055Y559431D01*
X445640Y618866D02*
X435483D01*
Y611249D01*
X440561D01*
X435483D01*
Y603631D01*
X450718Y618866D02*
Y603631D01*
X458336D01*
X460875Y606170D01*
Y608709D01*
X458336Y611249D01*
X450718D01*
X458336D01*
X460875Y613788D01*
Y616327D01*
X458336Y618866D01*
X450718D01*
X1121280Y279014D02*
X1111123D01*
Y271397D01*
X1116201D01*
X1111123D01*
Y263779D01*
X1126358Y279014D02*
Y263779D01*
X1136515D01*
X1141593D02*
Y273936D01*
X1146672Y279014D01*
X1151750Y273936D01*
Y263779D01*
Y271397D01*
X1141593D01*
X1166985Y276475D02*
X1164446Y279014D01*
X1159367D01*
X1156828Y276475D01*
Y273936D01*
X1159367Y271397D01*
X1164446D01*
X1166985Y268857D01*
Y266318D01*
X1164446Y263779D01*
X1159367D01*
X1156828Y266318D01*
X1172063Y279014D02*
Y263779D01*
Y271397D01*
X1182220D01*
Y279014D01*
Y263779D01*
X1187298D02*
X1192377D01*
X1189837D01*
Y279014D01*
X1187298Y276475D01*
X961875Y828965D02*
X951719D01*
Y821348D01*
X956797D01*
X951719D01*
Y813730D01*
X966954D02*
Y828965D01*
X974571D01*
X977110Y826426D01*
Y821348D01*
X974571Y818808D01*
X966954D01*
X992345Y826426D02*
X989806Y828965D01*
X984728D01*
X982189Y826426D01*
Y816269D01*
X984728Y813730D01*
X989806D01*
X992345Y816269D01*
Y821348D01*
X987267D01*
X997424Y813730D02*
Y823887D01*
X1002502Y828965D01*
X1007580Y823887D01*
Y813730D01*
Y821348D01*
X997424D01*
X1035511Y828965D02*
X1030433D01*
X1027894Y826426D01*
Y816269D01*
X1030433Y813730D01*
X1035511D01*
X1038051Y816269D01*
Y826426D01*
X1035511Y828965D01*
X1053286Y826426D02*
X1050747Y828965D01*
X1045668D01*
X1043129Y826426D01*
Y823887D01*
X1045668Y821348D01*
X1050747D01*
X1053286Y818808D01*
Y816269D01*
X1050747Y813730D01*
X1045668D01*
X1043129Y816269D01*
X1068521Y826426D02*
X1065982Y828965D01*
X1060903D01*
X1058364Y826426D01*
Y816269D01*
X1060903Y813730D01*
X1065982D01*
X1068521Y816269D01*
X700529Y605023D02*
X690372D01*
Y597406D01*
X695450D01*
X690372D01*
Y589788D01*
X705607D02*
Y605023D01*
X713225D01*
X715764Y602484D01*
Y597406D01*
X713225Y594866D01*
X705607D01*
X730999Y602484D02*
X728460Y605023D01*
X723381D01*
X720842Y602484D01*
Y592327D01*
X723381Y589788D01*
X728460D01*
X730999Y592327D01*
Y597406D01*
X725920D01*
X736077Y589788D02*
Y599945D01*
X741156Y605023D01*
X746234Y599945D01*
Y589788D01*
Y597406D01*
X736077D01*
X109558Y370621D02*
Y355386D01*
Y363004D01*
X119715D01*
Y370621D01*
Y355386D01*
X124793D02*
X129871D01*
X127332D01*
Y370621D01*
X124793Y368082D01*
X645668Y369311D02*
Y354076D01*
Y361693D01*
X655825D01*
Y369311D01*
Y354076D01*
X671060D02*
X660903D01*
X671060Y364233D01*
Y366772D01*
X668521Y369311D01*
X663442D01*
X660903Y366772D01*
X1104138Y373121D02*
Y357886D01*
Y365504D01*
X1114295D01*
Y373121D01*
Y357886D01*
X1119373Y370582D02*
X1121912Y373121D01*
X1126991D01*
X1129530Y370582D01*
Y368043D01*
X1126991Y365504D01*
X1124451D01*
X1126991D01*
X1129530Y362964D01*
Y360425D01*
X1126991Y357886D01*
X1121912D01*
X1119373Y360425D01*
X456458Y728221D02*
Y712986D01*
Y720603D01*
X466615D01*
Y728221D01*
Y712986D01*
X479311D02*
Y728221D01*
X471693Y720603D01*
X481850D01*
X992378Y729991D02*
Y714756D01*
Y722374D01*
X1002535D01*
Y729991D01*
Y714756D01*
X1017770Y729991D02*
X1007613D01*
Y722374D01*
X1012691Y724913D01*
X1015231D01*
X1017770Y722374D01*
Y717295D01*
X1015231Y714756D01*
X1010152D01*
X1007613Y717295D01*
X1173226Y643631D02*
Y628396D01*
Y636013D01*
X1183383D01*
Y643631D01*
Y628396D01*
X1198618Y643631D02*
X1193539Y641092D01*
X1188461Y636013D01*
Y630935D01*
X1191000Y628396D01*
X1196079D01*
X1198618Y630935D01*
Y633474D01*
X1196079Y636013D01*
X1188461D01*
X1272286Y368041D02*
Y352806D01*
Y360424D01*
X1282443D01*
Y368041D01*
Y352806D01*
X1287521D02*
X1292599D01*
X1290060D01*
Y368041D01*
X1287521Y365502D01*
X1300217D02*
X1302756Y368041D01*
X1307834D01*
X1310374Y365502D01*
Y355345D01*
X1307834Y352806D01*
X1302756D01*
X1300217Y355345D01*
Y365502D01*
X671068Y829051D02*
Y813816D01*
Y821433D01*
X681225D01*
Y829051D01*
Y813816D01*
X686303D02*
X691381D01*
X688842D01*
Y829051D01*
X686303Y826512D01*
X698999Y813816D02*
X704077D01*
X701538D01*
Y829051D01*
X698999Y826512D01*
X458724Y915411D02*
Y900176D01*
Y907794D01*
X468881D01*
Y915411D01*
Y900176D01*
X473959D02*
X479037D01*
X476498D01*
Y915411D01*
X473959Y912872D01*
X496812Y900176D02*
X486655D01*
X496812Y910333D01*
Y912872D01*
X494272Y915411D01*
X489194D01*
X486655Y912872D01*
X745998Y987801D02*
Y972566D01*
Y980183D01*
X756155D01*
Y987801D01*
Y972566D01*
X761233D02*
X766311D01*
X763772D01*
Y987801D01*
X761233Y985262D01*
X773929D02*
X776468Y987801D01*
X781546D01*
X784086Y985262D01*
Y982723D01*
X781546Y980183D01*
X779007D01*
X781546D01*
X784086Y977644D01*
Y975105D01*
X781546Y972566D01*
X776468D01*
X773929Y975105D01*
X458851Y1000374D02*
Y985139D01*
Y992757D01*
X469008D01*
Y1000374D01*
Y985139D01*
X474086D02*
X479164D01*
X476625D01*
Y1000374D01*
X474086Y997835D01*
X494399Y985139D02*
Y1000374D01*
X486782Y992757D01*
X496939D01*
X277114Y589529D02*
Y574294D01*
Y581912D01*
X287271D01*
Y589529D01*
Y574294D01*
X292349D02*
X297427D01*
X294888D01*
Y589529D01*
X292349Y586990D01*
X315202Y589529D02*
X305045D01*
Y581912D01*
X310123Y584451D01*
X312663D01*
X315202Y581912D01*
Y576833D01*
X312663Y574294D01*
X307584D01*
X305045Y576833D01*
X1346454Y992881D02*
Y977646D01*
Y985264D01*
X1356611D01*
Y992881D01*
Y977646D01*
X1361689D02*
X1366767D01*
X1364228D01*
Y992881D01*
X1361689Y990342D01*
X1384542Y992881D02*
X1379463Y990342D01*
X1374385Y985264D01*
Y980185D01*
X1376924Y977646D01*
X1382003D01*
X1384542Y980185D01*
Y982724D01*
X1382003Y985264D01*
X1374385D01*
X872744Y997961D02*
Y982726D01*
Y990343D01*
X882901D01*
Y997961D01*
Y982726D01*
X887979D02*
X893057D01*
X890518D01*
Y997961D01*
X887979Y995422D01*
X900675Y997961D02*
X910832D01*
Y995422D01*
X900675Y985265D01*
Y982726D01*
X1102614Y999231D02*
Y983996D01*
Y991613D01*
X1112771D01*
Y999231D01*
Y983996D01*
X1117849D02*
X1122927D01*
X1120388D01*
Y999231D01*
X1117849Y996692D01*
X1130545D02*
X1133084Y999231D01*
X1138163D01*
X1140702Y996692D01*
Y994153D01*
X1138163Y991613D01*
X1140702Y989074D01*
Y986535D01*
X1138163Y983996D01*
X1133084D01*
X1130545Y986535D01*
Y989074D01*
X1133084Y991613D01*
X1130545Y994153D01*
Y996692D01*
X1133084Y991613D02*
X1138163D01*
X919988Y84831D02*
Y69596D01*
Y77214D01*
X930145D01*
Y84831D01*
Y69596D01*
X935223D02*
X940301D01*
X937762D01*
Y84831D01*
X935223Y82292D01*
X947919Y72135D02*
X950458Y69596D01*
X955536D01*
X958076Y72135D01*
Y82292D01*
X955536Y84831D01*
X950458D01*
X947919Y82292D01*
Y79753D01*
X950458Y77214D01*
X958076D01*
X517144Y83561D02*
Y68326D01*
Y75943D01*
X527301D01*
Y83561D01*
Y68326D01*
X542536D02*
X532379D01*
X542536Y78483D01*
Y81022D01*
X539997Y83561D01*
X534918D01*
X532379Y81022D01*
X547614D02*
X550153Y83561D01*
X555232D01*
X557771Y81022D01*
Y70865D01*
X555232Y68326D01*
X550153D01*
X547614Y70865D01*
Y81022D01*
X94234Y79751D02*
Y64516D01*
Y72133D01*
X104391D01*
Y79751D01*
Y64516D01*
X119626D02*
X109469D01*
X119626Y74673D01*
Y77212D01*
X117087Y79751D01*
X112008D01*
X109469Y77212D01*
X124704Y64516D02*
X129782D01*
X127243D01*
Y79751D01*
X124704Y77212D01*
X1228087Y126741D02*
X1223008D01*
X1225547D01*
Y114045D01*
X1223008Y111506D01*
X1220469D01*
X1217930Y114045D01*
X1240783Y126741D02*
X1235704D01*
X1233165Y124202D01*
Y114045D01*
X1235704Y111506D01*
X1240783D01*
X1243322Y114045D01*
Y124202D01*
X1240783Y126741D01*
X1248400D02*
Y124202D01*
X1253478Y119123D01*
X1258557Y124202D01*
Y126741D01*
X1253478Y119123D02*
Y111506D01*
X1273792Y124202D02*
X1271253Y126741D01*
X1266174D01*
X1263635Y124202D01*
Y121663D01*
X1266174Y119123D01*
X1271253D01*
X1273792Y116584D01*
Y114045D01*
X1271253Y111506D01*
X1266174D01*
X1263635Y114045D01*
X1278870Y126741D02*
X1289027D01*
X1283949D01*
Y111506D01*
X1294105Y126741D02*
X1299184D01*
X1296644D01*
Y111506D01*
X1294105D01*
X1299184D01*
X1316958Y124202D02*
X1314419Y126741D01*
X1309340D01*
X1306801Y124202D01*
Y114045D01*
X1309340Y111506D01*
X1314419D01*
X1316958Y114045D01*
X1322036Y126741D02*
Y111506D01*
Y116584D01*
X1332193Y126741D01*
X1324576Y119123D01*
X1332193Y111506D01*
X80185Y440193D02*
Y445272D01*
Y442733D01*
X67489D01*
X64950Y445272D01*
Y447811D01*
X67489Y450350D01*
X80185Y435115D02*
Y424958D01*
Y430037D01*
X64950D01*
Y419880D02*
X75107D01*
X80185Y414801D01*
X75107Y409723D01*
X64950D01*
X72568D01*
Y419880D01*
X77646Y394488D02*
X80185Y397027D01*
Y402106D01*
X77646Y404645D01*
X67489D01*
X64950Y402106D01*
Y397027D01*
X67489Y394488D01*
X72568D01*
Y399566D01*
X1433830Y424180D02*
X1418595D01*
Y431797D01*
X1421134Y434337D01*
X1426212D01*
X1428752Y431797D01*
Y424180D01*
Y429258D02*
X1433830Y434337D01*
X1418595Y449572D02*
Y439415D01*
X1433830D01*
Y449572D01*
X1426212Y439415D02*
Y444493D01*
X1421134Y464807D02*
X1418595Y462268D01*
Y457189D01*
X1421134Y454650D01*
X1423673D01*
X1426212Y457189D01*
Y462268D01*
X1428752Y464807D01*
X1431291D01*
X1433830Y462268D01*
Y457189D01*
X1431291Y454650D01*
X1418595Y480042D02*
Y469885D01*
X1433830D01*
Y480042D01*
X1426212Y469885D02*
Y474964D01*
X1418595Y485120D02*
Y495277D01*
Y490199D01*
X1433830D01*
X1436369Y500355D02*
Y510512D01*
X1418595Y515590D02*
X1433830D01*
Y523208D01*
X1431291Y525747D01*
X1428752D01*
X1426212Y523208D01*
Y515590D01*
Y523208D01*
X1423673Y525747D01*
X1421134D01*
X1418595Y523208D01*
Y515590D01*
Y530826D02*
Y540982D01*
Y535904D01*
X1433830D01*
Y546061D02*
X1418595D01*
X1433830Y556217D01*
X1418595D01*
X968753Y611374D02*
X966214Y613913D01*
X961135D01*
X958596Y611374D01*
Y608835D01*
X961135Y606296D01*
X966214D01*
X968753Y603756D01*
Y601217D01*
X966214Y598678D01*
X961135D01*
X958596Y601217D01*
X973831Y598678D02*
Y613913D01*
X981449D01*
X983988Y611374D01*
Y606296D01*
X981449Y603756D01*
X973831D01*
X978909D02*
X983988Y598678D01*
X989066D02*
Y608835D01*
X994145Y613913D01*
X999223Y608835D01*
Y598678D01*
Y606296D01*
X989066D01*
X1004301Y598678D02*
Y613913D01*
X1009380Y608835D01*
X1014458Y613913D01*
Y598678D01*
X1019536D02*
X1024615D01*
X1022076D01*
Y613913D01*
X1019536Y611374D01*
X73914Y606801D02*
Y596644D01*
X78992Y591566D01*
X84071Y596644D01*
Y606801D01*
X89149Y591566D02*
Y606801D01*
X96767D01*
X99306Y604262D01*
Y599184D01*
X96767Y596644D01*
X89149D01*
X94227D02*
X99306Y591566D01*
X114541Y606801D02*
X104384D01*
Y591566D01*
X114541D01*
X104384Y599184D02*
X109462D01*
X129776Y606801D02*
X119619D01*
Y599184D01*
X124698D01*
X119619D01*
Y591566D01*
X192024Y91435D02*
X202181D01*
Y88896D01*
X192024Y78739D01*
Y76200D01*
X202181D01*
X214877Y91435D02*
X209798D01*
X207259Y88896D01*
Y78739D01*
X209798Y76200D01*
X214877D01*
X217416Y78739D01*
Y88896D01*
X214877Y91435D01*
X230112D02*
X225033D01*
X222494Y88896D01*
Y78739D01*
X225033Y76200D01*
X230112D01*
X232651Y78739D01*
Y88896D01*
X230112Y91435D01*
X237729Y76200D02*
Y91435D01*
X242808Y86357D01*
X247886Y91435D01*
Y76200D01*
X252964Y73661D02*
X263121D01*
X268199Y91435D02*
X273278D01*
X270739D01*
Y76200D01*
X268199D01*
X273278D01*
X280895D02*
Y91435D01*
X291052Y76200D01*
Y91435D01*
X373634Y92705D02*
X383791D01*
Y90166D01*
X373634Y80009D01*
Y77470D01*
X383791D01*
X396487Y92705D02*
X391408D01*
X388869Y90166D01*
Y80009D01*
X391408Y77470D01*
X396487D01*
X399026Y80009D01*
Y90166D01*
X396487Y92705D01*
X411722D02*
X406643D01*
X404104Y90166D01*
Y80009D01*
X406643Y77470D01*
X411722D01*
X414261Y80009D01*
Y90166D01*
X411722Y92705D01*
X419339Y77470D02*
Y92705D01*
X424418Y87627D01*
X429496Y92705D01*
Y77470D01*
X434574Y74931D02*
X444731D01*
X457427Y92705D02*
X452349D01*
X449809Y90166D01*
Y80009D01*
X452349Y77470D01*
X457427D01*
X459966Y80009D01*
Y90166D01*
X457427Y92705D01*
X465044D02*
Y80009D01*
X467584Y77470D01*
X472662D01*
X475201Y80009D01*
Y92705D01*
X480280D02*
X490436D01*
X485358D01*
Y77470D01*
X6985Y261239D02*
Y276474D01*
X14603D01*
X17142Y273935D01*
Y268857D01*
X14603Y266317D01*
X6985D01*
X12063D02*
X17142Y261239D01*
X32377Y276474D02*
X22220D01*
Y261239D01*
X32377D01*
X22220Y268857D02*
X27298D01*
X47612Y273935D02*
X45073Y276474D01*
X39994D01*
X37455Y273935D01*
Y271396D01*
X39994Y268857D01*
X45073D01*
X47612Y266317D01*
Y263778D01*
X45073Y261239D01*
X39994D01*
X37455Y263778D01*
X52690Y258700D02*
X62847D01*
X78082Y276474D02*
X67925D01*
Y268857D01*
X73004D01*
X67925D01*
Y261239D01*
X83160D02*
Y276474D01*
X90778D01*
X93317Y273935D01*
Y268857D01*
X90778Y266317D01*
X83160D01*
X108552Y273935D02*
X106013Y276474D01*
X100935D01*
X98395Y273935D01*
Y263778D01*
X100935Y261239D01*
X106013D01*
X108552Y263778D01*
Y268857D01*
X103474D01*
X113631Y261239D02*
Y271396D01*
X118709Y276474D01*
X123787Y271396D01*
Y261239D01*
Y268857D01*
X113631D01*
X680050Y51085D02*
Y35850D01*
X687667D01*
X690207Y38389D01*
Y48546D01*
X687667Y51085D01*
X680050D01*
X702903Y35850D02*
Y51085D01*
X695285Y43467D01*
X705442D01*
X585600Y52035D02*
Y36800D01*
X593218D01*
X595757Y39339D01*
Y49496D01*
X593218Y52035D01*
X585600D01*
X610992D02*
X600835D01*
Y44418D01*
X605913Y46957D01*
X608453D01*
X610992Y44418D01*
Y39339D01*
X608453Y36800D01*
X603374D01*
X600835Y39339D01*
X981710Y923544D02*
Y938779D01*
X989327D01*
X991867Y936240D01*
Y931161D01*
X989327Y928622D01*
X981710D01*
X1007102Y936240D02*
X1004563Y938779D01*
X999484D01*
X996945Y936240D01*
Y933701D01*
X999484Y931161D01*
X1004563D01*
X1007102Y928622D01*
Y926083D01*
X1004563Y923544D01*
X999484D01*
X996945Y926083D01*
X1012180Y938779D02*
Y926083D01*
X1014719Y923544D01*
X1019798D01*
X1022337Y926083D01*
Y938779D01*
X350520Y223517D02*
Y213360D01*
Y218438D01*
X353059Y220977D01*
X355598Y223517D01*
X358138D01*
X365755Y228595D02*
Y213360D01*
Y220977D01*
X368294Y223517D01*
X373373D01*
X375912Y220977D01*
Y213360D01*
X388608D02*
X383529D01*
X380990Y215899D01*
Y220977D01*
X383529Y223517D01*
X388608D01*
X391147Y220977D01*
Y218438D01*
X380990D01*
X396225Y213360D02*
X401304D01*
X398764D01*
Y223517D01*
X396225D01*
X408921Y213360D02*
Y223517D01*
X411460D01*
X413999Y220977D01*
Y213360D01*
Y220977D01*
X416539Y223517D01*
X419078Y220977D01*
Y213360D01*
X342897D02*
X337819D01*
X335280Y215899D01*
Y220977D01*
X337819Y223517D01*
X342897D01*
X345437Y220977D01*
Y218438D01*
X335280D01*
X327659Y223517D02*
X332738D01*
X335277Y220977D01*
Y213360D01*
X327659D01*
X325120Y215899D01*
X327659Y218438D01*
X335277D01*
X577850Y906521D02*
Y891286D01*
Y898904D01*
X588007D01*
Y906521D01*
Y891286D01*
X593085Y906521D02*
Y891286D01*
X600703D01*
X603242Y893825D01*
Y903982D01*
X600703Y906521D01*
X593085D01*
X608320Y891286D02*
Y906521D01*
X613399Y901443D01*
X618477Y906521D01*
Y891286D01*
X623555Y906521D02*
X628634D01*
X626094D01*
Y891286D01*
X623555D01*
X628634D01*
X205737Y177795D02*
X200658D01*
X203197D01*
Y165099D01*
X200658Y162560D01*
X198119D01*
X195580Y165099D01*
X213354Y162560D02*
X218433D01*
X220972Y165099D01*
Y170177D01*
X218433Y172717D01*
X213354D01*
X210815Y170177D01*
Y165099D01*
X213354Y162560D01*
X226050D02*
Y172717D01*
X233668D01*
X236207Y170177D01*
Y162560D01*
X243824Y172717D02*
X248903D01*
X251442Y170177D01*
Y162560D01*
X243824D01*
X241285Y165099D01*
X243824Y167638D01*
X251442D01*
X259060Y175256D02*
Y172717D01*
X256520D01*
X261599D01*
X259060D01*
Y165099D01*
X261599Y162560D01*
X271755Y172717D02*
X276834D01*
X279373Y170177D01*
Y162560D01*
X271755D01*
X269216Y165099D01*
X271755Y167638D01*
X279373D01*
X284451Y162560D02*
Y172717D01*
X292069D01*
X294608Y170177D01*
Y162560D01*
X314921Y177795D02*
Y162560D01*
X325078D01*
X330157Y172717D02*
Y165099D01*
X332696Y162560D01*
X340313D01*
Y172717D01*
X345392Y162560D02*
Y172717D01*
X353009D01*
X355548Y170177D01*
Y162560D01*
X370783Y177795D02*
Y162560D01*
X363166D01*
X360627Y165099D01*
Y170177D01*
X363166Y172717D01*
X370783D01*
X195580Y109220D02*
Y119377D01*
X200658Y124455D01*
X205737Y119377D01*
Y109220D01*
Y116838D01*
X195580D01*
X210815Y109220D02*
Y119377D01*
X218433D01*
X220972Y116838D01*
Y109220D01*
X236207Y124455D02*
Y109220D01*
X228589D01*
X226050Y111759D01*
Y116838D01*
X228589Y119377D01*
X236207D01*
X248903Y109220D02*
X243824D01*
X241285Y111759D01*
Y116838D01*
X243824Y119377D01*
X248903D01*
X251442Y116838D01*
Y114298D01*
X241285D01*
X256520Y119377D02*
Y109220D01*
Y114298D01*
X259060Y116838D01*
X261599Y119377D01*
X264138D01*
X271755Y109220D02*
X279373D01*
X281912Y111759D01*
X279373Y114298D01*
X274294D01*
X271755Y116838D01*
X274294Y119377D01*
X281912D01*
X302225Y124455D02*
Y109220D01*
X312382D01*
X317461D02*
X322539D01*
X320000D01*
Y119377D01*
X317461D01*
X330157Y109220D02*
Y119377D01*
X332696D01*
X335235Y116838D01*
Y109220D01*
Y116838D01*
X337774Y119377D01*
X340313Y116838D01*
Y109220D01*
X347931Y119377D02*
X353009D01*
X355548Y116838D01*
Y109220D01*
X347931D01*
X345392Y111759D01*
X347931Y114298D01*
X355548D01*
X205737Y279396D02*
X203197Y281935D01*
X198119D01*
X195580Y279396D01*
Y269239D01*
X198119Y266700D01*
X203197D01*
X205737Y269239D01*
X210815Y281935D02*
Y266700D01*
Y274317D01*
X213354Y276857D01*
X218433D01*
X220972Y274317D01*
Y266700D01*
X226050Y276857D02*
Y266700D01*
Y271778D01*
X228589Y274317D01*
X231129Y276857D01*
X233668D01*
X241285Y266700D02*
X246364D01*
X243824D01*
Y276857D01*
X241285D01*
X253981Y266700D02*
X261599D01*
X264138Y269239D01*
X261599Y271778D01*
X256520D01*
X253981Y274317D01*
X256520Y276857D01*
X264138D01*
X271755Y279396D02*
Y276857D01*
X269216D01*
X274294D01*
X271755D01*
Y269239D01*
X274294Y266700D01*
X281912D02*
X286990D01*
X284451D01*
Y276857D01*
X281912D01*
X297147D02*
X302225D01*
X304765Y274317D01*
Y266700D01*
X297147D01*
X294608Y269239D01*
X297147Y271778D01*
X304765D01*
X309843Y266700D02*
Y276857D01*
X317461D01*
X320000Y274317D01*
Y266700D01*
X340313Y281935D02*
Y266700D01*
X347931D01*
X350470Y269239D01*
Y279396D01*
X347931Y281935D01*
X340313D01*
X363166Y266700D02*
X358087D01*
X355548Y269239D01*
Y274317D01*
X358087Y276857D01*
X363166D01*
X365705Y274317D01*
Y271778D01*
X355548D01*
X396175Y281935D02*
X386018D01*
Y274317D01*
X391097D01*
X386018D01*
Y266700D01*
X401254Y276857D02*
Y266700D01*
Y271778D01*
X403793Y274317D01*
X406332Y276857D01*
X408871D01*
X424106Y266700D02*
X419028D01*
X416488Y269239D01*
Y274317D01*
X419028Y276857D01*
X424106D01*
X426645Y274317D01*
Y271778D01*
X416488D01*
X431724Y266700D02*
Y276857D01*
X439341D01*
X441880Y274317D01*
Y266700D01*
X454576D02*
X449498D01*
X446959Y269239D01*
Y274317D01*
X449498Y276857D01*
X454576D01*
X457115Y274317D01*
Y271778D01*
X446959D01*
X195580Y149855D02*
Y134620D01*
Y142238D01*
X205737D01*
Y149855D01*
Y134620D01*
X213354Y144777D02*
X218433D01*
X220972Y142238D01*
Y134620D01*
X213354D01*
X210815Y137159D01*
X213354Y139698D01*
X220972D01*
X226050Y144777D02*
X231129Y134620D01*
X236207Y144777D01*
X243824D02*
X248903D01*
X251442Y142238D01*
Y134620D01*
X243824D01*
X241285Y137159D01*
X243824Y139698D01*
X251442D01*
X256520Y144777D02*
Y134620D01*
Y139698D01*
X259060Y142238D01*
X261599Y144777D01*
X264138D01*
X281912Y149855D02*
Y134620D01*
X274294D01*
X271755Y137159D01*
Y142238D01*
X274294Y144777D01*
X281912D01*
X302225Y149855D02*
Y134620D01*
X312382D01*
X317461D02*
X322539D01*
X320000D01*
Y144777D01*
X317461D01*
X332696D02*
X337774D01*
X340313Y142238D01*
Y134620D01*
X332696D01*
X330157Y137159D01*
X332696Y139698D01*
X340313D01*
X345392Y134620D02*
Y144777D01*
X353009D01*
X355548Y142238D01*
Y134620D01*
X195580Y228595D02*
Y213360D01*
Y220977D01*
X205737D01*
Y228595D01*
Y213360D01*
X218433D02*
X213354D01*
X210815Y215899D01*
Y220977D01*
X213354Y223517D01*
X218433D01*
X220972Y220977D01*
Y218438D01*
X210815D01*
X226050Y213360D02*
X231129D01*
X228589D01*
Y228595D01*
X226050D01*
X238746Y213360D02*
Y223517D01*
X241285D01*
X243824Y220977D01*
Y213360D01*
Y220977D01*
X246364Y223517D01*
X248903Y220977D01*
Y213360D01*
X261599D02*
X256520D01*
X253981Y215899D01*
Y220977D01*
X256520Y223517D01*
X261599D01*
X264138Y220977D01*
Y218438D01*
X253981D01*
X269216Y223517D02*
Y213360D01*
Y218438D01*
X271755Y220977D01*
X274294Y223517D01*
X276834D01*
X299686Y213360D02*
Y228595D01*
X309843Y213360D01*
Y228595D01*
X314921Y208282D02*
X317461D01*
X320000Y210821D01*
Y223517D01*
X205737Y204465D02*
X200658D01*
X203197D01*
Y191769D01*
X200658Y189230D01*
X198119D01*
X195580Y191769D01*
X213354Y189230D02*
X218433D01*
X220972Y191769D01*
Y196847D01*
X218433Y199387D01*
X213354D01*
X210815Y196847D01*
Y191769D01*
X213354Y189230D01*
X226050D02*
Y199387D01*
X233668D01*
X236207Y196847D01*
Y189230D01*
X243824Y199387D02*
X248903D01*
X251442Y196847D01*
Y189230D01*
X243824D01*
X241285Y191769D01*
X243824Y194308D01*
X251442D01*
X256520Y189230D02*
X264138D01*
X266677Y191769D01*
X264138Y194308D01*
X259060D01*
X256520Y196847D01*
X259060Y199387D01*
X266677D01*
X286990Y204465D02*
Y189230D01*
Y196847D01*
X297147D01*
Y204465D01*
Y189230D01*
X304765Y199387D02*
X309843D01*
X312382Y196847D01*
Y189230D01*
X304765D01*
X302225Y191769D01*
X304765Y194308D01*
X312382D01*
X317461Y189230D02*
X322539D01*
X320000D01*
Y204465D01*
X317461D01*
X330157Y189230D02*
X335235D01*
X332696D01*
Y204465D01*
X330157D01*
X345392Y199387D02*
X350470D01*
X353009Y196847D01*
Y189230D01*
X345392D01*
X342852Y191769D01*
X345392Y194308D01*
X353009D01*
X358087Y189230D02*
Y199387D01*
X365705D01*
X368244Y196847D01*
Y189230D01*
X383479Y204465D02*
Y189230D01*
X375862D01*
X373322Y191769D01*
Y196847D01*
X375862Y199387D01*
X383479D01*
X591820Y271775D02*
Y256540D01*
X599437D01*
X601977Y259079D01*
Y269236D01*
X599437Y271775D01*
X591820D01*
X609594Y266697D02*
X614673D01*
X617212Y264158D01*
Y256540D01*
X609594D01*
X607055Y259079D01*
X609594Y261618D01*
X617212D01*
X624829Y269236D02*
Y266697D01*
X622290D01*
X627369D01*
X624829D01*
Y259079D01*
X627369Y256540D01*
X637525Y266697D02*
X642604D01*
X645143Y264158D01*
Y256540D01*
X637525D01*
X634986Y259079D01*
X637525Y261618D01*
X645143D01*
X650221Y256540D02*
Y266697D01*
X652760D01*
X655300Y264158D01*
Y256540D01*
Y264158D01*
X657839Y266697D01*
X660378Y264158D01*
Y256540D01*
X667995Y266697D02*
X673074D01*
X675613Y264158D01*
Y256540D01*
X667995D01*
X665456Y259079D01*
X667995Y261618D01*
X675613D01*
X680691Y256540D02*
X688309D01*
X690848Y259079D01*
X688309Y261618D01*
X683230D01*
X680691Y264158D01*
X683230Y266697D01*
X690848D01*
X695926Y256540D02*
Y271775D01*
Y261618D02*
X703544Y266697D01*
X695926Y261618D02*
X703544Y256540D01*
X711161D02*
X716240D01*
X713701D01*
Y266697D01*
X711161D01*
X723857Y256540D02*
Y266697D01*
X731475D01*
X734014Y264158D01*
Y256540D01*
X739092Y251462D02*
Y266697D01*
X746710D01*
X749249Y264158D01*
Y259079D01*
X746710Y256540D01*
X739092D01*
X754327Y266697D02*
Y256540D01*
Y261618D01*
X756867Y264158D01*
X759406Y266697D01*
X761945D01*
X772102Y256540D02*
X777180D01*
X779719Y259079D01*
Y264158D01*
X777180Y266697D01*
X772102D01*
X769563Y264158D01*
Y259079D01*
X772102Y256540D01*
X784798D02*
X792415D01*
X794954Y259079D01*
X792415Y261618D01*
X787337D01*
X784798Y264158D01*
X787337Y266697D01*
X794954D01*
X800033Y251462D02*
X802572D01*
X805111Y254001D01*
Y266697D01*
X822885Y256540D02*
X817807D01*
X815268Y259079D01*
Y264158D01*
X817807Y266697D01*
X822885D01*
X825424Y264158D01*
Y261618D01*
X815268D01*
X830503Y256540D02*
Y271775D01*
Y261618D02*
X838120Y266697D01*
X830503Y261618D02*
X838120Y256540D01*
X848277Y269236D02*
Y266697D01*
X845738D01*
X850816D01*
X848277D01*
Y259079D01*
X850816Y256540D01*
X883826D02*
X873669D01*
X883826Y266697D01*
Y269236D01*
X881286Y271775D01*
X876208D01*
X873669Y269236D01*
X888904D02*
X891443Y271775D01*
X896521D01*
X899061Y269236D01*
Y259079D01*
X896521Y256540D01*
X891443D01*
X888904Y259079D01*
Y269236D01*
X904139Y256540D02*
X909217D01*
X906678D01*
Y271775D01*
X904139Y269236D01*
X926992Y271775D02*
X916835D01*
Y264158D01*
X921913Y266697D01*
X924452D01*
X926992Y264158D01*
Y259079D01*
X924452Y256540D01*
X919374D01*
X916835Y259079D01*
D62*
X507760Y722850D02*
G03*
X507760Y722850I-1250J0D01*
G01*
X874530Y864100D02*
G03*
X874530Y864100I-1250J0D01*
G01*
X1117360Y872960D02*
G03*
X1117360Y872960I-1250J0D01*
G01*
X127860Y570100D02*
G03*
X127860Y570100I-1250J0D01*
G01*
X227380Y670840D02*
G03*
X227380Y670840I-1250J0D01*
G01*
X58470D02*
G03*
X58470Y670840I-1250J0D01*
G01*
X1175380Y532370D02*
G03*
X1175380Y532370I-1250J0D01*
G01*
X1121630Y253610D02*
G03*
X1121630Y253610I-1250J0D01*
G01*
X693180Y570070D02*
G03*
X693180Y570070I-1250J0D01*
G01*
X442860Y592630D02*
G03*
X442860Y592630I-1250J0D01*
G01*
X966100Y587550D02*
G03*
X966100Y587550I-1250J0D01*
G01*
D63*
X1146630Y242160D02*
G03*
X1146630Y242160I-3000J0D01*
G01*
X464610Y582880D02*
G03*
X464610Y582880I-3000J0D01*
G01*
X987850Y577800D02*
G03*
X987850Y577800I-3000J0D01*
G01*
D64*
X326230Y1166570D02*
G03*
X326230Y1166570I-10000J0D01*
G01*
X147160D02*
G03*
X147160Y1166570I-10000J0D01*
G01*
X257230Y987570D02*
X375230D01*
X253730Y1008570D02*
X378730Y1018570D01*
X253730D02*
X378730Y1028570D01*
X253730D02*
X378730Y1038570D01*
X253730D02*
X378730Y1048570D01*
X253730D02*
X378730Y1058570D01*
X253730D02*
X378730Y1068570D01*
X253730D02*
X378730Y1078570D01*
X253730D02*
X378730Y1088570D01*
X78160Y987570D02*
X196160D01*
X74660Y1008570D02*
X199660Y1018570D01*
X74660D02*
X199660Y1028570D01*
X74660D02*
X199660Y1038570D01*
X74660D02*
X199660Y1048570D01*
X74660D02*
X199660Y1058570D01*
X74660D02*
X199660Y1068570D01*
X74660D02*
X199660Y1078570D01*
X74660D02*
X199660Y1088570D01*
D65*
X1143615Y735371D02*
D03*
X950575Y739181D02*
D03*
D66*
X991464Y866191D02*
X992276D01*
X991464Y865988D02*
X992480D01*
X989228Y865784D02*
X990041D01*
X991464D02*
X992480D01*
X987603Y865581D02*
X988212D01*
X989228D02*
X990244D01*
X990854D02*
X992480D01*
X987400Y865378D02*
X988416D01*
X989228D02*
X990244D01*
X990854D02*
X993292D01*
X987400Y865175D02*
X988619D01*
X989228D02*
X990244D01*
X990854D02*
X993496D01*
X985368Y864972D02*
X986790D01*
X987400D02*
X988619D01*
X989228D02*
X990244D01*
X990854D02*
X993496D01*
X984961Y864768D02*
X986993D01*
X987400D02*
X988619D01*
X989228D02*
X990448D01*
X990854D02*
X993496D01*
X1003656D02*
X1004265D01*
X984758Y864565D02*
X987196D01*
X987400D02*
X988619D01*
X989228D02*
X990448D01*
X991260D02*
X993292D01*
X994308D02*
X995528D01*
X1003452D02*
X1004468D01*
X984555Y864362D02*
X987400D01*
X987603D02*
X988619D01*
X989228D02*
X990448D01*
X991057D02*
X992276D01*
X994105D02*
X995934D01*
X1003249D02*
X1004672D01*
X984555Y864159D02*
X987400D01*
X987603D02*
X988619D01*
X989432D02*
X990448D01*
X991057D02*
X992276D01*
X993902D02*
X996137D01*
X1002843D02*
X1004672D01*
X984555Y863956D02*
X985774D01*
X986180D02*
X988619D01*
X989432D02*
X990448D01*
X991057D02*
X992276D01*
X993699D02*
X996340D01*
X1002640D02*
X1004672D01*
X982929Y863752D02*
X983742D01*
X984555D02*
X985571D01*
X986384D02*
X988822D01*
X989432D02*
X990448D01*
X991057D02*
X992276D01*
X993699D02*
X996544D01*
X1002436D02*
X1004672D01*
X982726Y863549D02*
X983945D01*
X984555D02*
X985571D01*
X986384D02*
X988822D01*
X989432D02*
X990651D01*
X991057D02*
X992073D01*
X993496D02*
X994918D01*
X995324D02*
X996544D01*
X1002030D02*
X1004468D01*
X982523Y863346D02*
X983945D01*
X984555D02*
X985571D01*
X986587D02*
X988822D01*
X989025D02*
X990651D01*
X991057D02*
X992073D01*
X993496D02*
X996544D01*
X1001827D02*
X1004468D01*
X1004875D02*
X1005281D01*
X982523Y863143D02*
X983945D01*
X984555D02*
X985774D01*
X986587D02*
X990651D01*
X991057D02*
X992073D01*
X993496D02*
X996544D01*
X1001624D02*
X1004265D01*
X1004672D02*
X1005484D01*
X982320Y862940D02*
X983742D01*
X984555D02*
X985774D01*
X986587D02*
X990651D01*
X991057D02*
X993089D01*
X993292D02*
X996544D01*
X997356D02*
X997763D01*
X1001420D02*
X1004265D01*
X1004468D02*
X1005688D01*
X981710Y862736D02*
X983539D01*
X984555D02*
X985977D01*
X986384D02*
X990651D01*
X991057D02*
X996544D01*
X997153D02*
X997966D01*
X1001217D02*
X1005688D01*
X981710Y862533D02*
X983336D01*
X984758D02*
X987603D01*
X988009D02*
X990244D01*
X991057D02*
X994512D01*
X994715D02*
X996544D01*
X996950D02*
X998169D01*
X1001014D02*
X1002640D01*
X1002843D02*
X1005688D01*
X981710Y862330D02*
X983336D01*
X984758D02*
X987603D01*
X988212D02*
X989228D01*
X991260D02*
X994512D01*
X995121D02*
X996340D01*
X996950D02*
X998576D01*
X1001014D02*
X1002436D01*
X1002640D02*
X1005484D01*
X981710Y862127D02*
X983336D01*
X984961D02*
X987400D01*
X991667D02*
X993089D01*
X993496D02*
X996340D01*
X996747D02*
X998779D01*
X1001217D02*
X1002233D01*
X1002640D02*
X1005281D01*
X981710Y861924D02*
X983336D01*
X985164D02*
X987196D01*
X993496D02*
X995934D01*
X996544D02*
X998982D01*
X1001420D02*
X1001827D01*
X1002436D02*
X1004875D01*
X982116Y861720D02*
X983539D01*
X985368D02*
X986790D01*
X993699D02*
X995934D01*
X996340D02*
X999185D01*
X1002436D02*
X1004672D01*
X982320Y861517D02*
X983539D01*
X993902D02*
X995934D01*
X996340D02*
X999388D01*
X1002233D02*
X1004468D01*
X982320Y861314D02*
X983742D01*
X994105D02*
X995731D01*
X996137D02*
X997560D01*
X998169D02*
X999388D01*
X1002233D02*
X1005484D01*
X982523Y861111D02*
X983945D01*
X995934D02*
X997356D01*
X998372D02*
X999185D01*
X1002233D02*
X1005688D01*
X982726Y860908D02*
X984148D01*
X995731D02*
X997153D01*
X998576D02*
X998982D01*
X1002233D02*
X1005891D01*
X982929Y860704D02*
X984352D01*
X995731D02*
X997153D01*
X1002233D02*
X1006094D01*
X983132Y860501D02*
X984352D01*
X995731D02*
X996950D01*
X1002436D02*
X1006094D01*
X983336Y860298D02*
X984352D01*
X995731D02*
X996747D01*
X1002843D02*
X1004875D01*
X1005078D02*
X1006297D01*
X983336Y860095D02*
X983945D01*
X995934D02*
X996544D01*
X1002843D02*
X1005078D01*
X1005281D02*
X1006297D01*
X1002843Y859892D02*
X1005078D01*
X1005281D02*
X1006297D01*
X1002843Y859688D02*
X1003859D01*
X1004062D02*
X1006297D01*
X1002843Y859485D02*
X1003859D01*
X1004265D02*
X1006297D01*
X1002843Y859282D02*
X1004062D01*
X1004265D02*
X1006297D01*
X1002843Y859079D02*
X1006094D01*
X978662Y858876D02*
X979881D01*
X998372D02*
X998576D01*
X1003046D02*
X1005891D01*
X978459Y858672D02*
X980491D01*
X998169D02*
X998779D01*
X1003249D02*
X1005688D01*
X1006094D02*
X1006704D01*
X978256Y858469D02*
X980694D01*
X997763D02*
X998982D01*
X1003249D02*
X1005484D01*
X1005688D02*
X1006907D01*
X978052Y858266D02*
X980897D01*
X997763D02*
X999185D01*
X1003656D02*
X1004672D01*
X1005484D02*
X1006907D01*
X978052Y858063D02*
X981100D01*
X997763D02*
X999185D01*
X1005281D02*
X1006907D01*
X978052Y857860D02*
X981304D01*
X997763D02*
X999185D01*
X1004875D02*
X1006907D01*
X977849Y857656D02*
X979068D01*
X979881D02*
X981304D01*
X997966D02*
X998982D01*
X1004672D02*
X1006704D01*
X977849Y857453D02*
X978865D01*
X980288D02*
X981507D01*
X997966D02*
X998576D01*
X1004468D02*
X1006500D01*
X977849Y857250D02*
X978865D01*
X980491D02*
X981507D01*
X1004062D02*
X1006094D01*
X977849Y857047D02*
X979272D01*
X980288D02*
X981507D01*
X1003859D02*
X1005891D01*
X978052Y856844D02*
X979678D01*
X980084D02*
X981304D01*
X1003859D02*
X1005688D01*
X978052Y856640D02*
X981304D01*
X1003859D02*
X1007110D01*
X978256Y856437D02*
X981304D01*
X999185D02*
X999795D01*
X1003859D02*
X1007313D01*
X978256Y856234D02*
X981100D01*
X998779D02*
X999998D01*
X1003859D02*
X1007313D01*
X977240Y856031D02*
X977646D01*
X978662D02*
X980897D01*
X998576D02*
X999998D01*
X1003859D02*
X1007516D01*
X977036Y855828D02*
X978052D01*
X979068D02*
X980694D01*
X998576D02*
X1000201D01*
X1004468D02*
X1007516D01*
X977036Y855624D02*
X978052D01*
X979475D02*
X980491D01*
X998576D02*
X1000201D01*
X1006094D02*
X1007516D01*
X977036Y855421D02*
X978052D01*
X979475D02*
X980491D01*
X998779D02*
X1000201D01*
X1005688D02*
X1006094D01*
X977036Y855218D02*
X978052D01*
X979475D02*
X980491D01*
X998779D02*
X999795D01*
X1004875D02*
X1006704D01*
X976427Y855015D02*
X976833D01*
X977036D02*
X978052D01*
X979475D02*
X980491D01*
X1004468D02*
X1007110D01*
X976224Y854812D02*
X978459D01*
X979475D02*
X980491D01*
X1004265D02*
X1007313D01*
X976224Y854608D02*
X980491D01*
X1004265D02*
X1007516D01*
X976224Y854405D02*
X980491D01*
X1004265D02*
X1007516D01*
X976224Y854202D02*
X980288D01*
X1004062D02*
X1007516D01*
X976630Y853999D02*
X980288D01*
X1004062D02*
X1005078D01*
X1005484D02*
X1007516D01*
X976833Y853796D02*
X980288D01*
X1004062D02*
X1005078D01*
X1005484D02*
X1007516D01*
X976833Y853592D02*
X977849D01*
X979068D02*
X979678D01*
X1004062D02*
X1005078D01*
X1005484D02*
X1007516D01*
X977240Y853389D02*
X977646D01*
X998982D02*
X1000201D01*
X1004062D02*
X1005281D01*
X1005484D02*
X1007516D01*
X998779Y853186D02*
X1000201D01*
X1004062D02*
X1007516D01*
X978865Y852983D02*
X979678D01*
X998779D02*
X1000201D01*
X1004265D02*
X1007516D01*
X977036Y852780D02*
X979881D01*
X998779D02*
X1000201D01*
X1004265D02*
X1007313D01*
X976630Y852576D02*
X980084D01*
X998779D02*
X1000201D01*
X1004468D02*
X1007110D01*
X976630Y852373D02*
X980084D01*
X998982D02*
X999998D01*
X1004875D02*
X1005281D01*
X1005484D02*
X1006500D01*
X976630Y852170D02*
X979881D01*
X1004062D02*
X1005078D01*
X976630Y851967D02*
X980084D01*
X1003859D02*
X1006907D01*
X976630Y851764D02*
X978052D01*
X978865D02*
X980084D01*
X1003859D02*
X1007313D01*
X979068Y851560D02*
X980084D01*
X1003859D02*
X1007313D01*
X979068Y851357D02*
X980288D01*
X1003859D02*
X1007313D01*
X978256Y851154D02*
X980288D01*
X1004062D02*
X1007313D01*
X976833Y850951D02*
X980288D01*
X1005484D02*
X1007110D01*
X976833Y850748D02*
X980084D01*
X1005891D02*
X1007110D01*
X976833Y850544D02*
X980084D01*
X1006094D02*
X1007110D01*
X976833Y850341D02*
X980084D01*
X1006094D02*
X1007110D01*
X976833Y850138D02*
X980288D01*
X1006094D02*
X1007110D01*
X976833Y849935D02*
X977646D01*
X978662D02*
X980288D01*
X1006094D02*
X1007110D01*
X978052Y849732D02*
X980288D01*
X1006094D02*
X1007110D01*
X977646Y849528D02*
X980288D01*
X1006094D02*
X1007110D01*
X977443Y849325D02*
X980288D01*
X977240Y849122D02*
X980491D01*
X977240Y848919D02*
X980694D01*
X977240Y848716D02*
X979272D01*
X979678D02*
X980694D01*
X977240Y848512D02*
X979272D01*
X979678D02*
X980694D01*
X977240Y848309D02*
X980897D01*
X977240Y848106D02*
X980897D01*
X977240Y847903D02*
X980694D01*
X977443Y847700D02*
X980694D01*
X977443Y847496D02*
X980491D01*
X977646Y847293D02*
X979068D01*
X979272D02*
X979881D01*
X977849Y847090D02*
X978865D01*
X1002233Y846684D02*
X1002640D01*
X1001827Y846480D02*
X1003046D01*
X1001624Y846277D02*
X1003452D01*
X1001624Y846074D02*
X1003859D01*
X1001420Y845871D02*
X1004062D01*
X1004265D02*
X1004875D01*
X1001420Y845668D02*
X1005078D01*
X1001217Y845464D02*
X1002436D01*
X1002640D02*
X1005281D01*
X1001217Y845261D02*
X1002233D01*
X1003046D02*
X1005281D01*
X981913Y845058D02*
X982116D01*
X1001217D02*
X1002233D01*
X1003249D02*
X1005078D01*
X981507Y844855D02*
X982726D01*
X1001217D02*
X1002233D01*
X1003656D02*
X1005281D01*
X981507Y844652D02*
X983132D01*
X1000404D02*
X1000811D01*
X1003656D02*
X1005484D01*
X980897Y844448D02*
X981304D01*
X981507D02*
X983336D01*
X1000201D02*
X1001217D01*
X1003452D02*
X1005484D01*
X980897Y844245D02*
X981507D01*
X981710D02*
X983539D01*
X1000201D02*
X1001420D01*
X1003452D02*
X1004468D01*
X1004672D02*
X1005484D01*
X980694Y844042D02*
X981710D01*
X982320D02*
X983539D01*
X1000201D02*
X1001624D01*
X1003249D02*
X1004468D01*
X980491Y843839D02*
X981913D01*
X982726D02*
X983539D01*
X1000404D02*
X1001827D01*
X1003249D02*
X1004265D01*
X980491Y843636D02*
X982116D01*
X982726D02*
X983742D01*
X1000608D02*
X1002030D01*
X1003452D02*
X1004265D01*
X980491Y843432D02*
X982320D01*
X982726D02*
X984148D01*
X1000811D02*
X1002233D01*
X980288Y843229D02*
X984555D01*
X1001014D02*
X1002436D01*
X980288Y843026D02*
X981304D01*
X981507D02*
X984758D01*
X998169D02*
X998982D01*
X1001217D02*
X1002640D01*
X980288Y842823D02*
X981304D01*
X981710D02*
X984758D01*
X997763D02*
X999185D01*
X1001217D02*
X1003046D01*
X980491Y842620D02*
X981507D01*
X981710D02*
X984555D01*
X985368D02*
X985571D01*
X997763D02*
X999388D01*
X1001420D02*
X1003046D01*
X980491Y842416D02*
X984555D01*
X985164D02*
X985977D01*
X997560D02*
X999592D01*
X1001420D02*
X1002843D01*
X980694Y842213D02*
X984352D01*
X985164D02*
X986180D01*
X996950D02*
X999795D01*
X1001420D02*
X1002640D01*
X980897Y842010D02*
X984352D01*
X984961D02*
X986180D01*
X996747D02*
X999998D01*
X1001217D02*
X1002233D01*
X981100Y841807D02*
X982523D01*
X982929D02*
X984148D01*
X984961D02*
X986993D01*
X995731D02*
X996340D01*
X996747D02*
X998169D01*
X998779D02*
X999998D01*
X1001014D02*
X1002233D01*
X982726Y841604D02*
X984148D01*
X984758D02*
X987603D01*
X995121D02*
X998169D01*
X998982D02*
X1000201D01*
X1000811D02*
X1002233D01*
X982726Y841400D02*
X983945D01*
X984758D02*
X987806D01*
X994715D02*
X998169D01*
X998982D02*
X1000404D01*
X1000811D02*
X1002030D01*
X982726Y841197D02*
X983742D01*
X984555D02*
X985774D01*
X985977D02*
X988009D01*
X994512D02*
X998372D01*
X999185D02*
X1000404D01*
X1001014D02*
X1001827D01*
X982726Y840994D02*
X983742D01*
X984352D02*
X985774D01*
X985977D02*
X988212D01*
X994512D02*
X998576D01*
X999388D02*
X1000608D01*
X982726Y840791D02*
X985571D01*
X986790D02*
X988212D01*
X991667D02*
X993292D01*
X994308D02*
X995934D01*
X996137D02*
X996950D01*
X997356D02*
X998576D01*
X999388D02*
X1000608D01*
X982726Y840588D02*
X985571D01*
X986993D02*
X988212D01*
X991464D02*
X993699D01*
X994308D02*
X995528D01*
X997356D02*
X998779D01*
X999592D02*
X1000608D01*
X982726Y840384D02*
X985368D01*
X986993D02*
X988212D01*
X991464D02*
X993699D01*
X994308D02*
X996950D01*
X997560D02*
X998982D01*
X999795D02*
X1000404D01*
X982929Y840181D02*
X985164D01*
X986993D02*
X988212D01*
X991464D02*
X993699D01*
X994308D02*
X997356D01*
X997763D02*
X998982D01*
X983336Y839978D02*
X985164D01*
X986790D02*
X988009D01*
X991464D02*
X993902D01*
X994308D02*
X997356D01*
X997763D02*
X999185D01*
X983742Y839775D02*
X984961D01*
X986790D02*
X988009D01*
X991667D02*
X991870D01*
X992683D02*
X993902D01*
X994512D02*
X997560D01*
X997966D02*
X999185D01*
X983539Y839572D02*
X984961D01*
X985774D02*
X985977D01*
X986790D02*
X988009D01*
X992683D02*
X993902D01*
X994715D02*
X997560D01*
X998169D02*
X999185D01*
X983539Y839368D02*
X984758D01*
X985571D02*
X986587D01*
X986790D02*
X987806D01*
X992886D02*
X993902D01*
X995324D02*
X995731D01*
X996340D02*
X997560D01*
X998169D02*
X998982D01*
X983336Y839165D02*
X984758D01*
X985368D02*
X987806D01*
X992886D02*
X993902D01*
X995121D02*
X997560D01*
X983336Y838962D02*
X984555D01*
X985368D02*
X987806D01*
X992886D02*
X993902D01*
X994918D02*
X997356D01*
X983539Y838759D02*
X984555D01*
X985368D02*
X988009D01*
X992886D02*
X994105D01*
X994918D02*
X997356D01*
X983742Y838556D02*
X984352D01*
X985774D02*
X988009D01*
X992886D02*
X994512D01*
X995121D02*
X996950D01*
X986384Y838352D02*
X988009D01*
X992073D02*
X994512D01*
X995324D02*
X996544D01*
X986384Y838149D02*
X988009D01*
X991870D02*
X994512D01*
X986384Y837946D02*
X987400D01*
X991870D02*
X994512D01*
X986384Y837743D02*
X987196D01*
X991870D02*
X994105D01*
X991870Y837540D02*
X992886D01*
X993089D02*
X994105D01*
X993089Y837336D02*
X994105D01*
X993089Y837133D02*
X994105D01*
X993292Y836930D02*
X993699D01*
D67*
X1273048Y858012D02*
X1400048D01*
X1273048Y908812D02*
X1400048D01*
X1273048Y858012D02*
Y908812D01*
X1400048Y858012D02*
Y908812D01*
X237490Y839470D02*
X288290D01*
X237490Y788670D02*
Y839470D01*
X288290Y788670D02*
Y839470D01*
X237490Y788670D02*
X288290D01*
X43180Y812800D02*
X93980D01*
X43180Y762000D02*
Y812800D01*
X93980Y762000D02*
Y812800D01*
X43180Y762000D02*
X93980D01*
X395140Y792450D02*
Y820450D01*
X448140D01*
X395140Y792450D02*
X448140D01*
X835660Y21590D02*
Y97790D01*
X810260D02*
X835660D01*
X810260Y21590D02*
Y97790D01*
Y21590D02*
X835660D01*
X899160Y568960D02*
X924560D01*
Y518160D02*
Y568960D01*
X899160Y518160D02*
X924560D01*
X899160D02*
Y568960D01*
X1318875Y627421D02*
X1344275D01*
Y576621D02*
Y627421D01*
X1318875Y576621D02*
X1344275D01*
X1318875D02*
Y627421D01*
X1115675Y623611D02*
X1141075D01*
Y572811D02*
Y623611D01*
X1115675Y572811D02*
X1141075D01*
X1115675D02*
Y623611D01*
X567690Y819150D02*
X643890D01*
X567690Y793750D02*
Y819150D01*
Y793750D02*
X643890D01*
Y819150D01*
X509010Y731600D02*
Y741600D01*
X540010Y731600D02*
Y741600D01*
X509010Y731600D02*
X540010D01*
X509010Y741600D02*
X540010D01*
X873280Y875850D02*
X940280D01*
X873280Y914850D02*
X940280D01*
X873280Y875850D02*
Y914850D01*
X940280Y875850D02*
Y914850D01*
X1119110Y881960D02*
Y890960D01*
X1149110Y881960D02*
Y890960D01*
X1119110Y881960D02*
X1149110D01*
X1119110Y890960D02*
X1149110D01*
X74060Y555100D02*
X124060D01*
X74060Y537100D02*
X124060D01*
Y555100D01*
X74060Y537100D02*
Y555100D01*
X212130Y703340D02*
X217130D01*
X212130Y673340D02*
X217130D01*
X275590Y553720D02*
X326390D01*
X275590Y452120D02*
X326390D01*
X275590D02*
Y553720D01*
X326390Y452120D02*
Y553720D01*
X43220Y703340D02*
X48220D01*
X43220Y673340D02*
X48220D01*
X1180630Y433870D02*
X1280630D01*
X1180630Y533870D02*
X1280630D01*
Y433870D02*
Y533870D01*
X1180630Y433870D02*
Y533870D01*
Y523870D02*
X1190630Y533870D01*
X1282700Y293370D02*
Y344170D01*
X1384300Y293370D02*
Y344170D01*
X1282700Y293370D02*
X1384300D01*
X1282700Y344170D02*
X1384300D01*
X1133630Y149160D02*
Y252160D01*
X1200630Y149160D02*
Y252160D01*
X1133630D02*
X1200630D01*
X1133630Y149160D02*
X1200630D01*
X698430Y565772D02*
X704228Y571570D01*
X698430Y421570D02*
Y571570D01*
X848430Y421570D02*
Y571570D01*
X698430D02*
X848430D01*
X698430Y421570D02*
X848430D01*
X1143847Y298450D02*
X1192530D01*
X1116330D02*
X1192530D01*
X1116330Y349250D02*
X1192530D01*
X1116330Y298450D02*
Y349250D01*
X1192530Y298450D02*
Y349250D01*
X604350Y295950D02*
Y346750D01*
X121750Y295950D02*
Y346750D01*
X604350D01*
X121750Y295950D02*
X604350D01*
X451610Y407880D02*
X546610D01*
X451610Y592880D02*
X546610D01*
Y407880D02*
Y592880D01*
X451610Y407880D02*
Y592880D01*
X1064260Y294640D02*
Y345440D01*
X657860Y294640D02*
Y345440D01*
X1064260D01*
X657860Y294640D02*
X1064260D01*
X457200Y925830D02*
Y976630D01*
Y925830D02*
X482600D01*
Y976630D01*
X457200D02*
X482600D01*
X758190Y913130D02*
X808990D01*
Y963930D01*
X758190Y913130D02*
Y963930D01*
X808990D01*
X457200Y840740D02*
Y891540D01*
Y840740D02*
X482600D01*
Y891540D01*
X457200D02*
X482600D01*
X683260Y805180D02*
X886460D01*
X683260Y754380D02*
X886460D01*
X683260D02*
Y805180D01*
X886460Y754380D02*
Y805180D01*
X92710Y30480D02*
X143510D01*
Y55880D01*
X92710D02*
X143510D01*
X92710Y30480D02*
Y55880D01*
X515620Y59690D02*
X566420D01*
X515620Y34290D02*
Y59690D01*
Y34290D02*
X566420D01*
Y59690D01*
X932180Y10160D02*
Y60960D01*
X1084580D01*
Y10160D02*
Y60960D01*
X932180Y10160D02*
X1084580D01*
X1101090Y949960D02*
Y975360D01*
X1177290D01*
Y949960D02*
Y975360D01*
X1101090Y949960D02*
X1177290D01*
X1421130Y943610D02*
Y969010D01*
X1344930Y943610D02*
X1421130D01*
X1344930D02*
Y969010D01*
X1421130D01*
X947420Y948690D02*
Y974090D01*
X871220Y948690D02*
X947420D01*
X871220D02*
Y974090D01*
X947420D01*
X1183640Y619760D02*
X1232323D01*
X1183640D02*
X1259840D01*
X1183640Y568960D02*
X1259840D01*
Y619760D01*
X1183640Y568960D02*
Y619760D01*
X951250Y653550D02*
Y704350D01*
X468650Y653550D02*
Y704350D01*
X951250D01*
X468650Y653550D02*
X951250D01*
X974850Y402800D02*
X1069850D01*
X974850Y587800D02*
X1069850D01*
Y402800D02*
Y587800D01*
X974850Y402800D02*
Y587800D01*
X1410970Y655320D02*
Y706120D01*
X1004570Y655320D02*
Y706120D01*
X1410970D01*
X1004570Y655320D02*
X1410970D01*
X268230Y1088570D02*
X364230D01*
X253730Y999570D02*
X378730D01*
X390230Y858570D02*
Y999570D01*
X378730D02*
X390230D01*
X378730D02*
Y1088570D01*
X364230D02*
X378730D01*
X364230D02*
Y1207570D01*
X268230D02*
X364230D01*
X268230Y1088570D02*
Y1207570D01*
X253730Y1088570D02*
X268230D01*
X253730Y999570D02*
Y1088570D01*
X242230Y999570D02*
X253730D01*
X242230Y858570D02*
Y999570D01*
Y858570D02*
X390230D01*
X89160Y1088570D02*
X185160D01*
X74660Y999570D02*
X199660D01*
X211160Y858570D02*
Y999570D01*
X199660D02*
X211160D01*
X199660D02*
Y1088570D01*
X185160D02*
X199660D01*
X185160D02*
Y1207570D01*
X89160D02*
X185160D01*
X89160Y1088570D02*
Y1207570D01*
X74660Y1088570D02*
X89160D01*
X74660Y999570D02*
Y1088570D01*
X63160Y999570D02*
X74660D01*
X63160Y858570D02*
Y999570D01*
Y858570D02*
X211160D01*
X1501140Y105410D02*
Y340360D01*
X1450340Y105410D02*
Y340360D01*
Y86360D02*
Y105410D01*
Y86360D02*
X1501140D01*
Y105410D01*
X1450340Y340360D02*
X1501140D01*
X5400Y327800D02*
X56200D01*
X5400Y454800D02*
X56200D01*
Y327800D02*
Y454800D01*
X5400Y327800D02*
Y454800D01*
X916285Y417871D02*
Y468671D01*
Y417871D02*
X941685D01*
Y468671D01*
X916285D02*
X941685D01*
X584450Y6400D02*
X603450D01*
X584450Y29400D02*
X603450D01*
X584450Y6400D02*
Y29400D01*
X645450Y10400D02*
Y25400D01*
X623450Y6400D02*
X640450D01*
Y29400D02*
X645450Y25400D01*
X640450Y6400D02*
X645450Y10400D01*
X623450Y29400D02*
X640450D01*
X674550Y6200D02*
X693550D01*
X674550Y29200D02*
X693550D01*
X674550Y6200D02*
Y29200D01*
X735551Y10200D02*
Y25200D01*
X713550Y6200D02*
X730550D01*
Y29200D02*
X735551Y25200D01*
X730550Y6200D02*
X735551Y10200D01*
X713550Y29200D02*
X730550D01*
D68*
X680304Y181168D02*
X681828D01*
X680812Y180660D02*
X681320D01*
X680304Y181676D02*
X681320D01*
X686908D02*
X687416D01*
X682844Y181168D02*
X706720D01*
X891530Y212376D02*
X916930D01*
X942838D02*
X968746D01*
X995670D02*
X1021578D01*
X1047994D02*
X1073902D01*
X890006Y211868D02*
X918454D01*
X940806D02*
X970778D01*
X993638D02*
X1023610D01*
X1045962D02*
X1075934D01*
X888482Y211360D02*
X918962D01*
X939790D02*
X971794D01*
X992622D02*
X1024626D01*
X1044946D02*
X1076950D01*
X887466Y210852D02*
X919978D01*
X938774D02*
X972302D01*
X991606D02*
X1025134D01*
X1043930D02*
X1077458D01*
X886958Y210344D02*
X920486D01*
X937758D02*
X973318D01*
X990590D02*
X1026150D01*
X1042914D02*
X1078474D01*
X885942Y209836D02*
X920994D01*
X937250D02*
X973826D01*
X990082D02*
X1026658D01*
X1042406D02*
X1078982D01*
X885434Y209328D02*
X921502D01*
X936742D02*
X974334D01*
X989574D02*
X1027166D01*
X1041898D02*
X1079490D01*
X884418Y208820D02*
X921502D01*
X935726D02*
X974334D01*
X988558D02*
X1027166D01*
X1040882D02*
X1079490D01*
X883910Y208312D02*
X922010D01*
X935218D02*
X974842D01*
X988050D02*
X1027674D01*
X1040374D02*
X1079998D01*
X883402Y207804D02*
X922518D01*
X934710D02*
X975350D01*
X987542D02*
X1028182D01*
X1039866D02*
X1080506D01*
X882894Y207296D02*
X922518D01*
X934202D02*
X975350D01*
X987034D02*
X1028182D01*
X1039358D02*
X1080506D01*
X882386Y206788D02*
X923026D01*
X933694D02*
X975350D01*
X986526D02*
X1028182D01*
X1038850D02*
X1080506D01*
X881878Y206280D02*
X923026D01*
X933186D02*
X975858D01*
X986018D02*
X1028690D01*
X1038342D02*
X1081014D01*
X881370Y205772D02*
X923534D01*
X933186D02*
X975858D01*
X986018D02*
X1028690D01*
X1038342D02*
X1081014D01*
X880862Y205264D02*
X923534D01*
X932678D02*
X975858D01*
X985510D02*
X1028690D01*
X1037834D02*
X1081014D01*
X880354Y204756D02*
X923534D01*
X932170D02*
X975858D01*
X985002D02*
X1028690D01*
X1037326D02*
X1081014D01*
X879846Y204248D02*
X924042D01*
X931662D02*
X976366D01*
X984494D02*
X1029198D01*
X1036818D02*
X1081522D01*
X879846Y203740D02*
X924042D01*
X931662D02*
X976366D01*
X984494D02*
X1029198D01*
X1036818D02*
X1081522D01*
X485740Y210632D02*
X486756D01*
X879338Y203232D02*
X924042D01*
X931154D02*
X976366D01*
X983986D02*
X1029198D01*
X1036310D02*
X1081522D01*
X485232Y210124D02*
X486248D01*
X878830Y202724D02*
X924042D01*
X930646D02*
X976366D01*
X983478D02*
X1029198D01*
X1035802D02*
X1081522D01*
X484724Y209616D02*
X485740D01*
X487264D02*
X488280D01*
X878830Y202216D02*
X924042D01*
X930646D02*
X976366D01*
X983478D02*
X1029198D01*
X1035802D02*
X1081522D01*
X484724Y209108D02*
X485740D01*
X486756D02*
X487772D01*
X878322Y201708D02*
X924042D01*
X930138D02*
X976366D01*
X982970D02*
X1029198D01*
X1035294D02*
X1081522D01*
X484216Y208600D02*
X485232D01*
X485740D02*
X487264D01*
X878322Y201200D02*
X924550D01*
X930138D02*
X976366D01*
X982970D02*
X1029198D01*
X1035294D02*
X1081522D01*
X483708Y208092D02*
X484724D01*
X485232D02*
X486756D01*
X877814Y200692D02*
X924550D01*
X930138D02*
X976366D01*
X982970D02*
X1029198D01*
X1035294D02*
X1081522D01*
X483200Y207584D02*
X484216D01*
X484724D02*
X485740D01*
X877814Y200184D02*
X924550D01*
X929630D02*
X976366D01*
X982462D02*
X1029198D01*
X1034786D02*
X1081522D01*
X482692Y207076D02*
X485232D01*
X877814Y199676D02*
X924550D01*
X929630D02*
X976366D01*
X982462D02*
X1029198D01*
X1034786D02*
X1081522D01*
X479644Y206568D02*
X480152D01*
X482184D02*
X484724D01*
X877306Y199168D02*
X924550D01*
X929122D02*
X976366D01*
X981954D02*
X1029198D01*
X1034278D02*
X1081522D01*
X478628Y206060D02*
X480152D01*
X481676D02*
X484216D01*
X478120Y205552D02*
X479644D01*
X481168D02*
X483708D01*
X477612Y205044D02*
X479136D01*
X480152D02*
X483200D01*
X477104Y204536D02*
X478628D01*
X479644D02*
X482692D01*
X747868D02*
X754472D01*
X476596Y204028D02*
X478120D01*
X479136D02*
X483200D01*
X744312D02*
X754980D01*
X476088Y203520D02*
X477612D01*
X478628D02*
X482692D01*
X623408D02*
X628996D01*
X741264D02*
X755488D01*
X475072Y203012D02*
X477104D01*
X478120D02*
X482184D01*
X621884D02*
X629504D01*
X738216D02*
X755996D01*
X474564Y202504D02*
X477104D01*
X477612D02*
X481676D01*
X620868D02*
X629504D01*
X683352D02*
X684876D01*
X685892D02*
X688940D01*
X735676D02*
X756504D01*
X474056Y201996D02*
X476596D01*
X477104D02*
X481168D01*
X620360D02*
X630012D01*
X683352D02*
X690972D01*
X732628D02*
X734152D01*
X735168D02*
X756504D01*
X474056Y201488D02*
X476088D01*
X476596D02*
X480660D01*
X481168D02*
X482692D01*
X484724D02*
X485232D01*
X531968D02*
X538572D01*
X619852D02*
X630012D01*
X683352D02*
X692496D01*
X732628D02*
X757012D01*
X473548Y200980D02*
X475580D01*
X476088D02*
X480152D01*
X480660D02*
X482184D01*
X484216D02*
X485232D01*
X513172D02*
X539080D01*
X567528D02*
X578196D01*
X619344D02*
X630012D01*
X679796D02*
X694020D01*
X734152D02*
X757012D01*
X891022Y193580D02*
X922518D01*
X928106D02*
X947410D01*
X956046D02*
X974842D01*
X980938D02*
X1000242D01*
X1008878D02*
X1027674D01*
X1033262D02*
X1052566D01*
X1061202D02*
X1079998D01*
X473040Y200472D02*
X482184D01*
X483708D02*
X484724D01*
X507076D02*
X537556D01*
X564988D02*
X580736D01*
X614264D02*
X638140D01*
X677764D02*
X695544D01*
X733644D02*
X757012D01*
X891022Y193072D02*
X922518D01*
X928106D02*
X947410D01*
X955538D02*
X974842D01*
X980938D02*
X1000242D01*
X1008370D02*
X1027674D01*
X1033262D02*
X1052566D01*
X1060694D02*
X1079998D01*
X472532Y199964D02*
X482184D01*
X483200D02*
X484216D01*
X501488D02*
X502504D01*
X503012D02*
X538064D01*
X563464D02*
X582260D01*
X608676D02*
X642712D01*
X676240D02*
X696560D01*
X732120D02*
X757520D01*
X890514Y192564D02*
X922010D01*
X928106D02*
X947410D01*
X955538D02*
X974842D01*
X980938D02*
X1000242D01*
X1008370D02*
X1027674D01*
X1033262D02*
X1052566D01*
X1060694D02*
X1079998D01*
X443068Y199456D02*
X445100D01*
X472024D02*
X481676D01*
X482692D02*
X483708D01*
X500472D02*
X538064D01*
X561940D02*
X582768D01*
X606136D02*
X645252D01*
X674716D02*
X697576D01*
X725516D02*
X727040D01*
X729580D02*
X730596D01*
X731612D02*
X757520D01*
X890514Y192056D02*
X922010D01*
X927598D02*
X947410D01*
X955538D02*
X974334D01*
X980430D02*
X1000242D01*
X1008370D02*
X1027166D01*
X1032754D02*
X1052566D01*
X1060694D02*
X1079490D01*
X442560Y198948D02*
X446116D01*
X471516D02*
X481676D01*
X482184D02*
X483200D01*
X499964D02*
X536032D01*
X560924D02*
X582768D01*
X604612D02*
X647284D01*
X673700D02*
X698592D01*
X725008D02*
X728564D01*
X729072D02*
X731104D01*
X731612D02*
X757520D01*
X890514Y191548D02*
X921502D01*
X927598D02*
X946902D01*
X955030D02*
X974334D01*
X980430D02*
X999734D01*
X1007862D02*
X1027166D01*
X1032754D02*
X1052058D01*
X1060186D02*
X1079490D01*
X442560Y198440D02*
X446624D01*
X471008D02*
X481168D01*
X481676D02*
X482692D01*
X483200D02*
X484216D01*
X499964D02*
X535524D01*
X559400D02*
X582260D01*
X582768D02*
X584292D01*
X604104D02*
X648808D01*
X672176D02*
X699100D01*
X725008D02*
X730088D01*
X732120D02*
X757520D01*
X890514Y191040D02*
X920994D01*
X927598D02*
X946902D01*
X955030D02*
X974334D01*
X980430D02*
X999734D01*
X1007862D02*
X1027166D01*
X1032754D02*
X1052058D01*
X1060186D02*
X1079490D01*
X442052Y197932D02*
X447132D01*
X470500D02*
X480660D01*
X481168D02*
X482184D01*
X482692D02*
X483708D01*
X499456D02*
X534508D01*
X558384D02*
X584800D01*
X603596D02*
X649824D01*
X671160D02*
X699608D01*
X725008D02*
X730596D01*
X732628D02*
X757520D01*
X890006Y190532D02*
X920994D01*
X927090D02*
X946902D01*
X955030D02*
X974334D01*
X979922D02*
X999734D01*
X1007862D02*
X1027166D01*
X1032246D02*
X1052058D01*
X1060186D02*
X1079490D01*
X442052Y197424D02*
X447640D01*
X469992D02*
X481676D01*
X482184D02*
X483708D01*
X499456D02*
X533492D01*
X557876D02*
X584292D01*
X603596D02*
X650840D01*
X670652D02*
X700116D01*
X725008D02*
X731612D01*
X732120D02*
X758028D01*
X890006Y190024D02*
X920486D01*
X927090D02*
X946902D01*
X955030D02*
X973826D01*
X979922D02*
X999734D01*
X1007862D02*
X1026658D01*
X1032246D02*
X1052058D01*
X1060186D02*
X1078982D01*
X442052Y196916D02*
X448148D01*
X469484D02*
X483200D01*
X498948D02*
X532476D01*
X556860D02*
X584292D01*
X603088D02*
X650332D01*
X651348D02*
X653380D01*
X669636D02*
X700624D01*
X724500D02*
X732120D01*
X733136D02*
X734152D01*
X739232D02*
X758028D01*
X890006Y189516D02*
X919978D01*
X927090D02*
X946394D01*
X954522D02*
X973826D01*
X979922D02*
X999226D01*
X1007354D02*
X1026658D01*
X1032246D02*
X1051550D01*
X1059678D02*
X1078982D01*
X442052Y196408D02*
X448656D01*
X468976D02*
X482692D01*
X498440D02*
X531460D01*
X555844D02*
X583784D01*
X602580D02*
X646776D01*
X649316D02*
X654904D01*
X668620D02*
X701132D01*
X724500D02*
X732628D01*
X744820D02*
X757520D01*
X889498Y189008D02*
X919470D01*
X927090D02*
X946394D01*
X954522D02*
X973826D01*
X979922D02*
X999226D01*
X1007354D02*
X1026658D01*
X1032246D02*
X1051550D01*
X1059678D02*
X1078982D01*
X442052Y195900D02*
X448656D01*
X468468D02*
X482184D01*
X498440D02*
X530444D01*
X555336D02*
X581752D01*
X602580D02*
X649316D01*
X652364D02*
X654396D01*
X668112D02*
X682844D01*
X683352D02*
X701640D01*
X724500D02*
X733136D01*
X744820D02*
X757520D01*
X889498Y188500D02*
X918962D01*
X926582D02*
X946394D01*
X954522D02*
X973826D01*
X979414D02*
X999226D01*
X1007354D02*
X1026658D01*
X1031738D02*
X1051550D01*
X1059678D02*
X1078982D01*
X442052Y195392D02*
X449164D01*
X467960D02*
X471516D01*
X472024D02*
X482184D01*
X497932D02*
X528920D01*
X554320D02*
X580736D01*
X602580D02*
X651856D01*
X667096D02*
X681828D01*
X683352D02*
X702148D01*
X723992D02*
X733136D01*
X744820D02*
X757520D01*
X889498Y187992D02*
X918454D01*
X926582D02*
X945886D01*
X954522D02*
X973318D01*
X979414D02*
X998718D01*
X1007354D02*
X1026150D01*
X1031738D02*
X1051042D01*
X1059678D02*
X1078474D01*
X442052Y194884D02*
X449164D01*
X467452D02*
X481676D01*
X497424D02*
X526888D01*
X553812D02*
X579720D01*
X602072D02*
X651856D01*
X666588D02*
X680812D01*
X681828D02*
X702148D01*
X723992D02*
X733136D01*
X744312D02*
X757520D01*
X889498Y187484D02*
X918454D01*
X926582D02*
X945886D01*
X954014D02*
X973318D01*
X979414D02*
X998718D01*
X1006846D02*
X1026150D01*
X1031738D02*
X1051042D01*
X1059170D02*
X1078474D01*
X442052Y194376D02*
X449672D01*
X466944D02*
X481168D01*
X497424D02*
X524856D01*
X552796D02*
X568036D01*
X601056D02*
X646268D01*
X665572D02*
X679796D01*
X681828D02*
X702656D01*
X723992D02*
X733136D01*
X744312D02*
X757520D01*
X888990Y186976D02*
X917438D01*
X926582D02*
X945886D01*
X954014D02*
X973318D01*
X979414D02*
X998718D01*
X1006846D02*
X1026150D01*
X1031738D02*
X1051042D01*
X1059170D02*
X1078474D01*
X442052Y193868D02*
X449672D01*
X466436D02*
X480660D01*
X496916D02*
X521808D01*
X552288D02*
X566512D01*
X601056D02*
X646268D01*
X665064D02*
X678780D01*
X683352D02*
X702656D01*
X723484D02*
X733136D01*
X743804D02*
X757520D01*
X827522Y186468D02*
X864606D01*
X888990D02*
X916930D01*
X926074D02*
X945886D01*
X954014D02*
X973318D01*
X978906D02*
X998718D01*
X1006846D02*
X1026150D01*
X1031230D02*
X1051042D01*
X1059170D02*
X1078474D01*
X442052Y193360D02*
X449672D01*
X465928D02*
X480152D01*
X496916D02*
X517744D01*
X551780D02*
X565496D01*
X600548D02*
X647792D01*
X664556D02*
X677764D01*
X682336D02*
X702656D01*
X723484D02*
X733136D01*
X743296D02*
X757012D01*
X827522Y185960D02*
X864606D01*
X888990D02*
X916422D01*
X926074D02*
X945378D01*
X953506D02*
X972810D01*
X978906D02*
X998210D01*
X1006338D02*
X1025642D01*
X1031230D02*
X1050534D01*
X1058662D02*
X1077966D01*
X442052Y192852D02*
X449672D01*
X465420D02*
X479644D01*
X496408D02*
X512664D01*
X551272D02*
X564480D01*
X600548D02*
X647792D01*
X664048D02*
X677256D01*
X682336D02*
X703164D01*
X722976D02*
X733136D01*
X743296D02*
X757012D01*
X827014Y185452D02*
X864098D01*
X888990D02*
X916422D01*
X926074D02*
X945378D01*
X953506D02*
X972810D01*
X978906D02*
X998210D01*
X1006338D02*
X1025642D01*
X1031230D02*
X1050534D01*
X1058662D02*
X1077966D01*
X441544Y192344D02*
X450180D01*
X464912D02*
X468976D01*
X469484D02*
X479136D01*
X495900D02*
X507584D01*
X550256D02*
X563464D01*
X602072D02*
X646776D01*
X663540D02*
X676240D01*
X682844D02*
X703164D01*
X722976D02*
X733136D01*
X742788D02*
X756504D01*
X827014Y184944D02*
X864098D01*
X888482D02*
X916930D01*
X925566D02*
X945378D01*
X953506D02*
X972810D01*
X978398D02*
X998210D01*
X1006338D02*
X1025642D01*
X1030722D02*
X1050534D01*
X1058662D02*
X1077966D01*
X441544Y191836D02*
X450180D01*
X464404D02*
X478628D01*
X495900D02*
X506568D01*
X549748D02*
X562956D01*
X603088D02*
X644744D01*
X645252D02*
X648808D01*
X663032D02*
X675732D01*
X684368D02*
X703164D01*
X722468D02*
X733136D01*
X742788D02*
X756504D01*
X827014Y184436D02*
X864098D01*
X888482D02*
X916930D01*
X925566D02*
X944870D01*
X953506D02*
X972810D01*
X978398D02*
X997702D01*
X1006338D02*
X1025642D01*
X1030722D02*
X1050026D01*
X1058662D02*
X1077966D01*
X441544Y191328D02*
X450180D01*
X463896D02*
X478120D01*
X495392D02*
X506060D01*
X549240D02*
X562448D01*
X604612D02*
X609184D01*
X612740D02*
X627472D01*
X633060D02*
X639156D01*
X662524D02*
X675224D01*
X685384D02*
X687416D01*
X688940D02*
X703672D01*
X722468D02*
X733136D01*
X742280D02*
X755996D01*
X826506Y183928D02*
X863590D01*
X888482D02*
X917438D01*
X925566D02*
X944870D01*
X952998D02*
X972302D01*
X978398D02*
X997702D01*
X1005830D02*
X1025134D01*
X1030722D02*
X1050026D01*
X1058154D02*
X1077458D01*
X441544Y190820D02*
X450180D01*
X463388D02*
X477612D01*
X495392D02*
X506060D01*
X548732D02*
X561432D01*
X612740D02*
X625440D01*
X636616D02*
X638648D01*
X662016D02*
X674716D01*
X689956D02*
X703672D01*
X722468D02*
X733136D01*
X741772D02*
X755488D01*
X826506Y183420D02*
X863590D01*
X888482D02*
X917438D01*
X925566D02*
X944870D01*
X952998D02*
X972302D01*
X978398D02*
X997702D01*
X1005830D02*
X1025134D01*
X1030722D02*
X1050026D01*
X1058154D02*
X1077458D01*
X441544Y190312D02*
X450180D01*
X462880D02*
X477104D01*
X494884D02*
X505552D01*
X548224D02*
X560924D01*
X612232D02*
X625440D01*
X661508D02*
X674208D01*
X690464D02*
X703672D01*
X721960D02*
X732628D01*
X741772D02*
X755488D01*
X826506Y182912D02*
X863590D01*
X887974D02*
X917946D01*
X925058D02*
X944870D01*
X952998D02*
X972302D01*
X977890D02*
X997702D01*
X1005830D02*
X1025134D01*
X1030214D02*
X1050026D01*
X1058154D02*
X1077458D01*
X441544Y189804D02*
X450180D01*
X462372D02*
X476596D01*
X494376D02*
X505552D01*
X548224D02*
X560416D01*
X612232D02*
X624932D01*
X661000D02*
X673700D01*
X690972D02*
X703672D01*
X721960D02*
X732628D01*
X741264D02*
X754980D01*
X826506Y182404D02*
X863590D01*
X887974D02*
X917946D01*
X925058D02*
X944362D01*
X952998D02*
X972302D01*
X977890D02*
X997194D01*
X1005830D02*
X1025134D01*
X1030214D02*
X1049518D01*
X1058154D02*
X1077458D01*
X441544Y189296D02*
X450180D01*
X462372D02*
X476596D01*
X494376D02*
X505044D01*
X547716D02*
X559908D01*
X611724D02*
X624424D01*
X660492D02*
X673192D01*
X690972D02*
X703672D01*
X721960D02*
X732628D01*
X740756D02*
X754472D01*
X825998Y181896D02*
X863082D01*
X887974D02*
X917946D01*
X925058D02*
X944362D01*
X952490D02*
X971794D01*
X977890D02*
X997194D01*
X1005322D02*
X1024626D01*
X1030214D02*
X1049518D01*
X1057646D02*
X1076950D01*
X441544Y188788D02*
X450180D01*
X461864D02*
X476088D01*
X493868D02*
X505044D01*
X547208D02*
X559400D01*
X611216D02*
X624424D01*
X660492D02*
X672684D01*
X691480D02*
X703672D01*
X721452D02*
X732628D01*
X740248D02*
X753964D01*
X825998Y181388D02*
X863082D01*
X887466D02*
X918454D01*
X925058D02*
X944362D01*
X952490D02*
X971794D01*
X977890D02*
X997194D01*
X1005322D02*
X1024626D01*
X1030214D02*
X1049518D01*
X1057646D02*
X1076950D01*
X441544Y188280D02*
X450180D01*
X461356D02*
X475580D01*
X493868D02*
X504536D01*
X546700D02*
X558892D01*
X611216D02*
X623916D01*
X659984D02*
X672176D01*
X691480D02*
X703672D01*
X721452D02*
X732120D01*
X739740D02*
X753456D01*
X825998Y180880D02*
X863082D01*
X887466D02*
X918454D01*
X924550D02*
X943854D01*
X952490D02*
X971794D01*
X977382D02*
X996686D01*
X1005322D02*
X1024626D01*
X1029706D02*
X1049010D01*
X1057646D02*
X1076950D01*
X441544Y187772D02*
X450180D01*
X460848D02*
X475072D01*
X493360D02*
X504536D01*
X546192D02*
X558384D01*
X610708D02*
X623916D01*
X659476D02*
X671668D01*
X691480D02*
X703672D01*
X721452D02*
X732120D01*
X739232D02*
X752948D01*
X825998Y180372D02*
X863082D01*
X887466D02*
X918454D01*
X924550D02*
X943854D01*
X951982D02*
X971286D01*
X977382D02*
X996686D01*
X1004814D02*
X1024118D01*
X1029706D02*
X1049010D01*
X1057138D02*
X1076442D01*
X441544Y187264D02*
X450180D01*
X460340D02*
X474564D01*
X493360D02*
X504536D01*
X546192D02*
X558384D01*
X610708D02*
X623408D01*
X658968D02*
X671160D01*
X691480D02*
X703672D01*
X720944D02*
X732120D01*
X738724D02*
X752440D01*
X825490Y179864D02*
X862574D01*
X887466D02*
X918454D01*
X924550D02*
X943854D01*
X951982D02*
X971286D01*
X977382D02*
X996686D01*
X1004814D02*
X1024118D01*
X1029706D02*
X1049010D01*
X1057138D02*
X1076442D01*
X441036Y186756D02*
X450180D01*
X459832D02*
X474564D01*
X492852D02*
X504028D01*
X545684D02*
X557876D01*
X610200D02*
X623408D01*
X658968D02*
X671160D01*
X691480D02*
X703672D01*
X720944D02*
X731612D01*
X738216D02*
X751424D01*
X825490Y179356D02*
X862574D01*
X886958D02*
X918454D01*
X924042D02*
X943854D01*
X951982D02*
X971286D01*
X976874D02*
X996686D01*
X1004814D02*
X1024118D01*
X1029198D02*
X1049010D01*
X1057138D02*
X1076442D01*
X441036Y186248D02*
X450180D01*
X459324D02*
X474056D01*
X492852D02*
X511140D01*
X516220D02*
X524856D01*
X545176D02*
X557368D01*
X610200D02*
X622900D01*
X658460D02*
X670652D01*
X691480D02*
X703672D01*
X720944D02*
X731612D01*
X737200D02*
X750916D01*
X825490Y178848D02*
X862574D01*
X896102D02*
X918454D01*
X924042D02*
X943346D01*
X951982D02*
X971286D01*
X976874D02*
X996178D01*
X1004814D02*
X1024118D01*
X1029198D02*
X1048502D01*
X1057138D02*
X1076442D01*
X441036Y185740D02*
X450180D01*
X458816D02*
X473548D01*
X492344D02*
X531968D01*
X545176D02*
X557368D01*
X610200D02*
X622900D01*
X658460D02*
X670652D01*
X691480D02*
X703672D01*
X720436D02*
X731104D01*
X736692D02*
X749900D01*
X824982Y178340D02*
X862066D01*
X899150D02*
X918454D01*
X924042D02*
X943346D01*
X951474D02*
X970778D01*
X976874D02*
X996178D01*
X1004306D02*
X1023610D01*
X1029198D02*
X1048502D01*
X1056630D02*
X1075934D01*
X441036Y185232D02*
X450180D01*
X458308D02*
X473040D01*
X492344D02*
X519268D01*
X520792D02*
X522824D01*
X524348D02*
X528412D01*
X544668D02*
X556860D01*
X609692D02*
X622392D01*
X657952D02*
X670144D01*
X691480D02*
X703672D01*
X720436D02*
X731104D01*
X735676D02*
X749392D01*
X824982Y177832D02*
X862066D01*
X900674D02*
X918454D01*
X924042D02*
X943346D01*
X951474D02*
X970778D01*
X976874D02*
X996178D01*
X1004306D02*
X1023610D01*
X1029198D02*
X1048502D01*
X1056630D02*
X1075934D01*
X441036Y184724D02*
X450180D01*
X457800D02*
X473040D01*
X491836D02*
X526888D01*
X544160D02*
X556860D01*
X609692D02*
X622392D01*
X657952D02*
X670144D01*
X691480D02*
X703672D01*
X720436D02*
X731104D01*
X734152D02*
X748376D01*
X824982Y177324D02*
X862066D01*
X901182D02*
X918454D01*
X923534D02*
X942838D01*
X951474D02*
X970778D01*
X976366D02*
X995670D01*
X1004306D02*
X1023610D01*
X1028690D02*
X1047994D01*
X1056630D02*
X1075934D01*
X441036Y184216D02*
X450180D01*
X457292D02*
X472532D01*
X491836D02*
X527904D01*
X544160D02*
X556352D01*
X609184D02*
X621884D01*
X657444D02*
X669636D01*
X691480D02*
X703672D01*
X719928D02*
X731104D01*
X732628D02*
X747360D01*
X824982Y176816D02*
X862066D01*
X901690D02*
X918454D01*
X923534D02*
X942838D01*
X951474D02*
X970778D01*
X976366D02*
X995670D01*
X1004306D02*
X1023610D01*
X1028690D02*
X1047994D01*
X1056630D02*
X1075934D01*
X441036Y183708D02*
X450180D01*
X457292D02*
X472024D01*
X491328D02*
X527904D01*
X543652D02*
X556352D01*
X609184D02*
X621884D01*
X657444D02*
X669636D01*
X691480D02*
X703672D01*
X719928D02*
X746344D01*
X824474Y176308D02*
X861558D01*
X901690D02*
X918454D01*
X923534D02*
X942838D01*
X950966D02*
X970270D01*
X976366D02*
X995670D01*
X1003798D02*
X1023102D01*
X1028690D02*
X1047994D01*
X1056122D02*
X1075426D01*
X441036Y183200D02*
X450180D01*
X456784D02*
X471516D01*
X491328D02*
X527904D01*
X543652D02*
X555844D01*
X608676D02*
X621376D01*
X656936D02*
X669128D01*
X691480D02*
X703672D01*
X719928D02*
X745328D01*
X901690Y175800D02*
X918454D01*
X923534D02*
X942838D01*
X950966D02*
X970270D01*
X976366D02*
X995670D01*
X1003798D02*
X1023102D01*
X1028690D02*
X1047994D01*
X1056122D02*
X1075426D01*
X441036Y182692D02*
X450180D01*
X456276D02*
X471516D01*
X490820D02*
X527396D01*
X543652D02*
X555844D01*
X608676D02*
X621376D01*
X656936D02*
X669128D01*
X691480D02*
X703672D01*
X719420D02*
X743804D01*
X901690Y175292D02*
X918454D01*
X923534D02*
X942838D01*
X950966D02*
X970270D01*
X976366D02*
X995670D01*
X1003798D02*
X1023102D01*
X1028690D02*
X1047994D01*
X1056122D02*
X1075426D01*
X441036Y182184D02*
X450180D01*
X455768D02*
X471008D01*
X490820D02*
X531460D01*
X543144D02*
X555336D01*
X608168D02*
X621376D01*
X656936D02*
X668620D01*
X690972D02*
X703164D01*
X719420D02*
X742788D01*
X901690Y174784D02*
X918454D01*
X923026D02*
X942838D01*
X950458D02*
X969762D01*
X975858D02*
X995670D01*
X1003290D02*
X1022594D01*
X1028182D02*
X1047994D01*
X1055614D02*
X1074918D01*
X441036Y181676D02*
X450180D01*
X455768D02*
X470500D01*
X490312D02*
X530952D01*
X543144D02*
X555336D01*
X608168D02*
X620868D01*
X656428D02*
X668620D01*
X689956D02*
X703164D01*
X719420D02*
X741264D01*
X901690Y174276D02*
X917946D01*
X923026D02*
X942838D01*
X949950D02*
X969762D01*
X975858D02*
X995670D01*
X1002782D02*
X1022594D01*
X1028182D02*
X1047994D01*
X1055106D02*
X1074918D01*
X441036Y181168D02*
X450180D01*
X455260D02*
X469992D01*
X489804D02*
X530952D01*
X542636D02*
X554828D01*
X607660D02*
X620868D01*
X656428D02*
X668620D01*
X718912D02*
X740248D01*
X871210Y173768D02*
X889498D01*
X901182D02*
X917946D01*
X923026D02*
X943346D01*
X949442D02*
X969762D01*
X975858D02*
X996178D01*
X1002274D02*
X1022594D01*
X1028182D02*
X1048502D01*
X1054598D02*
X1074918D01*
X441036Y180660D02*
X449672D01*
X454752D02*
X469992D01*
X489804D02*
X528412D01*
X542636D02*
X554828D01*
X607660D02*
X620360D01*
X656428D02*
X668112D01*
X690464D02*
X703164D01*
X718912D02*
X738724D01*
X870702Y173260D02*
X889498D01*
X900674D02*
X917946D01*
X923026D02*
X943854D01*
X948934D02*
X969254D01*
X975858D02*
X996686D01*
X1001766D02*
X1022086D01*
X1028182D02*
X1049010D01*
X1054090D02*
X1074410D01*
X441036Y180152D02*
X449672D01*
X454244D02*
X469484D01*
X489296D02*
X528920D01*
X542128D02*
X554828D01*
X607660D02*
X620360D01*
X655920D02*
X668112D01*
X690464D02*
X702656D01*
X718912D02*
X736692D01*
X870702Y172752D02*
X889498D01*
X900166D02*
X917946D01*
X923026D02*
X945378D01*
X947410D02*
X969254D01*
X975858D02*
X998210D01*
X1000242D02*
X1022086D01*
X1028182D02*
X1050534D01*
X1052566D02*
X1074410D01*
X441036Y179644D02*
X449672D01*
X453736D02*
X468976D01*
X489296D02*
X528920D01*
X542128D02*
X554828D01*
X607152D02*
X619852D01*
X655920D02*
X668112D01*
X690464D02*
X702656D01*
X718404D02*
X735676D01*
X870702Y172244D02*
X889498D01*
X899658D02*
X917438D01*
X923026D02*
X969254D01*
X975858D02*
X1022086D01*
X1028182D02*
X1074410D01*
X441036Y179136D02*
X449672D01*
X453736D02*
X468976D01*
X488788D02*
X525364D01*
X542128D02*
X554320D01*
X607152D02*
X619852D01*
X655920D02*
X668112D01*
X690464D02*
X702656D01*
X718404D02*
X735676D01*
X870702Y171736D02*
X889498D01*
X899150D02*
X917438D01*
X923026D02*
X968746D01*
X975858D02*
X1021578D01*
X1028182D02*
X1073902D01*
X441036Y178628D02*
X449672D01*
X453228D02*
X468468D01*
X488788D02*
X522824D01*
X542128D02*
X554320D01*
X606644D02*
X619344D01*
X655920D02*
X667604D01*
X689956D02*
X702148D01*
X718404D02*
X736184D01*
X870702Y171228D02*
X889498D01*
X898134D02*
X917438D01*
X923026D02*
X968746D01*
X975858D02*
X1021578D01*
X1028182D02*
X1073902D01*
X441036Y178120D02*
X449672D01*
X452720D02*
X467960D01*
X488280D02*
X516220D01*
X541620D02*
X554320D01*
X606644D02*
X619344D01*
X655412D02*
X667604D01*
X689956D02*
X702148D01*
X717896D02*
X736184D01*
X870702Y170720D02*
X890006D01*
X897118D02*
X916930D01*
X923026D02*
X968238D01*
X975858D02*
X1021070D01*
X1028182D02*
X1073394D01*
X441036Y177612D02*
X449672D01*
X452212D02*
X467452D01*
X488280D02*
X509108D01*
X541620D02*
X554320D01*
X606136D02*
X618836D01*
X655412D02*
X667604D01*
X689956D02*
X702148D01*
X717896D02*
X736692D01*
X870702Y170212D02*
X891022D01*
X895594D02*
X916930D01*
X923026D02*
X968238D01*
X975858D02*
X1021070D01*
X1028182D02*
X1073394D01*
X441036Y177104D02*
X449672D01*
X452212D02*
X467452D01*
X487772D02*
X500980D01*
X541620D02*
X554320D01*
X606136D02*
X618836D01*
X655412D02*
X667604D01*
X689448D02*
X701640D01*
X717896D02*
X737200D01*
X870702Y169704D02*
X916422D01*
X923026D02*
X967730D01*
X975858D02*
X1020562D01*
X1028182D02*
X1072886D01*
X441036Y176596D02*
X449672D01*
X451704D02*
X466944D01*
X487772D02*
X499456D01*
X541620D02*
X554320D01*
X606136D02*
X618836D01*
X655412D02*
X667604D01*
X689448D02*
X701640D01*
X717388D02*
X737708D01*
X870702Y169196D02*
X916422D01*
X923026D02*
X967730D01*
X975858D02*
X1020562D01*
X1028182D02*
X1072886D01*
X441036Y176088D02*
X449672D01*
X451196D02*
X466436D01*
X487264D02*
X498948D01*
X541620D02*
X553812D01*
X605628D02*
X618328D01*
X655412D02*
X667604D01*
X688940D02*
X701132D01*
X717388D02*
X738216D01*
X870194Y168688D02*
X915914D01*
X923026D02*
X967222D01*
X975858D02*
X1020054D01*
X1028182D02*
X1072378D01*
X441036Y175580D02*
X449672D01*
X450688D02*
X466436D01*
X487264D02*
X498948D01*
X541112D02*
X553812D01*
X605628D02*
X618328D01*
X655412D02*
X667604D01*
X688432D02*
X701132D01*
X717388D02*
X738724D01*
X870194Y168180D02*
X915914D01*
X923026D02*
X967222D01*
X975858D02*
X1020054D01*
X1028182D02*
X1072378D01*
X441036Y175072D02*
X449672D01*
X450180D02*
X465928D01*
X486756D02*
X498440D01*
X541112D02*
X553812D01*
X605120D02*
X617820D01*
X655412D02*
X667604D01*
X688432D02*
X700624D01*
X717388D02*
X739232D01*
X870702Y167672D02*
X915406D01*
X923026D02*
X966714D01*
X975858D02*
X1019546D01*
X1028182D02*
X1071870D01*
X441036Y174564D02*
X465420D01*
X486756D02*
X498440D01*
X541112D02*
X553812D01*
X605120D02*
X617820D01*
X655412D02*
X667604D01*
X687924D02*
X700624D01*
X716880D02*
X727548D01*
X728056D02*
X739740D01*
X870702Y167164D02*
X915406D01*
X923026D02*
X966206D01*
X975858D02*
X1019038D01*
X1028182D02*
X1071362D01*
X441036Y174056D02*
X464912D01*
X486248D02*
X497932D01*
X541112D02*
X553812D01*
X605120D02*
X617820D01*
X655412D02*
X667604D01*
X687416D02*
X700116D01*
X716880D02*
X727548D01*
X728564D02*
X740248D01*
X870702Y166656D02*
X914898D01*
X923026D02*
X966206D01*
X975858D02*
X1019038D01*
X1028182D02*
X1071362D01*
X441036Y173548D02*
X464912D01*
X486248D02*
X497932D01*
X541112D02*
X553812D01*
X581752D02*
X584292D01*
X604612D02*
X617312D01*
X655412D02*
X667604D01*
X686908D02*
X700116D01*
X716880D02*
X727040D01*
X729072D02*
X740756D01*
X870702Y166148D02*
X914898D01*
X923534D02*
X965698D01*
X976366D02*
X1018530D01*
X1028690D02*
X1070854D01*
X441036Y173040D02*
X464404D01*
X485740D02*
X497424D01*
X541112D02*
X554320D01*
X579720D02*
X583784D01*
X604612D02*
X617312D01*
X655412D02*
X667604D01*
X686400D02*
X699608D01*
X716372D02*
X726532D01*
X729580D02*
X741264D01*
X870702Y165640D02*
X914390D01*
X923534D02*
X965190D01*
X976366D02*
X1018022D01*
X1028690D02*
X1070346D01*
X441036Y172532D02*
X463896D01*
X485740D02*
X496916D01*
X541112D02*
X554320D01*
X578196D02*
X583784D01*
X604612D02*
X616804D01*
X655412D02*
X667604D01*
X685892D02*
X699100D01*
X716372D02*
X726532D01*
X730088D02*
X741772D01*
X871210Y165132D02*
X913882D01*
X923534D02*
X964682D01*
X976366D02*
X1017514D01*
X1028690D02*
X1069838D01*
X441036Y172024D02*
X463388D01*
X475580D02*
X479136D01*
X485232D02*
X496916D01*
X530444D02*
X534000D01*
X541112D02*
X554320D01*
X576164D02*
X581752D01*
X585816D02*
X590388D01*
X604104D02*
X616804D01*
X644744D02*
X648300D01*
X655412D02*
X668112D01*
X685384D02*
X699100D01*
X704688D02*
X708244D01*
X716372D02*
X726024D01*
X730088D02*
X742788D01*
X783936D02*
X787492D01*
X871210Y164624D02*
X913374D01*
X924042D02*
X964174D01*
X976874D02*
X1017006D01*
X1029198D02*
X1069330D01*
X441036Y171516D02*
X463388D01*
X475072D02*
X480660D01*
X485232D02*
X496408D01*
X529936D02*
X535524D01*
X541112D02*
X554828D01*
X574640D02*
X581752D01*
X584800D02*
X591912D01*
X604104D02*
X616804D01*
X644236D02*
X649824D01*
X655412D02*
X668112D01*
X684876D02*
X698592D01*
X704180D02*
X709768D01*
X715864D02*
X726024D01*
X730596D02*
X743296D01*
X783428D02*
X789016D01*
X871210Y164116D02*
X912866D01*
X924042D02*
X963666D01*
X976874D02*
X1016498D01*
X1029198D02*
X1068822D01*
X441036Y171008D02*
X462880D01*
X474564D02*
X481676D01*
X485232D02*
X495900D01*
X529428D02*
X536540D01*
X541112D02*
X554828D01*
X572100D02*
X580736D01*
X585308D02*
X592928D01*
X604104D02*
X616296D01*
X643728D02*
X650840D01*
X655412D02*
X668620D01*
X683860D02*
X698084D01*
X703672D02*
X710784D01*
X715864D02*
X725516D01*
X731104D02*
X743804D01*
X782920D02*
X790032D01*
X871718Y163608D02*
X912866D01*
X924550D02*
X963158D01*
X977382D02*
X1015990D01*
X1029706D02*
X1068314D01*
X441544Y170500D02*
X462372D01*
X474056D02*
X482184D01*
X484724D02*
X495900D01*
X528920D02*
X537048D01*
X541112D02*
X555336D01*
X570068D02*
X582768D01*
X585308D02*
X593436D01*
X603596D02*
X616296D01*
X643220D02*
X651348D01*
X655412D02*
X668620D01*
X683352D02*
X697576D01*
X703164D02*
X711292D01*
X715864D02*
X725516D01*
X731612D02*
X744820D01*
X782412D02*
X790540D01*
X871718Y163100D02*
X912358D01*
X924550D02*
X962650D01*
X977382D02*
X1015482D01*
X1029706D02*
X1067806D01*
X441544Y169992D02*
X461864D01*
X474056D02*
X482692D01*
X484724D02*
X495392D01*
X528920D02*
X537556D01*
X541112D02*
X555844D01*
X567528D02*
X582768D01*
X585308D02*
X593944D01*
X603596D02*
X615788D01*
X643220D02*
X651856D01*
X655412D02*
X669128D01*
X682336D02*
X697068D01*
X703164D02*
X711800D01*
X715864D02*
X725008D01*
X732120D02*
X745328D01*
X782412D02*
X791048D01*
X871718Y162592D02*
X911850D01*
X925058D02*
X962142D01*
X977890D02*
X1014974D01*
X1030214D02*
X1067298D01*
X441544Y169484D02*
X461864D01*
X474056D02*
X482692D01*
X484724D02*
X494884D01*
X528920D02*
X537556D01*
X541112D02*
X556352D01*
X565496D02*
X582260D01*
X585308D02*
X593944D01*
X603596D02*
X615788D01*
X643220D02*
X651856D01*
X655920D02*
X670144D01*
X680812D02*
X697068D01*
X703164D02*
X711800D01*
X715356D02*
X725008D01*
X732120D02*
X746344D01*
X782412D02*
X791048D01*
X872226Y162084D02*
X911342D01*
X925058D02*
X961634D01*
X977890D02*
X1014466D01*
X1030214D02*
X1066790D01*
X441544Y168976D02*
X461356D01*
X473548D02*
X483200D01*
X484724D02*
X511140D01*
X528412D02*
X538064D01*
X541620D02*
X557876D01*
X561940D02*
X581244D01*
X584800D02*
X594452D01*
X603596D02*
X615788D01*
X642712D02*
X652364D01*
X655920D02*
X671160D01*
X678780D02*
X696560D01*
X702656D02*
X712308D01*
X715356D02*
X725008D01*
X732628D02*
X746852D01*
X781904D02*
X791556D01*
X872734Y161576D02*
X910834D01*
X925566D02*
X961126D01*
X978398D02*
X1013958D01*
X1030722D02*
X1066282D01*
X441544Y168468D02*
X460848D01*
X473548D02*
X483200D01*
X485232D02*
X518252D01*
X526380D02*
X538064D01*
X541620D02*
X580736D01*
X584800D02*
X594452D01*
X603596D02*
X615280D01*
X642712D02*
X652364D01*
X655920D02*
X696052D01*
X702656D02*
X712308D01*
X715356D02*
X724500D01*
X733136D02*
X747868D01*
X781904D02*
X791556D01*
X872734Y161068D02*
X909818D01*
X926074D02*
X960110D01*
X978906D02*
X1012942D01*
X1031230D02*
X1065266D01*
X442052Y167960D02*
X460340D01*
X473548D02*
X483200D01*
X485232D02*
X516220D01*
X517236D02*
X523840D01*
X528412D02*
X538064D01*
X541620D02*
X579720D01*
X584800D02*
X594452D01*
X603088D02*
X615280D01*
X642712D02*
X652364D01*
X655920D02*
X695544D01*
X702656D02*
X712308D01*
X714848D02*
X724500D01*
X733644D02*
X748376D01*
X781904D02*
X791556D01*
X873242Y160560D02*
X909310D01*
X926582D02*
X959602D01*
X979414D02*
X1012434D01*
X1031738D02*
X1064758D01*
X442052Y167452D02*
X460340D01*
X473040D02*
X483200D01*
X485740D02*
X523840D01*
X527904D02*
X538064D01*
X541620D02*
X579212D01*
X584292D02*
X594452D01*
X603088D02*
X615280D01*
X642204D02*
X652364D01*
X656428D02*
X695036D01*
X702148D02*
X712308D01*
X714848D02*
X723992D01*
X734152D02*
X749392D01*
X781396D02*
X791556D01*
X873750Y160052D02*
X908802D01*
X927090D02*
X958586D01*
X979922D02*
X1011418D01*
X1032246D02*
X1063742D01*
X442052Y166944D02*
X459832D01*
X473040D02*
X483200D01*
X485740D02*
X522316D01*
X527904D02*
X538064D01*
X542128D02*
X579212D01*
X584292D02*
X594452D01*
X603088D02*
X614772D01*
X642204D02*
X652364D01*
X656428D02*
X694020D01*
X702148D02*
X712308D01*
X714848D02*
X723992D01*
X735168D02*
X749900D01*
X781396D02*
X791556D01*
X874258Y159544D02*
X907786D01*
X928106D02*
X957570D01*
X980938D02*
X1010402D01*
X1033262D02*
X1062726D01*
X442560Y166436D02*
X459324D01*
X472532D02*
X483200D01*
X486248D02*
X520284D01*
X527396D02*
X538064D01*
X542128D02*
X578196D01*
X583784D02*
X594452D01*
X603088D02*
X614772D01*
X641696D02*
X652364D01*
X656936D02*
X693512D01*
X701640D02*
X712308D01*
X714848D02*
X723992D01*
X735676D02*
X750916D01*
X780888D02*
X791556D01*
X874766Y159036D02*
X907278D01*
X928614D02*
X956554D01*
X981446D02*
X1009386D01*
X1033770D02*
X1061710D01*
X442560Y165928D02*
X458816D01*
X472532D02*
X483200D01*
X486248D02*
X516220D01*
X516728D02*
X517744D01*
X518252D02*
X518760D01*
X527396D02*
X538064D01*
X542636D02*
X580228D01*
X583784D02*
X594452D01*
X603088D02*
X614772D01*
X641696D02*
X652364D01*
X656936D02*
X693004D01*
X701640D02*
X712308D01*
X714340D02*
X723484D01*
X736184D02*
X751932D01*
X780888D02*
X791556D01*
X875274Y158528D02*
X906262D01*
X929630D02*
X955538D01*
X982462D02*
X1008370D01*
X1034786D02*
X1060694D01*
X442560Y165420D02*
X458308D01*
X472024D02*
X483200D01*
X486756D02*
X519268D01*
X526888D02*
X538064D01*
X543144D02*
X578704D01*
X583276D02*
X594452D01*
X603088D02*
X614264D01*
X641188D02*
X652364D01*
X657444D02*
X692496D01*
X701132D02*
X712308D01*
X714340D02*
X723484D01*
X736692D02*
X752948D01*
X780380D02*
X791556D01*
X876290Y158020D02*
X905246D01*
X930646D02*
X954014D01*
X983478D02*
X1006846D01*
X1035802D02*
X1059170D01*
X443068Y164912D02*
X458308D01*
X472024D02*
X472532D01*
X473040D02*
X483200D01*
X486756D02*
X520792D01*
X526888D02*
X527396D01*
X527904D02*
X538064D01*
X543144D02*
X577180D01*
X583276D02*
X583784D01*
X584292D02*
X594452D01*
X603088D02*
X614264D01*
X641188D02*
X641696D01*
X642204D02*
X652364D01*
X657952D02*
X691480D01*
X701132D02*
X701640D01*
X702148D02*
X712308D01*
X714340D02*
X722976D01*
X737708D02*
X753456D01*
X780380D02*
X780888D01*
X781396D02*
X791556D01*
X877306Y157512D02*
X904230D01*
X932170D02*
X952490D01*
X985002D02*
X1005322D01*
X1037326D02*
X1057646D01*
X443068Y164404D02*
X457800D01*
X473040D02*
X482692D01*
X487264D02*
X517744D01*
X527904D02*
X537556D01*
X543652D02*
X575656D01*
X584292D02*
X593944D01*
X603088D02*
X613756D01*
X642204D02*
X651856D01*
X657952D02*
X690464D01*
X702148D02*
X711800D01*
X714340D02*
X722976D01*
X738216D02*
X754472D01*
X781396D02*
X791048D01*
X878322Y157004D02*
X903214D01*
X934202D02*
X950458D01*
X987034D02*
X1003290D01*
X1039358D02*
X1055614D01*
X443576Y163896D02*
X457292D01*
X473040D02*
X482692D01*
X487264D02*
X513172D01*
X527904D02*
X537556D01*
X544160D02*
X574132D01*
X584292D02*
X593944D01*
X603088D02*
X613756D01*
X642204D02*
X651856D01*
X658460D02*
X689956D01*
X702148D02*
X711800D01*
X713832D02*
X722468D01*
X739232D02*
X755488D01*
X781396D02*
X791048D01*
X880354Y156496D02*
X901690D01*
X937250D02*
X947918D01*
X990082D02*
X1000750D01*
X1042406D02*
X1053074D01*
X443576Y163388D02*
X456784D01*
X473548D02*
X482692D01*
X487772D02*
X511648D01*
X528412D02*
X537556D01*
X544668D02*
X573116D01*
X584800D02*
X593944D01*
X603088D02*
X613756D01*
X642712D02*
X651856D01*
X658968D02*
X688940D01*
X702656D02*
X711800D01*
X713832D02*
X722468D01*
X739740D02*
X756504D01*
X781904D02*
X791048D01*
X444084Y162880D02*
X456276D01*
X473548D02*
X482184D01*
X488280D02*
X509108D01*
X528412D02*
X537048D01*
X545176D02*
X572608D01*
X584800D02*
X593436D01*
X603088D02*
X613756D01*
X642712D02*
X651348D01*
X659476D02*
X687924D01*
X702656D02*
X711292D01*
X713832D02*
X714340D01*
X714848D02*
X721960D01*
X740756D02*
X757520D01*
X781904D02*
X790540D01*
X444084Y162372D02*
X455768D01*
X473548D02*
X482184D01*
X488280D02*
X507584D01*
X528412D02*
X537048D01*
X546192D02*
X571084D01*
X584800D02*
X593436D01*
X603088D02*
X613248D01*
X642712D02*
X651348D01*
X660492D02*
X686908D01*
X702656D02*
X711292D01*
X714340D02*
X721452D01*
X741264D02*
X759044D01*
X781904D02*
X790540D01*
X444592Y161864D02*
X455260D01*
X474056D02*
X481676D01*
X488788D02*
X505552D01*
X528920D02*
X536540D01*
X546700D02*
X569560D01*
X585308D02*
X592928D01*
X603088D02*
X613248D01*
X643220D02*
X650840D01*
X661000D02*
X685892D01*
X703164D02*
X710784D01*
X714340D02*
X720944D01*
X742280D02*
X760060D01*
X782412D02*
X790032D01*
X445100Y161356D02*
X454752D01*
X474056D02*
X481676D01*
X489296D02*
X504028D01*
X528920D02*
X536540D01*
X547716D02*
X568036D01*
X585308D02*
X592928D01*
X603088D02*
X613248D01*
X643220D02*
X650840D01*
X662016D02*
X684368D01*
X703164D02*
X710784D01*
X714340D02*
X720436D01*
X742788D02*
X761076D01*
X782412D02*
X790032D01*
X445100Y160848D02*
X454244D01*
X474564D02*
X481168D01*
X489804D02*
X502504D01*
X529428D02*
X536032D01*
X549240D02*
X566004D01*
X585816D02*
X592420D01*
X603088D02*
X612740D01*
X643728D02*
X650332D01*
X663032D02*
X682844D01*
X703672D02*
X710276D01*
X714340D02*
X718912D01*
X743804D02*
X762600D01*
X782920D02*
X789524D01*
X445608Y160340D02*
X453736D01*
X474564D02*
X481168D01*
X489804D02*
X500980D01*
X529428D02*
X536032D01*
X551272D02*
X563464D01*
X585816D02*
X592420D01*
X603088D02*
X612740D01*
X643728D02*
X650332D01*
X664048D02*
X680812D01*
X703672D02*
X710276D01*
X714340D02*
X718404D01*
X744820D02*
X763616D01*
X782920D02*
X789524D01*
X446116Y159832D02*
X453228D01*
X475072D02*
X480660D01*
X490312D02*
X498948D01*
X529936D02*
X535524D01*
X555844D02*
X558892D01*
X586324D02*
X591912D01*
X603088D02*
X612740D01*
X644236D02*
X649824D01*
X666080D02*
X678780D01*
X704180D02*
X709768D01*
X714340D02*
X714848D01*
X715356D02*
X718404D01*
X745836D02*
X764632D01*
X783428D02*
X789016D01*
X447132Y159324D02*
X452720D01*
X475580D02*
X480152D01*
X490820D02*
X497424D01*
X530444D02*
X535016D01*
X586832D02*
X591404D01*
X603088D02*
X612232D01*
X644744D02*
X649316D01*
X669636D02*
X674716D01*
X704688D02*
X709260D01*
X713832D02*
X716880D01*
X746344D02*
X766156D01*
X783936D02*
X788508D01*
X447640Y158816D02*
X452212D01*
X476596D02*
X479136D01*
X491328D02*
X494884D01*
X531460D02*
X534000D01*
X587848D02*
X590388D01*
X603596D02*
X612232D01*
X645760D02*
X648300D01*
X705704D02*
X708244D01*
X713832D02*
X716880D01*
X747360D02*
X767172D01*
X784952D02*
X787492D01*
X448148Y158308D02*
X451196D01*
X492344D02*
X493868D01*
X604104D02*
X612232D01*
X714848D02*
X716372D01*
X748376D02*
X768188D01*
X448656Y157800D02*
X450688D01*
X604612D02*
X612232D01*
X714340D02*
X715356D01*
X749392D02*
X769204D01*
X605628Y157292D02*
X612232D01*
X750408D02*
X770728D01*
X607152Y156784D02*
X611724D01*
X751932D02*
X771744D01*
X608168Y156276D02*
X611724D01*
X753456D02*
X772760D01*
X755488Y155768D02*
X773776D01*
X757520Y155260D02*
X774792D01*
X760060Y154752D02*
X775808D01*
X763108Y154244D02*
X776824D01*
X765140Y153736D02*
X777332D01*
X766156Y153228D02*
X775808D01*
X776316D02*
X777332D01*
X769712Y152720D02*
X776316D01*
X771744Y152212D02*
X772252D01*
X775300D02*
X776824D01*
D69*
X268230Y1207570D02*
X364230D01*
X268230Y1088570D02*
Y1207570D01*
Y1088570D02*
X364230D01*
Y1207570D01*
Y1088570D02*
X378730D01*
Y999570D02*
Y1088570D01*
X253730Y999570D02*
X378730D01*
X253730D02*
Y1088570D01*
X268230D01*
X378730Y999570D02*
X390230D01*
Y858570D02*
Y999570D01*
X242230Y858570D02*
X390230D01*
X242230D02*
Y999570D01*
X253730D01*
X257230Y907570D02*
Y987570D01*
Y907570D02*
X375230D01*
Y987570D01*
X89160Y1207570D02*
X185160D01*
X89160Y1088570D02*
Y1207570D01*
Y1088570D02*
X185160D01*
Y1207570D01*
Y1088570D02*
X199660D01*
Y999570D02*
Y1088570D01*
X74660Y999570D02*
X199660D01*
X74660D02*
Y1088570D01*
X89160D01*
X199660Y999570D02*
X211160D01*
Y858570D02*
Y999570D01*
X63160Y858570D02*
X211160D01*
X63160D02*
Y999570D01*
X74660D01*
X78160Y907570D02*
Y987570D01*
Y907570D02*
X196160D01*
Y987570D01*
D70*
X445139Y806449D02*
D03*
M02*
