G04 Layer_Physical_Order=6*
G04 Layer_Color=128*
%FSLAX44Y44*%
%MOMM*%
G71*
G01*
G75*
%ADD31C,1.0160*%
%ADD39C,1.5240*%
%ADD45C,0.2540*%
%ADD46C,1.9160*%
%ADD47C,2.2160*%
%ADD48C,2.0160*%
%ADD49C,3.0160*%
%ADD50C,2.3160*%
%ADD51O,1.7160X2.2160*%
%ADD52O,1.6660X2.0660*%
%ADD53C,1.2192*%
%ADD54C,1.1684*%
%ADD55C,1.9050*%
D31*
X-6350Y-6350D02*
Y1009650D01*
X756920D01*
X1517650D01*
Y-6350D02*
Y1009650D01*
X-6350Y-6350D02*
X1517650D01*
D39*
X545846Y762762D02*
D03*
X951186Y779272D02*
D03*
X1157585Y775970D02*
D03*
X388112Y756666D02*
D03*
X901446Y742188D02*
D03*
X487934Y768604D02*
D03*
X1242060Y735076D02*
D03*
X1171956Y839978D02*
D03*
X1069340Y897636D02*
D03*
X823976Y628904D02*
D03*
D45*
X-5900Y1010100D02*
X424434D01*
X-6350Y1009650D02*
X-5900Y1010100D01*
X-6350Y695452D02*
Y1009650D01*
Y695452D02*
X355602D01*
X424434Y764284D01*
Y1010100D01*
D46*
X1387348Y896112D02*
D03*
Y870712D02*
D03*
X1361948Y896112D02*
D03*
Y870712D02*
D03*
X1336548Y896112D02*
D03*
Y870712D02*
D03*
X1311148Y896112D02*
D03*
Y870712D02*
D03*
X1285748Y896112D02*
D03*
Y870712D02*
D03*
X275590Y826770D02*
D03*
Y801370D02*
D03*
X250190Y826770D02*
D03*
Y801370D02*
D03*
X81280Y800100D02*
D03*
Y774700D02*
D03*
X55880Y800100D02*
D03*
Y774700D02*
D03*
X822960Y34290D02*
D03*
Y59690D02*
D03*
Y85090D02*
D03*
X911860Y530860D02*
D03*
Y556260D02*
D03*
X1331575Y589321D02*
D03*
Y614721D02*
D03*
X1128375Y585511D02*
D03*
Y610911D02*
D03*
X631190Y806450D02*
D03*
X605790D02*
D03*
X580390D02*
D03*
X313690Y464820D02*
D03*
X288290D02*
D03*
X313690Y490220D02*
D03*
X288290D02*
D03*
X313690Y515620D02*
D03*
X288290D02*
D03*
X313690Y541020D02*
D03*
X288290D02*
D03*
X1371600Y331470D02*
D03*
Y306070D02*
D03*
X1346200Y331470D02*
D03*
Y306070D02*
D03*
X1320800Y331470D02*
D03*
Y306070D02*
D03*
X1295400Y331470D02*
D03*
Y306070D02*
D03*
X1179830Y336550D02*
D03*
Y311150D02*
D03*
X1154430Y336550D02*
D03*
Y311150D02*
D03*
X1129030Y336550D02*
D03*
Y311150D02*
D03*
X134450Y308650D02*
D03*
Y334050D02*
D03*
X159850Y308650D02*
D03*
Y334050D02*
D03*
X185250Y308650D02*
D03*
Y334050D02*
D03*
X210650Y308650D02*
D03*
Y334050D02*
D03*
X236050Y308650D02*
D03*
Y334050D02*
D03*
X261450Y308650D02*
D03*
Y334050D02*
D03*
X286850Y308650D02*
D03*
Y334050D02*
D03*
X312250Y308650D02*
D03*
Y334050D02*
D03*
X337650Y308650D02*
D03*
Y334050D02*
D03*
X363050Y308650D02*
D03*
Y334050D02*
D03*
X388450Y308650D02*
D03*
Y334050D02*
D03*
X413850Y308650D02*
D03*
Y334050D02*
D03*
X439250Y308650D02*
D03*
Y334050D02*
D03*
X464650Y308650D02*
D03*
Y334050D02*
D03*
X490050Y308650D02*
D03*
Y334050D02*
D03*
X515450Y308650D02*
D03*
Y334050D02*
D03*
X540850Y308650D02*
D03*
Y334050D02*
D03*
X566250Y308650D02*
D03*
Y334050D02*
D03*
X591650Y308650D02*
D03*
Y334050D02*
D03*
X670560Y307340D02*
D03*
Y332740D02*
D03*
X695960Y307340D02*
D03*
Y332740D02*
D03*
X721360Y307340D02*
D03*
Y332740D02*
D03*
X746760Y307340D02*
D03*
Y332740D02*
D03*
X772160Y307340D02*
D03*
Y332740D02*
D03*
X797560Y307340D02*
D03*
Y332740D02*
D03*
X822960Y307340D02*
D03*
Y332740D02*
D03*
X848360Y307340D02*
D03*
Y332740D02*
D03*
X873760Y307340D02*
D03*
Y332740D02*
D03*
X899160Y307340D02*
D03*
Y332740D02*
D03*
X924560Y307340D02*
D03*
Y332740D02*
D03*
X949960Y307340D02*
D03*
Y332740D02*
D03*
X975360Y307340D02*
D03*
Y332740D02*
D03*
X1000760Y307340D02*
D03*
Y332740D02*
D03*
X1026160Y307340D02*
D03*
Y332740D02*
D03*
X1051560Y307340D02*
D03*
Y332740D02*
D03*
X469900Y963930D02*
D03*
Y938530D02*
D03*
X770890Y925830D02*
D03*
Y951230D02*
D03*
X796290Y925830D02*
D03*
Y951230D02*
D03*
X469900Y878840D02*
D03*
Y853440D02*
D03*
X873760Y792480D02*
D03*
Y767080D02*
D03*
X848360Y792480D02*
D03*
Y767080D02*
D03*
X822960Y792480D02*
D03*
Y767080D02*
D03*
X797560Y792480D02*
D03*
Y767080D02*
D03*
X772160Y792480D02*
D03*
Y767080D02*
D03*
X746760Y792480D02*
D03*
Y767080D02*
D03*
X721360Y792480D02*
D03*
Y767080D02*
D03*
X695960Y792480D02*
D03*
Y767080D02*
D03*
X105410Y43180D02*
D03*
X130810D02*
D03*
X553720Y46990D02*
D03*
X528320D02*
D03*
X944880Y22860D02*
D03*
Y48260D02*
D03*
X970280Y22860D02*
D03*
Y48260D02*
D03*
X995680Y22860D02*
D03*
Y48260D02*
D03*
X1021080Y22860D02*
D03*
Y48260D02*
D03*
X1046480Y22860D02*
D03*
Y48260D02*
D03*
X1071880Y22860D02*
D03*
Y48260D02*
D03*
X1164590Y962660D02*
D03*
X1139190D02*
D03*
X1113790D02*
D03*
X1357630Y956310D02*
D03*
X1383030D02*
D03*
X1408430D02*
D03*
X883920Y961390D02*
D03*
X909320D02*
D03*
X934720D02*
D03*
X1196340Y581660D02*
D03*
Y607060D02*
D03*
X1221740Y581660D02*
D03*
Y607060D02*
D03*
X1247140Y581660D02*
D03*
Y607060D02*
D03*
X481350Y666250D02*
D03*
Y691650D02*
D03*
X506750Y666250D02*
D03*
Y691650D02*
D03*
X532150Y666250D02*
D03*
Y691650D02*
D03*
X557550Y666250D02*
D03*
Y691650D02*
D03*
X582950Y666250D02*
D03*
Y691650D02*
D03*
X608350Y666250D02*
D03*
Y691650D02*
D03*
X633750Y666250D02*
D03*
Y691650D02*
D03*
X659150Y666250D02*
D03*
Y691650D02*
D03*
X684550Y666250D02*
D03*
Y691650D02*
D03*
X709950Y666250D02*
D03*
Y691650D02*
D03*
X735350Y666250D02*
D03*
Y691650D02*
D03*
X760750Y666250D02*
D03*
Y691650D02*
D03*
X786150Y666250D02*
D03*
Y691650D02*
D03*
X811550Y666250D02*
D03*
Y691650D02*
D03*
X836950Y666250D02*
D03*
Y691650D02*
D03*
X862350Y666250D02*
D03*
Y691650D02*
D03*
X887750Y666250D02*
D03*
Y691650D02*
D03*
X913150Y666250D02*
D03*
Y691650D02*
D03*
X938550Y666250D02*
D03*
Y691650D02*
D03*
X1017270Y668020D02*
D03*
Y693420D02*
D03*
X1042670Y668020D02*
D03*
Y693420D02*
D03*
X1068070Y668020D02*
D03*
Y693420D02*
D03*
X1093470Y668020D02*
D03*
Y693420D02*
D03*
X1118870Y668020D02*
D03*
Y693420D02*
D03*
X1144270Y668020D02*
D03*
Y693420D02*
D03*
X1169670Y668020D02*
D03*
Y693420D02*
D03*
X1195070Y668020D02*
D03*
Y693420D02*
D03*
X1220470Y668020D02*
D03*
Y693420D02*
D03*
X1245870Y668020D02*
D03*
Y693420D02*
D03*
X1271270Y668020D02*
D03*
Y693420D02*
D03*
X1296670Y668020D02*
D03*
Y693420D02*
D03*
X1322070Y668020D02*
D03*
Y693420D02*
D03*
X1347470Y668020D02*
D03*
Y693420D02*
D03*
X1372870Y668020D02*
D03*
Y693420D02*
D03*
X1398270Y668020D02*
D03*
Y693420D02*
D03*
X316230Y877570D02*
D03*
X291230D02*
D03*
X137160D02*
D03*
X112160D02*
D03*
X1463040Y327660D02*
D03*
X1488440D02*
D03*
X1463040Y302260D02*
D03*
X1488440D02*
D03*
X1463040Y276860D02*
D03*
X1488440D02*
D03*
X1463040Y251460D02*
D03*
X1488440D02*
D03*
X1463040Y226060D02*
D03*
X1488440D02*
D03*
X1463040Y200660D02*
D03*
X1488440D02*
D03*
X1463040Y175260D02*
D03*
X1488440D02*
D03*
X1463040Y149860D02*
D03*
X1488440D02*
D03*
X1463040Y124460D02*
D03*
X1488440D02*
D03*
X1463040Y99060D02*
D03*
X1488440D02*
D03*
X18100Y442100D02*
D03*
X43500D02*
D03*
X18100Y416700D02*
D03*
X43500D02*
D03*
X18100Y391300D02*
D03*
X43500D02*
D03*
X18100Y365900D02*
D03*
X43500D02*
D03*
X18100Y340500D02*
D03*
X43500D02*
D03*
X928985Y455971D02*
D03*
Y430571D02*
D03*
D47*
X369340Y806450D02*
D03*
X473940D02*
D03*
X1223010Y85090D02*
D03*
Y20090D02*
D03*
X1326010D02*
D03*
Y85090D02*
D03*
D48*
X1223010Y48090D02*
D03*
X1326010D02*
D03*
D49*
X265230Y928570D02*
D03*
X367230D02*
D03*
X86160D02*
D03*
X188160D02*
D03*
D50*
X522100Y992610D02*
D03*
X679100D02*
D03*
X528100Y943610D02*
D03*
X673100D02*
D03*
D51*
X1046298Y983844D02*
D03*
X991798Y983844D02*
D03*
D52*
X994798Y953544D02*
D03*
X1043298Y953544D02*
D03*
D53*
X682244Y536194D02*
D03*
X823970Y504570D02*
D03*
X825754Y647192D02*
D03*
X602996Y735076D02*
D03*
X44958Y710184D02*
D03*
X689864Y518922D02*
D03*
X783082Y587248D02*
D03*
X590550Y944372D02*
D03*
X491998Y806450D02*
D03*
X233680Y801370D02*
D03*
X39878Y774700D02*
D03*
X152908Y877316D02*
D03*
X330454D02*
D03*
X387858Y806450D02*
D03*
X1201166Y232410D02*
D03*
X1067816Y530352D02*
D03*
X1183386Y436372D02*
D03*
X920496Y561340D02*
D03*
X947928Y499364D02*
D03*
X847598Y506730D02*
D03*
X615442Y293116D02*
D03*
X399288Y349504D02*
D03*
X602742Y394462D02*
D03*
X1148588Y498094D02*
D03*
X1101090Y479806D02*
D03*
X932180Y525780D02*
D03*
X838962Y569722D02*
D03*
X700024Y425450D02*
D03*
X699262Y450850D02*
D03*
X710440Y448564D02*
D03*
X886714Y483616D02*
D03*
X798830Y552450D02*
D03*
X783590Y544830D02*
D03*
X788856Y503174D02*
D03*
X774446Y489458D02*
D03*
X725424Y524764D02*
D03*
X699516Y582930D02*
D03*
X698754Y567436D02*
D03*
X765950Y545090D02*
D03*
X765300Y424450D02*
D03*
X804050Y448694D02*
D03*
X1497880Y551842D02*
D03*
X1376025Y772223D02*
D03*
X1452880Y551842D02*
D03*
X1324993Y756961D02*
D03*
X1275695Y773493D02*
D03*
X1208385Y736039D02*
D03*
X1322180Y481418D02*
D03*
X1305450Y510628D02*
D03*
X1302910Y457288D02*
D03*
X1124566Y739159D02*
D03*
X1283970Y424202D02*
D03*
X1258630Y479870D02*
D03*
X1266630Y447870D02*
D03*
X1242630D02*
D03*
X1226630Y463870D02*
D03*
X1242630Y439870D02*
D03*
X1210630Y503870D02*
D03*
X1236980Y425472D02*
D03*
X1047095Y757159D02*
D03*
X1210630Y447870D02*
D03*
X1211580Y425472D02*
D03*
X1158350Y519518D02*
D03*
X1015345Y739849D02*
D03*
X1186180Y424202D02*
D03*
X1158350Y471258D02*
D03*
Y464732D02*
D03*
X1159620Y440602D02*
D03*
X1226432Y168910D02*
D03*
X1089152Y547300D02*
D03*
Y499300D02*
D03*
X633100Y944412D02*
D03*
X618100Y918808D02*
D03*
X603100Y944412D02*
D03*
X588100Y918808D02*
D03*
X558100D02*
D03*
X847090Y626132D02*
D03*
X798830Y623592D02*
D03*
X889110Y454572D02*
D03*
X772160Y623592D02*
D03*
X746760Y622322D02*
D03*
X845430Y448570D02*
D03*
X732682Y593980D02*
D03*
X699770Y619782D02*
D03*
X805430Y464570D02*
D03*
X757430Y512570D02*
D03*
Y488570D02*
D03*
X717430Y552570D02*
D03*
X809098Y384430D02*
D03*
X733430Y520570D02*
D03*
X674480Y581572D02*
D03*
X796290Y372088D02*
D03*
X674480Y557442D02*
D03*
X769620Y372088D02*
D03*
X656480Y534582D02*
D03*
Y511722D02*
D03*
X655210Y463462D02*
D03*
Y440602D02*
D03*
X565912Y552380D02*
D03*
X547308Y544380D02*
D03*
X191828Y691590D02*
D03*
X22918D02*
D03*
X432308Y496380D02*
D03*
X224790Y626132D02*
D03*
X630950Y7098D02*
D03*
X45720Y629942D02*
D03*
X171450Y581638D02*
D03*
X80010Y584402D02*
D03*
X170180Y509248D02*
D03*
X39370Y495278D02*
D03*
X123070Y453248D02*
D03*
X487512Y58970D02*
D03*
Y13970D02*
D03*
X305902Y57700D02*
D03*
Y12700D02*
D03*
X57700Y134788D02*
D03*
X12700D02*
D03*
X730890Y544570D02*
D03*
X828160Y552570D02*
D03*
X762890Y448570D02*
D03*
X815970D02*
D03*
X1262380Y425472D02*
D03*
X789430Y478030D02*
D03*
X741430Y433840D02*
D03*
X1309370Y433070D02*
D03*
X1345485Y775961D02*
D03*
X830700Y448570D02*
D03*
X1290066Y775961D02*
D03*
X649860Y17700D02*
D03*
X1299100Y430618D02*
D03*
X1208385Y765961D02*
D03*
X733430Y504570D02*
D03*
X725430Y443490D02*
D03*
X658750Y488842D02*
D03*
X464650Y355120D02*
D03*
X749430Y563110D02*
D03*
X1258630Y470600D02*
D03*
X733430Y536570D02*
D03*
X1202630Y470600D02*
D03*
X891650Y483958D02*
D03*
X850510Y424570D02*
D03*
X765684Y478030D02*
D03*
X745110Y42544D02*
D03*
X740030Y42418D02*
D03*
X842010Y370818D02*
D03*
X837430Y520570D02*
D03*
X1242630Y513140D02*
D03*
X801240Y432570D02*
D03*
X725424Y432562D02*
D03*
X521208Y286766D02*
D03*
X741680Y372088D02*
D03*
X276352Y691590D02*
D03*
X561594Y372872D02*
D03*
X1124566Y757159D02*
D03*
X105410Y608440D02*
D03*
X713430Y586994D02*
D03*
X83156Y678590D02*
D03*
X598100Y911352D02*
D03*
X563100Y918718D02*
D03*
X813308Y456692D02*
D03*
X821436Y472564D02*
D03*
X821430Y536570D02*
D03*
X613156Y951992D02*
D03*
X623100Y944372D02*
D03*
X628142Y918718D02*
D03*
X570560Y944412D02*
D03*
X1033526Y761530D02*
D03*
X967232Y685292D02*
D03*
X1186688Y439928D02*
D03*
X1285494Y432816D02*
D03*
X748030Y568452D02*
D03*
X710038Y381890D02*
D03*
X178054Y446024D02*
D03*
X717550Y519176D02*
D03*
X829430Y441840D02*
D03*
X1193546Y455930D02*
D03*
X651002Y640588D02*
D03*
X275590Y698090D02*
D03*
X1280160Y472948D02*
D03*
X721408Y805434D02*
D03*
X949395Y547300D02*
D03*
X57700Y273812D02*
D03*
X900430Y691642D02*
D03*
X705612Y394716D02*
D03*
X828024Y569976D02*
D03*
X709422Y352298D02*
D03*
X578100Y915670D02*
D03*
X568100Y918718D02*
D03*
X701040Y372088D02*
D03*
X1283462Y466598D02*
D03*
X237490Y678590D02*
D03*
X709168Y506984D02*
D03*
X1178052Y232410D02*
D03*
X1124610Y891540D02*
D03*
X547370Y424380D02*
D03*
X721360Y320040D02*
D03*
X625856Y296926D02*
D03*
X599700Y948800D02*
D03*
X891032Y430022D02*
D03*
X542798Y506984D02*
D03*
X837438Y469900D02*
D03*
X780542Y581914D02*
D03*
X768858Y504698D02*
D03*
X751840Y544830D02*
D03*
X701548Y520700D02*
D03*
X106680Y85090D02*
D03*
X213868Y697992D02*
D03*
X953770Y496316D02*
D03*
X566928Y503428D02*
D03*
X799338Y456692D02*
D03*
X741680Y465074D02*
D03*
X709422Y528828D02*
D03*
X767588Y520700D02*
D03*
X724154Y504952D02*
D03*
X709422Y569214D02*
D03*
X796544Y520700D02*
D03*
X709676Y479806D02*
D03*
D54*
X1322070Y921258D02*
D03*
X918210Y636524D02*
D03*
X750570Y578866D02*
D03*
X773430Y424180D02*
D03*
X1344168Y850646D02*
D03*
X862076Y496062D02*
D03*
X789686Y440182D02*
D03*
X1318514Y847598D02*
D03*
X1104392Y782574D02*
D03*
X949706Y638556D02*
D03*
X760984Y578612D02*
D03*
X781812Y464952D02*
D03*
X1301496Y833120D02*
D03*
X783336Y721106D02*
D03*
X781812Y481076D02*
D03*
X891286Y400812D02*
D03*
X852424Y432562D02*
D03*
X1210818Y463550D02*
D03*
X1210310Y820674D02*
D03*
X1232154Y455422D02*
D03*
X1220470Y463550D02*
D03*
X1226950Y455930D02*
D03*
X1221740Y456184D02*
D03*
X709930Y513334D02*
D03*
X821690Y527050D02*
D03*
X814578Y526796D02*
D03*
X789686Y517144D02*
D03*
X836422Y504698D02*
D03*
X813816Y552958D02*
D03*
X828040Y488442D02*
D03*
X813308Y489712D02*
D03*
X829056Y514604D02*
D03*
X838962Y551180D02*
D03*
X1226562Y511802D02*
D03*
X749808Y491744D02*
D03*
X741426Y490982D02*
D03*
X548132Y460756D02*
D03*
X547370Y440690D02*
D03*
X300990Y419354D02*
D03*
X548640Y509524D02*
D03*
X1042924Y531114D02*
D03*
Y523240D02*
D03*
X893318Y438404D02*
D03*
X899160Y420624D02*
D03*
X844550Y388366D02*
D03*
X835660Y378206D02*
D03*
X848614Y369824D02*
D03*
X859536Y346964D02*
D03*
X820674Y342900D02*
D03*
X1226566Y680720D02*
D03*
X1138428Y649732D02*
D03*
X1044702Y581914D02*
D03*
X1123188Y530860D02*
D03*
X1118870Y498348D02*
D03*
X1042670Y507238D02*
D03*
X1012698Y546862D02*
D03*
X1104392Y508508D02*
D03*
X1169670Y417830D02*
D03*
X1182370Y530860D02*
D03*
X1218692Y433324D02*
D03*
X1252728Y455676D02*
D03*
X1279906Y478410D02*
D03*
X1210628Y491744D02*
D03*
X1230376Y495554D02*
D03*
X1266190Y504444D02*
D03*
X1274064Y497840D02*
D03*
X1281938Y499364D02*
D03*
X1274318Y526796D02*
D03*
X1242060Y567182D02*
D03*
X1196086Y552196D02*
D03*
X1210564Y524510D02*
D03*
X1191768Y530860D02*
D03*
X1198372Y531368D02*
D03*
X1193804Y521462D02*
D03*
X1177290Y524002D02*
D03*
X1194054Y513334D02*
D03*
X1188212Y503428D02*
D03*
X1181608Y505460D02*
D03*
X1197356Y488188D02*
D03*
X1182116Y481838D02*
D03*
X1186688Y513842D02*
D03*
X1170432Y540004D02*
D03*
X1181862D02*
D03*
X1182878Y523494D02*
D03*
X1166368Y556260D02*
D03*
Y520192D02*
D03*
X1165352Y507746D02*
D03*
X1123442Y515112D02*
D03*
X1094994Y474980D02*
D03*
X1088390Y457200D02*
D03*
X1011174Y467106D02*
D03*
X955294Y447802D02*
D03*
X976630Y681990D02*
D03*
X901700Y529844D02*
D03*
X930910Y533400D02*
D03*
X847090Y516570D02*
D03*
X878078Y570230D02*
D03*
X837438Y560324D02*
D03*
X834136Y543814D02*
D03*
X847344Y543560D02*
D03*
X849630Y538734D02*
D03*
X850392Y531876D02*
D03*
X804672Y502666D02*
D03*
X798068Y494538D02*
D03*
X699008Y409194D02*
D03*
X688340Y419862D02*
D03*
X664972Y434594D02*
D03*
X693166Y445770D02*
D03*
X692912Y439420D02*
D03*
X710438Y454533D02*
D03*
X724916Y465582D02*
D03*
X724154Y456692D02*
D03*
X683514Y457454D02*
D03*
X699008Y470148D02*
D03*
X738124Y480568D02*
D03*
X727202Y489966D02*
D03*
X722376Y487680D02*
D03*
X719328Y480568D02*
D03*
X698246Y493014D02*
D03*
X799084Y482092D02*
D03*
X867410Y479552D02*
D03*
X848106Y481584D02*
D03*
X839470Y480822D02*
D03*
X854202Y490982D02*
D03*
X878332Y467868D02*
D03*
X851020Y470662D02*
D03*
X837946Y492506D02*
D03*
X803402Y520700D02*
D03*
X844042Y559562D02*
D03*
X884428Y563372D02*
D03*
X821182Y548386D02*
D03*
X799846Y544322D02*
D03*
X779590Y552450D02*
D03*
X776478Y568706D02*
D03*
X781304Y562864D02*
D03*
X781600Y558292D02*
D03*
X757682Y495938D02*
D03*
X741426Y505206D02*
D03*
X730504Y512318D02*
D03*
X697992Y556514D02*
D03*
X724408Y560324D02*
D03*
X814712Y522224D02*
D03*
X829006Y527100D02*
D03*
X828400Y537600D02*
D03*
X709200Y488600D02*
D03*
X708860Y440000D02*
D03*
X733100Y464900D02*
D03*
X733050Y426450D02*
D03*
X781600Y448750D02*
D03*
X1089152Y620776D02*
D03*
X1194630Y509270D02*
D03*
X1097788Y459300D02*
D03*
X432308Y584454D02*
D03*
X450850Y576326D02*
D03*
X955548D02*
D03*
X359410Y479482D02*
D03*
X450850Y560070D02*
D03*
X375158Y416380D02*
D03*
X432308Y424380D02*
D03*
X375780Y448380D02*
D03*
X386842Y440182D02*
D03*
X974090Y447294D02*
D03*
X1207770Y530730D02*
D03*
X724662Y480568D02*
D03*
X1050798Y614680D02*
D03*
X733552Y473964D02*
D03*
X1070792Y427300D02*
D03*
X1237742Y701802D02*
D03*
X1147826Y677164D02*
D03*
X1202182Y487426D02*
D03*
X830408Y477668D02*
D03*
X1186688Y496658D02*
D03*
X1254630Y536506D02*
D03*
X1186688Y527812D02*
D03*
X837946Y515874D02*
D03*
X1202690Y455930D02*
D03*
X432308Y456438D02*
D03*
X797306Y560578D02*
D03*
X702818Y503926D02*
D03*
X701934Y465074D02*
D03*
X1202690Y495808D02*
D03*
X92710Y494792D02*
D03*
X1196340Y156210D02*
D03*
X1159256Y168910D02*
D03*
X1201420Y245110D02*
D03*
X912876Y462026D02*
D03*
X547370Y488442D02*
D03*
X821430Y512570D02*
D03*
X1098042Y593598D02*
D03*
X830072Y510032D02*
D03*
X1192022Y479806D02*
D03*
X1297304Y497332D02*
D03*
X1022350Y451358D02*
D03*
X1068070Y411300D02*
D03*
X1151890Y405130D02*
D03*
X833293D02*
D03*
X623316Y408940D02*
D03*
X565912Y445770D02*
D03*
X1277110Y453390D02*
D03*
X92710Y555752D02*
D03*
X1080770Y625856D02*
D03*
X805941Y480059D02*
D03*
X565856Y560380D02*
D03*
X1004824Y574802D02*
D03*
X1282446Y450848D02*
D03*
X899160Y411300D02*
D03*
X511302Y472380D02*
D03*
X1277112Y490220D02*
D03*
X474404Y464380D02*
D03*
X1257554Y658114D02*
D03*
X845566Y439928D02*
D03*
X1210564Y452628D02*
D03*
X797306Y567300D02*
D03*
X813430Y512570D02*
D03*
X1200318Y519870D02*
D03*
X1014984Y451300D02*
D03*
X838962Y408686D02*
D03*
X875538Y414782D02*
D03*
X455676Y488380D02*
D03*
X432308Y505756D02*
D03*
X455676Y512380D02*
D03*
X953770Y427300D02*
D03*
X1089914Y483300D02*
D03*
X845430Y538988D02*
D03*
X907288Y436372D02*
D03*
X709422Y413004D02*
D03*
X717550Y511048D02*
D03*
X1274572Y447928D02*
D03*
X742708Y421132D02*
D03*
X1184402Y618998D02*
D03*
X1089152Y555300D02*
D03*
X1091184Y523300D02*
D03*
X984064Y459300D02*
D03*
X977138Y467300D02*
D03*
X1063498Y476570D02*
D03*
X1055308Y483300D02*
D03*
X1024890Y515366D02*
D03*
X1017270Y531300D02*
D03*
X1069268Y567182D02*
D03*
X1070610Y435356D02*
D03*
X1297940Y232410D02*
D03*
X460248Y544380D02*
D03*
X1269238Y455930D02*
D03*
X1274572Y461010D02*
D03*
X1266698Y459994D02*
D03*
X1258570Y461264D02*
D03*
X1250696Y463804D02*
D03*
X58818Y541528D02*
D03*
X1313942Y483870D02*
D03*
X1226566Y447802D02*
D03*
X1250696Y503804D02*
D03*
Y495804D02*
D03*
X1250566Y487934D02*
D03*
X709422Y560578D02*
D03*
X717550Y472694D02*
D03*
X468122Y437896D02*
D03*
X741430Y477774D02*
D03*
X288798Y443484D02*
D03*
X717550Y452628D02*
D03*
X1226566Y561086D02*
D03*
X839470Y464566D02*
D03*
X1194562Y495808D02*
D03*
X837438Y496570D02*
D03*
X856742Y520446D02*
D03*
X1202630Y511870D02*
D03*
X805430Y512570D02*
D03*
X805434Y488696D02*
D03*
X805430Y532892D02*
D03*
X810514Y504698D02*
D03*
X1260094Y488950D02*
D03*
X807466Y658114D02*
D03*
X1243963Y465203D02*
D03*
X1134495Y560380D02*
D03*
X858700Y565840D02*
D03*
X1202690Y447802D02*
D03*
X599468Y573532D02*
D03*
X453390Y568380D02*
D03*
X410580Y432380D02*
D03*
X565912D02*
D03*
X450850Y528380D02*
D03*
X452120Y520380D02*
D03*
X478470Y480380D02*
D03*
X565912Y464380D02*
D03*
X567182Y480314D02*
D03*
X565912Y528320D02*
D03*
X547370Y536448D02*
D03*
X886460Y433070D02*
D03*
X1147699Y511810D02*
D03*
X717550Y506970D02*
D03*
X1274572Y439928D02*
D03*
X1070610Y420878D02*
D03*
X567628Y512380D02*
D03*
X1189228Y519430D02*
D03*
X717296Y467868D02*
D03*
X1242568Y452945D02*
D03*
X1211834Y457454D02*
D03*
X837438Y474980D02*
D03*
X1248664Y447802D02*
D03*
X972058Y678942D02*
D03*
X956818Y571246D02*
D03*
X819150Y519684D02*
D03*
X824106Y520954D02*
D03*
X846836Y471678D02*
D03*
X694436Y425196D02*
D03*
X1163828Y411988D02*
D03*
D55*
X1335278Y956310D02*
D03*
X1077214Y985266D02*
D03*
X638100Y963930D02*
D03*
X959358Y961390D02*
D03*
X1006094Y902970D02*
D03*
X354838Y733806D02*
D03*
X895096Y877570D02*
D03*
X883920Y837692D02*
D03*
X906780Y829818D02*
D03*
X861568Y823468D02*
D03*
X989330Y852678D02*
D03*
X1135888Y851154D02*
D03*
X1114298Y854964D02*
D03*
X1097280Y830326D02*
D03*
M02*
