G04 Layer_Color=12632256*
%FSLAX44Y44*%
%MOMM*%
G71*
G01*
G75*
%ADD12R,1.5000X1.5000*%
%ADD29O,0.7000X1.2000*%
%ADD30R,2.0000X1.4000*%
%ADD31R,1.5000X1.5000*%
%ADD32C,1.5000*%
%ADD33C,1.5240*%
%ADD34C,3.3000*%
%ADD35C,1.1500*%
%ADD36O,1.3400X1.3500*%
%ADD37R,2.0000X2.0000*%
%ADD38C,2.0000*%
G36*
X998298Y963044D02*
X980048D01*
Y970044D01*
X985298D01*
Y994544D01*
X998298D01*
Y963044D01*
D02*
G37*
G36*
X1052798Y970044D02*
X1058048D01*
Y963044D01*
X1039798D01*
Y994544D01*
X1052798D01*
Y970044D01*
D02*
G37*
D12*
X1017270Y668020D02*
D03*
X481350Y666250D02*
D03*
X1247140Y607060D02*
D03*
X934720Y961390D02*
D03*
X1408430Y956310D02*
D03*
X1113790Y962660D02*
D03*
X944880Y22860D02*
D03*
X528320Y46990D02*
D03*
X130810Y43180D02*
D03*
X695960Y767080D02*
D03*
X770890Y925830D02*
D03*
X670560Y307340D02*
D03*
X134450Y308650D02*
D03*
X1129030Y311150D02*
D03*
X1371600Y331470D02*
D03*
X631190Y806450D02*
D03*
X55880Y774700D02*
D03*
X250190Y801370D02*
D03*
X1285748Y870712D02*
D03*
D29*
X991798Y983844D02*
D03*
X1046298Y983844D02*
D03*
D30*
X1048048Y953544D02*
D03*
X990048Y953544D02*
D03*
D31*
X928985Y430571D02*
D03*
X18100Y442100D02*
D03*
X1488440Y99060D02*
D03*
X137160Y877570D02*
D03*
X316230D02*
D03*
X469900Y853440D02*
D03*
Y938530D02*
D03*
X313690Y464820D02*
D03*
X1128375Y585511D02*
D03*
X1331575Y589321D02*
D03*
X911860Y530860D02*
D03*
X822960Y34290D02*
D03*
D32*
X928985Y455971D02*
D03*
X43500Y340500D02*
D03*
X18100D02*
D03*
X43500Y365900D02*
D03*
X18100D02*
D03*
X43500Y391300D02*
D03*
X18100D02*
D03*
X43500Y416700D02*
D03*
X18100D02*
D03*
X43500Y442100D02*
D03*
X1463040Y99060D02*
D03*
X1488440Y124460D02*
D03*
X1463040D02*
D03*
X1488440Y149860D02*
D03*
X1463040D02*
D03*
X1488440Y175260D02*
D03*
X1463040D02*
D03*
X1488440Y200660D02*
D03*
X1463040D02*
D03*
X1488440Y226060D02*
D03*
X1463040D02*
D03*
X1488440Y251460D02*
D03*
X1463040D02*
D03*
X1488440Y276860D02*
D03*
X1463040D02*
D03*
X1488440Y302260D02*
D03*
X1463040D02*
D03*
X1488440Y327660D02*
D03*
X1463040D02*
D03*
X112160Y877570D02*
D03*
X291230D02*
D03*
X1398270Y693420D02*
D03*
Y668020D02*
D03*
X1372870Y693420D02*
D03*
Y668020D02*
D03*
X1347470Y693420D02*
D03*
Y668020D02*
D03*
X1322070Y693420D02*
D03*
Y668020D02*
D03*
X1296670Y693420D02*
D03*
Y668020D02*
D03*
X1271270Y693420D02*
D03*
Y668020D02*
D03*
X1245870Y693420D02*
D03*
Y668020D02*
D03*
X1220470Y693420D02*
D03*
Y668020D02*
D03*
X1195070Y693420D02*
D03*
Y668020D02*
D03*
X1169670Y693420D02*
D03*
Y668020D02*
D03*
X1144270Y693420D02*
D03*
Y668020D02*
D03*
X1118870Y693420D02*
D03*
Y668020D02*
D03*
X1093470Y693420D02*
D03*
Y668020D02*
D03*
X1068070Y693420D02*
D03*
Y668020D02*
D03*
X1042670Y693420D02*
D03*
Y668020D02*
D03*
X1017270Y693420D02*
D03*
X938550Y691650D02*
D03*
Y666250D02*
D03*
X913150Y691650D02*
D03*
Y666250D02*
D03*
X887750Y691650D02*
D03*
Y666250D02*
D03*
X862350Y691650D02*
D03*
Y666250D02*
D03*
X836950Y691650D02*
D03*
Y666250D02*
D03*
X811550Y691650D02*
D03*
Y666250D02*
D03*
X786150Y691650D02*
D03*
Y666250D02*
D03*
X760750Y691650D02*
D03*
Y666250D02*
D03*
X735350Y691650D02*
D03*
Y666250D02*
D03*
X709950Y691650D02*
D03*
Y666250D02*
D03*
X684550Y691650D02*
D03*
Y666250D02*
D03*
X659150Y691650D02*
D03*
Y666250D02*
D03*
X633750Y691650D02*
D03*
Y666250D02*
D03*
X608350Y691650D02*
D03*
Y666250D02*
D03*
X582950Y691650D02*
D03*
Y666250D02*
D03*
X557550Y691650D02*
D03*
Y666250D02*
D03*
X532150Y691650D02*
D03*
Y666250D02*
D03*
X506750Y691650D02*
D03*
Y666250D02*
D03*
X481350Y691650D02*
D03*
X1247140Y581660D02*
D03*
X1221740Y607060D02*
D03*
Y581660D02*
D03*
X1196340Y607060D02*
D03*
Y581660D02*
D03*
X909320Y961390D02*
D03*
X883920D02*
D03*
X1383030Y956310D02*
D03*
X1357630D02*
D03*
X1139190Y962660D02*
D03*
X1164590D02*
D03*
X1071880Y48260D02*
D03*
Y22860D02*
D03*
X1046480Y48260D02*
D03*
Y22860D02*
D03*
X1021080Y48260D02*
D03*
Y22860D02*
D03*
X995680Y48260D02*
D03*
Y22860D02*
D03*
X970280Y48260D02*
D03*
Y22860D02*
D03*
X944880Y48260D02*
D03*
X553720Y46990D02*
D03*
X105410Y43180D02*
D03*
X695960Y792480D02*
D03*
X721360Y767080D02*
D03*
Y792480D02*
D03*
X746760Y767080D02*
D03*
Y792480D02*
D03*
X772160Y767080D02*
D03*
Y792480D02*
D03*
X797560Y767080D02*
D03*
Y792480D02*
D03*
X822960Y767080D02*
D03*
Y792480D02*
D03*
X848360Y767080D02*
D03*
Y792480D02*
D03*
X873760Y767080D02*
D03*
Y792480D02*
D03*
X469900Y878840D02*
D03*
X796290Y951230D02*
D03*
Y925830D02*
D03*
X770890Y951230D02*
D03*
X469900Y963930D02*
D03*
X1051560Y332740D02*
D03*
Y307340D02*
D03*
X1026160Y332740D02*
D03*
Y307340D02*
D03*
X1000760Y332740D02*
D03*
Y307340D02*
D03*
X975360Y332740D02*
D03*
Y307340D02*
D03*
X949960Y332740D02*
D03*
Y307340D02*
D03*
X924560Y332740D02*
D03*
Y307340D02*
D03*
X899160Y332740D02*
D03*
Y307340D02*
D03*
X873760Y332740D02*
D03*
Y307340D02*
D03*
X848360Y332740D02*
D03*
Y307340D02*
D03*
X822960Y332740D02*
D03*
Y307340D02*
D03*
X797560Y332740D02*
D03*
Y307340D02*
D03*
X772160Y332740D02*
D03*
Y307340D02*
D03*
X746760Y332740D02*
D03*
Y307340D02*
D03*
X721360Y332740D02*
D03*
Y307340D02*
D03*
X695960Y332740D02*
D03*
Y307340D02*
D03*
X670560Y332740D02*
D03*
X591650Y334050D02*
D03*
Y308650D02*
D03*
X566250Y334050D02*
D03*
Y308650D02*
D03*
X540850Y334050D02*
D03*
Y308650D02*
D03*
X515450Y334050D02*
D03*
Y308650D02*
D03*
X490050Y334050D02*
D03*
Y308650D02*
D03*
X464650Y334050D02*
D03*
Y308650D02*
D03*
X439250Y334050D02*
D03*
Y308650D02*
D03*
X413850Y334050D02*
D03*
Y308650D02*
D03*
X388450Y334050D02*
D03*
Y308650D02*
D03*
X363050Y334050D02*
D03*
Y308650D02*
D03*
X337650Y334050D02*
D03*
Y308650D02*
D03*
X312250Y334050D02*
D03*
Y308650D02*
D03*
X286850Y334050D02*
D03*
Y308650D02*
D03*
X261450Y334050D02*
D03*
Y308650D02*
D03*
X236050Y334050D02*
D03*
Y308650D02*
D03*
X210650Y334050D02*
D03*
Y308650D02*
D03*
X185250Y334050D02*
D03*
Y308650D02*
D03*
X159850Y334050D02*
D03*
Y308650D02*
D03*
X134450Y334050D02*
D03*
X1129030Y336550D02*
D03*
X1154430Y311150D02*
D03*
Y336550D02*
D03*
X1179830Y311150D02*
D03*
Y336550D02*
D03*
X1295400Y306070D02*
D03*
Y331470D02*
D03*
X1320800Y306070D02*
D03*
Y331470D02*
D03*
X1346200Y306070D02*
D03*
Y331470D02*
D03*
X1371600Y306070D02*
D03*
X288290Y541020D02*
D03*
X313690D02*
D03*
X288290Y515620D02*
D03*
X313690D02*
D03*
X288290Y490220D02*
D03*
X313690D02*
D03*
X288290Y464820D02*
D03*
X580390Y806450D02*
D03*
X605790D02*
D03*
X1128375Y610911D02*
D03*
X1331575Y614721D02*
D03*
X911860Y556260D02*
D03*
X822960Y85090D02*
D03*
Y59690D02*
D03*
X55880Y800100D02*
D03*
X81280Y774700D02*
D03*
Y800100D02*
D03*
X250190Y826770D02*
D03*
X275590Y801370D02*
D03*
Y826770D02*
D03*
X1285748Y896112D02*
D03*
X1311148Y870712D02*
D03*
Y896112D02*
D03*
X1336548Y870712D02*
D03*
Y896112D02*
D03*
X1361948Y870712D02*
D03*
Y896112D02*
D03*
X1387348Y870712D02*
D03*
Y896112D02*
D03*
D33*
X673100Y943610D02*
D03*
X528100D02*
D03*
X679100Y992610D02*
D03*
X522100D02*
D03*
D34*
X188160Y928570D02*
D03*
X86160D02*
D03*
X367230D02*
D03*
X265230D02*
D03*
D35*
X1326010Y48090D02*
D03*
X1223010D02*
D03*
D36*
X1326010Y85090D02*
D03*
Y20090D02*
D03*
X1223010D02*
D03*
Y85090D02*
D03*
D37*
X473940Y806450D02*
D03*
D38*
X369340D02*
D03*
M02*
