G04 Layer_Color=8421504*
%FSLAX44Y44*%
%MOMM*%
G71*
G01*
G75*
%ADD10R,1.4250X2.5000*%
%ADD11R,0.4000X1.7500*%
%ADD12R,1.5000X1.5000*%
%ADD13R,1.4000X2.1000*%
%ADD14R,0.3000X1.9000*%
%ADD15R,1.2000X0.5500*%
%ADD16R,2.1000X1.4000*%
%ADD17C,0.3600*%
%ADD18R,1.8500X0.6000*%
%ADD19C,0.4500*%
%ADD20O,1.6000X0.4500*%
%ADD21O,0.6000X2.2000*%
%ADD22R,1.8000X2.0000*%
%ADD23R,0.6000X1.0000*%
%ADD24R,3.2500X1.7500*%
%ADD25R,1.0000X1.7500*%
%ADD26R,1.3000X1.1000*%
G36*
X998298Y963044D02*
X980048D01*
Y970044D01*
X985298D01*
Y994544D01*
X998298D01*
Y963044D01*
D02*
G37*
G36*
X1052798Y970044D02*
X1058048D01*
Y963044D01*
X1039798D01*
Y994544D01*
X1052798D01*
Y970044D01*
D02*
G37*
D10*
X1009423Y986044D02*
D03*
X1028673D02*
D03*
D11*
X1032048Y955294D02*
D03*
X1025548D02*
D03*
X1019048D02*
D03*
X1012548D02*
D03*
X1006048D02*
D03*
D12*
X686050Y17700D02*
D03*
X721050D02*
D03*
X595950Y17900D02*
D03*
X630950D02*
D03*
D13*
X12700Y239590D02*
D03*
Y148590D02*
D03*
X57700D02*
D03*
Y239590D02*
D03*
X1452880Y538040D02*
D03*
Y447040D02*
D03*
X1497880D02*
D03*
Y538040D02*
D03*
D14*
X558100Y931610D02*
D03*
X553100D02*
D03*
X563100D02*
D03*
X568100D02*
D03*
X573100D02*
D03*
X578100D02*
D03*
X583100D02*
D03*
X588100D02*
D03*
X593100D02*
D03*
X598100D02*
D03*
X603100D02*
D03*
X608100D02*
D03*
X613100D02*
D03*
X618100D02*
D03*
X623100D02*
D03*
X628100D02*
D03*
X633100D02*
D03*
X638100D02*
D03*
X643100D02*
D03*
D15*
X964850Y579300D02*
D03*
Y571300D02*
D03*
Y563300D02*
D03*
Y555300D02*
D03*
Y547300D02*
D03*
Y539300D02*
D03*
Y531300D02*
D03*
Y523300D02*
D03*
Y515300D02*
D03*
Y507300D02*
D03*
Y499300D02*
D03*
Y491300D02*
D03*
Y483300D02*
D03*
Y475300D02*
D03*
Y467300D02*
D03*
Y459300D02*
D03*
Y451300D02*
D03*
Y443300D02*
D03*
Y435300D02*
D03*
Y427300D02*
D03*
Y419300D02*
D03*
Y411300D02*
D03*
X1079850Y579300D02*
D03*
Y571300D02*
D03*
Y563300D02*
D03*
Y555300D02*
D03*
Y547300D02*
D03*
Y539300D02*
D03*
Y531300D02*
D03*
Y523300D02*
D03*
Y515300D02*
D03*
Y507300D02*
D03*
Y499300D02*
D03*
Y491300D02*
D03*
Y483300D02*
D03*
Y475300D02*
D03*
Y467300D02*
D03*
Y459300D02*
D03*
Y451300D02*
D03*
Y443300D02*
D03*
Y435300D02*
D03*
Y427300D02*
D03*
Y419300D02*
D03*
Y411300D02*
D03*
X441610Y584380D02*
D03*
Y576380D02*
D03*
Y568380D02*
D03*
Y560380D02*
D03*
Y552380D02*
D03*
Y544380D02*
D03*
Y536380D02*
D03*
Y528380D02*
D03*
Y520380D02*
D03*
Y512380D02*
D03*
Y504380D02*
D03*
Y496380D02*
D03*
Y488380D02*
D03*
Y480380D02*
D03*
Y472380D02*
D03*
Y464380D02*
D03*
Y456380D02*
D03*
Y448380D02*
D03*
Y440380D02*
D03*
Y432380D02*
D03*
Y424380D02*
D03*
Y416380D02*
D03*
X556610Y584380D02*
D03*
Y576380D02*
D03*
Y568380D02*
D03*
Y560380D02*
D03*
Y552380D02*
D03*
Y544380D02*
D03*
Y536380D02*
D03*
Y528380D02*
D03*
Y520380D02*
D03*
Y512380D02*
D03*
Y504380D02*
D03*
Y496380D02*
D03*
Y488380D02*
D03*
Y480380D02*
D03*
Y472380D02*
D03*
Y464380D02*
D03*
Y456380D02*
D03*
Y448380D02*
D03*
Y440380D02*
D03*
Y432380D02*
D03*
Y424380D02*
D03*
Y416380D02*
D03*
D16*
X382710Y13970D02*
D03*
X473710D02*
D03*
Y58970D02*
D03*
X382710D02*
D03*
X201100Y12700D02*
D03*
X292100D02*
D03*
Y57700D02*
D03*
X201100D02*
D03*
D17*
X841430Y428570D02*
D03*
X833430D02*
D03*
X825430D02*
D03*
X817430D02*
D03*
X809430D02*
D03*
X801430D02*
D03*
X793430D02*
D03*
X785430D02*
D03*
X777430D02*
D03*
X769430D02*
D03*
X761430D02*
D03*
X753430D02*
D03*
X745430D02*
D03*
X737430D02*
D03*
X729430D02*
D03*
X721430D02*
D03*
X713430D02*
D03*
X705430D02*
D03*
X841430Y436570D02*
D03*
X833430D02*
D03*
X825430D02*
D03*
X817430D02*
D03*
X809430D02*
D03*
X801430D02*
D03*
X793430D02*
D03*
X785430D02*
D03*
X777430D02*
D03*
X769430D02*
D03*
X761430D02*
D03*
X753430D02*
D03*
X745430D02*
D03*
X737430D02*
D03*
X729430D02*
D03*
X721430D02*
D03*
X713430D02*
D03*
X705430D02*
D03*
X841430Y444570D02*
D03*
X833430D02*
D03*
X825430D02*
D03*
X817430D02*
D03*
X809430D02*
D03*
X801430D02*
D03*
X793430D02*
D03*
X785430D02*
D03*
X777430D02*
D03*
X769430D02*
D03*
X761430D02*
D03*
X753430D02*
D03*
X745430D02*
D03*
X737430D02*
D03*
X729430D02*
D03*
X721430D02*
D03*
X713430D02*
D03*
X705430D02*
D03*
X841430Y452570D02*
D03*
X833430D02*
D03*
X825430D02*
D03*
X817430D02*
D03*
X809430D02*
D03*
X801430D02*
D03*
X793430D02*
D03*
X785430D02*
D03*
X777430D02*
D03*
X769430D02*
D03*
X761430D02*
D03*
X753430D02*
D03*
X745430D02*
D03*
X737430D02*
D03*
X729430D02*
D03*
X721430D02*
D03*
X713430D02*
D03*
X705430D02*
D03*
X841430Y460570D02*
D03*
X833430D02*
D03*
X825430D02*
D03*
X817430D02*
D03*
X809430D02*
D03*
X801430D02*
D03*
X793430D02*
D03*
X785430D02*
D03*
X777430D02*
D03*
X769430D02*
D03*
X761430D02*
D03*
X753430D02*
D03*
X745430D02*
D03*
X737430D02*
D03*
X729430D02*
D03*
X721430D02*
D03*
X713430D02*
D03*
X705430D02*
D03*
X841430Y468570D02*
D03*
X833430D02*
D03*
X825430D02*
D03*
X817430D02*
D03*
X809430D02*
D03*
X801430D02*
D03*
X793430D02*
D03*
X785430D02*
D03*
X777430D02*
D03*
X769430D02*
D03*
X761430D02*
D03*
X753430D02*
D03*
X745430D02*
D03*
X737430D02*
D03*
X729430D02*
D03*
X721430D02*
D03*
X713430D02*
D03*
X705430D02*
D03*
X841430Y476570D02*
D03*
X833430D02*
D03*
X825430D02*
D03*
X817430D02*
D03*
X809430D02*
D03*
X801430D02*
D03*
X793430D02*
D03*
X785430D02*
D03*
X777430D02*
D03*
X769430D02*
D03*
X761430D02*
D03*
X753430D02*
D03*
X745430D02*
D03*
X737430D02*
D03*
X729430D02*
D03*
X721430D02*
D03*
X713430D02*
D03*
X705430D02*
D03*
X841430Y484570D02*
D03*
X833430D02*
D03*
X825430D02*
D03*
X817430D02*
D03*
X809430D02*
D03*
X801430D02*
D03*
X793430D02*
D03*
X785430D02*
D03*
X777430D02*
D03*
X769430D02*
D03*
X761430D02*
D03*
X753430D02*
D03*
X745430D02*
D03*
X737430D02*
D03*
X729430D02*
D03*
X721430D02*
D03*
X713430D02*
D03*
X705430D02*
D03*
X841430Y492570D02*
D03*
X833430D02*
D03*
X825430D02*
D03*
X817430D02*
D03*
X809430D02*
D03*
X801430D02*
D03*
X793430D02*
D03*
X785430D02*
D03*
X777430D02*
D03*
X769430D02*
D03*
X761430D02*
D03*
X753430D02*
D03*
X745430D02*
D03*
X737430D02*
D03*
X729430D02*
D03*
X721430D02*
D03*
X713430D02*
D03*
X705430D02*
D03*
X841430Y500570D02*
D03*
X833430D02*
D03*
X825430D02*
D03*
X817430D02*
D03*
X809430D02*
D03*
X801430D02*
D03*
X793430D02*
D03*
X785430D02*
D03*
X777430D02*
D03*
X769430D02*
D03*
X761430D02*
D03*
X753430D02*
D03*
X745430D02*
D03*
X737430D02*
D03*
X729430D02*
D03*
X721430D02*
D03*
X713430D02*
D03*
X705430D02*
D03*
X841430Y508570D02*
D03*
X833430D02*
D03*
X825430D02*
D03*
X817430D02*
D03*
X809430D02*
D03*
X801430D02*
D03*
X793430D02*
D03*
X785430D02*
D03*
X777430D02*
D03*
X769430D02*
D03*
X761430D02*
D03*
X753430D02*
D03*
X745430D02*
D03*
X737430D02*
D03*
X729430D02*
D03*
X721430D02*
D03*
X713430D02*
D03*
X705430D02*
D03*
X841430Y516570D02*
D03*
X833430D02*
D03*
X825430D02*
D03*
X817430D02*
D03*
X809430D02*
D03*
X801430D02*
D03*
X793430D02*
D03*
X785430D02*
D03*
X777430D02*
D03*
X769430D02*
D03*
X761430D02*
D03*
X753430D02*
D03*
X745430D02*
D03*
X737430D02*
D03*
X729430D02*
D03*
X721430D02*
D03*
X713430D02*
D03*
X705430D02*
D03*
X841430Y524570D02*
D03*
X833430D02*
D03*
X825430D02*
D03*
X817430D02*
D03*
X809430D02*
D03*
X801430D02*
D03*
X793430D02*
D03*
X785430D02*
D03*
X777430D02*
D03*
X769430D02*
D03*
X761430D02*
D03*
X753430D02*
D03*
X745430D02*
D03*
X737430D02*
D03*
X729430D02*
D03*
X721430D02*
D03*
X713430D02*
D03*
X705430D02*
D03*
X841430Y532570D02*
D03*
X833430D02*
D03*
X825430D02*
D03*
X817430D02*
D03*
X809430D02*
D03*
X801430D02*
D03*
X793430D02*
D03*
X785430D02*
D03*
X777430D02*
D03*
X769430D02*
D03*
X761430D02*
D03*
X753430D02*
D03*
X745430D02*
D03*
X737430D02*
D03*
X729430D02*
D03*
X721430D02*
D03*
X713430D02*
D03*
X705430D02*
D03*
X841430Y540570D02*
D03*
X833430D02*
D03*
X825430D02*
D03*
X817430D02*
D03*
X809430D02*
D03*
X801430D02*
D03*
X793430D02*
D03*
X785430D02*
D03*
X777430D02*
D03*
X769430D02*
D03*
X761430D02*
D03*
X753430D02*
D03*
X745430D02*
D03*
X737430D02*
D03*
X729430D02*
D03*
X721430D02*
D03*
X713430D02*
D03*
X705430D02*
D03*
X841430Y548570D02*
D03*
X833430D02*
D03*
X825430D02*
D03*
X817430D02*
D03*
X809430D02*
D03*
X801430D02*
D03*
X793430D02*
D03*
X785430D02*
D03*
X777430D02*
D03*
X769430D02*
D03*
X761430D02*
D03*
X753430D02*
D03*
X745430D02*
D03*
X737430D02*
D03*
X729430D02*
D03*
X721430D02*
D03*
X713430D02*
D03*
X705430D02*
D03*
X841430Y556570D02*
D03*
X833430D02*
D03*
X825430D02*
D03*
X817430D02*
D03*
X809430D02*
D03*
X801430D02*
D03*
X793430D02*
D03*
X785430D02*
D03*
X777430D02*
D03*
X769430D02*
D03*
X761430D02*
D03*
X753430D02*
D03*
X745430D02*
D03*
X737430D02*
D03*
X729430D02*
D03*
X721430D02*
D03*
X713430D02*
D03*
X705430D02*
D03*
X841430Y564570D02*
D03*
X833430D02*
D03*
X825430D02*
D03*
X817430D02*
D03*
X809430D02*
D03*
X801430D02*
D03*
X793430D02*
D03*
X785430D02*
D03*
X777430D02*
D03*
X769430D02*
D03*
X761430D02*
D03*
X753430D02*
D03*
X745430D02*
D03*
X737430D02*
D03*
X729430D02*
D03*
X721430D02*
D03*
X713430D02*
D03*
X705430D02*
D03*
D18*
X1213880Y156210D02*
D03*
Y168910D02*
D03*
Y181610D02*
D03*
Y194310D02*
D03*
Y207010D02*
D03*
Y219710D02*
D03*
Y232410D02*
D03*
Y245110D02*
D03*
X1120380Y156210D02*
D03*
Y168910D02*
D03*
Y181610D02*
D03*
Y194310D02*
D03*
Y207010D02*
D03*
Y219710D02*
D03*
Y232410D02*
D03*
Y245110D02*
D03*
D19*
X1190630Y523870D02*
D03*
X1198630D02*
D03*
X1206630D02*
D03*
X1214630D02*
D03*
X1222630D02*
D03*
X1230630D02*
D03*
X1238630D02*
D03*
X1246630D02*
D03*
X1254630D02*
D03*
X1262630D02*
D03*
X1270630D02*
D03*
X1190630Y515870D02*
D03*
X1198630D02*
D03*
X1206630D02*
D03*
X1214630D02*
D03*
X1222630D02*
D03*
X1230630D02*
D03*
X1238630D02*
D03*
X1246630D02*
D03*
X1254630D02*
D03*
X1262630D02*
D03*
X1270630D02*
D03*
X1190630Y507870D02*
D03*
X1198630D02*
D03*
X1206630D02*
D03*
X1214630D02*
D03*
X1222630D02*
D03*
X1230630D02*
D03*
X1238630D02*
D03*
X1246630D02*
D03*
X1254630D02*
D03*
X1262630D02*
D03*
X1270630D02*
D03*
X1190630Y499870D02*
D03*
X1198630D02*
D03*
X1206630D02*
D03*
X1214630D02*
D03*
X1222630D02*
D03*
X1230630D02*
D03*
X1238630D02*
D03*
X1246630D02*
D03*
X1254630D02*
D03*
X1262630D02*
D03*
X1270630D02*
D03*
X1190630Y491870D02*
D03*
X1198630D02*
D03*
X1206630D02*
D03*
X1214630D02*
D03*
X1222630D02*
D03*
X1230630D02*
D03*
X1238630D02*
D03*
X1246630D02*
D03*
X1254630D02*
D03*
X1262630D02*
D03*
X1270630D02*
D03*
X1190630Y483870D02*
D03*
X1198630D02*
D03*
X1206630D02*
D03*
X1214630D02*
D03*
X1222630D02*
D03*
X1230630D02*
D03*
X1238630D02*
D03*
X1246630D02*
D03*
X1254630D02*
D03*
X1262630D02*
D03*
X1270630D02*
D03*
X1190630Y475870D02*
D03*
X1198630D02*
D03*
X1206630D02*
D03*
X1214630D02*
D03*
X1222630D02*
D03*
X1230630D02*
D03*
X1238630D02*
D03*
X1246630D02*
D03*
X1254630D02*
D03*
X1262630D02*
D03*
X1270630D02*
D03*
X1190630Y467870D02*
D03*
X1198630D02*
D03*
X1206630D02*
D03*
X1214630D02*
D03*
X1222630D02*
D03*
X1230630D02*
D03*
X1238630D02*
D03*
X1246630D02*
D03*
X1254630D02*
D03*
X1262630D02*
D03*
X1270630D02*
D03*
X1190630Y459870D02*
D03*
X1198630D02*
D03*
X1206630D02*
D03*
X1214630D02*
D03*
X1222630D02*
D03*
X1230630D02*
D03*
X1238630D02*
D03*
X1246630D02*
D03*
X1254630D02*
D03*
X1262630D02*
D03*
X1270630D02*
D03*
X1190630Y451870D02*
D03*
X1198630D02*
D03*
X1206630D02*
D03*
X1214630D02*
D03*
X1222630D02*
D03*
X1230630D02*
D03*
X1238630D02*
D03*
X1246630D02*
D03*
X1254630D02*
D03*
X1262630D02*
D03*
X1270630D02*
D03*
X1190630Y443870D02*
D03*
X1198630D02*
D03*
X1206630D02*
D03*
X1214630D02*
D03*
X1222630D02*
D03*
X1230630D02*
D03*
X1238630D02*
D03*
X1246630D02*
D03*
X1254630D02*
D03*
X1262630D02*
D03*
X1270630D02*
D03*
D20*
X57220Y678590D02*
D03*
Y685090D02*
D03*
Y691590D02*
D03*
Y698090D02*
D03*
X34220Y678590D02*
D03*
Y685090D02*
D03*
Y691590D02*
D03*
Y698090D02*
D03*
X226130Y678590D02*
D03*
Y685090D02*
D03*
Y691590D02*
D03*
Y698090D02*
D03*
X203130Y678590D02*
D03*
Y685090D02*
D03*
Y691590D02*
D03*
Y698090D02*
D03*
D21*
X80010Y522100D02*
D03*
X92710D02*
D03*
X105410D02*
D03*
X118110D02*
D03*
X80010Y570100D02*
D03*
X92710D02*
D03*
X105410D02*
D03*
X118110D02*
D03*
D22*
X964545Y795151D02*
D03*
X1015345D02*
D03*
Y753151D02*
D03*
X964545D02*
D03*
X1157585Y749341D02*
D03*
X1208385D02*
D03*
Y791341D02*
D03*
X1157585D02*
D03*
D23*
X1124610Y899960D02*
D03*
X1143610D02*
D03*
Y872960D02*
D03*
X1134110D02*
D03*
X1124610D02*
D03*
X515010Y750350D02*
D03*
X534010D02*
D03*
Y722850D02*
D03*
X524510D02*
D03*
X515010D02*
D03*
D24*
X906780Y926600D02*
D03*
D25*
X929780Y864100D02*
D03*
X906780D02*
D03*
X883780D02*
D03*
D26*
X1313795Y756961D02*
D03*
X1334795D02*
D03*
Y775961D02*
D03*
X1313795D02*
D03*
M02*
