G04 Layer_Color=32768*
%FSLAX44Y44*%
%MOMM*%
G71*
G01*
G75*
%ADD100C,0.1000*%
%ADD101C,0.0500*%
D100*
X817960Y604520D02*
X827960D01*
X822960Y599520D02*
Y609520D01*
X101570Y455550D02*
Y471550D01*
X129570Y455550D02*
Y471550D01*
X101570Y455550D02*
X129570D01*
X101570Y471550D02*
X129570D01*
X110570Y463550D02*
X120570D01*
X115570Y458550D02*
Y468550D01*
X878840Y464900D02*
Y474900D01*
X873840Y469900D02*
X883840D01*
X814150Y392430D02*
X824150D01*
X819150Y387430D02*
Y397430D01*
X716360Y391160D02*
X726360D01*
X721360Y386160D02*
Y396160D01*
X1017350Y495300D02*
X1027350D01*
X1022350Y490300D02*
Y500300D01*
X494110Y500380D02*
X504110D01*
X499110Y495380D02*
Y505380D01*
X773430Y491570D02*
Y501570D01*
X768430Y496570D02*
X778430D01*
X688430Y411570D02*
X858430D01*
X688430Y581570D02*
X858430D01*
Y411570D02*
Y581570D01*
X688430Y411570D02*
Y581570D01*
X1167130Y195660D02*
Y205660D01*
X1162130Y200660D02*
X1172130D01*
X1225630Y483870D02*
X1235630D01*
X1230630Y478870D02*
Y488870D01*
X40720Y688340D02*
X50720D01*
X45720Y683340D02*
Y693340D01*
X209630Y688340D02*
X219630D01*
X214630Y683340D02*
Y693340D01*
X94060Y546100D02*
X104060D01*
X99060Y541100D02*
Y551100D01*
X1129110Y886460D02*
X1139110D01*
X1134110Y881460D02*
Y891460D01*
X901780Y895350D02*
X911780D01*
X906780Y890350D02*
Y900350D01*
X519510Y736600D02*
X529510D01*
X524510Y731600D02*
Y741600D01*
X665480Y473790D02*
Y483790D01*
X660480Y478790D02*
X670480D01*
X717630Y601980D02*
X727630D01*
X722630Y596980D02*
Y606980D01*
D101*
X830960Y590520D02*
Y618520D01*
X814960Y590520D02*
Y618520D01*
Y590520D02*
X830960D01*
X814960Y618520D02*
X830960D01*
X517820Y778060D02*
X538820D01*
X517820Y817060D02*
X538820D01*
Y778060D02*
Y817060D01*
X517820Y778060D02*
Y817060D01*
X528320Y792810D02*
Y802310D01*
X523570Y797560D02*
X533070D01*
X549570Y724720D02*
X570570D01*
X549570Y763720D02*
X570570D01*
Y724720D02*
Y763720D01*
X549570Y724720D02*
Y763720D01*
X560070Y739470D02*
Y748970D01*
X555320Y744220D02*
X564820D01*
X477180Y727260D02*
X498180D01*
X477180Y766260D02*
X498180D01*
Y727260D02*
Y766260D01*
X477180Y727260D02*
Y766260D01*
X487680Y742010D02*
Y751510D01*
X482930Y746760D02*
X492430D01*
X1036595Y776461D02*
X1057596D01*
X1036595Y737461D02*
X1057596D01*
X1036595D02*
Y776461D01*
X1057596Y737461D02*
Y776461D01*
X1047095Y752211D02*
Y761711D01*
X1042345Y756961D02*
X1051845D01*
X922295Y732381D02*
X943296D01*
X922295Y771381D02*
X943296D01*
Y732381D02*
Y771381D01*
X922295Y732381D02*
Y771381D01*
X932796Y747131D02*
Y756631D01*
X928045Y751881D02*
X937545D01*
X1114065Y737461D02*
X1135066D01*
X1114065Y776461D02*
X1135066D01*
Y737461D02*
Y776461D01*
X1114065Y737461D02*
Y776461D01*
X1124566Y752211D02*
Y761711D01*
X1119815Y756961D02*
X1129315D01*
X1232175Y738731D02*
X1253176D01*
X1232175Y777731D02*
X1253176D01*
Y738731D02*
Y777731D01*
X1232175Y738731D02*
Y777731D01*
X1242676Y753481D02*
Y762981D01*
X1237925Y758231D02*
X1247426D01*
X1365525Y773921D02*
X1386526D01*
X1365525Y734921D02*
X1386526D01*
X1365525D02*
Y773921D01*
X1386526Y734921D02*
Y773921D01*
X1376025Y749671D02*
Y759171D01*
X1371275Y754421D02*
X1380775D01*
X1265195Y775191D02*
X1286196D01*
X1265195Y736191D02*
X1286196D01*
X1265195D02*
Y775191D01*
X1286196Y736191D02*
Y775191D01*
X1275695Y750941D02*
Y760441D01*
X1270945Y755691D02*
X1280446D01*
X28870Y493580D02*
X49870D01*
X28870Y532580D02*
X49870D01*
Y493580D02*
Y532580D01*
X28870Y493580D02*
Y532580D01*
X39370Y508330D02*
Y517830D01*
X34620Y513080D02*
X44120D01*
X159680Y507550D02*
X180680D01*
X159680Y546550D02*
X180680D01*
Y507550D02*
Y546550D01*
X159680Y507550D02*
Y546550D01*
X170180Y522300D02*
Y531800D01*
X165430Y527050D02*
X174930D01*
X160950Y579940D02*
X181950D01*
X160950Y618940D02*
X181950D01*
Y579940D02*
Y618940D01*
X160950Y579940D02*
Y618940D01*
X171450Y594690D02*
Y604190D01*
X166700Y599440D02*
X176200D01*
X214290Y588830D02*
X235290D01*
X214290Y627830D02*
X235290D01*
Y588830D02*
Y627830D01*
X214290Y588830D02*
Y627830D01*
X224790Y603580D02*
Y613080D01*
X220040Y608330D02*
X229540D01*
X35220Y592640D02*
X56220D01*
X35220Y631640D02*
X56220D01*
Y592640D02*
Y631640D01*
X35220Y592640D02*
Y631640D01*
X45720Y607390D02*
Y616890D01*
X40970Y612140D02*
X50470D01*
X1161710Y839020D02*
X1182710D01*
X1161710Y878020D02*
X1182710D01*
Y839020D02*
Y878020D01*
X1161710Y839020D02*
Y878020D01*
X1172210Y853770D02*
Y863270D01*
X1167460Y858520D02*
X1176960D01*
X1086780Y836480D02*
X1107780D01*
X1086780Y875480D02*
X1107780D01*
Y836480D02*
Y875480D01*
X1086780Y836480D02*
Y875480D01*
X1097280Y851230D02*
Y860730D01*
X1092530Y855980D02*
X1102030D01*
X945810Y842830D02*
X966810D01*
X945810Y881830D02*
X966810D01*
Y842830D02*
Y881830D01*
X945810Y842830D02*
Y881830D01*
X956310Y857580D02*
Y867080D01*
X951560Y862330D02*
X961060D01*
X850560Y842830D02*
X871560D01*
X850560Y881830D02*
X871560D01*
Y842830D02*
Y881830D01*
X850560Y842830D02*
Y881830D01*
X861060Y857580D02*
Y867080D01*
X856310Y862330D02*
X865810D01*
X1333950Y508930D02*
Y529930D01*
X1294950Y508930D02*
Y529930D01*
X1333950D01*
X1294950Y508930D02*
X1333950D01*
X1309700Y519430D02*
X1319200D01*
X1314450Y514680D02*
Y524180D01*
X1332680Y479720D02*
Y500720D01*
X1293680Y479720D02*
Y500720D01*
X1332680D01*
X1293680Y479720D02*
X1332680D01*
X1308430Y490220D02*
X1317930D01*
X1313180Y485470D02*
Y494970D01*
X1331410Y455590D02*
Y476590D01*
X1292410Y455590D02*
Y476590D01*
X1331410D01*
X1292410Y455590D02*
X1331410D01*
X1307160Y466090D02*
X1316660D01*
X1311910Y461340D02*
Y470840D01*
X1330140Y428920D02*
Y449920D01*
X1291140Y428920D02*
Y449920D01*
X1330140D01*
X1291140Y428920D02*
X1330140D01*
X1305890Y439420D02*
X1315390D01*
X1310640Y434670D02*
Y444170D01*
X1273470Y386900D02*
X1294470D01*
X1273470Y425900D02*
X1294470D01*
Y386900D02*
Y425900D01*
X1273470Y386900D02*
Y425900D01*
X1283970Y401650D02*
Y411150D01*
X1279220Y406400D02*
X1288720D01*
X1249340Y388170D02*
X1270340D01*
X1249340Y427170D02*
X1270340D01*
Y388170D02*
Y427170D01*
X1249340Y388170D02*
Y427170D01*
X1259840Y402920D02*
Y412420D01*
X1255090Y407670D02*
X1264590D01*
X1226480Y388170D02*
X1247480D01*
X1226480Y427170D02*
X1247480D01*
Y388170D02*
Y427170D01*
X1226480Y388170D02*
Y427170D01*
X1236980Y402920D02*
Y412420D01*
X1232230Y407670D02*
X1241730D01*
X1201080Y388170D02*
X1222080D01*
X1201080Y427170D02*
X1222080D01*
Y388170D02*
Y427170D01*
X1201080Y388170D02*
Y427170D01*
X1211580Y402920D02*
Y412420D01*
X1206830Y407670D02*
X1216330D01*
X1175680Y425900D02*
X1196680D01*
X1175680Y386900D02*
X1196680D01*
X1175680D02*
Y425900D01*
X1196680Y386900D02*
Y425900D01*
X1186180Y401650D02*
Y411150D01*
X1181430Y406400D02*
X1190930D01*
X1170120Y421300D02*
Y442300D01*
X1131120Y421300D02*
Y442300D01*
X1170120D01*
X1131120Y421300D02*
X1170120D01*
X1145870Y431800D02*
X1155370D01*
X1150620Y427050D02*
Y436550D01*
X1168850Y445430D02*
Y466430D01*
X1129850Y445430D02*
Y466430D01*
X1168850D01*
X1129850Y445430D02*
X1168850D01*
X1144600Y455930D02*
X1154100D01*
X1149350Y451180D02*
Y460680D01*
X1168850Y469560D02*
Y490560D01*
X1129850Y469560D02*
Y490560D01*
X1168850D01*
X1129850Y469560D02*
X1168850D01*
X1144600Y480060D02*
X1154100D01*
X1149350Y475310D02*
Y484810D01*
X1168850Y493690D02*
Y514690D01*
X1129850Y493690D02*
Y514690D01*
X1168850D01*
X1129850Y493690D02*
X1168850D01*
X1144600Y504190D02*
X1154100D01*
X1149350Y499440D02*
Y508940D01*
X1168850Y517820D02*
Y538820D01*
X1129850Y517820D02*
Y538820D01*
X1168850D01*
X1129850Y517820D02*
X1168850D01*
X1144600Y528320D02*
X1154100D01*
X1149350Y523570D02*
Y533070D01*
X899610Y482260D02*
Y503260D01*
X860610Y482260D02*
Y503260D01*
X899610D01*
X860610Y482260D02*
X899610D01*
X875360Y492760D02*
X884860D01*
X880110Y488010D02*
Y497510D01*
X899610Y435270D02*
Y456270D01*
X860610Y435270D02*
Y456270D01*
X899610D01*
X860610Y435270D02*
X899610D01*
X875360Y445770D02*
X884860D01*
X880110Y441020D02*
Y450520D01*
X899610Y411140D02*
Y432140D01*
X860610Y411140D02*
Y432140D01*
X899610D01*
X860610Y411140D02*
X899610D01*
X875360Y421640D02*
X884860D01*
X880110Y416890D02*
Y426390D01*
X832780Y370390D02*
X853780D01*
X832780Y409390D02*
X853780D01*
Y370390D02*
Y409390D01*
X832780Y370390D02*
Y409390D01*
X843280Y385140D02*
Y394640D01*
X838530Y389890D02*
X848030D01*
X785790Y370390D02*
X806790D01*
X785790Y409390D02*
X806790D01*
Y370390D02*
Y409390D01*
X785790Y370390D02*
Y409390D01*
X796290Y385140D02*
Y394640D01*
X791540Y389890D02*
X801040D01*
X759120Y370390D02*
X780120D01*
X759120Y409390D02*
X780120D01*
Y370390D02*
Y409390D01*
X759120Y370390D02*
Y409390D01*
X769620Y385140D02*
Y394640D01*
X764870Y389890D02*
X774370D01*
X733720Y370390D02*
X754720D01*
X733720Y409390D02*
X754720D01*
Y370390D02*
Y409390D01*
X733720Y370390D02*
Y409390D01*
X744220Y385140D02*
Y394640D01*
X739470Y389890D02*
X748970D01*
X686730Y370390D02*
X707730D01*
X686730Y409390D02*
X707730D01*
Y370390D02*
Y409390D01*
X686730Y370390D02*
Y409390D01*
X697230Y385140D02*
Y394640D01*
X692480Y389890D02*
X701980D01*
X644710Y421300D02*
Y442300D01*
X683710Y421300D02*
Y442300D01*
X644710Y421300D02*
X683710D01*
X644710Y442300D02*
X683710D01*
X659460Y431800D02*
X668960D01*
X664210Y427050D02*
Y436550D01*
X644710Y444160D02*
Y465160D01*
X683710Y444160D02*
Y465160D01*
X644710Y444160D02*
X683710D01*
X644710Y465160D02*
X683710D01*
X659460Y454660D02*
X668960D01*
X664210Y449910D02*
Y459410D01*
X645980Y492420D02*
Y513420D01*
X684980Y492420D02*
Y513420D01*
X645980Y492420D02*
X684980D01*
X645980Y513420D02*
X684980D01*
X660730Y502920D02*
X670230D01*
X665480Y498170D02*
Y507670D01*
X645980Y515280D02*
Y536280D01*
X684980Y515280D02*
Y536280D01*
X645980Y515280D02*
X684980D01*
X645980Y536280D02*
X684980D01*
X660730Y525780D02*
X670230D01*
X665480Y521030D02*
Y530530D01*
X684980Y538140D02*
Y559140D01*
X645980Y538140D02*
Y559140D01*
X684980D01*
X645980Y538140D02*
X684980D01*
X660730Y548640D02*
X670230D01*
X665480Y543890D02*
Y553390D01*
X684980Y562270D02*
Y583270D01*
X645980Y562270D02*
Y583270D01*
X684980D01*
X645980Y562270D02*
X684980D01*
X660730Y572770D02*
X670230D01*
X665480Y568020D02*
Y577520D01*
X689270Y621480D02*
X710270D01*
X689270Y582480D02*
X710270D01*
X689270D02*
Y621480D01*
X710270Y582480D02*
Y621480D01*
X699770Y597230D02*
Y606730D01*
X695020Y601980D02*
X704520D01*
X736260Y624020D02*
X757260D01*
X736260Y585020D02*
X757260D01*
X736260D02*
Y624020D01*
X757260Y585020D02*
Y624020D01*
X746760Y599770D02*
Y609270D01*
X742010Y604520D02*
X751510D01*
X761660Y625290D02*
X782660D01*
X761660Y586290D02*
X782660D01*
X761660D02*
Y625290D01*
X782660Y586290D02*
Y625290D01*
X772160Y601040D02*
Y610540D01*
X767410Y605790D02*
X776910D01*
X788330Y625290D02*
X809330D01*
X788330Y586290D02*
X809330D01*
X788330D02*
Y625290D01*
X809330Y586290D02*
Y625290D01*
X798830Y601040D02*
Y610540D01*
X794080Y605790D02*
X803580D01*
X836590Y627830D02*
X857590D01*
X836590Y588830D02*
X857590D01*
X836590D02*
Y627830D01*
X857590Y588830D02*
Y627830D01*
X847090Y603580D02*
Y613080D01*
X842340Y608330D02*
X851840D01*
X864840Y461900D02*
X892840D01*
X864840Y477900D02*
X892840D01*
X864840Y461900D02*
Y477900D01*
X892840Y461900D02*
Y477900D01*
X811150Y378430D02*
Y406430D01*
X827150Y378430D02*
Y406430D01*
X811150D02*
X827150D01*
X811150Y378430D02*
X827150D01*
X713360Y377160D02*
Y405160D01*
X729360Y377160D02*
Y405160D01*
X713360D02*
X729360D01*
X713360Y377160D02*
X729360D01*
X956350Y399800D02*
Y590800D01*
X1088350Y399800D02*
Y590800D01*
X956350D02*
X1088350D01*
X956350Y399800D02*
X1088350D01*
X433110Y404880D02*
Y595880D01*
X565110Y404880D02*
Y595880D01*
X433110D02*
X565110D01*
X433110Y404880D02*
X565110D01*
X1108880Y146660D02*
X1225380D01*
X1108880Y254660D02*
X1225380D01*
Y146660D02*
Y254660D01*
X1108880Y146660D02*
Y254660D01*
X1175630Y428870D02*
Y538870D01*
X1285630Y428870D02*
Y538870D01*
X1175630D02*
X1285630D01*
X1175630Y428870D02*
X1285630D01*
X67720Y670840D02*
Y705840D01*
X23720Y670840D02*
Y705840D01*
Y670840D02*
X67720D01*
X23720Y705840D02*
X67720D01*
X236630Y670840D02*
Y705840D01*
X192630Y670840D02*
Y705840D01*
Y670840D02*
X236630D01*
X192630Y705840D02*
X236630D01*
X71560Y508600D02*
Y583600D01*
X126560Y508600D02*
Y583600D01*
X71560Y508600D02*
X126560D01*
X71560Y583600D02*
X126560D01*
X1151610Y865710D02*
Y907210D01*
X1116610Y865710D02*
Y907210D01*
X1151610D01*
X1116610Y865710D02*
X1151610D01*
X942780Y852850D02*
Y937850D01*
X870780Y852850D02*
Y937850D01*
X942780D01*
X870780Y852850D02*
X942780D01*
X542510Y715600D02*
Y757600D01*
X506510Y715600D02*
Y757600D01*
X542510D01*
X506510Y715600D02*
X542510D01*
X651480Y486790D02*
X679480D01*
X651480Y470790D02*
X679480D01*
Y486790D01*
X651480Y470790D02*
Y486790D01*
X714630Y587980D02*
Y615980D01*
X730630Y587980D02*
Y615980D01*
X714630D02*
X730630D01*
X714630Y587980D02*
X730630D01*
X591370Y367960D02*
Y388960D01*
X630370Y367960D02*
Y388960D01*
X591370Y367960D02*
X630370D01*
X591370Y388960D02*
X630370D01*
X606120Y378460D02*
X615620D01*
X610870Y373710D02*
Y383210D01*
X638360Y36490D02*
Y57490D01*
X677360Y36490D02*
Y57490D01*
X638360Y36490D02*
X677360D01*
X638360Y57490D02*
X677360D01*
X653110Y46990D02*
X662610D01*
X657860Y42240D02*
Y51740D01*
X728530Y40300D02*
Y61300D01*
X767530Y40300D02*
Y61300D01*
X728530Y40300D02*
X767530D01*
X728530Y61300D02*
X767530D01*
X743280Y50800D02*
X752780D01*
X748030Y46050D02*
Y55550D01*
M02*
