G04 Layer_Physical_Order=1*
G04 Layer_Color=255*
%FSLAX44Y44*%
%MOMM*%
G71*
G01*
G75*
%ADD10R,1.3000X1.1000*%
%ADD11R,1.8000X2.0000*%
%ADD12R,0.6000X1.0000*%
%ADD13R,1.0000X1.7500*%
%ADD14R,3.2500X1.7500*%
%ADD15O,0.6000X2.2000*%
%ADD16O,1.6000X0.4500*%
%ADD17C,0.4500*%
%ADD18R,1.8500X0.6000*%
%ADD19C,0.3600*%
%ADD20R,1.2000X0.5500*%
%ADD21R,2.1000X1.4000*%
%ADD22R,0.3000X1.9000*%
%ADD23R,1.4000X2.1000*%
%ADD24R,1.5000X1.5000*%
%ADD25R,0.4000X1.7500*%
%ADD26R,1.4250X2.5000*%
%ADD27C,0.1016*%
%ADD28C,0.2032*%
%ADD29C,0.8890*%
%ADD30C,0.5080*%
%ADD31C,1.0160*%
%ADD32C,1.5000*%
%ADD33C,2.0000*%
%ADD34R,2.0000X2.0000*%
%ADD35R,1.5000X1.5000*%
%ADD36O,1.3400X1.3500*%
%ADD37C,1.1500*%
%ADD38C,3.3000*%
%ADD39C,1.5240*%
%ADD40O,0.7000X1.2000*%
%ADD41R,2.0000X1.4000*%
%ADD42C,0.4064*%
%ADD43C,0.2540*%
%ADD44C,1.0160*%
G36*
X998298Y963044D02*
X980048D01*
Y970044D01*
X985298D01*
Y994544D01*
X998298D01*
Y963044D01*
D02*
G37*
G36*
X1052798Y970044D02*
X1058048D01*
Y963044D01*
X1039798D01*
Y994544D01*
X1052798D01*
Y970044D01*
D02*
G37*
D10*
X1313795Y775961D02*
D03*
X1334795D02*
D03*
Y756961D02*
D03*
X1313795D02*
D03*
D11*
X1157585Y791341D02*
D03*
X1208385D02*
D03*
Y749341D02*
D03*
X1157585D02*
D03*
X964545Y753151D02*
D03*
X1015345D02*
D03*
Y795151D02*
D03*
X964545D02*
D03*
D12*
X515010Y722850D02*
D03*
X524510D02*
D03*
X534010D02*
D03*
Y750350D02*
D03*
X515010D02*
D03*
X1124610Y872960D02*
D03*
X1134110D02*
D03*
X1143610D02*
D03*
Y899960D02*
D03*
X1124610D02*
D03*
D13*
X883780Y864100D02*
D03*
X906780D02*
D03*
X929780D02*
D03*
D14*
X906780Y926600D02*
D03*
D15*
X118110Y570100D02*
D03*
X105410D02*
D03*
X92710D02*
D03*
X80010D02*
D03*
X118110Y522100D02*
D03*
X105410D02*
D03*
X92710D02*
D03*
X80010D02*
D03*
D16*
X203130Y698090D02*
D03*
Y691590D02*
D03*
Y685090D02*
D03*
Y678590D02*
D03*
X226130Y698090D02*
D03*
Y691590D02*
D03*
Y685090D02*
D03*
Y678590D02*
D03*
X34220Y698090D02*
D03*
Y691590D02*
D03*
Y685090D02*
D03*
Y678590D02*
D03*
X57220Y698090D02*
D03*
Y691590D02*
D03*
Y685090D02*
D03*
Y678590D02*
D03*
D17*
X1270630Y443870D02*
D03*
X1262630D02*
D03*
X1254630D02*
D03*
X1246630D02*
D03*
X1238630D02*
D03*
X1230630D02*
D03*
X1222630D02*
D03*
X1214630D02*
D03*
X1206630D02*
D03*
X1198630D02*
D03*
X1190630D02*
D03*
X1270630Y451870D02*
D03*
X1262630D02*
D03*
X1254630D02*
D03*
X1246630D02*
D03*
X1238630D02*
D03*
X1230630D02*
D03*
X1222630D02*
D03*
X1214630D02*
D03*
X1206630D02*
D03*
X1198630D02*
D03*
X1190630D02*
D03*
X1270630Y459870D02*
D03*
X1262630D02*
D03*
X1254630D02*
D03*
X1246630D02*
D03*
X1238630D02*
D03*
X1230630D02*
D03*
X1222630D02*
D03*
X1214630D02*
D03*
X1206630D02*
D03*
X1198630D02*
D03*
X1190630D02*
D03*
X1270630Y467870D02*
D03*
X1262630D02*
D03*
X1254630D02*
D03*
X1246630D02*
D03*
X1238630D02*
D03*
X1230630D02*
D03*
X1222630D02*
D03*
X1214630D02*
D03*
X1206630D02*
D03*
X1198630D02*
D03*
X1190630D02*
D03*
X1270630Y475870D02*
D03*
X1262630D02*
D03*
X1254630D02*
D03*
X1246630D02*
D03*
X1238630D02*
D03*
X1230630D02*
D03*
X1222630D02*
D03*
X1214630D02*
D03*
X1206630D02*
D03*
X1198630D02*
D03*
X1190630D02*
D03*
X1270630Y483870D02*
D03*
X1262630D02*
D03*
X1254630D02*
D03*
X1246630D02*
D03*
X1238630D02*
D03*
X1230630D02*
D03*
X1222630D02*
D03*
X1214630D02*
D03*
X1206630D02*
D03*
X1198630D02*
D03*
X1190630D02*
D03*
X1270630Y491870D02*
D03*
X1262630D02*
D03*
X1254630D02*
D03*
X1246630D02*
D03*
X1238630D02*
D03*
X1230630D02*
D03*
X1222630D02*
D03*
X1214630D02*
D03*
X1206630D02*
D03*
X1198630D02*
D03*
X1190630D02*
D03*
X1270630Y499870D02*
D03*
X1262630D02*
D03*
X1254630D02*
D03*
X1246630D02*
D03*
X1238630D02*
D03*
X1230630D02*
D03*
X1222630D02*
D03*
X1214630D02*
D03*
X1206630D02*
D03*
X1198630D02*
D03*
X1190630D02*
D03*
X1270630Y507870D02*
D03*
X1262630D02*
D03*
X1254630D02*
D03*
X1246630D02*
D03*
X1238630D02*
D03*
X1230630D02*
D03*
X1222630D02*
D03*
X1214630D02*
D03*
X1206630D02*
D03*
X1198630D02*
D03*
X1190630D02*
D03*
X1270630Y515870D02*
D03*
X1262630D02*
D03*
X1254630D02*
D03*
X1246630D02*
D03*
X1238630D02*
D03*
X1230630D02*
D03*
X1222630D02*
D03*
X1214630D02*
D03*
X1206630D02*
D03*
X1198630D02*
D03*
X1190630D02*
D03*
X1270630Y523870D02*
D03*
X1262630D02*
D03*
X1254630D02*
D03*
X1246630D02*
D03*
X1238630D02*
D03*
X1230630D02*
D03*
X1222630D02*
D03*
X1214630D02*
D03*
X1206630D02*
D03*
X1198630D02*
D03*
X1190630D02*
D03*
D18*
X1120380Y245110D02*
D03*
Y232410D02*
D03*
Y219710D02*
D03*
Y207010D02*
D03*
Y194310D02*
D03*
Y181610D02*
D03*
Y168910D02*
D03*
Y156210D02*
D03*
X1213880Y245110D02*
D03*
Y232410D02*
D03*
Y219710D02*
D03*
Y207010D02*
D03*
Y194310D02*
D03*
Y181610D02*
D03*
Y168910D02*
D03*
Y156210D02*
D03*
D19*
X705430Y564570D02*
D03*
X713430D02*
D03*
X721430D02*
D03*
X729430D02*
D03*
X737430D02*
D03*
X745430D02*
D03*
X753430D02*
D03*
X761430D02*
D03*
X769430D02*
D03*
X777430D02*
D03*
X785430D02*
D03*
X793430D02*
D03*
X801430D02*
D03*
X809430D02*
D03*
X817430D02*
D03*
X825430D02*
D03*
X833430D02*
D03*
X841430D02*
D03*
X705430Y556570D02*
D03*
X713430D02*
D03*
X721430D02*
D03*
X729430D02*
D03*
X737430D02*
D03*
X745430D02*
D03*
X753430D02*
D03*
X761430D02*
D03*
X769430D02*
D03*
X777430D02*
D03*
X785430D02*
D03*
X793430D02*
D03*
X801430D02*
D03*
X809430D02*
D03*
X817430D02*
D03*
X825430D02*
D03*
X833430D02*
D03*
X841430D02*
D03*
X705430Y548570D02*
D03*
X713430D02*
D03*
X721430D02*
D03*
X729430D02*
D03*
X737430D02*
D03*
X745430D02*
D03*
X753430D02*
D03*
X761430D02*
D03*
X769430D02*
D03*
X777430D02*
D03*
X785430D02*
D03*
X793430D02*
D03*
X801430D02*
D03*
X809430D02*
D03*
X817430D02*
D03*
X825430D02*
D03*
X833430D02*
D03*
X841430D02*
D03*
X705430Y540570D02*
D03*
X713430D02*
D03*
X721430D02*
D03*
X729430D02*
D03*
X737430D02*
D03*
X745430D02*
D03*
X753430D02*
D03*
X761430D02*
D03*
X769430D02*
D03*
X777430D02*
D03*
X785430D02*
D03*
X793430D02*
D03*
X801430D02*
D03*
X809430D02*
D03*
X817430D02*
D03*
X825430D02*
D03*
X833430D02*
D03*
X841430D02*
D03*
X705430Y532570D02*
D03*
X713430D02*
D03*
X721430D02*
D03*
X729430D02*
D03*
X737430D02*
D03*
X745430D02*
D03*
X753430D02*
D03*
X761430D02*
D03*
X769430D02*
D03*
X777430D02*
D03*
X785430D02*
D03*
X793430D02*
D03*
X801430D02*
D03*
X809430D02*
D03*
X817430D02*
D03*
X825430D02*
D03*
X833430D02*
D03*
X841430D02*
D03*
X705430Y524570D02*
D03*
X713430D02*
D03*
X721430D02*
D03*
X729430D02*
D03*
X737430D02*
D03*
X745430D02*
D03*
X753430D02*
D03*
X761430D02*
D03*
X769430D02*
D03*
X777430D02*
D03*
X785430D02*
D03*
X793430D02*
D03*
X801430D02*
D03*
X809430D02*
D03*
X817430D02*
D03*
X825430D02*
D03*
X833430D02*
D03*
X841430D02*
D03*
X705430Y516570D02*
D03*
X713430D02*
D03*
X721430D02*
D03*
X729430D02*
D03*
X737430D02*
D03*
X745430D02*
D03*
X753430D02*
D03*
X761430D02*
D03*
X769430D02*
D03*
X777430D02*
D03*
X785430D02*
D03*
X793430D02*
D03*
X801430D02*
D03*
X809430D02*
D03*
X817430D02*
D03*
X825430D02*
D03*
X833430D02*
D03*
X841430D02*
D03*
X705430Y508570D02*
D03*
X713430D02*
D03*
X721430D02*
D03*
X729430D02*
D03*
X737430D02*
D03*
X745430D02*
D03*
X753430D02*
D03*
X761430D02*
D03*
X769430D02*
D03*
X777430D02*
D03*
X785430D02*
D03*
X793430D02*
D03*
X801430D02*
D03*
X809430D02*
D03*
X817430D02*
D03*
X825430D02*
D03*
X833430D02*
D03*
X841430D02*
D03*
X705430Y500570D02*
D03*
X713430D02*
D03*
X721430D02*
D03*
X729430D02*
D03*
X737430D02*
D03*
X745430D02*
D03*
X753430D02*
D03*
X761430D02*
D03*
X769430D02*
D03*
X777430D02*
D03*
X785430D02*
D03*
X793430D02*
D03*
X801430D02*
D03*
X809430D02*
D03*
X817430D02*
D03*
X825430D02*
D03*
X833430D02*
D03*
X841430D02*
D03*
X705430Y492570D02*
D03*
X713430D02*
D03*
X721430D02*
D03*
X729430D02*
D03*
X737430D02*
D03*
X745430D02*
D03*
X753430D02*
D03*
X761430D02*
D03*
X769430D02*
D03*
X777430D02*
D03*
X785430D02*
D03*
X793430D02*
D03*
X801430D02*
D03*
X809430D02*
D03*
X817430D02*
D03*
X825430D02*
D03*
X833430D02*
D03*
X841430D02*
D03*
X705430Y484570D02*
D03*
X713430D02*
D03*
X721430D02*
D03*
X729430D02*
D03*
X737430D02*
D03*
X745430D02*
D03*
X753430D02*
D03*
X761430D02*
D03*
X769430D02*
D03*
X777430D02*
D03*
X785430D02*
D03*
X793430D02*
D03*
X801430D02*
D03*
X809430D02*
D03*
X817430D02*
D03*
X825430D02*
D03*
X833430D02*
D03*
X841430D02*
D03*
X705430Y476570D02*
D03*
X713430D02*
D03*
X721430D02*
D03*
X729430D02*
D03*
X737430D02*
D03*
X745430D02*
D03*
X753430D02*
D03*
X761430D02*
D03*
X769430D02*
D03*
X777430D02*
D03*
X785430D02*
D03*
X793430D02*
D03*
X801430D02*
D03*
X809430D02*
D03*
X817430D02*
D03*
X825430D02*
D03*
X833430D02*
D03*
X841430D02*
D03*
X705430Y468570D02*
D03*
X713430D02*
D03*
X721430D02*
D03*
X729430D02*
D03*
X737430D02*
D03*
X745430D02*
D03*
X753430D02*
D03*
X761430D02*
D03*
X769430D02*
D03*
X777430D02*
D03*
X785430D02*
D03*
X793430D02*
D03*
X801430D02*
D03*
X809430D02*
D03*
X817430D02*
D03*
X825430D02*
D03*
X833430D02*
D03*
X841430D02*
D03*
X705430Y460570D02*
D03*
X713430D02*
D03*
X721430D02*
D03*
X729430D02*
D03*
X737430D02*
D03*
X745430D02*
D03*
X753430D02*
D03*
X761430D02*
D03*
X769430D02*
D03*
X777430D02*
D03*
X785430D02*
D03*
X793430D02*
D03*
X801430D02*
D03*
X809430D02*
D03*
X817430D02*
D03*
X825430D02*
D03*
X833430D02*
D03*
X841430D02*
D03*
X705430Y452570D02*
D03*
X713430D02*
D03*
X721430D02*
D03*
X729430D02*
D03*
X737430D02*
D03*
X745430D02*
D03*
X753430D02*
D03*
X761430D02*
D03*
X769430D02*
D03*
X777430D02*
D03*
X785430D02*
D03*
X793430D02*
D03*
X801430D02*
D03*
X809430D02*
D03*
X817430D02*
D03*
X825430D02*
D03*
X833430D02*
D03*
X841430D02*
D03*
X705430Y444570D02*
D03*
X713430D02*
D03*
X721430D02*
D03*
X729430D02*
D03*
X737430D02*
D03*
X745430D02*
D03*
X753430D02*
D03*
X761430D02*
D03*
X769430D02*
D03*
X777430D02*
D03*
X785430D02*
D03*
X793430D02*
D03*
X801430D02*
D03*
X809430D02*
D03*
X817430D02*
D03*
X825430D02*
D03*
X833430D02*
D03*
X841430D02*
D03*
X705430Y436570D02*
D03*
X713430D02*
D03*
X721430D02*
D03*
X729430D02*
D03*
X737430D02*
D03*
X745430D02*
D03*
X753430D02*
D03*
X761430D02*
D03*
X769430D02*
D03*
X777430D02*
D03*
X785430D02*
D03*
X793430D02*
D03*
X801430D02*
D03*
X809430D02*
D03*
X817430D02*
D03*
X825430D02*
D03*
X833430D02*
D03*
X841430D02*
D03*
X705430Y428570D02*
D03*
X713430D02*
D03*
X721430D02*
D03*
X729430D02*
D03*
X737430D02*
D03*
X745430D02*
D03*
X753430D02*
D03*
X761430D02*
D03*
X769430D02*
D03*
X777430D02*
D03*
X785430D02*
D03*
X793430D02*
D03*
X801430D02*
D03*
X809430D02*
D03*
X817430D02*
D03*
X825430D02*
D03*
X833430D02*
D03*
X841430D02*
D03*
D20*
X556610Y416380D02*
D03*
Y424380D02*
D03*
Y432380D02*
D03*
Y440380D02*
D03*
Y448380D02*
D03*
Y456380D02*
D03*
Y464380D02*
D03*
Y472380D02*
D03*
Y480380D02*
D03*
Y488380D02*
D03*
Y496380D02*
D03*
Y504380D02*
D03*
Y512380D02*
D03*
Y520380D02*
D03*
Y528380D02*
D03*
Y536380D02*
D03*
Y544380D02*
D03*
Y552380D02*
D03*
Y560380D02*
D03*
Y568380D02*
D03*
Y576380D02*
D03*
Y584380D02*
D03*
X441610Y416380D02*
D03*
Y424380D02*
D03*
Y432380D02*
D03*
Y440380D02*
D03*
Y448380D02*
D03*
Y456380D02*
D03*
Y464380D02*
D03*
Y472380D02*
D03*
Y480380D02*
D03*
Y488380D02*
D03*
Y496380D02*
D03*
Y504380D02*
D03*
Y512380D02*
D03*
Y520380D02*
D03*
Y528380D02*
D03*
Y536380D02*
D03*
Y544380D02*
D03*
Y552380D02*
D03*
Y560380D02*
D03*
Y568380D02*
D03*
Y576380D02*
D03*
Y584380D02*
D03*
X1079850Y411300D02*
D03*
Y419300D02*
D03*
Y427300D02*
D03*
Y435300D02*
D03*
Y443300D02*
D03*
Y451300D02*
D03*
Y459300D02*
D03*
Y467300D02*
D03*
Y475300D02*
D03*
Y483300D02*
D03*
Y491300D02*
D03*
Y499300D02*
D03*
Y507300D02*
D03*
Y515300D02*
D03*
Y523300D02*
D03*
Y531300D02*
D03*
Y539300D02*
D03*
Y547300D02*
D03*
Y555300D02*
D03*
Y563300D02*
D03*
Y571300D02*
D03*
Y579300D02*
D03*
X964850Y411300D02*
D03*
Y419300D02*
D03*
Y427300D02*
D03*
Y435300D02*
D03*
Y443300D02*
D03*
Y451300D02*
D03*
Y459300D02*
D03*
Y467300D02*
D03*
Y475300D02*
D03*
Y483300D02*
D03*
Y491300D02*
D03*
Y499300D02*
D03*
Y507300D02*
D03*
Y515300D02*
D03*
Y523300D02*
D03*
Y531300D02*
D03*
Y539300D02*
D03*
Y547300D02*
D03*
Y555300D02*
D03*
Y563300D02*
D03*
Y571300D02*
D03*
Y579300D02*
D03*
D21*
X201100Y57700D02*
D03*
X292100D02*
D03*
Y12700D02*
D03*
X201100D02*
D03*
X382710Y58970D02*
D03*
X473710D02*
D03*
Y13970D02*
D03*
X382710D02*
D03*
D22*
X643100Y931610D02*
D03*
X638100D02*
D03*
X633100D02*
D03*
X628100D02*
D03*
X623100D02*
D03*
X618100D02*
D03*
X613100D02*
D03*
X608100D02*
D03*
X603100D02*
D03*
X598100D02*
D03*
X593100D02*
D03*
X588100D02*
D03*
X583100D02*
D03*
X578100D02*
D03*
X573100D02*
D03*
X568100D02*
D03*
X563100D02*
D03*
X553100D02*
D03*
X558100D02*
D03*
D23*
X1497880Y538040D02*
D03*
Y447040D02*
D03*
X1452880D02*
D03*
Y538040D02*
D03*
X57700Y239590D02*
D03*
Y148590D02*
D03*
X12700D02*
D03*
Y239590D02*
D03*
D24*
X630950Y17900D02*
D03*
X595950D02*
D03*
X721050Y17700D02*
D03*
X686050D02*
D03*
X1285748Y870712D02*
D03*
X250190Y801370D02*
D03*
X55880Y774700D02*
D03*
X631190Y806450D02*
D03*
X1371600Y331470D02*
D03*
X1129030Y311150D02*
D03*
X134450Y308650D02*
D03*
X670560Y307340D02*
D03*
X770890Y925830D02*
D03*
X695960Y767080D02*
D03*
X130810Y43180D02*
D03*
X528320Y46990D02*
D03*
X944880Y22860D02*
D03*
X1113790Y962660D02*
D03*
X1408430Y956310D02*
D03*
X934720Y961390D02*
D03*
X1247140Y607060D02*
D03*
X481350Y666250D02*
D03*
X1017270Y668020D02*
D03*
D25*
X1006048Y955294D02*
D03*
X1012548D02*
D03*
X1019048D02*
D03*
X1025548D02*
D03*
X1032048D02*
D03*
D26*
X1028673Y986044D02*
D03*
X1009423D02*
D03*
D27*
X965708Y687832D02*
Y700278D01*
Y654558D02*
Y682752D01*
X963930Y684530D02*
X965708Y682752D01*
X963930Y684530D02*
Y686054D01*
X965708Y687832D01*
X1375918Y882142D02*
X1387348Y870712D01*
X1331722Y882142D02*
X1375918D01*
X1322070Y891794D02*
X1331722Y882142D01*
X1322070Y891794D02*
Y921258D01*
X773430Y424180D02*
X778256D01*
X781304Y427228D01*
Y438658D01*
X785430Y442784D01*
Y444570D01*
X1344168Y852932D02*
X1361948Y870712D01*
X1344168Y850646D02*
Y852932D01*
X789686Y440182D02*
Y447548D01*
X785430Y451804D02*
X789686Y447548D01*
X785430Y451804D02*
Y452570D01*
X1336548Y865632D02*
Y870712D01*
X1318514Y847598D02*
X1336548Y865632D01*
X1104646Y727456D02*
Y782828D01*
X1104392Y782574D02*
X1104646Y782828D01*
X1093470Y716280D02*
X1104646Y727456D01*
X981710Y716280D02*
X1093470D01*
X965708Y700278D02*
X981710Y716280D01*
X949706Y638556D02*
X965708Y654558D01*
X781812Y464952D02*
X785430Y468570D01*
X1301496Y861060D02*
X1311148Y870712D01*
X1301496Y833120D02*
Y861060D01*
X781812Y480188D02*
Y481076D01*
Y480188D02*
X785430Y476570D01*
X852170Y432816D02*
X852424Y432562D01*
X834390Y432816D02*
X852170D01*
X825246Y423672D02*
X834390Y432816D01*
X806328Y423672D02*
X825246D01*
X801430Y428570D02*
X806328Y423672D01*
X1210818Y463550D02*
Y464058D01*
X1214630Y467870D01*
X1210310Y820674D02*
X1285748Y896112D01*
X1227836Y453136D02*
X1230122Y455422D01*
X1226312Y453136D02*
X1227836D01*
X1230122Y455422D02*
X1232154D01*
X1224280Y455168D02*
X1226312Y453136D01*
X1224280Y455168D02*
Y456692D01*
X1225804Y458216D01*
Y460756D01*
X1222630Y463930D02*
X1225804Y460756D01*
X1222630Y463930D02*
Y467870D01*
X1220216Y462284D02*
Y463550D01*
X1220470D01*
X1220216Y462284D02*
X1222630Y459870D01*
X1226820Y456060D02*
X1230630Y459870D01*
X1226820Y456060D02*
X1226950Y455930D01*
X1387348Y896112D02*
X1422908D01*
X1448816Y870204D01*
Y671576D02*
Y870204D01*
X1413764Y636524D02*
X1448816Y671576D01*
X1413764Y530606D02*
Y636524D01*
X1309878Y426720D02*
X1413764Y530606D01*
X1297178Y426720D02*
X1309878D01*
X1294892Y429006D02*
X1297178Y426720D01*
X1283208Y429006D02*
X1294892D01*
X1281684Y430530D02*
X1283208Y429006D01*
X1216660Y430530D02*
X1281684D01*
X1214882Y432308D02*
X1216660Y430530D01*
X1214882Y432308D02*
Y435610D01*
X1216914Y437642D01*
X1221740D01*
X1226566Y442468D01*
Y444500D01*
X1222630Y448436D02*
X1226566Y444500D01*
X1222630Y448436D02*
Y451870D01*
X1219708Y454152D02*
X1221740Y456184D01*
X1219708Y446792D02*
Y454152D01*
X711166Y513334D02*
X713430Y511070D01*
X709930Y513334D02*
X711166D01*
X819910Y527050D02*
X821690D01*
X817430Y524570D02*
X819910Y527050D01*
X812352Y524570D02*
X814578Y526796D01*
X809430Y524570D02*
X812352D01*
X729430Y508570D02*
X730504Y509644D01*
Y512318D01*
X844866Y508570D02*
X846582Y510286D01*
X856742Y516890D02*
Y520446D01*
X850138Y510286D02*
X856742Y516890D01*
X846582Y510286D02*
X850138D01*
X841430Y508570D02*
X844866D01*
X833430Y511358D02*
X837946Y515874D01*
X833430Y508570D02*
Y511358D01*
X802576Y500570D02*
X804672Y502666D01*
X801430Y500570D02*
X802576D01*
X789686Y512314D02*
Y517144D01*
Y512314D02*
X793430Y508570D01*
X825430Y500570D02*
X829558Y504698D01*
X836422D01*
X820916Y545084D02*
X825430Y540570D01*
X816864Y545084D02*
X820916D01*
X813816Y548132D02*
X816864Y545084D01*
X813816Y548132D02*
Y552958D01*
X817430Y492570D02*
X821558Y488442D01*
X828040D01*
X831720Y489712D02*
X835152D01*
X828862Y492570D02*
X831720Y489712D01*
X825430Y492570D02*
X828862D01*
X831850Y486918D02*
X911606D01*
X829502Y484570D02*
X831850Y486918D01*
X825430Y484570D02*
X829502D01*
X812288Y489712D02*
X813308D01*
X809430Y492570D02*
X812288Y489712D01*
X827396Y514604D02*
X829056D01*
X825430Y516570D02*
X827396Y514604D01*
X822960Y522100D02*
X825430Y524570D01*
X834892Y543560D02*
X838962Y547630D01*
Y551180D01*
X1226562Y511802D02*
X1230630Y515870D01*
X749808Y488408D02*
Y491744D01*
X749700Y488300D02*
X749808Y488408D01*
X749700Y488300D02*
X753430Y484570D01*
X741426Y490982D02*
X742482D01*
X744750Y493250D01*
X583100Y941705D02*
X585767Y944372D01*
X590550D01*
X548132Y469967D02*
X550545Y472380D01*
X548132Y460756D02*
Y469967D01*
X547370Y440690D02*
Y453840D01*
X286850Y308650D02*
X300990Y322790D01*
Y419354D01*
X548640Y509524D02*
Y519110D01*
X549910Y520380D01*
X1042670Y531368D02*
X1042924Y531114D01*
X1042670Y531368D02*
Y668020D01*
X1042864Y523300D02*
X1042924Y523240D01*
X964850Y523300D02*
X1042864D01*
X859536Y346964D02*
X873760Y332740D01*
X1226566Y680720D02*
X1228598D01*
X1234948Y674370D01*
X967836Y507238D02*
X1042670D01*
X966312Y508762D02*
X967836Y507238D01*
X1012698Y546666D02*
Y546862D01*
X1005332Y539300D02*
X1012698Y546666D01*
X964850Y507300D02*
X966312Y508762D01*
X1081058Y508508D02*
X1104392D01*
X1079850Y507300D02*
X1081058Y508508D01*
X1199132Y436372D02*
X1206630Y443870D01*
X1183386Y436372D02*
X1199132D01*
X1169670Y417830D02*
Y446532D01*
X920496Y561340D02*
X962890D01*
X964850Y563300D01*
X841430Y500570D02*
X847590Y506730D01*
X847598D01*
X567690Y584380D02*
X571500Y580570D01*
Y351282D02*
Y580570D01*
X566250Y346032D02*
X571500Y351282D01*
X1181862Y531368D02*
X1182370Y530860D01*
X1181862Y531368D02*
Y540004D01*
X1219708Y446792D02*
X1222630Y443870D01*
X1218692Y433324D02*
X1220084D01*
X1230630Y443870D01*
X1252728Y455676D02*
Y457968D01*
X1254630Y459870D01*
X1278789Y480950D02*
X1284096D01*
X1282446Y450848D02*
Y461010D01*
X1280414Y463042D02*
X1282446Y461010D01*
X1280414Y463042D02*
Y468884D01*
X1287018Y475488D01*
Y478028D01*
X1284096Y480950D02*
X1287018Y478028D01*
X1283462Y466598D02*
X1288288D01*
X1292098Y470408D01*
Y478536D01*
X1288034Y482600D02*
X1292098Y478536D01*
X1276858Y482600D02*
X1288034D01*
X1275080Y480822D02*
X1276858Y482600D01*
X1267460Y480822D02*
X1275080D01*
X1266698Y481584D02*
X1267460Y480822D01*
X1277366Y475870D02*
X1279906Y478410D01*
X1270630Y475870D02*
X1277366D01*
X1247902Y510794D02*
X1249934Y508762D01*
Y507616D02*
Y508762D01*
Y507616D02*
X1254630Y502920D01*
X1245616Y510794D02*
X1247902D01*
X1239520Y504698D02*
X1245616Y510794D01*
X1234948Y504698D02*
X1239520D01*
X1234948D02*
Y674370D01*
X1210628Y491744D02*
X1214504D01*
X1214630Y491870D01*
X1262630Y499870D02*
X1266190Y503430D01*
Y504444D01*
X1274064Y495304D02*
Y497840D01*
X1270630Y491870D02*
X1274064Y495304D01*
X1279136Y499364D02*
X1281938D01*
X1270630Y507870D02*
X1279136Y499364D01*
X1261872Y526796D02*
X1274318D01*
X1261618Y527050D02*
X1261872Y526796D01*
X1259840Y525272D02*
X1261618Y527050D01*
X1259840Y518660D02*
Y525272D01*
X1238630Y523870D02*
X1242060Y527300D01*
Y567182D01*
X1196086Y550414D02*
Y552196D01*
Y550414D02*
X1222630Y523870D01*
X1210564Y519936D02*
Y524510D01*
X1191768Y530860D02*
X1198630Y523998D01*
Y523870D02*
Y523998D01*
X1198372Y531368D02*
X1199132D01*
X1206630Y523870D01*
X1193804Y521462D02*
X1195582Y519684D01*
Y519430D02*
Y519684D01*
X1177290Y521716D02*
Y524002D01*
X1194054Y513334D02*
X1195832D01*
X1186688Y495812D02*
Y496658D01*
Y495812D02*
X1190630Y491870D01*
X1195072Y503428D02*
X1196596Y501904D01*
X1188212Y503428D02*
X1195072D01*
X1183642Y499870D02*
X1190630D01*
X1181608Y501904D02*
X1183642Y499870D01*
X1181608Y501904D02*
Y505460D01*
X1195456Y488188D02*
X1197356D01*
X1195202Y488442D02*
X1195456Y488188D01*
X1182116Y481838D02*
X1188598D01*
X1190630Y483870D01*
X1188218Y478282D02*
X1190630Y475870D01*
X1181227Y478282D02*
X1188218D01*
X1147699Y511810D02*
X1181227Y478282D01*
X1186688Y511812D02*
Y513842D01*
Y511812D02*
X1190630Y507870D01*
X1170432Y530098D02*
Y540004D01*
X1167892Y527558D02*
X1170432Y530098D01*
X1180338Y541528D02*
X1181862Y540004D01*
X1180338Y541528D02*
Y682752D01*
X952246Y527558D02*
X1167892D01*
X1182878Y523494D02*
Y524002D01*
X1174242Y532638D02*
X1182878Y524002D01*
X1160018Y660774D02*
X1166368Y654424D01*
Y556260D02*
Y654424D01*
Y517398D02*
Y520192D01*
X1159380Y510410D02*
X1166368Y517398D01*
X1147826Y677164D02*
X1160018Y664972D01*
Y660774D02*
Y664972D01*
X1165352Y507746D02*
X1190506D01*
X1190630Y507870D01*
X1080038Y515112D02*
X1123442D01*
X1079850Y515300D02*
X1080038Y515112D01*
X1080170Y474980D02*
X1094994D01*
X1079850Y475300D02*
X1080170Y474980D01*
X1088390Y445078D02*
Y457200D01*
X1086612Y443300D02*
X1088390Y445078D01*
X1011368Y467300D02*
X1079850D01*
X1011174Y467106D02*
X1011368Y467300D01*
X955294Y438404D02*
X958398Y435300D01*
X955294Y438404D02*
Y447802D01*
X775208Y744728D02*
X797560Y767080D01*
X775208Y575056D02*
Y744728D01*
X753618Y553466D02*
X775208Y575056D01*
X976630Y557840D02*
Y681990D01*
X974090Y555300D02*
X976630Y557840D01*
X841430Y516570D02*
X847090D01*
X946686Y570230D02*
X949197Y572741D01*
X878078Y570230D02*
X946686D01*
X837438Y552578D02*
Y560324D01*
X949197Y572741D02*
X955519D01*
X836950Y666250D02*
X871982Y631218D01*
Y549656D02*
Y631218D01*
X868172Y545846D02*
X871982Y549656D01*
X834136Y544316D02*
X834892Y543560D01*
X834136Y543814D02*
Y544316D01*
X833634Y543814D02*
X834136D01*
X833430Y543610D02*
X833634Y543814D01*
X833430Y540570D02*
Y543610D01*
X844420Y543560D02*
X847344D01*
X841430Y540570D02*
X844420Y543560D01*
X847594Y538734D02*
X849630D01*
X845430Y536570D02*
X847594Y538734D01*
X848736Y531876D02*
X850392D01*
X841430Y524570D02*
X848736Y531876D01*
X798068Y493016D02*
Y494538D01*
X797622Y492570D02*
X798068Y493016D01*
X793430Y492570D02*
X797622D01*
X688340Y419862D02*
Y442722D01*
X688086Y442976D02*
X688340Y442722D01*
X688086Y442976D02*
X690880Y445770D01*
X705378Y447802D02*
X708426Y450850D01*
X674116Y447802D02*
X705378D01*
X670560Y444246D02*
X674116Y447802D01*
X690880Y445770D02*
X693166D01*
X692912Y439420D02*
X694690D01*
X699840Y444570D01*
X710438Y454533D02*
Y455168D01*
X713430Y458160D01*
X721928Y468570D02*
X724916Y465582D01*
X721430Y468570D02*
X721928D01*
X724154Y456692D02*
Y457454D01*
X727270Y460570D01*
X683514Y457454D02*
X702314D01*
X705430Y460570D01*
X699008Y470148D02*
X705430Y476570D01*
X737872Y480568D02*
X738124D01*
X735650Y482790D02*
X737872Y480568D01*
X735650Y482790D02*
X737430Y484570D01*
X725868Y492570D02*
X727202Y491236D01*
Y489966D02*
Y491236D01*
X722376Y487039D02*
Y487680D01*
Y487039D02*
X725424Y483991D01*
X719328Y480568D02*
Y482468D01*
X721430Y484570D01*
X697946Y493014D02*
X698246D01*
X697910Y493050D02*
X697946Y493014D01*
X697910Y493050D02*
X705430Y500570D01*
X793430Y484570D02*
X795908Y482092D01*
X799084D01*
X823722Y458216D02*
X869696D01*
X808990Y472948D02*
X823722Y458216D01*
X785114Y472948D02*
X808990D01*
X867410Y479552D02*
X900938D01*
X901446Y480060D01*
X844416Y481584D02*
X848106D01*
X841430Y484570D02*
X844416Y481584D01*
X838200Y482092D02*
X839470Y480822D01*
X838200Y482092D02*
Y484570D01*
X843018Y490982D02*
X854202D01*
X841430Y492570D02*
X843018Y490982D01*
X901446Y480060D02*
X910336Y471170D01*
X848988Y468630D02*
X851020Y470662D01*
X847090Y468630D02*
X848988D01*
X836168Y476250D02*
Y477266D01*
X835152Y489712D02*
X837946Y492506D01*
X826892Y510032D02*
X830072D01*
X805430Y521466D02*
Y532892D01*
Y521466D02*
X806196Y520700D01*
X803402D02*
X806196D01*
X801430Y518667D02*
X805374Y522611D01*
X801430Y516570D02*
Y518667D01*
X801465Y518823D02*
X805374Y522611D01*
X801430Y516570D02*
X801465Y518823D01*
X844042Y559182D02*
Y559562D01*
X799846Y544322D02*
X808834D01*
X808912Y544400D01*
X779590Y552450D02*
X780450Y551590D01*
X781294Y568706D02*
X785430Y564570D01*
X776478Y568706D02*
X781294D01*
X777430Y562462D02*
X781600Y558292D01*
X777430Y562462D02*
Y564570D01*
X783714Y562864D02*
X785430Y561148D01*
X781304Y562864D02*
X783714D01*
X781600Y558292D02*
Y559592D01*
X753430Y500190D02*
X757682Y495938D01*
X741426Y504574D02*
X745430Y500570D01*
X741426Y504574D02*
Y505206D01*
X739902Y562864D02*
Y610362D01*
X729488Y552450D02*
X739902Y562864D01*
X695960Y558546D02*
X697992Y556514D01*
X721430Y557346D02*
X724408Y560324D01*
X721430Y556570D02*
Y557346D01*
X809430Y516942D02*
X814712Y522224D01*
X808912Y544400D02*
X812742Y540570D01*
X825550Y527100D02*
X829006D01*
X825430Y526980D02*
X825550Y527100D01*
X828400Y535540D02*
Y537600D01*
X825430Y532570D02*
X828400Y535540D01*
X777430Y548570D02*
X780450Y551590D01*
X765950Y545090D02*
X769430Y548570D01*
X709460Y488600D02*
X713430Y492570D01*
X709200Y488600D02*
X709460D01*
X715772Y486912D02*
Y493978D01*
X714704Y495046D02*
X715772Y493978D01*
X704088Y495046D02*
X714704D01*
X713430Y508570D02*
Y511070D01*
X708860Y440000D02*
X713430Y444570D01*
X729430Y468570D02*
X733100Y464900D01*
X742708Y421132D02*
X825992D01*
X833430Y428570D01*
X777430Y444570D02*
X781600Y448740D01*
Y448750D01*
X744750Y493250D02*
X745430Y492570D01*
X752856Y473202D02*
X753802D01*
X767518Y486918D02*
X771144D01*
X753802Y473202D02*
X767518Y486918D01*
X34220Y685090D02*
X44196D01*
X47042Y682244D01*
X128778D01*
X131624Y685090D01*
X203130D01*
X34220Y678590D02*
X44196D01*
X47146Y675640D01*
X128778D01*
X131728Y678590D01*
X203130D01*
X57220Y691590D02*
X128524D01*
X131370Y694436D01*
X213360D01*
X216206Y691590D01*
X226130D01*
X1452880Y447040D02*
X1497880D01*
X721430Y564570D02*
Y665734D01*
X721360Y665804D02*
X721430Y665734D01*
X721360Y665804D02*
Y767080D01*
X1334795Y775961D02*
X1341882D01*
Y726186D02*
Y775961D01*
X1334770Y719074D02*
X1341882Y726186D01*
X1334770Y641350D02*
Y719074D01*
X1323340Y629920D02*
X1334770Y641350D01*
X1323340Y597556D02*
Y629920D01*
Y597556D02*
X1331575Y589321D01*
X1089152Y572770D02*
Y620776D01*
X1087682Y571300D02*
X1089152Y572770D01*
X1079850Y571300D02*
X1087682D01*
X203130Y678590D02*
X203200D01*
Y519430D02*
X207010Y515620D01*
X288290D01*
X1194630Y503870D02*
Y509270D01*
X1488440Y276860D02*
X1497880Y286300D01*
Y447040D01*
X1079850Y459300D02*
X1097788D01*
X927240Y877570D02*
X929780Y875030D01*
X862350Y666250D02*
X873252Y655348D01*
Y526030D02*
Y655348D01*
X871792Y524570D02*
X873252Y526030D01*
X841430Y524570D02*
X871792D01*
X649860Y17700D02*
X686050D01*
X432382Y584380D02*
X441610D01*
X432308Y584454D02*
X432382Y584380D01*
X441610Y576380D02*
X450796D01*
X450850Y576326D01*
X955548D02*
X958522Y579300D01*
X964850D01*
X1208385Y765961D02*
Y791341D01*
X359410Y479482D02*
X432308Y552380D01*
X441610D01*
X450540Y560380D02*
X450850Y560070D01*
X441610Y560380D02*
X450540D01*
X971550Y571300D02*
X974090Y573840D01*
X964850Y571300D02*
X971550D01*
X566250Y334050D02*
Y346032D01*
X556610Y584380D02*
X567690D01*
X549910Y440380D02*
X556610D01*
X464650Y355120D02*
X549910Y440380D01*
X705430Y487834D02*
Y492570D01*
Y487834D02*
X708426Y484839D01*
X670560Y332740D02*
Y444246D01*
X375158Y416380D02*
X441610D01*
X432308Y424380D02*
X441610D01*
X375780Y448380D02*
X441610D01*
X386842Y440182D02*
X387040Y440380D01*
X441610D01*
X964850Y443300D02*
X971550D01*
X974090Y445840D01*
Y447294D01*
X1210564Y519936D02*
X1214630Y515870D01*
X1207770Y530730D02*
X1214630Y523870D01*
X1250630Y447870D02*
X1254630Y443870D01*
X724662Y480568D02*
X726694Y482600D01*
X727460D01*
X729430Y484570D01*
X566250Y308650D02*
X579628Y322028D01*
Y358768D01*
X705430Y484570D01*
X813816Y776224D02*
X822960Y767080D01*
X783082Y776224D02*
X813816D01*
X780288Y773430D02*
X783082Y776224D01*
X780288Y758952D02*
Y773430D01*
X773684Y752348D02*
X780288Y758952D01*
X773684Y640356D02*
Y752348D01*
X745430Y612102D02*
X773684Y640356D01*
X745430Y564570D02*
Y612102D01*
X726948Y562088D02*
X729430Y564570D01*
X726948Y554990D02*
Y562088D01*
Y554990D02*
X729488Y552450D01*
X739902Y610362D02*
X772160Y642620D01*
Y767080D01*
X964850Y555300D02*
X974090D01*
X1054428Y579300D02*
X1079850D01*
X1050798Y582930D02*
X1054428Y579300D01*
X1050798Y582930D02*
Y614680D01*
X729430Y487998D02*
Y492570D01*
X725424Y483991D02*
X729430Y487998D01*
X1198630Y507870D02*
Y510536D01*
X734824Y473964D02*
X737430Y476570D01*
X733552Y473964D02*
X734824D01*
X1070792Y427300D02*
X1079850D01*
X515450Y334050D02*
X525650Y323850D01*
X571754D01*
X574294Y326390D01*
Y593852D01*
X572770Y595376D02*
X574294Y593852D01*
X552450Y595376D02*
X572770D01*
X549910Y592836D02*
X552450Y595376D01*
X549910Y569015D02*
Y592836D01*
Y569015D02*
X550545Y568380D01*
X556610D01*
X737430Y492570D02*
X739394Y490606D01*
Y490220D02*
Y490606D01*
Y490220D02*
X742950Y486664D01*
X743966D01*
X744180Y486878D01*
X747776D01*
X749808Y484846D01*
Y476250D02*
Y484846D01*
Y476250D02*
X752856Y473202D01*
X771144Y486918D02*
X785114Y472948D01*
X869696Y458216D02*
X878078Y449834D01*
Y379222D02*
Y449834D01*
Y379222D02*
X924560Y332740D01*
X595950Y17900D02*
X620468Y42418D01*
X740030D01*
X1237742Y577850D02*
Y701802D01*
Y577850D02*
X1251712Y563880D01*
Y518788D02*
Y563880D01*
Y518788D02*
X1254630Y515870D01*
X1196182Y486317D02*
X1198630Y483870D01*
X1195324Y486317D02*
X1196182D01*
X1194215Y487426D02*
X1195324Y486317D01*
X1183894Y487426D02*
X1194215D01*
X1181100Y490220D02*
X1183894Y487426D01*
X1171956Y490220D02*
X1181100D01*
X1159380Y502796D02*
X1171956Y490220D01*
X1159380Y502796D02*
Y510410D01*
X833430Y484570D02*
X838200D01*
X1202182Y487426D02*
X1202186D01*
X1206630Y491870D01*
X825430Y476570D02*
X829310D01*
X830408Y477668D01*
X1254630Y523870D02*
Y536506D01*
X1186688Y527812D02*
X1190630Y523870D01*
X910336Y422094D02*
Y471170D01*
Y422094D02*
X913130Y419300D01*
X964850D01*
X1246630Y515870D02*
X1249420Y513080D01*
X1259840D01*
X1262630Y515870D01*
X833430Y524570D02*
X837690Y528830D01*
Y541526D01*
X842010Y545846D01*
X868172D01*
X1202690Y455930D02*
X1206630Y459870D01*
X432308Y456438D02*
X432366Y456380D01*
X441610D01*
X226130Y691590D02*
X276352D01*
X549910Y456380D02*
X556610D01*
X547370Y453840D02*
X549910Y456380D01*
X556610Y416380D02*
X561594D01*
X1120140Y593746D02*
X1128375Y585511D01*
X1120140Y593746D02*
Y638302D01*
X1127252Y645414D01*
Y754473D01*
X1124566Y757159D02*
X1127252Y754473D01*
X793430Y556570D02*
X797306Y560446D01*
Y560578D01*
X705430Y506538D02*
Y508570D01*
X702818Y503926D02*
X705430Y506538D01*
X695960Y558546D02*
Y767080D01*
X713430Y564570D02*
Y586994D01*
X701934Y465074D02*
X705430Y468570D01*
X57220Y678590D02*
X83156D01*
X1202690Y495808D02*
X1202692D01*
X1206630Y491870D01*
X598100Y911352D02*
Y931610D01*
X583100D02*
Y941705D01*
X593100Y931610D02*
Y939800D01*
X662940Y825500D02*
X695960Y792480D01*
X621680Y825500D02*
X662940D01*
X553100Y894080D02*
X621680Y825500D01*
X553100Y894080D02*
Y931610D01*
X563100Y918718D02*
Y931610D01*
X92710Y494792D02*
Y522100D01*
X1120380Y156210D02*
X1196340D01*
X1120380Y168910D02*
X1159256D01*
X1201420Y245110D02*
X1213880D01*
X547370Y488442D02*
X547432Y488380D01*
X556610D01*
X817430Y508570D02*
X821430Y512570D01*
X1098042Y534670D02*
Y593598D01*
X1094672Y531300D02*
X1098042Y534670D01*
X1079850Y531300D02*
X1094672D01*
X613100Y951936D02*
X613156Y951992D01*
X613100Y931610D02*
Y951936D01*
X623100Y931610D02*
Y944372D01*
X628100Y918760D02*
Y931610D01*
Y918760D02*
X628142Y918718D01*
X203130Y685090D02*
X212090D01*
X214630Y682550D01*
Y614680D02*
Y682550D01*
Y614680D02*
X288290Y541020D01*
X825430Y508570D02*
X826892Y510032D01*
X1192022Y479806D02*
X1202566D01*
X1206630Y483870D01*
X1270630Y515870D02*
X1278766D01*
X1297304Y497332D01*
X1015345Y779711D02*
X1033526Y761530D01*
X1015345Y779711D02*
Y795151D01*
X1022350Y451358D02*
X1022408Y451300D01*
X1079850D01*
X1068070Y411300D02*
X1079850D01*
X753430Y500190D02*
Y500570D01*
X1194692Y471932D02*
X1198630Y475870D01*
X1171956Y471932D02*
X1194692D01*
X1151890Y451866D02*
X1171956Y471932D01*
X1151890Y405130D02*
Y451866D01*
X1186688Y439928D02*
X1190630Y443870D01*
X563302Y448380D02*
X565912Y445770D01*
X556610Y448380D02*
X563302D01*
X1270630Y459870D02*
X1277110Y453390D01*
X757548Y568452D02*
X761430Y564570D01*
X748030Y568452D02*
X757548D01*
X92710Y555752D02*
Y570100D01*
X801430Y484570D02*
X805941Y480059D01*
X556610Y560380D02*
X565856D01*
X841430Y468570D02*
X847090Y468630D01*
X1262630Y483870D02*
X1266973Y479527D01*
X1277366D01*
X1278789Y480950D01*
X899160Y411300D02*
X964850D01*
X441610Y472380D02*
X511302D01*
X1259840Y518660D02*
X1262630Y515870D01*
X441610Y464380D02*
X474404D01*
X1257554Y658114D02*
X1279652Y636016D01*
Y523240D02*
Y636016D01*
X1276350Y519938D02*
X1279652Y523240D01*
X1268476Y519938D02*
X1276350D01*
X1265428Y516890D02*
X1268476Y519938D01*
X1265428Y514350D02*
Y516890D01*
X1262634Y511556D02*
X1265428Y514350D01*
X1258316Y511556D02*
X1262634D01*
X1254630Y507870D02*
X1258316Y511556D01*
X1214630Y456694D02*
Y459870D01*
X793430Y564570D02*
X796160Y567300D01*
X797306D01*
X809430Y508570D02*
X813430Y512570D01*
X727270Y460570D02*
X729430D01*
X1200318Y519870D02*
X1202630D01*
X1206630Y515870D01*
X964850Y451300D02*
X1014984D01*
X1246630Y456054D02*
Y459870D01*
X717550Y519176D02*
X718824D01*
X721430Y516570D01*
X441610Y488380D02*
X455676D01*
X432308Y505756D02*
Y534670D01*
X434018Y536380D01*
X441610D01*
Y512380D02*
X455676D01*
X817430Y484570D02*
X821432Y480568D01*
X832866D01*
X836168Y477266D01*
X1195582Y518918D02*
X1198630Y515870D01*
X1193546Y455930D02*
X1194690D01*
X1198630Y459870D01*
X651002Y683502D02*
X659150Y691650D01*
X651002Y640588D02*
Y683502D01*
X953770Y427300D02*
X964850D01*
X1079850Y483300D02*
X1089914D01*
X841430Y556570D02*
X844042Y559182D01*
X550545Y472380D02*
X556610D01*
X226130Y698090D02*
X275590D01*
X1262630Y475870D02*
X1265552Y472948D01*
X1280160D01*
X809430Y516570D02*
X812544Y519684D01*
X709422Y432562D02*
X713430Y436570D01*
X709422Y413004D02*
Y432562D01*
X717550Y511048D02*
X718952D01*
X721430Y508570D01*
X608100Y918742D02*
Y931610D01*
Y918742D02*
X721408Y805434D01*
X275590Y826770D02*
X291230Y842410D01*
Y877570D01*
X1270630Y451870D02*
X1274572Y447928D01*
X812742Y540570D02*
X817430D01*
X949395Y547300D02*
X964850D01*
Y539300D02*
X1005332D01*
X1079850Y555300D02*
X1089152D01*
X1079850Y523300D02*
X1091184D01*
X964850Y459300D02*
X984064D01*
X964850Y467300D02*
X977138D01*
X1062228Y475300D02*
X1063498Y476570D01*
X964850Y475300D02*
X1062228D01*
X964850Y483300D02*
X1055308D01*
X1024824Y515300D02*
X1024890Y515366D01*
X964850Y515300D02*
X1024824D01*
X964850Y531300D02*
X1017270D01*
X1073150Y563300D02*
X1079850D01*
X1069268Y567182D02*
X1073150Y563300D01*
X1079850Y443300D02*
X1086612D01*
X1070666Y435300D02*
X1079850D01*
X1070610Y435356D02*
X1070666Y435300D01*
X958398D02*
X964850D01*
X705612Y394716D02*
X713430Y402534D01*
Y428570D01*
X828024Y569976D02*
X833430Y564570D01*
X1213880Y232410D02*
X1297940D01*
X441610Y544380D02*
X460248D01*
X1266570Y455930D02*
X1269238D01*
X1262630Y459870D02*
X1266570Y455930D01*
X1274572Y461010D02*
Y463928D01*
X1270630Y467870D02*
X1274572Y463928D01*
X1262630Y467870D02*
X1266698Y463802D01*
Y459994D02*
Y463802D01*
X1258570Y461264D02*
Y463930D01*
X1254630Y467870D02*
X1258570Y463930D01*
X1246630Y467870D02*
X1250696Y463804D01*
X58818Y541528D02*
X90170D01*
X92710Y538988D01*
Y522100D02*
Y538988D01*
X1270630Y483870D02*
X1313942D01*
X1226566Y447802D02*
X1228598Y449834D01*
X1230630D02*
Y451870D01*
X1246630Y507870D02*
X1250696Y503804D01*
X1246630Y499870D02*
X1250696Y495804D01*
X1246630Y491870D02*
X1250566Y487934D01*
X578100Y915670D02*
Y931610D01*
X568100Y918718D02*
Y931610D01*
X729430Y556570D02*
X731774Y558914D01*
Y589026D01*
X727202Y593598D02*
X731774Y589026D01*
X727202Y593598D02*
Y747522D01*
X746760Y767080D01*
X745430Y556570D02*
X748534Y553466D01*
X753618D01*
X709422Y560578D02*
X713430Y556570D01*
X540850Y308650D02*
X551732Y319532D01*
X572770D01*
X575564Y322326D01*
Y395732D01*
X577088Y397256D01*
X606298D01*
X704088Y495046D01*
X713430Y484570D02*
X715772Y486912D01*
X717554Y472694D02*
X721430Y476570D01*
X717550Y472694D02*
X717554D01*
X713430Y458160D02*
Y460570D01*
X699840Y444570D02*
X705430D01*
X741430Y480570D02*
X745430Y484570D01*
X741430Y477774D02*
Y480570D01*
X717550Y452628D02*
Y456690D01*
X721430Y460570D01*
X1226562Y519938D02*
X1226566Y561086D01*
X1226562Y519938D02*
X1230630Y515870D01*
X837434Y464566D02*
X839470D01*
X833430Y468570D02*
X837434Y464566D01*
X1195202Y488442D02*
X1198630Y491870D01*
X1194562Y495808D02*
X1194692D01*
X1198630Y491870D01*
X833430Y492570D02*
X837430Y496570D01*
X837438D01*
X1196596Y501904D02*
X1198630Y499870D01*
X1195832Y513334D02*
X1198630Y510536D01*
X1186942Y685292D02*
X1195070Y693420D01*
X1186688Y527812D02*
X1186942Y685292D01*
X911606Y486918D02*
X952246Y527558D01*
X1169670Y693420D02*
X1180338Y682752D01*
X1195582Y519430D02*
X1198630Y515870D01*
X1174242Y532638D02*
Y648716D01*
X1161662Y661296D02*
X1174242Y648716D01*
X1161662Y661296D02*
Y676028D01*
X1144270Y693420D02*
X1161662Y676028D01*
X1202630Y511870D02*
X1206630Y507870D01*
X801430Y508570D02*
X805430Y512570D01*
X1254630Y499870D02*
Y502920D01*
X805304Y488696D02*
X805434D01*
X801430Y492570D02*
X805304Y488696D01*
X793430Y508570D02*
X797302Y504698D01*
X810514D01*
X1266698Y481584D02*
Y487802D01*
X1262630Y491870D02*
X1266698Y487802D01*
X1254630Y491870D02*
X1257550Y488950D01*
X1260094D01*
X848106Y555246D02*
Y617474D01*
X807466Y658114D02*
X848106Y617474D01*
X1238630Y459870D02*
X1243963Y465203D01*
X833430Y548570D02*
X837438Y552578D01*
X1202690Y447802D02*
Y447930D01*
X1206630Y451870D01*
X825430Y524570D02*
Y526980D01*
X226130Y678590D02*
X237490D01*
X69850Y774700D02*
X81280D01*
X67310Y772160D02*
X69850Y774700D01*
X67310Y699360D02*
Y772160D01*
X66040Y698090D02*
X67310Y699360D01*
X57220Y698090D02*
X66040D01*
X441610Y568380D02*
X453390D01*
X410580Y432380D02*
X441610D01*
X547370Y424380D02*
X556610D01*
Y432380D02*
X565912D01*
X540850Y334050D02*
X569722Y362922D01*
Y571808D01*
X565150Y576380D02*
X569722Y571808D01*
X556610Y576380D02*
X565150D01*
X441610Y528380D02*
X450850D01*
X441610Y520380D02*
X452120D01*
X441610Y480380D02*
X478470D01*
X556610Y464380D02*
X565912D01*
X556610Y480380D02*
X567116D01*
X567182Y480314D01*
X549910Y520380D02*
X556610D01*
X565852Y528380D02*
X565912Y528320D01*
X556610Y528380D02*
X565852D01*
X547370Y536448D02*
X547438Y536380D01*
X556610D01*
X1169670Y446532D02*
X1186942Y463804D01*
X1207770D01*
X1211580Y467614D01*
Y480820D01*
X1214630Y483870D01*
X785430Y556570D02*
Y561148D01*
X717550Y504450D02*
Y506970D01*
Y504450D02*
X721430Y500570D01*
Y492570D02*
X725868D01*
X1228598Y449834D02*
X1230630D01*
X1194630Y503870D02*
X1196596Y501904D01*
X1195582Y518918D02*
Y519430D01*
X841430Y532570D02*
X845430Y536570D01*
Y538988D01*
X841430Y548570D02*
X848106Y555246D01*
X858700Y565840D01*
X1210564Y452628D02*
X1214630Y456694D01*
X203200Y519430D02*
Y678590D01*
X561594Y372872D02*
Y416380D01*
X929780Y864100D02*
Y875030D01*
X1341882Y775961D02*
X1345485D01*
X593100Y939800D02*
X599700Y946400D01*
Y948800D01*
X1270630Y443870D02*
X1274572Y439928D01*
X1078272Y420878D02*
X1079850Y419300D01*
X1070610Y420878D02*
X1078272D01*
X556610Y512380D02*
X567628D01*
X1177290Y521716D02*
X1183136Y515870D01*
X1190630D01*
X1189228Y519430D02*
X1195582D01*
X716594Y468570D02*
X717296Y467868D01*
X713430Y468570D02*
X716594D01*
X1243521Y452945D02*
X1246630Y456054D01*
X1242568Y452945D02*
X1243521D01*
X1212214Y457454D02*
X1214630Y459870D01*
X1211834Y457454D02*
X1212214D01*
X836168Y476250D02*
X837438Y474980D01*
X1250562Y447802D02*
X1250630Y447870D01*
X1248664Y447802D02*
X1250562D01*
X972058Y575872D02*
X974090Y573840D01*
X972058Y575872D02*
Y678942D01*
X955519Y572545D02*
Y572741D01*
Y572545D02*
X956818Y571246D01*
X812544Y519684D02*
X819150D01*
X822960Y522100D02*
X824106Y520954D01*
X846322Y471678D02*
X846836D01*
X841430Y476570D02*
X846322Y471678D01*
X694436Y425196D02*
Y425576D01*
X705430Y436570D01*
X47752Y706374D02*
Y706628D01*
X701548Y520452D02*
Y520700D01*
Y520452D02*
X705430Y516570D01*
X799338Y456692D02*
Y458478D01*
X708426Y450850D02*
Y469118D01*
Y484839D02*
X708961D01*
X716534Y477266D01*
Y475234D02*
Y477266D01*
X713740Y472440D02*
X716534Y475234D01*
X711748Y472440D02*
X713740D01*
X708426Y469118D02*
X711748Y472440D01*
X709422Y568562D02*
Y569214D01*
X1179832Y467870D02*
X1190630D01*
X1163828Y451866D02*
X1179832Y467870D01*
X1163828Y411988D02*
Y451866D01*
X1006048Y903016D02*
X1006094Y902970D01*
D28*
X1306322Y436118D02*
X1309370Y433070D01*
X1270382Y436118D02*
X1306322D01*
X1262630Y443870D02*
X1270382Y436118D01*
X1257554Y448822D02*
X1258570Y447806D01*
X1262506Y443870D01*
X1258570Y441706D02*
Y447806D01*
X1253490Y436626D02*
X1258570Y441706D01*
X1214630Y475870D02*
X1219076Y471424D01*
X1217930Y447170D02*
Y472570D01*
X1214630Y443870D02*
X1217930Y447170D01*
X1234694Y463934D02*
X1238630Y467870D01*
X1234694Y440182D02*
Y463934D01*
Y440182D02*
X1238250Y436626D01*
X1235076Y471424D02*
X1238567Y467933D01*
X1219076Y471424D02*
X1235076D01*
X1232408Y503428D02*
X1233932Y501904D01*
X1226188Y503428D02*
X1232408D01*
X1222630Y499870D02*
X1226188Y503428D01*
X1236596Y501904D02*
X1238630Y499870D01*
X1233932Y501904D02*
X1236596D01*
X705612Y512826D02*
X709422Y509016D01*
X695960Y512826D02*
X705612D01*
X709168Y506984D02*
X709422Y509016D01*
X1109980Y779403D02*
X1121918Y791341D01*
X1109980Y574802D02*
Y779403D01*
Y574802D02*
X1126744Y558038D01*
X859536Y522732D02*
X897128D01*
X901192Y518668D02*
X925068D01*
X897128Y522732D02*
X901192Y518668D01*
X830438Y559562D02*
X833430Y556570D01*
X820422Y559562D02*
X830438D01*
X817430Y556570D02*
X820422Y559562D01*
X833430Y553014D02*
Y556570D01*
X828802Y548386D02*
X833430Y553014D01*
X831088Y532760D02*
Y538480D01*
X828802Y540766D02*
Y548386D01*
Y540766D02*
X831088Y538480D01*
X830450Y529590D02*
X833430Y532570D01*
X812410Y529590D02*
X830450D01*
X809430Y532570D02*
X812410Y529590D01*
X733552Y504448D02*
Y515366D01*
X732348Y516570D02*
X733552Y515366D01*
X729430Y516570D02*
X732348D01*
X732536Y495676D02*
X737430Y500570D01*
X732536Y479676D02*
Y495676D01*
X729430Y476570D02*
X732536Y479676D01*
X729430Y473260D02*
X730192D01*
X733552Y469900D01*
Y468122D02*
Y469900D01*
Y468122D02*
X736092Y465582D01*
Y465142D02*
Y465582D01*
Y465142D02*
X737430Y463804D01*
X725932Y453136D02*
X728472Y455676D01*
X725932Y450342D02*
Y453136D01*
X724160Y448570D02*
X725932Y450342D01*
X717430Y448570D02*
X724160D01*
X729430Y448760D02*
Y452570D01*
X725430Y444760D02*
X729430Y448760D01*
X725430Y443490D02*
Y444760D01*
X732536Y455676D02*
X737430Y460570D01*
X728472Y455676D02*
X732536D01*
X745362Y452570D02*
Y456946D01*
X746632D02*
X746886Y456692D01*
X745362Y456946D02*
X746632D01*
X741054D02*
X745362D01*
X737430Y460570D02*
X741054Y456946D01*
X765552Y456692D02*
X769430Y460570D01*
X746886Y456692D02*
X765552D01*
X769430Y476570D02*
X773176Y472824D01*
Y464316D02*
Y472824D01*
X769430Y460570D02*
X773176Y464316D01*
X769430Y460570D02*
X772668Y457332D01*
Y439808D02*
Y457332D01*
X769430Y436570D02*
X772668Y439808D01*
X809430Y457132D02*
Y460570D01*
X805688Y453390D02*
X809430Y457132D01*
X805688Y451866D02*
Y453390D01*
Y451866D02*
X808228Y449326D01*
Y447802D02*
Y449326D01*
X805180Y444754D02*
X808228Y447802D01*
X805180Y440820D02*
Y444754D01*
X830070Y455930D02*
X833430Y452570D01*
X814070Y455930D02*
X830070D01*
X813308Y456692D02*
X814070Y455930D01*
X837184Y510794D02*
X838962Y512572D01*
X837184Y508000D02*
Y510794D01*
Y508000D02*
X839470Y505714D01*
Y503682D02*
Y505714D01*
X836358Y500570D02*
X839470Y503682D01*
X847852Y512572D02*
X850392Y515112D01*
X838962Y512572D02*
X847852D01*
X850392Y515112D02*
Y519430D01*
X814192Y495808D02*
X828668D01*
X809430Y500570D02*
X814192Y495808D01*
X803656Y497332D02*
X806894Y500570D01*
X796668Y497332D02*
X803656D01*
X793430Y500570D02*
X796668Y497332D01*
X789559Y507873D02*
X793430Y504002D01*
X789559Y507873D02*
Y509397D01*
X780862Y516570D02*
X784860Y512572D01*
X786384D02*
X789559Y509397D01*
X784860Y512572D02*
X786384D01*
X773938Y529078D02*
X777430Y532570D01*
X773938Y520062D02*
Y529078D01*
Y520062D02*
X777430Y516570D01*
X773938Y553078D02*
X777430Y556570D01*
X773938Y536062D02*
Y553078D01*
Y536062D02*
X777430Y532570D01*
X705430Y556570D02*
X708660Y553340D01*
Y537340D02*
Y553340D01*
Y537340D02*
X713430Y532570D01*
X833430Y500570D02*
X836358D01*
X821430Y504570D02*
X823970D01*
X817430Y500570D02*
X821430Y504570D01*
X217424Y708406D02*
Y712470D01*
X214376Y688340D02*
X217424Y685292D01*
Y685090D02*
Y685292D01*
X44958Y700066D02*
Y710184D01*
X42982Y698090D02*
X44958Y700066D01*
X34220Y698090D02*
X42982D01*
X1778Y736600D02*
X39878Y774700D01*
X1778Y80518D02*
Y736600D01*
Y80518D02*
X81280Y1016D01*
X644144D01*
X650026Y6898D01*
X721050D01*
X689864Y518922D02*
X695960Y512826D01*
X802752Y587248D02*
X825430Y564570D01*
X783082Y587248D02*
X802752D01*
X473940Y806450D02*
X491998D01*
X233680Y801370D02*
X250190D01*
X39878Y774700D02*
X55880D01*
X152654Y877570D02*
X152908Y877316D01*
X137160Y877570D02*
X152654D01*
X330200D02*
X330454Y877316D01*
X316230Y877570D02*
X330200D01*
X369340Y806450D02*
X387858D01*
X1178052Y232410D02*
X1201166D01*
X1126744Y534416D02*
Y558038D01*
X1123188Y530860D02*
X1126744Y534416D01*
X1118870Y498348D02*
X1123696D01*
X1126744Y495300D01*
Y494030D02*
Y495300D01*
X1076764Y539300D02*
X1079850D01*
X1067816Y530352D02*
X1076764Y539300D01*
X1099312Y479806D02*
X1101090D01*
X1087818Y491300D02*
X1099312Y479806D01*
X925068Y518668D02*
X932180Y525780D01*
X956818Y491300D02*
X964850D01*
X957580Y499300D02*
X964850D01*
X838962Y569722D02*
X841430Y567254D01*
Y564570D02*
Y567254D01*
X700024Y425450D02*
X702310D01*
X705430Y428570D01*
X699262Y450850D02*
X703710D01*
X705430Y452570D01*
X710440Y448564D02*
Y449580D01*
X713430Y452570D01*
X798830Y553970D02*
X801430Y556570D01*
X798830Y552450D02*
Y553970D01*
X773787Y564695D02*
Y571095D01*
X781690Y544830D02*
X783590D01*
X777430Y540570D02*
X781690Y544830D01*
X788856Y503174D02*
X789430Y502600D01*
X774446Y489458D02*
X777430Y492442D01*
Y492570D01*
X725424Y520576D02*
Y524764D01*
Y520576D02*
X729430Y516570D01*
X698754Y563246D02*
Y567436D01*
Y563246D02*
X705430Y556570D01*
X765300Y432440D02*
X769430Y436570D01*
X765300Y424450D02*
Y432440D01*
X797306Y448694D02*
X804050D01*
X1497880Y538040D02*
Y551842D01*
X1452880Y538040D02*
Y551842D01*
X1324993Y756961D02*
X1334795D01*
X1208385Y736039D02*
Y749341D01*
X1254630Y483870D02*
X1258630Y479870D01*
X1262630Y451870D02*
X1266630Y447870D01*
X1238630Y451870D02*
X1242630Y447870D01*
X1226630Y463870D02*
X1230630Y467870D01*
X1238630Y443870D02*
X1242630Y439870D01*
X1210630Y503870D02*
X1214630Y499870D01*
X1210630Y447870D02*
X1214630Y451870D01*
X1015345Y739849D02*
Y753151D01*
X1213880Y168910D02*
X1226432D01*
X1079850Y547300D02*
X1089152D01*
X1079850Y499300D02*
X1089152D01*
X633100Y931610D02*
Y944412D01*
X618100Y918808D02*
Y931610D01*
X603100D02*
Y944412D01*
X588100Y918808D02*
Y931610D01*
X558100Y918808D02*
Y931610D01*
X841430Y452570D02*
X845430Y448570D01*
X801430Y468570D02*
X805430Y464570D01*
X757430Y512570D02*
X761430Y508570D01*
X757430Y488570D02*
X761430Y492570D01*
X717430Y552570D02*
X721430Y548570D01*
X733430Y520570D02*
X737430Y516570D01*
X556610Y552380D02*
X565912D01*
X547308Y544380D02*
X556610D01*
X191828Y691590D02*
X203130D01*
X22918D02*
X34220D01*
X432308Y496380D02*
X441610D01*
X630950Y7098D02*
Y17900D01*
X80010Y570100D02*
Y584402D01*
X473710Y58970D02*
X487512D01*
X473710Y13970D02*
X487512D01*
X292100Y57700D02*
X305902D01*
X292100Y12700D02*
X305902D01*
X57700Y134788D02*
Y148590D01*
X12700Y134788D02*
Y148590D01*
X721050Y6898D02*
Y17700D01*
X217424Y685090D02*
X226130D01*
X217424Y712470D02*
X219964Y715010D01*
X228600D01*
X231140Y717550D01*
Y729234D01*
X45720Y719328D02*
X46990D01*
X44958Y720090D02*
X45720Y719328D01*
X44958Y720090D02*
Y737870D01*
X12700Y239590D02*
X57700D01*
X769430Y460570D02*
X777430D01*
X964850Y499300D02*
X1018286D01*
X1026286Y491300D01*
X1079850D01*
X382710Y13970D02*
Y58970D01*
X342392D02*
X382710D01*
X332190Y48768D02*
X342392Y58970D01*
X250952Y48768D02*
X332190D01*
X242020Y57700D02*
X250952Y48768D01*
X201100Y57700D02*
X242020D01*
X201100Y12700D02*
Y57700D01*
X769430Y532570D02*
X777430D01*
X1246630Y451870D02*
X1254630D01*
X1246630Y475870D02*
Y483870D01*
X753364Y476570D02*
X753430D01*
X761364Y484570D02*
X761430D01*
X777240D02*
X777430D01*
X785240Y492570D02*
X785430D01*
X825430Y548570D02*
Y551230D01*
X826770Y552570D01*
X828160D01*
X828668Y495808D02*
X833430Y500570D01*
X765430Y448570D02*
X769430Y452570D01*
X762890Y448570D02*
X765430D01*
X809430Y452570D02*
X813430Y448570D01*
X815970D01*
X733552Y504448D02*
X737430Y500570D01*
Y460570D02*
Y463804D01*
X729430Y473260D02*
Y476570D01*
X777430Y460570D02*
X781308Y456692D01*
X789308D01*
X793430Y452570D01*
X1238630Y499870D02*
X1242568Y495932D01*
Y487932D02*
Y495932D01*
Y487932D02*
X1246630Y483870D01*
X741430Y432570D02*
Y433840D01*
X825430Y452570D02*
X829430Y448570D01*
X830700D01*
X1290066Y775961D02*
X1313795D01*
X785430Y500570D02*
X787400D01*
X789430Y502600D01*
X709422Y504578D02*
X713430Y500570D01*
X753430Y516570D02*
X757306Y520446D01*
X1254630Y451870D02*
X1257554Y448946D01*
X1238250Y436626D02*
X1253490D01*
X749430Y560570D02*
X753430Y556570D01*
X749430Y560570D02*
Y563110D01*
X1254630Y475870D02*
X1258630Y471870D01*
Y470600D02*
Y471870D01*
X733430Y536570D02*
X737430Y532570D01*
X1202630Y471870D02*
X1206630Y475870D01*
X1202630Y470600D02*
Y471870D01*
X841430Y428570D02*
X845430Y424570D01*
X850510D01*
X833430Y473530D02*
Y476570D01*
X809430Y500570D02*
X811018Y502158D01*
X811530D01*
X813054Y503682D01*
Y508254D01*
X817430Y512630D01*
Y516570D01*
X793430Y476570D02*
X795144Y474856D01*
X806894Y500570D02*
X809430D01*
X749174Y496826D02*
X753430Y492570D01*
X741174Y496826D02*
X749174D01*
X737430Y500570D02*
X741174Y496826D01*
X833430Y516570D02*
X837430Y520570D01*
X1238630Y507870D02*
X1242630Y511870D01*
Y513140D01*
X793430Y436570D02*
X797430Y432570D01*
X801240D01*
X725424Y432564D02*
X729430Y436570D01*
X725424Y432562D02*
Y432564D01*
X105410Y570100D02*
Y608440D01*
X110744Y48514D02*
Y533908D01*
X105410Y539242D02*
X110744Y533908D01*
X105410Y539242D02*
Y570100D01*
X809430Y460570D02*
X813308Y456692D01*
X817430Y476570D02*
X821436Y472564D01*
X817430Y532570D02*
X819330D01*
X821430Y534670D01*
Y536570D01*
X573100Y931610D02*
Y941872D01*
X570560Y944412D02*
X573100Y941872D01*
X1124014Y491300D02*
X1126744Y494030D01*
X753430Y540570D02*
X757556Y536444D01*
X765556D01*
X769430Y532570D01*
X825430Y444570D02*
X828090D01*
X829430Y443230D01*
Y441840D02*
Y443230D01*
X831088Y532760D02*
X833240D01*
X833430Y532570D01*
X777430Y500380D02*
Y500570D01*
Y500380D02*
X785240Y492570D01*
X1254630Y451746D02*
Y451870D01*
X1262506Y443870D02*
X1262630D01*
X119930Y57700D02*
X201100D01*
X57700Y239590D02*
Y273812D01*
X793430Y452570D02*
X797306Y448694D01*
X805180Y440820D02*
X809430Y436570D01*
X745362Y452570D02*
X745430D01*
X713430D02*
X717430Y448570D01*
X850392Y519430D02*
X853948Y522986D01*
X859536Y522732D01*
X382710Y58970D02*
X394690Y46990D01*
X528320D01*
X713430Y532570D02*
X717308Y536448D01*
X733430Y536570D01*
X777430Y516570D02*
X780862D01*
X793430Y500570D02*
Y504002D01*
X809370Y532570D02*
X809430D01*
X777430D02*
X781426Y528574D01*
X794766D01*
X798322Y532130D01*
Y537462D01*
X548702Y496380D02*
X556610D01*
X709168Y506984D02*
X709422Y504578D01*
X441610Y504380D02*
X495046D01*
X503046Y496380D01*
X1246504Y475870D02*
X1246630D01*
X1172588Y401828D02*
X1214630Y443870D01*
X1131570Y401828D02*
X1172588D01*
X1129030Y404368D02*
X1131570Y401828D01*
X1129030Y404368D02*
Y481140D01*
X1118870Y491300D02*
X1129030Y481140D01*
X777430Y500570D02*
Y500760D01*
X783082Y506222D01*
X1124610Y897890D02*
Y899960D01*
X741430Y432570D02*
X745430Y436570D01*
X105410Y43180D02*
X110744Y48514D01*
X119930Y57700D01*
X503046Y496380D02*
X548702D01*
X733430Y504570D02*
X733552Y504448D01*
X798322Y537462D02*
X801400Y540540D01*
X801430Y540570D01*
X1120380Y232410D02*
X1178052D01*
X1238567Y467933D02*
X1238630Y467870D01*
X1238567Y467933D02*
X1246504Y475870D01*
X1254630Y451746D02*
X1257554Y448822D01*
Y448946D01*
X801400Y540540D02*
X809370Y532570D01*
X1079850Y491300D02*
X1087818D01*
X1118870D01*
X1124014D01*
X753364Y476570D02*
X761364Y484570D01*
X777240D02*
X785240Y492570D01*
X765684Y480824D02*
X769430Y484570D01*
X765684Y478030D02*
Y480824D01*
X542798Y506984D02*
X543052Y502030D01*
X548702Y496380D01*
X837060Y469900D02*
X837438D01*
X833430Y473530D02*
X837060Y469900D01*
X773787Y571095D02*
X780542Y577850D01*
Y581914D01*
X785430Y492570D02*
X789686Y488314D01*
Y482854D02*
Y488314D01*
Y482854D02*
X795144Y477396D01*
Y474856D02*
Y477396D01*
X785430Y482030D02*
Y484570D01*
Y482030D02*
X789430Y478030D01*
X761430Y484570D02*
X764540Y487680D01*
Y497460D01*
X761430Y500570D02*
X764540Y497460D01*
X772885Y505115D02*
X772988Y496128D01*
X769430Y492570D02*
X772988Y496128D01*
X768858Y501142D02*
Y504698D01*
X761430Y500570D02*
X764540Y503680D01*
X757306Y520446D02*
X764540D01*
X762254Y512826D02*
X764540Y515112D01*
Y520446D01*
X762254Y512826D02*
X764540Y510540D01*
Y508570D02*
Y510540D01*
Y508570D02*
X769430D01*
X764540Y503680D02*
Y508570D01*
X769430D02*
X772885Y505115D01*
X772540Y505460D02*
X782320D01*
X785430Y508570D01*
X749554Y520446D02*
X753430Y516570D01*
X749554Y520446D02*
Y531114D01*
X742442Y551434D02*
X760526D01*
X730890Y544570D02*
X734890Y540570D01*
X737430D01*
Y555058D02*
Y556570D01*
X733806Y551434D02*
X737430Y555058D01*
X733806Y546354D02*
Y551434D01*
Y546354D02*
X735838Y544322D01*
X740410D01*
Y535178D02*
Y544322D01*
X737802Y532570D02*
X740410Y535178D01*
X753430Y540570D02*
Y542732D01*
X742442Y546608D02*
Y551434D01*
Y546608D02*
X744982Y544068D01*
X747268D01*
X749300Y542036D01*
Y531368D02*
Y542036D01*
X765606Y556514D02*
Y560274D01*
X766876Y561544D01*
X770636D01*
X760526Y551434D02*
X765606Y556514D01*
X770636Y561544D02*
X773787Y564695D01*
X47752Y685090D02*
X57220D01*
X46990Y719328D02*
X47752Y718566D01*
Y706628D02*
X49784Y708660D01*
Y712724D01*
X47752Y714756D02*
X49784Y712724D01*
X47752Y685090D02*
Y706374D01*
Y714756D02*
Y718566D01*
X751332Y544830D02*
X753430Y542732D01*
X751332Y544830D02*
X751840D01*
X203130Y698090D02*
X203228Y697992D01*
X213868D01*
X953008Y495110D02*
X956818Y491300D01*
X953008Y495110D02*
X953770Y495872D01*
Y496316D01*
X947928Y499364D02*
X948690Y500126D01*
X956754D01*
X957580Y499300D01*
X556610Y504380D02*
X557562Y503428D01*
X566928D01*
X799338Y458478D02*
X801430Y460570D01*
X741617Y472757D02*
X745430Y476570D01*
X741617Y472757D02*
X741680Y472694D01*
Y465074D02*
Y472694D01*
X709422Y520578D02*
X713430Y516570D01*
X709422Y520578D02*
Y528828D01*
X767588Y520700D02*
X771144D01*
X774227Y508570D02*
X777430D01*
X774227D02*
Y512992D01*
X771144Y520700D02*
X774227Y512992D01*
X729430Y500570D02*
Y500576D01*
X724154Y504952D02*
Y505852D01*
X729430Y500576D01*
X705430Y564570D02*
X709422Y568562D01*
X793430Y516570D02*
X797560Y520700D01*
X796544D02*
X797560D01*
X710062Y479938D02*
X713430Y476570D01*
X1124356Y897636D02*
X1124610Y897890D01*
X883780Y864100D02*
X883920Y863960D01*
D29*
X1335278Y956310D02*
X1357630D01*
X507238Y781304D02*
X515010Y773532D01*
X404368Y781304D02*
X507238D01*
X1032000Y955600D02*
X1032002Y955602D01*
X524510Y722850D02*
Y731266D01*
X521970Y733806D02*
X524510Y731266D01*
X354838Y733806D02*
X521970D01*
X515010Y750350D02*
Y773532D01*
X1143610Y872960D02*
Y883920D01*
X534010Y722850D02*
Y735330D01*
X536550Y737870D01*
X570992D01*
X605790Y772668D01*
Y806450D01*
X1032002Y940054D02*
X1061466D01*
X1100328Y978916D01*
X1032002Y940054D02*
Y955602D01*
X1100328Y978916D02*
X1385824D01*
X1408430Y956310D01*
X934720Y961390D02*
X959358D01*
X1143610Y883920D02*
X1151890Y892200D01*
Y949960D01*
X1139190Y962660D02*
X1151890Y949960D01*
X1124610Y872960D02*
Y882040D01*
X1126490Y883920D01*
X1143610D01*
X515010Y713842D02*
Y722850D01*
X534010Y712826D02*
Y722850D01*
X528828Y707644D02*
X534010Y712826D01*
X521208Y707644D02*
X528828D01*
X515010Y713842D02*
X521208Y707644D01*
X1006048Y903016D02*
Y955294D01*
X908050Y800100D02*
X912999Y795151D01*
X964545D01*
X895096Y877570D02*
X927240D01*
X883920Y837692D02*
Y863960D01*
X906780Y801370D02*
X908050Y800100D01*
X906780Y801370D02*
Y829818D01*
Y864100D01*
X1134110Y872960D02*
X1135888Y871182D01*
Y851154D02*
Y871182D01*
X1114298Y854964D02*
Y862648D01*
X1124610Y872960D01*
D30*
X534010Y760681D02*
X536091Y762762D01*
X545846D01*
X951186Y779272D02*
X961390D01*
X964545Y782427D01*
Y795151D01*
X1157585Y775970D02*
Y791341D01*
X1041400Y817372D02*
X1067431Y791341D01*
X996696Y817372D02*
X1041400D01*
X974475Y795151D02*
X996696Y817372D01*
X964545Y795151D02*
X974475D01*
X1121918Y791341D02*
X1157585D01*
X638100Y931610D02*
Y963930D01*
X534010Y750350D02*
Y760681D01*
X1067431Y791341D02*
X1121918D01*
X1124610Y891540D02*
Y897890D01*
X511048Y741172D02*
X528168D01*
X534010Y735330D01*
X487934Y764286D02*
X511048Y741172D01*
X487934Y764286D02*
Y768604D01*
X1069340Y897636D02*
X1124356D01*
D31*
X909320Y961390D02*
X929780Y940930D01*
Y875030D02*
Y940930D01*
D32*
X1387348Y896112D02*
D03*
Y870712D02*
D03*
X1361948Y896112D02*
D03*
Y870712D02*
D03*
X1336548Y896112D02*
D03*
Y870712D02*
D03*
X1311148Y896112D02*
D03*
Y870712D02*
D03*
X1285748Y896112D02*
D03*
X275590Y826770D02*
D03*
Y801370D02*
D03*
X250190Y826770D02*
D03*
X81280Y800100D02*
D03*
Y774700D02*
D03*
X55880Y800100D02*
D03*
X822960Y59690D02*
D03*
Y85090D02*
D03*
X911860Y556260D02*
D03*
X1331575Y614721D02*
D03*
X1128375Y610911D02*
D03*
X605790Y806450D02*
D03*
X580390D02*
D03*
X288290Y464820D02*
D03*
X313690Y490220D02*
D03*
X288290D02*
D03*
X313690Y515620D02*
D03*
X288290D02*
D03*
X313690Y541020D02*
D03*
X288290D02*
D03*
X1371600Y306070D02*
D03*
X1346200Y331470D02*
D03*
Y306070D02*
D03*
X1320800Y331470D02*
D03*
Y306070D02*
D03*
X1295400Y331470D02*
D03*
Y306070D02*
D03*
X1179830Y336550D02*
D03*
Y311150D02*
D03*
X1154430Y336550D02*
D03*
Y311150D02*
D03*
X1129030Y336550D02*
D03*
X134450Y334050D02*
D03*
X159850Y308650D02*
D03*
Y334050D02*
D03*
X185250Y308650D02*
D03*
Y334050D02*
D03*
X210650Y308650D02*
D03*
Y334050D02*
D03*
X236050Y308650D02*
D03*
Y334050D02*
D03*
X261450Y308650D02*
D03*
Y334050D02*
D03*
X286850Y308650D02*
D03*
Y334050D02*
D03*
X312250Y308650D02*
D03*
Y334050D02*
D03*
X337650Y308650D02*
D03*
Y334050D02*
D03*
X363050Y308650D02*
D03*
Y334050D02*
D03*
X388450Y308650D02*
D03*
Y334050D02*
D03*
X413850Y308650D02*
D03*
Y334050D02*
D03*
X439250Y308650D02*
D03*
Y334050D02*
D03*
X464650Y308650D02*
D03*
Y334050D02*
D03*
X490050Y308650D02*
D03*
Y334050D02*
D03*
X515450Y308650D02*
D03*
Y334050D02*
D03*
X540850Y308650D02*
D03*
Y334050D02*
D03*
X566250Y308650D02*
D03*
Y334050D02*
D03*
X591650Y308650D02*
D03*
Y334050D02*
D03*
X670560Y332740D02*
D03*
X695960Y307340D02*
D03*
Y332740D02*
D03*
X721360Y307340D02*
D03*
Y332740D02*
D03*
X746760Y307340D02*
D03*
Y332740D02*
D03*
X772160Y307340D02*
D03*
Y332740D02*
D03*
X797560Y307340D02*
D03*
Y332740D02*
D03*
X822960Y307340D02*
D03*
Y332740D02*
D03*
X848360Y307340D02*
D03*
Y332740D02*
D03*
X873760Y307340D02*
D03*
Y332740D02*
D03*
X899160Y307340D02*
D03*
Y332740D02*
D03*
X924560Y307340D02*
D03*
Y332740D02*
D03*
X949960Y307340D02*
D03*
Y332740D02*
D03*
X975360Y307340D02*
D03*
Y332740D02*
D03*
X1000760Y307340D02*
D03*
Y332740D02*
D03*
X1026160Y307340D02*
D03*
Y332740D02*
D03*
X1051560Y307340D02*
D03*
Y332740D02*
D03*
X469900Y963930D02*
D03*
X770890Y951230D02*
D03*
X796290Y925830D02*
D03*
Y951230D02*
D03*
X469900Y878840D02*
D03*
X873760Y792480D02*
D03*
Y767080D02*
D03*
X848360Y792480D02*
D03*
Y767080D02*
D03*
X822960Y792480D02*
D03*
Y767080D02*
D03*
X797560Y792480D02*
D03*
Y767080D02*
D03*
X772160Y792480D02*
D03*
Y767080D02*
D03*
X746760Y792480D02*
D03*
Y767080D02*
D03*
X721360Y792480D02*
D03*
Y767080D02*
D03*
X695960Y792480D02*
D03*
X105410Y43180D02*
D03*
X553720Y46990D02*
D03*
X944880Y48260D02*
D03*
X970280Y22860D02*
D03*
Y48260D02*
D03*
X995680Y22860D02*
D03*
Y48260D02*
D03*
X1021080Y22860D02*
D03*
Y48260D02*
D03*
X1046480Y22860D02*
D03*
Y48260D02*
D03*
X1071880Y22860D02*
D03*
Y48260D02*
D03*
X1164590Y962660D02*
D03*
X1139190D02*
D03*
X1357630Y956310D02*
D03*
X1383030D02*
D03*
X883920Y961390D02*
D03*
X909320D02*
D03*
X1196340Y581660D02*
D03*
Y607060D02*
D03*
X1221740Y581660D02*
D03*
Y607060D02*
D03*
X1247140Y581660D02*
D03*
X481350Y691650D02*
D03*
X506750Y666250D02*
D03*
Y691650D02*
D03*
X532150Y666250D02*
D03*
Y691650D02*
D03*
X557550Y666250D02*
D03*
Y691650D02*
D03*
X582950Y666250D02*
D03*
Y691650D02*
D03*
X608350Y666250D02*
D03*
Y691650D02*
D03*
X633750Y666250D02*
D03*
Y691650D02*
D03*
X659150Y666250D02*
D03*
Y691650D02*
D03*
X684550Y666250D02*
D03*
Y691650D02*
D03*
X709950Y666250D02*
D03*
Y691650D02*
D03*
X735350Y666250D02*
D03*
Y691650D02*
D03*
X760750Y666250D02*
D03*
Y691650D02*
D03*
X786150Y666250D02*
D03*
Y691650D02*
D03*
X811550Y666250D02*
D03*
Y691650D02*
D03*
X836950Y666250D02*
D03*
Y691650D02*
D03*
X862350Y666250D02*
D03*
Y691650D02*
D03*
X887750Y666250D02*
D03*
Y691650D02*
D03*
X913150Y666250D02*
D03*
Y691650D02*
D03*
X938550Y666250D02*
D03*
Y691650D02*
D03*
X1017270Y693420D02*
D03*
X1042670Y668020D02*
D03*
Y693420D02*
D03*
X1068070Y668020D02*
D03*
Y693420D02*
D03*
X1093470Y668020D02*
D03*
Y693420D02*
D03*
X1118870Y668020D02*
D03*
Y693420D02*
D03*
X1144270Y668020D02*
D03*
Y693420D02*
D03*
X1169670Y668020D02*
D03*
Y693420D02*
D03*
X1195070Y668020D02*
D03*
Y693420D02*
D03*
X1220470Y668020D02*
D03*
Y693420D02*
D03*
X1245870Y668020D02*
D03*
Y693420D02*
D03*
X1271270Y668020D02*
D03*
Y693420D02*
D03*
X1296670Y668020D02*
D03*
Y693420D02*
D03*
X1322070Y668020D02*
D03*
Y693420D02*
D03*
X1347470Y668020D02*
D03*
Y693420D02*
D03*
X1372870Y668020D02*
D03*
Y693420D02*
D03*
X1398270Y668020D02*
D03*
Y693420D02*
D03*
X291230Y877570D02*
D03*
X112160D02*
D03*
X1463040Y327660D02*
D03*
X1488440D02*
D03*
X1463040Y302260D02*
D03*
X1488440D02*
D03*
X1463040Y276860D02*
D03*
X1488440D02*
D03*
X1463040Y251460D02*
D03*
X1488440D02*
D03*
X1463040Y226060D02*
D03*
X1488440D02*
D03*
X1463040Y200660D02*
D03*
X1488440D02*
D03*
X1463040Y175260D02*
D03*
X1488440D02*
D03*
X1463040Y149860D02*
D03*
X1488440D02*
D03*
X1463040Y124460D02*
D03*
X1488440D02*
D03*
X1463040Y99060D02*
D03*
X43500Y442100D02*
D03*
X18100Y416700D02*
D03*
X43500D02*
D03*
X18100Y391300D02*
D03*
X43500D02*
D03*
X18100Y365900D02*
D03*
X43500D02*
D03*
X18100Y340500D02*
D03*
X43500D02*
D03*
X928985Y455971D02*
D03*
D33*
X369340Y806450D02*
D03*
D34*
X473940D02*
D03*
D35*
X822960Y34290D02*
D03*
X911860Y530860D02*
D03*
X1331575Y589321D02*
D03*
X1128375Y585511D02*
D03*
X313690Y464820D02*
D03*
X469900Y938530D02*
D03*
Y853440D02*
D03*
X316230Y877570D02*
D03*
X137160D02*
D03*
X1488440Y99060D02*
D03*
X18100Y442100D02*
D03*
X928985Y430571D02*
D03*
D36*
X1223010Y85090D02*
D03*
Y20090D02*
D03*
X1326010D02*
D03*
Y85090D02*
D03*
D37*
X1223010Y48090D02*
D03*
X1326010D02*
D03*
D38*
X265230Y928570D02*
D03*
X367230D02*
D03*
X86160D02*
D03*
X188160D02*
D03*
D39*
X522100Y992610D02*
D03*
X679100D02*
D03*
X528100Y943610D02*
D03*
X673100D02*
D03*
X1335278Y956310D02*
D03*
X1077214Y985266D02*
D03*
X404368Y781304D02*
D03*
X638100Y963930D02*
D03*
X959358Y961390D02*
D03*
X1006094Y902970D02*
D03*
X354838Y733806D02*
D03*
X895096Y877570D02*
D03*
X883920Y837692D02*
D03*
X906780Y829818D02*
D03*
X861568Y823468D02*
D03*
X989330Y852678D02*
D03*
X1135888Y851154D02*
D03*
X1114298Y854964D02*
D03*
X1097280Y830326D02*
D03*
D40*
X1046298Y983844D02*
D03*
X991798Y983844D02*
D03*
D41*
X990048Y953544D02*
D03*
X1048048Y953544D02*
D03*
D42*
X682244Y536194D02*
D03*
X823970Y504570D02*
D03*
X217424Y708406D02*
D03*
X214376Y688340D02*
D03*
X825754Y647192D02*
D03*
X602996Y735076D02*
D03*
X44958Y710184D02*
D03*
X245872Y729742D02*
D03*
X689864Y518922D02*
D03*
X783082Y587248D02*
D03*
X590550Y944372D02*
D03*
X491998Y806450D02*
D03*
X233680Y801370D02*
D03*
X39878Y774700D02*
D03*
X152908Y877316D02*
D03*
X330454D02*
D03*
X387858Y806450D02*
D03*
X1201166Y232410D02*
D03*
X1067816Y530352D02*
D03*
X1183386Y436372D02*
D03*
X920496Y561340D02*
D03*
X947928Y499364D02*
D03*
X847598Y506730D02*
D03*
X615442Y293116D02*
D03*
X399288Y349504D02*
D03*
X602742Y394462D02*
D03*
X1148588Y498094D02*
D03*
X1101090Y479806D02*
D03*
X932180Y525780D02*
D03*
X838962Y569722D02*
D03*
X700024Y425450D02*
D03*
X699262Y450850D02*
D03*
X710440Y448564D02*
D03*
X886714Y483616D02*
D03*
X798830Y552450D02*
D03*
X783590Y544830D02*
D03*
X788856Y503174D02*
D03*
X774446Y489458D02*
D03*
X725424Y524764D02*
D03*
X699516Y582930D02*
D03*
X698754Y567436D02*
D03*
X765950Y545090D02*
D03*
X765300Y424450D02*
D03*
X804050Y448694D02*
D03*
X1497880Y551842D02*
D03*
X1376025Y772223D02*
D03*
X1452880Y551842D02*
D03*
X1324993Y756961D02*
D03*
X1275695Y773493D02*
D03*
X1208385Y736039D02*
D03*
X1322180Y481418D02*
D03*
X1305450Y510628D02*
D03*
X1302910Y457288D02*
D03*
X1124566Y739159D02*
D03*
X1283970Y424202D02*
D03*
X1258630Y479870D02*
D03*
X1266630Y447870D02*
D03*
X1242630D02*
D03*
X1226630Y463870D02*
D03*
X1242630Y439870D02*
D03*
X1210630Y503870D02*
D03*
X1236980Y425472D02*
D03*
X1047095Y757159D02*
D03*
X1210630Y447870D02*
D03*
X1211580Y425472D02*
D03*
X1158350Y519518D02*
D03*
X1015345Y739849D02*
D03*
X1186180Y424202D02*
D03*
X1158350Y471258D02*
D03*
Y464732D02*
D03*
X1159620Y440602D02*
D03*
X1226432Y168910D02*
D03*
X1089152Y547300D02*
D03*
Y499300D02*
D03*
X633100Y944412D02*
D03*
X618100Y918808D02*
D03*
X603100Y944412D02*
D03*
X588100Y918808D02*
D03*
X558100D02*
D03*
X847090Y626132D02*
D03*
X798830Y623592D02*
D03*
X889110Y454572D02*
D03*
X772160Y623592D02*
D03*
X746760Y622322D02*
D03*
X845430Y448570D02*
D03*
X732682Y593980D02*
D03*
X699770Y619782D02*
D03*
X805430Y464570D02*
D03*
X757430Y512570D02*
D03*
Y488570D02*
D03*
X717430Y552570D02*
D03*
X809098Y384430D02*
D03*
X733430Y520570D02*
D03*
X674480Y581572D02*
D03*
X796290Y372088D02*
D03*
X674480Y557442D02*
D03*
X769620Y372088D02*
D03*
X656480Y534582D02*
D03*
Y511722D02*
D03*
X655210Y463462D02*
D03*
Y440602D02*
D03*
X565912Y552380D02*
D03*
X547308Y544380D02*
D03*
X191828Y691590D02*
D03*
X22918D02*
D03*
X432308Y496380D02*
D03*
X224790Y626132D02*
D03*
X630950Y7098D02*
D03*
X45720Y629942D02*
D03*
X171450Y581638D02*
D03*
X80010Y584402D02*
D03*
X170180Y509248D02*
D03*
X39370Y495278D02*
D03*
X123070Y453248D02*
D03*
X487512Y58970D02*
D03*
Y13970D02*
D03*
X305902Y57700D02*
D03*
Y12700D02*
D03*
X57700Y134788D02*
D03*
X12700D02*
D03*
X231140Y729234D02*
D03*
X44958Y737870D02*
D03*
X156210Y723646D02*
D03*
X81534Y700024D02*
D03*
X730890Y544570D02*
D03*
X828160Y552570D02*
D03*
X762890Y448570D02*
D03*
X815970D02*
D03*
X1262380Y425472D02*
D03*
X789430Y478030D02*
D03*
X741430Y433840D02*
D03*
X1309370Y433070D02*
D03*
X1345485Y775961D02*
D03*
X830700Y448570D02*
D03*
X1290066Y775961D02*
D03*
X649860Y17700D02*
D03*
X1299100Y430618D02*
D03*
X1208385Y765961D02*
D03*
X733430Y504570D02*
D03*
X725430Y443490D02*
D03*
X658750Y488842D02*
D03*
X464650Y355120D02*
D03*
X749430Y563110D02*
D03*
X1258630Y470600D02*
D03*
X733430Y536570D02*
D03*
X1202630Y470600D02*
D03*
X891650Y483958D02*
D03*
X850510Y424570D02*
D03*
X765684Y478030D02*
D03*
X745110Y42544D02*
D03*
X740030Y42418D02*
D03*
X842010Y370818D02*
D03*
X837430Y520570D02*
D03*
X1242630Y513140D02*
D03*
X801240Y432570D02*
D03*
X725424Y432562D02*
D03*
X521208Y286766D02*
D03*
X741680Y372088D02*
D03*
X276352Y691590D02*
D03*
X561594Y372872D02*
D03*
X1124566Y757159D02*
D03*
X105410Y608440D02*
D03*
X713430Y586994D02*
D03*
X83156Y678590D02*
D03*
X598100Y911352D02*
D03*
X563100Y918718D02*
D03*
X813308Y456692D02*
D03*
X821436Y472564D02*
D03*
X821430Y536570D02*
D03*
X613156Y951992D02*
D03*
X623100Y944372D02*
D03*
X628142Y918718D02*
D03*
X570560Y944412D02*
D03*
X1033526Y761530D02*
D03*
X967232Y685292D02*
D03*
X1186688Y439928D02*
D03*
X1285494Y432816D02*
D03*
X748030Y568452D02*
D03*
X710038Y381890D02*
D03*
X178054Y446024D02*
D03*
X717550Y519176D02*
D03*
X829430Y441840D02*
D03*
X1193546Y455930D02*
D03*
X651002Y640588D02*
D03*
X275590Y698090D02*
D03*
X1280160Y472948D02*
D03*
X721408Y805434D02*
D03*
X949395Y547300D02*
D03*
X57700Y273812D02*
D03*
X900430Y691642D02*
D03*
X705612Y394716D02*
D03*
X828024Y569976D02*
D03*
X709422Y352298D02*
D03*
X578100Y915670D02*
D03*
X568100Y918718D02*
D03*
X701040Y372088D02*
D03*
X1283462Y466598D02*
D03*
X237490Y678590D02*
D03*
X709168Y506984D02*
D03*
X1178052Y232410D02*
D03*
X1124610Y891540D02*
D03*
X547370Y424380D02*
D03*
X721360Y320040D02*
D03*
X625856Y296926D02*
D03*
X599700Y948800D02*
D03*
X891032Y430022D02*
D03*
X542798Y506984D02*
D03*
X837438Y469900D02*
D03*
X780542Y581914D02*
D03*
X768858Y504698D02*
D03*
X751840Y544830D02*
D03*
X701548Y520700D02*
D03*
X106680Y85090D02*
D03*
X213868Y697992D02*
D03*
X953770Y496316D02*
D03*
X566928Y503428D02*
D03*
X799338Y456692D02*
D03*
X741680Y465074D02*
D03*
X709422Y528828D02*
D03*
X767588Y520700D02*
D03*
X724154Y504952D02*
D03*
X709422Y569214D02*
D03*
X796544Y520700D02*
D03*
X709676Y479806D02*
D03*
D43*
X1322070Y921258D02*
D03*
X918210Y636524D02*
D03*
X750570Y578866D02*
D03*
X773430Y424180D02*
D03*
X1344168Y850646D02*
D03*
X862076Y496062D02*
D03*
X789686Y440182D02*
D03*
X1318514Y847598D02*
D03*
X1104392Y782574D02*
D03*
X949706Y638556D02*
D03*
X760984Y578612D02*
D03*
X781812Y464952D02*
D03*
X1301496Y833120D02*
D03*
X783336Y721106D02*
D03*
X781812Y481076D02*
D03*
X891286Y400812D02*
D03*
X852424Y432562D02*
D03*
X1210818Y463550D02*
D03*
X1210310Y820674D02*
D03*
X1232154Y455422D02*
D03*
X1220470Y463550D02*
D03*
X1226950Y455930D02*
D03*
X1221740Y456184D02*
D03*
X709930Y513334D02*
D03*
X821690Y527050D02*
D03*
X814578Y526796D02*
D03*
X789686Y517144D02*
D03*
X836422Y504698D02*
D03*
X813816Y552958D02*
D03*
X828040Y488442D02*
D03*
X813308Y489712D02*
D03*
X829056Y514604D02*
D03*
X838962Y551180D02*
D03*
X1226562Y511802D02*
D03*
X749808Y491744D02*
D03*
X741426Y490982D02*
D03*
X548132Y460756D02*
D03*
X547370Y440690D02*
D03*
X300990Y419354D02*
D03*
X548640Y509524D02*
D03*
X1042924Y531114D02*
D03*
Y523240D02*
D03*
X893318Y438404D02*
D03*
X899160Y420624D02*
D03*
X844550Y388366D02*
D03*
X835660Y378206D02*
D03*
X848614Y369824D02*
D03*
X859536Y346964D02*
D03*
X820674Y342900D02*
D03*
X1226566Y680720D02*
D03*
X1138428Y649732D02*
D03*
X1044702Y581914D02*
D03*
X1123188Y530860D02*
D03*
X1118870Y498348D02*
D03*
X1042670Y507238D02*
D03*
X1012698Y546862D02*
D03*
X1104392Y508508D02*
D03*
X1169670Y417830D02*
D03*
X1182370Y530860D02*
D03*
X1218692Y433324D02*
D03*
X1252728Y455676D02*
D03*
X1279906Y478410D02*
D03*
X1210628Y491744D02*
D03*
X1230376Y495554D02*
D03*
X1266190Y504444D02*
D03*
X1274064Y497840D02*
D03*
X1281938Y499364D02*
D03*
X1274318Y526796D02*
D03*
X1242060Y567182D02*
D03*
X1196086Y552196D02*
D03*
X1210564Y524510D02*
D03*
X1191768Y530860D02*
D03*
X1198372Y531368D02*
D03*
X1193804Y521462D02*
D03*
X1177290Y524002D02*
D03*
X1194054Y513334D02*
D03*
X1188212Y503428D02*
D03*
X1181608Y505460D02*
D03*
X1197356Y488188D02*
D03*
X1182116Y481838D02*
D03*
X1186688Y513842D02*
D03*
X1170432Y540004D02*
D03*
X1181862D02*
D03*
X1182878Y523494D02*
D03*
X1166368Y556260D02*
D03*
Y520192D02*
D03*
X1165352Y507746D02*
D03*
X1123442Y515112D02*
D03*
X1094994Y474980D02*
D03*
X1088390Y457200D02*
D03*
X1011174Y467106D02*
D03*
X955294Y447802D02*
D03*
X976630Y681990D02*
D03*
X901700Y529844D02*
D03*
X930910Y533400D02*
D03*
X847090Y516570D02*
D03*
X878078Y570230D02*
D03*
X837438Y560324D02*
D03*
X834136Y543814D02*
D03*
X847344Y543560D02*
D03*
X849630Y538734D02*
D03*
X850392Y531876D02*
D03*
X804672Y502666D02*
D03*
X798068Y494538D02*
D03*
X699008Y409194D02*
D03*
X688340Y419862D02*
D03*
X664972Y434594D02*
D03*
X693166Y445770D02*
D03*
X692912Y439420D02*
D03*
X710438Y454533D02*
D03*
X724916Y465582D02*
D03*
X724154Y456692D02*
D03*
X683514Y457454D02*
D03*
X699008Y470148D02*
D03*
X738124Y480568D02*
D03*
X727202Y489966D02*
D03*
X722376Y487680D02*
D03*
X719328Y480568D02*
D03*
X698246Y493014D02*
D03*
X799084Y482092D02*
D03*
X867410Y479552D02*
D03*
X848106Y481584D02*
D03*
X839470Y480822D02*
D03*
X854202Y490982D02*
D03*
X878332Y467868D02*
D03*
X851020Y470662D02*
D03*
X837946Y492506D02*
D03*
X803402Y520700D02*
D03*
X844042Y559562D02*
D03*
X884428Y563372D02*
D03*
X821182Y548386D02*
D03*
X799846Y544322D02*
D03*
X779590Y552450D02*
D03*
X776478Y568706D02*
D03*
X781304Y562864D02*
D03*
X781600Y558292D02*
D03*
X757682Y495938D02*
D03*
X741426Y505206D02*
D03*
X730504Y512318D02*
D03*
X697992Y556514D02*
D03*
X724408Y560324D02*
D03*
X814712Y522224D02*
D03*
X829006Y527100D02*
D03*
X828400Y537600D02*
D03*
X709200Y488600D02*
D03*
X708860Y440000D02*
D03*
X733100Y464900D02*
D03*
X733050Y426450D02*
D03*
X781600Y448750D02*
D03*
X1089152Y620776D02*
D03*
X1194630Y509270D02*
D03*
X1097788Y459300D02*
D03*
X432308Y584454D02*
D03*
X450850Y576326D02*
D03*
X955548D02*
D03*
X359410Y479482D02*
D03*
X450850Y560070D02*
D03*
X375158Y416380D02*
D03*
X432308Y424380D02*
D03*
X375780Y448380D02*
D03*
X386842Y440182D02*
D03*
X974090Y447294D02*
D03*
X1207770Y530730D02*
D03*
X724662Y480568D02*
D03*
X1050798Y614680D02*
D03*
X733552Y473964D02*
D03*
X1070792Y427300D02*
D03*
X1237742Y701802D02*
D03*
X1147826Y677164D02*
D03*
X1202182Y487426D02*
D03*
X830408Y477668D02*
D03*
X1186688Y496658D02*
D03*
X1254630Y536506D02*
D03*
X1186688Y527812D02*
D03*
X837946Y515874D02*
D03*
X1202690Y455930D02*
D03*
X432308Y456438D02*
D03*
X797306Y560578D02*
D03*
X702818Y503926D02*
D03*
X701934Y465074D02*
D03*
X1202690Y495808D02*
D03*
X92710Y494792D02*
D03*
X1196340Y156210D02*
D03*
X1159256Y168910D02*
D03*
X1201420Y245110D02*
D03*
X912876Y462026D02*
D03*
X547370Y488442D02*
D03*
X821430Y512570D02*
D03*
X1098042Y593598D02*
D03*
X830072Y510032D02*
D03*
X1192022Y479806D02*
D03*
X1297304Y497332D02*
D03*
X1022350Y451358D02*
D03*
X1068070Y411300D02*
D03*
X1151890Y405130D02*
D03*
X833293D02*
D03*
X623316Y408940D02*
D03*
X565912Y445770D02*
D03*
X1277110Y453390D02*
D03*
X92710Y555752D02*
D03*
X1080770Y625856D02*
D03*
X805941Y480059D02*
D03*
X565856Y560380D02*
D03*
X1004824Y574802D02*
D03*
X1282446Y450848D02*
D03*
X899160Y411300D02*
D03*
X511302Y472380D02*
D03*
X1277112Y490220D02*
D03*
X474404Y464380D02*
D03*
X1257554Y658114D02*
D03*
X845566Y439928D02*
D03*
X1210564Y452628D02*
D03*
X797306Y567300D02*
D03*
X813430Y512570D02*
D03*
X1200318Y519870D02*
D03*
X1014984Y451300D02*
D03*
X838962Y408686D02*
D03*
X875538Y414782D02*
D03*
X455676Y488380D02*
D03*
X432308Y505756D02*
D03*
X455676Y512380D02*
D03*
X953770Y427300D02*
D03*
X1089914Y483300D02*
D03*
X845430Y538988D02*
D03*
X907288Y436372D02*
D03*
X709422Y413004D02*
D03*
X717550Y511048D02*
D03*
X1274572Y447928D02*
D03*
X742708Y421132D02*
D03*
X1184402Y618998D02*
D03*
X1089152Y555300D02*
D03*
X1091184Y523300D02*
D03*
X984064Y459300D02*
D03*
X977138Y467300D02*
D03*
X1063498Y476570D02*
D03*
X1055308Y483300D02*
D03*
X1024890Y515366D02*
D03*
X1017270Y531300D02*
D03*
X1069268Y567182D02*
D03*
X1070610Y435356D02*
D03*
X1297940Y232410D02*
D03*
X460248Y544380D02*
D03*
X1269238Y455930D02*
D03*
X1274572Y461010D02*
D03*
X1266698Y459994D02*
D03*
X1258570Y461264D02*
D03*
X1250696Y463804D02*
D03*
X58818Y541528D02*
D03*
X1313942Y483870D02*
D03*
X1226566Y447802D02*
D03*
X1250696Y503804D02*
D03*
Y495804D02*
D03*
X1250566Y487934D02*
D03*
X709422Y560578D02*
D03*
X717550Y472694D02*
D03*
X468122Y437896D02*
D03*
X741430Y477774D02*
D03*
X288798Y443484D02*
D03*
X717550Y452628D02*
D03*
X1226566Y561086D02*
D03*
X839470Y464566D02*
D03*
X1194562Y495808D02*
D03*
X837438Y496570D02*
D03*
X856742Y520446D02*
D03*
X1202630Y511870D02*
D03*
X805430Y512570D02*
D03*
X805434Y488696D02*
D03*
X805430Y532892D02*
D03*
X810514Y504698D02*
D03*
X1260094Y488950D02*
D03*
X807466Y658114D02*
D03*
X1243963Y465203D02*
D03*
X1134495Y560380D02*
D03*
X858700Y565840D02*
D03*
X1202690Y447802D02*
D03*
X599468Y573532D02*
D03*
X453390Y568380D02*
D03*
X410580Y432380D02*
D03*
X565912D02*
D03*
X450850Y528380D02*
D03*
X452120Y520380D02*
D03*
X478470Y480380D02*
D03*
X565912Y464380D02*
D03*
X567182Y480314D02*
D03*
X565912Y528320D02*
D03*
X547370Y536448D02*
D03*
X886460Y433070D02*
D03*
X1147699Y511810D02*
D03*
X717550Y506970D02*
D03*
X1274572Y439928D02*
D03*
X1070610Y420878D02*
D03*
X567628Y512380D02*
D03*
X1189228Y519430D02*
D03*
X717296Y467868D02*
D03*
X1242568Y452945D02*
D03*
X1211834Y457454D02*
D03*
X837438Y474980D02*
D03*
X1248664Y447802D02*
D03*
X972058Y678942D02*
D03*
X956818Y571246D02*
D03*
X819150Y519684D02*
D03*
X824106Y520954D02*
D03*
X846836Y471678D02*
D03*
X694436Y425196D02*
D03*
X1163828Y411988D02*
D03*
D44*
X545846Y762762D02*
D03*
X402336Y810768D02*
D03*
X951186Y779272D02*
D03*
X1157585Y775970D02*
D03*
X388112Y756666D02*
D03*
X901446Y742188D02*
D03*
X487934Y768604D02*
D03*
X1242060Y735076D02*
D03*
X1171956Y839978D02*
D03*
X1069340Y897636D02*
D03*
X823976Y628904D02*
D03*
M02*
