G04 Layer_Color=2752767*
%FSLAX44Y44*%
%MOMM*%
G71*
G01*
G75*
%ADD63C,0.0508*%
%ADD102C,0.0677*%
G36*
X998298Y963044D02*
X980048D01*
Y970044D01*
X985298D01*
Y994544D01*
X998298D01*
Y963044D01*
D02*
G37*
G36*
X1052798Y970044D02*
X1058048D01*
Y963044D01*
X1039798D01*
Y994544D01*
X1052798D01*
Y970044D01*
D02*
G37*
D63*
X989766Y981812D02*
Y985876D01*
X993830D01*
Y981812D01*
X989766D01*
X1044266Y981812D02*
Y985876D01*
X1048330D01*
Y981812D01*
X1044266D01*
X928985Y428539D02*
X926953Y432603D01*
X931017D01*
X928985Y428539D01*
Y453939D02*
X926953Y458003D01*
X931017D01*
X928985Y453939D01*
X43500Y338468D02*
X41468Y342532D01*
X45532D01*
X43500Y338468D01*
X18100D02*
X16068Y342532D01*
X20132D01*
X18100Y338468D01*
X43500Y363868D02*
X41468Y367932D01*
X45532D01*
X43500Y363868D01*
X18100D02*
X16068Y367932D01*
X20132D01*
X18100Y363868D01*
X43500Y389268D02*
X41468Y393332D01*
X45532D01*
X43500Y389268D01*
X18100D02*
X16068Y393332D01*
X20132D01*
X18100Y389268D01*
X43500Y414668D02*
X41468Y418732D01*
X45532D01*
X43500Y414668D01*
X18100D02*
X16068Y418732D01*
X20132D01*
X18100Y414668D01*
X43500Y440068D02*
X41468Y444132D01*
X45532D01*
X43500Y440068D01*
X18100D02*
X16068Y444132D01*
X20132D01*
X18100Y440068D01*
X1488440Y97028D02*
X1486408Y101092D01*
X1490472D01*
X1488440Y97028D01*
X1463040D02*
X1461008Y101092D01*
X1465072D01*
X1463040Y97028D01*
X1488440Y122428D02*
X1486408Y126492D01*
X1490472D01*
X1488440Y122428D01*
X1463040D02*
X1461008Y126492D01*
X1465072D01*
X1463040Y122428D01*
X1488440Y147828D02*
X1486408Y151892D01*
X1490472D01*
X1488440Y147828D01*
X1463040D02*
X1461008Y151892D01*
X1465072D01*
X1463040Y147828D01*
X1488440Y173228D02*
X1486408Y177292D01*
X1490472D01*
X1488440Y173228D01*
X1463040D02*
X1461008Y177292D01*
X1465072D01*
X1463040Y173228D01*
X1488440Y198628D02*
X1486408Y202692D01*
X1490472D01*
X1488440Y198628D01*
X1463040D02*
X1461008Y202692D01*
X1465072D01*
X1463040Y198628D01*
X1488440Y224028D02*
X1486408Y228092D01*
X1490472D01*
X1488440Y224028D01*
X1463040D02*
X1461008Y228092D01*
X1465072D01*
X1463040Y224028D01*
X1488440Y249428D02*
X1486408Y253492D01*
X1490472D01*
X1488440Y249428D01*
X1463040D02*
X1461008Y253492D01*
X1465072D01*
X1463040Y249428D01*
X1488440Y274828D02*
X1486408Y278892D01*
X1490472D01*
X1488440Y274828D01*
X1463040D02*
X1461008Y278892D01*
X1465072D01*
X1463040Y274828D01*
X1488440Y300228D02*
X1486408Y304292D01*
X1490472D01*
X1488440Y300228D01*
X1463040D02*
X1461008Y304292D01*
X1465072D01*
X1463040Y300228D01*
X1488440Y325628D02*
X1486408Y329692D01*
X1490472D01*
X1488440Y325628D01*
X1463040D02*
X1461008Y329692D01*
X1465072D01*
X1463040Y325628D01*
X673100Y941578D02*
X674116Y942594D01*
X675132D01*
X674116Y943610D01*
X675132Y944626D01*
X674116D01*
X673100Y945642D01*
X672084Y944626D01*
X671068D01*
X672084Y943610D01*
X671068Y942594D01*
X672084D01*
X673100Y941578D01*
X528100D02*
X529116Y942594D01*
X530132D01*
X529116Y943610D01*
X530132Y944626D01*
X529116D01*
X528100Y945642D01*
X527084Y944626D01*
X526068D01*
X527084Y943610D01*
X526068Y942594D01*
X527084D01*
X528100Y941578D01*
X679100Y990578D02*
X680116Y991594D01*
X681132D01*
X680116Y992610D01*
X681132Y993626D01*
X680116D01*
X679100Y994642D01*
X678084Y993626D01*
X677068D01*
X678084Y992610D01*
X677068Y991594D01*
X678084D01*
X679100Y990578D01*
X522100D02*
X523116Y991594D01*
X524132D01*
X523116Y992610D01*
X524132Y993626D01*
X523116D01*
X522100Y994642D01*
X521084Y993626D01*
X520068D01*
X521084Y992610D01*
X520068Y991594D01*
X521084D01*
X522100Y990578D01*
X186128Y926538D02*
X187144Y928570D01*
X186128Y930602D01*
X188160Y929586D01*
X190192Y930602D01*
X189176Y928570D01*
X190192Y926538D01*
X188160Y927554D01*
X186128Y926538D01*
X84128D02*
X85144Y928570D01*
X84128Y930602D01*
X86160Y929586D01*
X88192Y930602D01*
X87176Y928570D01*
X88192Y926538D01*
X86160Y927554D01*
X84128Y926538D01*
X112160Y875538D02*
X110128Y879602D01*
X114192D01*
X112160Y875538D01*
X137160D02*
X135128Y879602D01*
X139192D01*
X137160Y875538D01*
X365198Y926538D02*
X366214Y928570D01*
X365198Y930602D01*
X367230Y929586D01*
X369262Y930602D01*
X368246Y928570D01*
X369262Y926538D01*
X367230Y927554D01*
X365198Y926538D01*
X263198D02*
X264214Y928570D01*
X263198Y930602D01*
X265230Y929586D01*
X267262Y930602D01*
X266246Y928570D01*
X267262Y926538D01*
X265230Y927554D01*
X263198Y926538D01*
X291230Y875538D02*
X289198Y879602D01*
X293262D01*
X291230Y875538D01*
X316230D02*
X314198Y879602D01*
X318262D01*
X316230Y875538D01*
X1398270Y691388D02*
X1396238Y695452D01*
X1400302D01*
X1398270Y691388D01*
Y665988D02*
X1396238Y670052D01*
X1400302D01*
X1398270Y665988D01*
X1372870Y691388D02*
X1370838Y695452D01*
X1374902D01*
X1372870Y691388D01*
Y665988D02*
X1370838Y670052D01*
X1374902D01*
X1372870Y665988D01*
X1347470Y691388D02*
X1345438Y695452D01*
X1349502D01*
X1347470Y691388D01*
Y665988D02*
X1345438Y670052D01*
X1349502D01*
X1347470Y665988D01*
X1322070Y691388D02*
X1320038Y695452D01*
X1324102D01*
X1322070Y691388D01*
Y665988D02*
X1320038Y670052D01*
X1324102D01*
X1322070Y665988D01*
X1296670Y691388D02*
X1294638Y695452D01*
X1298702D01*
X1296670Y691388D01*
Y665988D02*
X1294638Y670052D01*
X1298702D01*
X1296670Y665988D01*
X1271270Y691388D02*
X1269238Y695452D01*
X1273302D01*
X1271270Y691388D01*
Y665988D02*
X1269238Y670052D01*
X1273302D01*
X1271270Y665988D01*
X1245870Y691388D02*
X1243838Y695452D01*
X1247902D01*
X1245870Y691388D01*
Y665988D02*
X1243838Y670052D01*
X1247902D01*
X1245870Y665988D01*
X1220470Y691388D02*
X1218438Y695452D01*
X1222502D01*
X1220470Y691388D01*
Y665988D02*
X1218438Y670052D01*
X1222502D01*
X1220470Y665988D01*
X1195070Y691388D02*
X1193038Y695452D01*
X1197102D01*
X1195070Y691388D01*
Y665988D02*
X1193038Y670052D01*
X1197102D01*
X1195070Y665988D01*
X1169670Y691388D02*
X1167638Y695452D01*
X1171702D01*
X1169670Y691388D01*
Y665988D02*
X1167638Y670052D01*
X1171702D01*
X1169670Y665988D01*
X1144270Y691388D02*
X1142238Y695452D01*
X1146302D01*
X1144270Y691388D01*
Y665988D02*
X1142238Y670052D01*
X1146302D01*
X1144270Y665988D01*
X1118870Y691388D02*
X1116838Y695452D01*
X1120902D01*
X1118870Y691388D01*
Y665988D02*
X1116838Y670052D01*
X1120902D01*
X1118870Y665988D01*
X1093470Y691388D02*
X1091438Y695452D01*
X1095502D01*
X1093470Y691388D01*
Y665988D02*
X1091438Y670052D01*
X1095502D01*
X1093470Y665988D01*
X1068070Y691388D02*
X1066038Y695452D01*
X1070102D01*
X1068070Y691388D01*
Y665988D02*
X1066038Y670052D01*
X1070102D01*
X1068070Y665988D01*
X1042670Y691388D02*
X1040638Y695452D01*
X1044702D01*
X1042670Y691388D01*
Y665988D02*
X1040638Y670052D01*
X1044702D01*
X1042670Y665988D01*
X1017270Y691388D02*
X1015238Y695452D01*
X1019302D01*
X1017270Y691388D01*
Y665988D02*
X1015238Y670052D01*
X1019302D01*
X1017270Y665988D01*
X938550Y689618D02*
X936518Y693682D01*
X940582D01*
X938550Y689618D01*
Y664218D02*
X936518Y668282D01*
X940582D01*
X938550Y664218D01*
X913150Y689618D02*
X911118Y693682D01*
X915182D01*
X913150Y689618D01*
Y664218D02*
X911118Y668282D01*
X915182D01*
X913150Y664218D01*
X887750Y689618D02*
X885718Y693682D01*
X889782D01*
X887750Y689618D01*
Y664218D02*
X885718Y668282D01*
X889782D01*
X887750Y664218D01*
X862350Y689618D02*
X860318Y693682D01*
X864382D01*
X862350Y689618D01*
Y664218D02*
X860318Y668282D01*
X864382D01*
X862350Y664218D01*
X836950Y689618D02*
X834918Y693682D01*
X838982D01*
X836950Y689618D01*
Y664218D02*
X834918Y668282D01*
X838982D01*
X836950Y664218D01*
X811550Y689618D02*
X809518Y693682D01*
X813582D01*
X811550Y689618D01*
Y664218D02*
X809518Y668282D01*
X813582D01*
X811550Y664218D01*
X786150Y689618D02*
X784118Y693682D01*
X788182D01*
X786150Y689618D01*
Y664218D02*
X784118Y668282D01*
X788182D01*
X786150Y664218D01*
X760750Y689618D02*
X758718Y693682D01*
X762782D01*
X760750Y689618D01*
Y664218D02*
X758718Y668282D01*
X762782D01*
X760750Y664218D01*
X735350Y689618D02*
X733318Y693682D01*
X737382D01*
X735350Y689618D01*
Y664218D02*
X733318Y668282D01*
X737382D01*
X735350Y664218D01*
X709950Y689618D02*
X707918Y693682D01*
X711982D01*
X709950Y689618D01*
Y664218D02*
X707918Y668282D01*
X711982D01*
X709950Y664218D01*
X684550Y689618D02*
X682518Y693682D01*
X686582D01*
X684550Y689618D01*
Y664218D02*
X682518Y668282D01*
X686582D01*
X684550Y664218D01*
X659150Y689618D02*
X657118Y693682D01*
X661182D01*
X659150Y689618D01*
Y664218D02*
X657118Y668282D01*
X661182D01*
X659150Y664218D01*
X633750Y689618D02*
X631718Y693682D01*
X635782D01*
X633750Y689618D01*
Y664218D02*
X631718Y668282D01*
X635782D01*
X633750Y664218D01*
X608350Y689618D02*
X606318Y693682D01*
X610382D01*
X608350Y689618D01*
Y664218D02*
X606318Y668282D01*
X610382D01*
X608350Y664218D01*
X582950Y689618D02*
X580918Y693682D01*
X584982D01*
X582950Y689618D01*
Y664218D02*
X580918Y668282D01*
X584982D01*
X582950Y664218D01*
X557550Y689618D02*
X555518Y693682D01*
X559582D01*
X557550Y689618D01*
Y664218D02*
X555518Y668282D01*
X559582D01*
X557550Y664218D01*
X532150Y689618D02*
X530118Y693682D01*
X534182D01*
X532150Y689618D01*
Y664218D02*
X530118Y668282D01*
X534182D01*
X532150Y664218D01*
X506750Y689618D02*
X504718Y693682D01*
X508782D01*
X506750Y689618D01*
Y664218D02*
X504718Y668282D01*
X508782D01*
X506750Y664218D01*
X481350Y689618D02*
X479318Y693682D01*
X483382D01*
X481350Y689618D01*
Y664218D02*
X479318Y668282D01*
X483382D01*
X481350Y664218D01*
X1247140Y605028D02*
X1245108Y609092D01*
X1249172D01*
X1247140Y605028D01*
Y579628D02*
X1245108Y583692D01*
X1249172D01*
X1247140Y579628D01*
X1221740Y605028D02*
X1219708Y609092D01*
X1223772D01*
X1221740Y605028D01*
Y579628D02*
X1219708Y583692D01*
X1223772D01*
X1221740Y579628D01*
X1196340Y605028D02*
X1194308Y609092D01*
X1198372D01*
X1196340Y605028D01*
Y579628D02*
X1194308Y583692D01*
X1198372D01*
X1196340Y579628D01*
X934720Y959358D02*
X932688Y963422D01*
X936752D01*
X934720Y959358D01*
X909320D02*
X907288Y963422D01*
X911352D01*
X909320Y959358D01*
X883920D02*
X881888Y963422D01*
X885952D01*
X883920Y959358D01*
X1408430Y954278D02*
X1406398Y958342D01*
X1410462D01*
X1408430Y954278D01*
X1383030D02*
X1380998Y958342D01*
X1385062D01*
X1383030Y954278D01*
X1357630D02*
X1355598Y958342D01*
X1359662D01*
X1357630Y954278D01*
X1113790Y960628D02*
X1111758Y964692D01*
X1115822D01*
X1113790Y960628D01*
X1139190D02*
X1137158Y964692D01*
X1141222D01*
X1139190Y960628D01*
X1164590D02*
X1162558Y964692D01*
X1166622D01*
X1164590Y960628D01*
X1071880Y46228D02*
X1069848Y50292D01*
X1073912D01*
X1071880Y46228D01*
Y20828D02*
X1069848Y24892D01*
X1073912D01*
X1071880Y20828D01*
X1046480Y46228D02*
X1044448Y50292D01*
X1048512D01*
X1046480Y46228D01*
Y20828D02*
X1044448Y24892D01*
X1048512D01*
X1046480Y20828D01*
X1021080Y46228D02*
X1019048Y50292D01*
X1023112D01*
X1021080Y46228D01*
Y20828D02*
X1019048Y24892D01*
X1023112D01*
X1021080Y20828D01*
X995680Y46228D02*
X993648Y50292D01*
X997712D01*
X995680Y46228D01*
Y20828D02*
X993648Y24892D01*
X997712D01*
X995680Y20828D01*
X970280Y46228D02*
X968248Y50292D01*
X972312D01*
X970280Y46228D01*
Y20828D02*
X968248Y24892D01*
X972312D01*
X970280Y20828D01*
X944880Y46228D02*
X942848Y50292D01*
X946912D01*
X944880Y46228D01*
Y20828D02*
X942848Y24892D01*
X946912D01*
X944880Y20828D01*
X1324994Y47074D02*
Y46058D01*
X1327026D01*
Y47074D01*
X1328042D01*
Y49106D01*
X1327026D01*
Y50122D01*
X1324994D01*
Y49106D01*
X1323978D01*
Y47074D01*
X1324994D01*
X1221994D02*
Y46058D01*
X1224026D01*
Y47074D01*
X1225042D01*
Y49106D01*
X1224026D01*
Y50122D01*
X1221994D01*
Y49106D01*
X1220978D01*
Y47074D01*
X1221994D01*
X1323978Y83058D02*
X1324994D01*
X1326010Y84074D01*
X1327026Y83058D01*
X1328042D01*
Y84074D01*
X1327026Y85090D01*
X1328042Y86106D01*
Y87122D01*
X1327026D01*
X1326010Y86106D01*
X1324994Y87122D01*
X1323978D01*
Y86106D01*
X1324994Y85090D01*
X1323978Y84074D01*
Y83058D01*
Y18058D02*
X1324994D01*
X1326010Y19074D01*
X1327026Y18058D01*
X1328042D01*
Y19074D01*
X1327026Y20090D01*
X1328042Y21106D01*
Y22122D01*
X1327026D01*
X1326010Y21106D01*
X1324994Y22122D01*
X1323978D01*
Y21106D01*
X1324994Y20090D01*
X1323978Y19074D01*
Y18058D01*
X1220978D02*
X1221994D01*
X1223010Y19074D01*
X1224026Y18058D01*
X1225042D01*
Y19074D01*
X1224026Y20090D01*
X1225042Y21106D01*
Y22122D01*
X1224026D01*
X1223010Y21106D01*
X1221994Y22122D01*
X1220978D01*
Y21106D01*
X1221994Y20090D01*
X1220978Y19074D01*
Y18058D01*
Y83058D02*
X1221994D01*
X1223010Y84074D01*
X1224026Y83058D01*
X1225042D01*
Y84074D01*
X1224026Y85090D01*
X1225042Y86106D01*
Y87122D01*
X1224026D01*
X1223010Y86106D01*
X1221994Y87122D01*
X1220978D01*
Y86106D01*
X1221994Y85090D01*
X1220978Y84074D01*
Y83058D01*
X528320Y44958D02*
X526288Y49022D01*
X530352D01*
X528320Y44958D01*
X553720D02*
X551688Y49022D01*
X555752D01*
X553720Y44958D01*
X130810Y41148D02*
X128778Y45212D01*
X132842D01*
X130810Y41148D01*
X105410D02*
X103378Y45212D01*
X107442D01*
X105410Y41148D01*
X695960Y765048D02*
X693928Y769112D01*
X697992D01*
X695960Y765048D01*
Y790448D02*
X693928Y794512D01*
X697992D01*
X695960Y790448D01*
X721360Y765048D02*
X719328Y769112D01*
X723392D01*
X721360Y765048D01*
Y790448D02*
X719328Y794512D01*
X723392D01*
X721360Y790448D01*
X746760Y765048D02*
X744728Y769112D01*
X748792D01*
X746760Y765048D01*
Y790448D02*
X744728Y794512D01*
X748792D01*
X746760Y790448D01*
X772160Y765048D02*
X770128Y769112D01*
X774192D01*
X772160Y765048D01*
Y790448D02*
X770128Y794512D01*
X774192D01*
X772160Y790448D01*
X797560Y765048D02*
X795528Y769112D01*
X799592D01*
X797560Y765048D01*
Y790448D02*
X795528Y794512D01*
X799592D01*
X797560Y790448D01*
X822960Y765048D02*
X820928Y769112D01*
X824992D01*
X822960Y765048D01*
Y790448D02*
X820928Y794512D01*
X824992D01*
X822960Y790448D01*
X848360Y765048D02*
X846328Y769112D01*
X850392D01*
X848360Y765048D01*
Y790448D02*
X846328Y794512D01*
X850392D01*
X848360Y790448D01*
X873760Y765048D02*
X871728Y769112D01*
X875792D01*
X873760Y765048D01*
Y790448D02*
X871728Y794512D01*
X875792D01*
X873760Y790448D01*
X469900Y851408D02*
X467868Y855472D01*
X471932D01*
X469900Y851408D01*
Y876808D02*
X467868Y880872D01*
X471932D01*
X469900Y876808D01*
X796290Y949198D02*
X794258Y953262D01*
X798322D01*
X796290Y949198D01*
Y923798D02*
X794258Y927862D01*
X798322D01*
X796290Y923798D01*
X770890Y949198D02*
X768858Y953262D01*
X772922D01*
X770890Y949198D01*
Y923798D02*
X768858Y927862D01*
X772922D01*
X770890Y923798D01*
X469900Y936498D02*
X467868Y940562D01*
X471932D01*
X469900Y936498D01*
Y961898D02*
X467868Y965962D01*
X471932D01*
X469900Y961898D01*
X1051560Y330708D02*
X1049528Y334772D01*
X1053592D01*
X1051560Y330708D01*
Y305308D02*
X1049528Y309372D01*
X1053592D01*
X1051560Y305308D01*
X1026160Y330708D02*
X1024128Y334772D01*
X1028192D01*
X1026160Y330708D01*
Y305308D02*
X1024128Y309372D01*
X1028192D01*
X1026160Y305308D01*
X1000760Y330708D02*
X998728Y334772D01*
X1002792D01*
X1000760Y330708D01*
Y305308D02*
X998728Y309372D01*
X1002792D01*
X1000760Y305308D01*
X975360Y330708D02*
X973328Y334772D01*
X977392D01*
X975360Y330708D01*
Y305308D02*
X973328Y309372D01*
X977392D01*
X975360Y305308D01*
X949960Y330708D02*
X947928Y334772D01*
X951992D01*
X949960Y330708D01*
Y305308D02*
X947928Y309372D01*
X951992D01*
X949960Y305308D01*
X924560Y330708D02*
X922528Y334772D01*
X926592D01*
X924560Y330708D01*
Y305308D02*
X922528Y309372D01*
X926592D01*
X924560Y305308D01*
X899160Y330708D02*
X897128Y334772D01*
X901192D01*
X899160Y330708D01*
Y305308D02*
X897128Y309372D01*
X901192D01*
X899160Y305308D01*
X873760Y330708D02*
X871728Y334772D01*
X875792D01*
X873760Y330708D01*
Y305308D02*
X871728Y309372D01*
X875792D01*
X873760Y305308D01*
X848360Y330708D02*
X846328Y334772D01*
X850392D01*
X848360Y330708D01*
Y305308D02*
X846328Y309372D01*
X850392D01*
X848360Y305308D01*
X822960Y330708D02*
X820928Y334772D01*
X824992D01*
X822960Y330708D01*
Y305308D02*
X820928Y309372D01*
X824992D01*
X822960Y305308D01*
X797560Y330708D02*
X795528Y334772D01*
X799592D01*
X797560Y330708D01*
Y305308D02*
X795528Y309372D01*
X799592D01*
X797560Y305308D01*
X772160Y330708D02*
X770128Y334772D01*
X774192D01*
X772160Y330708D01*
Y305308D02*
X770128Y309372D01*
X774192D01*
X772160Y305308D01*
X746760Y330708D02*
X744728Y334772D01*
X748792D01*
X746760Y330708D01*
Y305308D02*
X744728Y309372D01*
X748792D01*
X746760Y305308D01*
X721360Y330708D02*
X719328Y334772D01*
X723392D01*
X721360Y330708D01*
Y305308D02*
X719328Y309372D01*
X723392D01*
X721360Y305308D01*
X695960Y330708D02*
X693928Y334772D01*
X697992D01*
X695960Y330708D01*
Y305308D02*
X693928Y309372D01*
X697992D01*
X695960Y305308D01*
X670560Y330708D02*
X668528Y334772D01*
X672592D01*
X670560Y330708D01*
Y305308D02*
X668528Y309372D01*
X672592D01*
X670560Y305308D01*
X591650Y332018D02*
X589618Y336082D01*
X593682D01*
X591650Y332018D01*
Y306618D02*
X589618Y310682D01*
X593682D01*
X591650Y306618D01*
X566250Y332018D02*
X564218Y336082D01*
X568282D01*
X566250Y332018D01*
Y306618D02*
X564218Y310682D01*
X568282D01*
X566250Y306618D01*
X540850Y332018D02*
X538818Y336082D01*
X542882D01*
X540850Y332018D01*
Y306618D02*
X538818Y310682D01*
X542882D01*
X540850Y306618D01*
X515450Y332018D02*
X513418Y336082D01*
X517482D01*
X515450Y332018D01*
Y306618D02*
X513418Y310682D01*
X517482D01*
X515450Y306618D01*
X490050Y332018D02*
X488018Y336082D01*
X492082D01*
X490050Y332018D01*
Y306618D02*
X488018Y310682D01*
X492082D01*
X490050Y306618D01*
X464650Y332018D02*
X462618Y336082D01*
X466682D01*
X464650Y332018D01*
Y306618D02*
X462618Y310682D01*
X466682D01*
X464650Y306618D01*
X439250Y332018D02*
X437218Y336082D01*
X441282D01*
X439250Y332018D01*
Y306618D02*
X437218Y310682D01*
X441282D01*
X439250Y306618D01*
X413850Y332018D02*
X411818Y336082D01*
X415882D01*
X413850Y332018D01*
Y306618D02*
X411818Y310682D01*
X415882D01*
X413850Y306618D01*
X388450Y332018D02*
X386418Y336082D01*
X390482D01*
X388450Y332018D01*
Y306618D02*
X386418Y310682D01*
X390482D01*
X388450Y306618D01*
X363050Y332018D02*
X361018Y336082D01*
X365082D01*
X363050Y332018D01*
Y306618D02*
X361018Y310682D01*
X365082D01*
X363050Y306618D01*
X337650Y332018D02*
X335618Y336082D01*
X339682D01*
X337650Y332018D01*
Y306618D02*
X335618Y310682D01*
X339682D01*
X337650Y306618D01*
X312250Y332018D02*
X310218Y336082D01*
X314282D01*
X312250Y332018D01*
Y306618D02*
X310218Y310682D01*
X314282D01*
X312250Y306618D01*
X286850Y332018D02*
X284818Y336082D01*
X288882D01*
X286850Y332018D01*
Y306618D02*
X284818Y310682D01*
X288882D01*
X286850Y306618D01*
X261450Y332018D02*
X259418Y336082D01*
X263482D01*
X261450Y332018D01*
Y306618D02*
X259418Y310682D01*
X263482D01*
X261450Y306618D01*
X236050Y332018D02*
X234018Y336082D01*
X238082D01*
X236050Y332018D01*
Y306618D02*
X234018Y310682D01*
X238082D01*
X236050Y306618D01*
X210650Y332018D02*
X208618Y336082D01*
X212682D01*
X210650Y332018D01*
Y306618D02*
X208618Y310682D01*
X212682D01*
X210650Y306618D01*
X185250Y332018D02*
X183218Y336082D01*
X187282D01*
X185250Y332018D01*
Y306618D02*
X183218Y310682D01*
X187282D01*
X185250Y306618D01*
X159850Y332018D02*
X157818Y336082D01*
X161882D01*
X159850Y332018D01*
Y306618D02*
X157818Y310682D01*
X161882D01*
X159850Y306618D01*
X134450Y332018D02*
X132418Y336082D01*
X136482D01*
X134450Y332018D01*
Y306618D02*
X132418Y310682D01*
X136482D01*
X134450Y306618D01*
X1129030Y309118D02*
X1126998Y313182D01*
X1131062D01*
X1129030Y309118D01*
Y334518D02*
X1126998Y338582D01*
X1131062D01*
X1129030Y334518D01*
X1154430Y309118D02*
X1152398Y313182D01*
X1156462D01*
X1154430Y309118D01*
Y334518D02*
X1152398Y338582D01*
X1156462D01*
X1154430Y334518D01*
X1179830Y309118D02*
X1177798Y313182D01*
X1181862D01*
X1179830Y309118D01*
Y334518D02*
X1177798Y338582D01*
X1181862D01*
X1179830Y334518D01*
X1295400Y304038D02*
X1293368Y308102D01*
X1297432D01*
X1295400Y304038D01*
Y329438D02*
X1293368Y333502D01*
X1297432D01*
X1295400Y329438D01*
X1320800Y304038D02*
X1318768Y308102D01*
X1322832D01*
X1320800Y304038D01*
Y329438D02*
X1318768Y333502D01*
X1322832D01*
X1320800Y329438D01*
X1346200Y304038D02*
X1344168Y308102D01*
X1348232D01*
X1346200Y304038D01*
Y329438D02*
X1344168Y333502D01*
X1348232D01*
X1346200Y329438D01*
X1371600Y304038D02*
X1369568Y308102D01*
X1373632D01*
X1371600Y304038D01*
Y329438D02*
X1369568Y333502D01*
X1373632D01*
X1371600Y329438D01*
X288290Y538988D02*
X286258Y543052D01*
X290322D01*
X288290Y538988D01*
X313690D02*
X311658Y543052D01*
X315722D01*
X313690Y538988D01*
X288290Y513588D02*
X286258Y517652D01*
X290322D01*
X288290Y513588D01*
X313690D02*
X311658Y517652D01*
X315722D01*
X313690Y513588D01*
X288290Y488188D02*
X286258Y492252D01*
X290322D01*
X288290Y488188D01*
X313690D02*
X311658Y492252D01*
X315722D01*
X313690Y488188D01*
X288290Y462788D02*
X286258Y466852D01*
X290322D01*
X288290Y462788D01*
X313690D02*
X311658Y466852D01*
X315722D01*
X313690Y462788D01*
X580390Y804418D02*
X578358Y808482D01*
X582422D01*
X580390Y804418D01*
X605790D02*
X603758Y808482D01*
X607822D01*
X605790Y804418D01*
X631190D02*
X629158Y808482D01*
X633222D01*
X631190Y804418D01*
X1128375Y608879D02*
X1126343Y612943D01*
X1130407D01*
X1128375Y608879D01*
Y583479D02*
X1126343Y587543D01*
X1130407D01*
X1128375Y583479D01*
X1331575Y612689D02*
X1329543Y616753D01*
X1333607D01*
X1331575Y612689D01*
Y587289D02*
X1329543Y591353D01*
X1333607D01*
X1331575Y587289D01*
X911860Y554228D02*
X909828Y558292D01*
X913892D01*
X911860Y554228D01*
Y528828D02*
X909828Y532892D01*
X913892D01*
X911860Y528828D01*
X822960Y83058D02*
X820928Y87122D01*
X824992D01*
X822960Y83058D01*
Y57658D02*
X820928Y61722D01*
X824992D01*
X822960Y57658D01*
Y32258D02*
X820928Y36322D01*
X824992D01*
X822960Y32258D01*
X471908Y804418D02*
X472924D01*
X473940Y805434D01*
X474956Y804418D01*
X475972D01*
Y805434D01*
X474956Y806450D01*
X475972Y807466D01*
Y808482D01*
X474956D01*
X473940Y807466D01*
X472924Y808482D01*
X471908D01*
Y807466D01*
X472924Y806450D01*
X471908Y805434D01*
Y804418D01*
X367308D02*
X368324D01*
X369340Y805434D01*
X370356Y804418D01*
X371372D01*
Y805434D01*
X370356Y806450D01*
X371372Y807466D01*
Y808482D01*
X370356D01*
X369340Y807466D01*
X368324Y808482D01*
X367308D01*
Y807466D01*
X368324Y806450D01*
X367308Y805434D01*
Y804418D01*
X55880Y772668D02*
X53848Y776732D01*
X57912D01*
X55880Y772668D01*
Y798068D02*
X53848Y802132D01*
X57912D01*
X55880Y798068D01*
X81280Y772668D02*
X79248Y776732D01*
X83312D01*
X81280Y772668D01*
Y798068D02*
X79248Y802132D01*
X83312D01*
X81280Y798068D01*
X250190Y799338D02*
X248158Y803402D01*
X252222D01*
X250190Y799338D01*
Y824738D02*
X248158Y828802D01*
X252222D01*
X250190Y824738D01*
X275590Y799338D02*
X273558Y803402D01*
X277622D01*
X275590Y799338D01*
Y824738D02*
X273558Y828802D01*
X277622D01*
X275590Y824738D01*
X1285748Y868680D02*
X1283716Y872744D01*
X1287780D01*
X1285748Y868680D01*
Y894080D02*
X1283716Y898144D01*
X1287780D01*
X1285748Y894080D01*
X1311148Y868680D02*
X1309116Y872744D01*
X1313180D01*
X1311148Y868680D01*
Y894080D02*
X1309116Y898144D01*
X1313180D01*
X1311148Y894080D01*
X1336548Y868680D02*
X1334516Y872744D01*
X1338580D01*
X1336548Y868680D01*
Y894080D02*
X1334516Y898144D01*
X1338580D01*
X1336548Y894080D01*
X1361948Y868680D02*
X1359916Y872744D01*
X1363980D01*
X1361948Y868680D01*
Y894080D02*
X1359916Y898144D01*
X1363980D01*
X1361948Y894080D01*
X1387348Y868680D02*
X1385316Y872744D01*
X1389380D01*
X1387348Y868680D01*
Y894080D02*
X1385316Y898144D01*
X1389380D01*
X1387348Y894080D01*
X1004062Y969264D02*
X1006094Y971296D01*
X1008126Y969264D01*
X1006094Y967232D01*
X1004062Y969264D01*
X1161796Y409956D02*
Y414020D01*
X1165860D01*
Y409956D01*
X1161796D01*
X1162812Y410972D02*
Y413004D01*
X1164844D01*
Y410972D01*
X1162812D01*
X707644Y479806D02*
X709676Y481838D01*
X711708Y479806D01*
X709676Y477774D01*
X707644Y479806D01*
X794512Y520700D02*
X796544Y522732D01*
X798576Y520700D01*
X796544Y518668D01*
X794512Y520700D01*
X707390Y569214D02*
X709422Y571246D01*
X711454Y569214D01*
X709422Y567182D01*
X707390Y569214D01*
X722122Y504952D02*
X724154Y506984D01*
X726186Y504952D01*
X724154Y502920D01*
X722122Y504952D01*
X765556Y520700D02*
X767588Y522732D01*
X769620Y520700D01*
X767588Y518668D01*
X765556Y520700D01*
X707390Y528828D02*
X709422Y530860D01*
X711454Y528828D01*
X709422Y526796D01*
X707390Y528828D01*
X739648Y465074D02*
X741680Y467106D01*
X743712Y465074D01*
X741680Y463042D01*
X739648Y465074D01*
X797306Y456692D02*
X799338Y458724D01*
X801370Y456692D01*
X799338Y454660D01*
X797306Y456692D01*
X564896Y503428D02*
X566928Y505460D01*
X568960Y503428D01*
X566928Y501396D01*
X564896Y503428D01*
X951738Y496316D02*
X953770Y498348D01*
X955802Y496316D01*
X953770Y494284D01*
X951738Y496316D01*
X211836Y697992D02*
X213868Y700024D01*
X215900Y697992D01*
X213868Y695960D01*
X211836Y697992D01*
X104648Y85090D02*
X106680Y87122D01*
X108712Y85090D01*
X106680Y83058D01*
X104648Y85090D01*
X699516Y520700D02*
X701548Y522732D01*
X703580Y520700D01*
X701548Y518668D01*
X699516Y520700D01*
X749808Y544830D02*
X751840Y546862D01*
X753872Y544830D01*
X751840Y542798D01*
X749808Y544830D01*
X766826Y504698D02*
X768858Y506730D01*
X770890Y504698D01*
X768858Y502666D01*
X766826Y504698D01*
X778510Y581914D02*
X780542Y583946D01*
X782574Y581914D01*
X780542Y579882D01*
X778510Y581914D01*
X692404Y423164D02*
Y427228D01*
X696468D01*
Y423164D01*
X692404D01*
X693420Y424180D02*
Y426212D01*
X695452D01*
Y424180D01*
X693420D01*
X844804Y469646D02*
Y473710D01*
X848868D01*
Y469646D01*
X844804D01*
X845820Y470662D02*
Y472694D01*
X847852D01*
Y470662D01*
X845820D01*
X822074Y518922D02*
Y522986D01*
X826138D01*
Y518922D01*
X822074D01*
X823090Y519938D02*
Y521970D01*
X825122D01*
Y519938D01*
X823090D01*
X817118Y517652D02*
Y521716D01*
X821182D01*
Y517652D01*
X817118D01*
X818134Y518668D02*
Y520700D01*
X820166D01*
Y518668D01*
X818134D01*
X954786Y569214D02*
Y573278D01*
X958850D01*
Y569214D01*
X954786D01*
X955802Y570230D02*
Y572262D01*
X957834D01*
Y570230D01*
X955802D01*
X970026Y676910D02*
Y680974D01*
X974090D01*
Y676910D01*
X970026D01*
X971042Y677926D02*
Y679958D01*
X973074D01*
Y677926D01*
X971042D01*
X1246632Y445770D02*
Y449834D01*
X1250696D01*
Y445770D01*
X1246632D01*
X1247648Y446786D02*
Y448818D01*
X1249680D01*
Y446786D01*
X1247648D01*
X835406Y469900D02*
X837438Y471932D01*
X839470Y469900D01*
X837438Y467868D01*
X835406Y469900D01*
Y472948D02*
Y477012D01*
X839470D01*
Y472948D01*
X835406D01*
X836422Y473964D02*
Y475996D01*
X838454D01*
Y473964D01*
X836422D01*
X1209802Y455422D02*
Y459486D01*
X1213866D01*
Y455422D01*
X1209802D01*
X1210818Y456438D02*
Y458470D01*
X1212850D01*
Y456438D01*
X1210818D01*
X1240536Y450913D02*
Y454977D01*
X1244600D01*
Y450913D01*
X1240536D01*
X1241552Y451929D02*
Y453961D01*
X1243584D01*
Y451929D01*
X1241552D01*
X715264Y465836D02*
Y469900D01*
X719328D01*
Y465836D01*
X715264D01*
X716280Y466852D02*
Y468884D01*
X718312D01*
Y466852D01*
X716280D01*
X1187196Y517398D02*
Y521462D01*
X1191260D01*
Y517398D01*
X1187196D01*
X1188212Y518414D02*
Y520446D01*
X1190244D01*
Y518414D01*
X1188212D01*
X540766Y506984D02*
X542798Y509016D01*
X544830Y506984D01*
X542798Y504952D01*
X540766Y506984D01*
X889000Y430022D02*
X891032Y432054D01*
X893064Y430022D01*
X891032Y427990D01*
X889000Y430022D01*
X565596Y510348D02*
Y514412D01*
X569660D01*
Y510348D01*
X565596D01*
X566612Y511364D02*
Y513396D01*
X568644D01*
Y511364D01*
X566612D01*
X1068578Y418846D02*
Y422910D01*
X1072642D01*
Y418846D01*
X1068578D01*
X1069594Y419862D02*
Y421894D01*
X1071626D01*
Y419862D01*
X1069594D01*
X1272540Y437896D02*
Y441960D01*
X1276604D01*
Y437896D01*
X1272540D01*
X1273556Y438912D02*
Y440944D01*
X1275588D01*
Y438912D01*
X1273556D01*
X597668Y948800D02*
X599700Y950832D01*
X601732Y948800D01*
X599700Y946768D01*
X597668Y948800D01*
X715518Y504938D02*
Y509002D01*
X719582D01*
Y504938D01*
X715518D01*
X716534Y505954D02*
Y507986D01*
X718566D01*
Y505954D01*
X716534D01*
X1145667Y509778D02*
Y513842D01*
X1149731D01*
Y509778D01*
X1145667D01*
X1146683Y510794D02*
Y512826D01*
X1148715D01*
Y510794D01*
X1146683D01*
X884428Y431038D02*
Y435102D01*
X888492D01*
Y431038D01*
X884428D01*
X885444Y432054D02*
Y434086D01*
X887476D01*
Y432054D01*
X885444D01*
X545338Y534416D02*
Y538480D01*
X549402D01*
Y534416D01*
X545338D01*
X546354Y535432D02*
Y537464D01*
X548386D01*
Y535432D01*
X546354D01*
X623824Y296926D02*
X625856Y298958D01*
X627888Y296926D01*
X625856Y294894D01*
X623824Y296926D01*
X563880Y526288D02*
Y530352D01*
X567944D01*
Y526288D01*
X563880D01*
X564896Y527304D02*
Y529336D01*
X566928D01*
Y527304D01*
X564896D01*
X719328Y320040D02*
X721360Y322072D01*
X723392Y320040D01*
X721360Y318008D01*
X719328Y320040D01*
X565150Y478282D02*
Y482346D01*
X569214D01*
Y478282D01*
X565150D01*
X566166Y479298D02*
Y481330D01*
X568198D01*
Y479298D01*
X566166D01*
X563880Y462348D02*
Y466412D01*
X567944D01*
Y462348D01*
X563880D01*
X564896Y463364D02*
Y465396D01*
X566928D01*
Y463364D01*
X564896D01*
X476438Y478348D02*
Y482412D01*
X480502D01*
Y478348D01*
X476438D01*
X477454Y479364D02*
Y481396D01*
X479486D01*
Y479364D01*
X477454D01*
X450088Y518348D02*
Y522412D01*
X454152D01*
Y518348D01*
X450088D01*
X451104Y519364D02*
Y521396D01*
X453136D01*
Y519364D01*
X451104D01*
X448818Y526348D02*
Y530412D01*
X452882D01*
Y526348D01*
X448818D01*
X449834Y527364D02*
Y529396D01*
X451866D01*
Y527364D01*
X449834D01*
X563880Y430348D02*
Y434412D01*
X567944D01*
Y430348D01*
X563880D01*
X564896Y431364D02*
Y433396D01*
X566928D01*
Y431364D01*
X564896D01*
X545338Y424380D02*
X547370Y426412D01*
X549402Y424380D01*
X547370Y422348D01*
X545338Y424380D01*
X408548Y430348D02*
Y434412D01*
X412612D01*
Y430348D01*
X408548D01*
X409564Y431364D02*
Y433396D01*
X411596D01*
Y431364D01*
X409564D01*
X451358Y566348D02*
Y570412D01*
X455422D01*
Y566348D01*
X451358D01*
X452374Y567364D02*
Y569396D01*
X454406D01*
Y567364D01*
X452374D01*
X1122578Y891540D02*
X1124610Y893572D01*
X1126642Y891540D01*
X1124610Y889508D01*
X1122578Y891540D01*
X1075436Y897890D02*
X1077468Y899922D01*
X1079500Y897890D01*
X1077468Y895858D01*
X1075436Y897890D01*
X904748Y852170D02*
X906780Y854202D01*
X908812Y852170D01*
X906780Y850138D01*
X904748Y852170D01*
X1176020Y232410D02*
X1178052Y234442D01*
X1180084Y232410D01*
X1178052Y230378D01*
X1176020Y232410D01*
X707136Y506984D02*
X709168Y509016D01*
X711200Y506984D01*
X709168Y504952D01*
X707136Y506984D01*
X235458Y678590D02*
X237490Y680622D01*
X239522Y678590D01*
X237490Y676558D01*
X235458Y678590D01*
X597436Y571500D02*
Y575564D01*
X601500D01*
Y571500D01*
X597436D01*
X598452Y572516D02*
Y574548D01*
X600484D01*
Y572516D01*
X598452D01*
X1200658Y445770D02*
Y449834D01*
X1204722D01*
Y445770D01*
X1200658D01*
X1201674Y446786D02*
Y448818D01*
X1203706D01*
Y446786D01*
X1201674D01*
X856668Y563808D02*
Y567872D01*
X860732D01*
Y563808D01*
X856668D01*
X857684Y564824D02*
Y566856D01*
X859716D01*
Y564824D01*
X857684D01*
X1132463Y558348D02*
Y562412D01*
X1136527D01*
Y558348D01*
X1132463D01*
X1133479Y559364D02*
Y561396D01*
X1135511D01*
Y559364D01*
X1133479D01*
X1241931Y463171D02*
Y467235D01*
X1245995D01*
Y463171D01*
X1241931D01*
X1242947Y464187D02*
Y466219D01*
X1244979D01*
Y464187D01*
X1242947D01*
X805434Y656082D02*
Y660146D01*
X809498D01*
Y656082D01*
X805434D01*
X806450Y657098D02*
Y659130D01*
X808482D01*
Y657098D01*
X806450D01*
X1258062Y486918D02*
Y490982D01*
X1262126D01*
Y486918D01*
X1258062D01*
X1259078Y487934D02*
Y489966D01*
X1261110D01*
Y487934D01*
X1259078D01*
X1281430Y466598D02*
X1283462Y468630D01*
X1285494Y466598D01*
X1283462Y464566D01*
X1281430Y466598D01*
X808482Y502666D02*
Y506730D01*
X812546D01*
Y502666D01*
X808482D01*
X809498Y503682D02*
Y505714D01*
X811530D01*
Y503682D01*
X809498D01*
X803398Y530860D02*
Y534924D01*
X807462D01*
Y530860D01*
X803398D01*
X804414Y531876D02*
Y533908D01*
X806446D01*
Y531876D01*
X804414D01*
X803402Y486664D02*
Y490728D01*
X807466D01*
Y486664D01*
X803402D01*
X804418Y487680D02*
Y489712D01*
X806450D01*
Y487680D01*
X804418D01*
X803398Y510538D02*
Y514602D01*
X807462D01*
Y510538D01*
X803398D01*
X804414Y511554D02*
Y513586D01*
X806446D01*
Y511554D01*
X804414D01*
X1200598Y509838D02*
Y513902D01*
X1204662D01*
Y509838D01*
X1200598D01*
X1201614Y510854D02*
Y512886D01*
X1203646D01*
Y510854D01*
X1201614D01*
X854710Y518414D02*
Y522478D01*
X858774D01*
Y518414D01*
X854710D01*
X855726Y519430D02*
Y521462D01*
X857758D01*
Y519430D01*
X855726D01*
X835406Y494538D02*
Y498602D01*
X839470D01*
Y494538D01*
X835406D01*
X836422Y495554D02*
Y497586D01*
X838454D01*
Y495554D01*
X836422D01*
X1192530Y493776D02*
Y497840D01*
X1196594D01*
Y493776D01*
X1192530D01*
X1193546Y494792D02*
Y496824D01*
X1195578D01*
Y494792D01*
X1193546D01*
X837438Y462534D02*
Y466598D01*
X841502D01*
Y462534D01*
X837438D01*
X838454Y463550D02*
Y465582D01*
X840486D01*
Y463550D01*
X838454D01*
X1224534Y559054D02*
Y563118D01*
X1228598D01*
Y559054D01*
X1224534D01*
X1225550Y560070D02*
Y562102D01*
X1227582D01*
Y560070D01*
X1225550D01*
X715518Y450596D02*
Y454660D01*
X719582D01*
Y450596D01*
X715518D01*
X716534Y451612D02*
Y453644D01*
X718566D01*
Y451612D01*
X716534D01*
X286766Y441452D02*
Y445516D01*
X290830D01*
Y441452D01*
X286766D01*
X287782Y442468D02*
Y444500D01*
X289814D01*
Y442468D01*
X287782D01*
X739398Y475742D02*
Y479806D01*
X743462D01*
Y475742D01*
X739398D01*
X740414Y476758D02*
Y478790D01*
X742446D01*
Y476758D01*
X740414D01*
X466090Y435864D02*
Y439928D01*
X470154D01*
Y435864D01*
X466090D01*
X467106Y436880D02*
Y438912D01*
X469138D01*
Y436880D01*
X467106D01*
X715518Y470662D02*
Y474726D01*
X719582D01*
Y470662D01*
X715518D01*
X716534Y471678D02*
Y473710D01*
X718566D01*
Y471678D01*
X716534D01*
X707390Y558546D02*
Y562610D01*
X711454D01*
Y558546D01*
X707390D01*
X708406Y559562D02*
Y561594D01*
X710438D01*
Y559562D01*
X708406D01*
X699008Y372088D02*
X701040Y374120D01*
X703072Y372088D01*
X701040Y370056D01*
X699008Y372088D01*
X566068Y918718D02*
X568100Y920750D01*
X570132Y918718D01*
X568100Y916686D01*
X566068Y918718D01*
X576068Y915670D02*
X578100Y917702D01*
X580132Y915670D01*
X578100Y913638D01*
X576068Y915670D01*
X1248534Y485902D02*
Y489966D01*
X1252598D01*
Y485902D01*
X1248534D01*
X1249550Y486918D02*
Y488950D01*
X1251582D01*
Y486918D01*
X1249550D01*
X1248664Y493772D02*
Y497836D01*
X1252728D01*
Y493772D01*
X1248664D01*
X1249680Y494788D02*
Y496820D01*
X1251712D01*
Y494788D01*
X1249680D01*
X1248664Y501772D02*
Y505836D01*
X1252728D01*
Y501772D01*
X1248664D01*
X1249680Y502788D02*
Y504820D01*
X1251712D01*
Y502788D01*
X1249680D01*
X1224534Y445770D02*
Y449834D01*
X1228598D01*
Y445770D01*
X1224534D01*
X1225550Y446786D02*
Y448818D01*
X1227582D01*
Y446786D01*
X1225550D01*
X1311910Y481838D02*
Y485902D01*
X1315974D01*
Y481838D01*
X1311910D01*
X1312926Y482854D02*
Y484886D01*
X1314958D01*
Y482854D01*
X1312926D01*
X56786Y539496D02*
Y543560D01*
X60850D01*
Y539496D01*
X56786D01*
X57802Y540512D02*
Y542544D01*
X59834D01*
Y540512D01*
X57802D01*
X1248664Y461772D02*
Y465836D01*
X1252728D01*
Y461772D01*
X1248664D01*
X1249680Y462788D02*
Y464820D01*
X1251712D01*
Y462788D01*
X1249680D01*
X1256538Y459232D02*
Y463296D01*
X1260602D01*
Y459232D01*
X1256538D01*
X1257554Y460248D02*
Y462280D01*
X1259586D01*
Y460248D01*
X1257554D01*
X1264666Y457962D02*
Y462026D01*
X1268730D01*
Y457962D01*
X1264666D01*
X1265682Y458978D02*
Y461010D01*
X1267714D01*
Y458978D01*
X1265682D01*
X1272540D02*
Y463042D01*
X1276604D01*
Y458978D01*
X1272540D01*
X1273556Y459994D02*
Y462026D01*
X1275588D01*
Y459994D01*
X1273556D01*
X1267206Y453898D02*
Y457962D01*
X1271270D01*
Y453898D01*
X1267206D01*
X1268222Y454914D02*
Y456946D01*
X1270254D01*
Y454914D01*
X1268222D01*
X458216Y542348D02*
Y546412D01*
X462280D01*
Y542348D01*
X458216D01*
X459232Y543364D02*
Y545396D01*
X461264D01*
Y543364D01*
X459232D01*
X707390Y352298D02*
X709422Y354330D01*
X711454Y352298D01*
X709422Y350266D01*
X707390Y352298D01*
X1295908Y230378D02*
Y234442D01*
X1299972D01*
Y230378D01*
X1295908D01*
X1296924Y231394D02*
Y233426D01*
X1298956D01*
Y231394D01*
X1296924D01*
X825992Y569976D02*
X828024Y572008D01*
X830056Y569976D01*
X828024Y567944D01*
X825992Y569976D01*
X703580Y394716D02*
X705612Y396748D01*
X707644Y394716D01*
X705612Y392684D01*
X703580Y394716D01*
X898398Y691642D02*
X900430Y693674D01*
X902462Y691642D01*
X900430Y689610D01*
X898398Y691642D01*
X1068578Y433324D02*
Y437388D01*
X1072642D01*
Y433324D01*
X1068578D01*
X1069594Y434340D02*
Y436372D01*
X1071626D01*
Y434340D01*
X1069594D01*
X1067236Y565150D02*
Y569214D01*
X1071300D01*
Y565150D01*
X1067236D01*
X1068252Y566166D02*
Y568198D01*
X1070284D01*
Y566166D01*
X1068252D01*
X1015238Y529268D02*
Y533332D01*
X1019302D01*
Y529268D01*
X1015238D01*
X1016254Y530284D02*
Y532316D01*
X1018286D01*
Y530284D01*
X1016254D01*
X1022858Y513334D02*
Y517398D01*
X1026922D01*
Y513334D01*
X1022858D01*
X1023874Y514350D02*
Y516382D01*
X1025906D01*
Y514350D01*
X1023874D01*
X1053276Y481268D02*
Y485332D01*
X1057340D01*
Y481268D01*
X1053276D01*
X1054292Y482284D02*
Y484316D01*
X1056324D01*
Y482284D01*
X1054292D01*
X1061466Y474538D02*
Y478602D01*
X1065530D01*
Y474538D01*
X1061466D01*
X1062482Y475554D02*
Y477586D01*
X1064514D01*
Y475554D01*
X1062482D01*
X975106Y465268D02*
Y469332D01*
X979170D01*
Y465268D01*
X975106D01*
X976122Y466284D02*
Y468316D01*
X978154D01*
Y466284D01*
X976122D01*
X982032Y457268D02*
Y461332D01*
X986096D01*
Y457268D01*
X982032D01*
X983048Y458284D02*
Y460316D01*
X985080D01*
Y458284D01*
X983048D01*
X1089152Y521268D02*
Y525332D01*
X1093216D01*
Y521268D01*
X1089152D01*
X1090168Y522284D02*
Y524316D01*
X1092200D01*
Y522284D01*
X1090168D01*
X1087120Y553268D02*
Y557332D01*
X1091184D01*
Y553268D01*
X1087120D01*
X1088136Y554284D02*
Y556316D01*
X1090168D01*
Y554284D01*
X1088136D01*
X1182370Y616966D02*
Y621030D01*
X1186434D01*
Y616966D01*
X1182370D01*
X1183386Y617982D02*
Y620014D01*
X1185418D01*
Y617982D01*
X1183386D01*
X55668Y273812D02*
X57700Y275844D01*
X59732Y273812D01*
X57700Y271780D01*
X55668Y273812D01*
X636068Y963930D02*
X638100Y965962D01*
X640132Y963930D01*
X638100Y961898D01*
X636068Y963930D01*
X947363Y547300D02*
X949395Y549332D01*
X951427Y547300D01*
X949395Y545268D01*
X947363Y547300D01*
X740676Y419100D02*
Y423164D01*
X744740D01*
Y419100D01*
X740676D01*
X741692Y420116D02*
Y422148D01*
X743724D01*
Y420116D01*
X741692D01*
X1272540Y445896D02*
Y449960D01*
X1276604D01*
Y445896D01*
X1272540D01*
X1273556Y446912D02*
Y448944D01*
X1275588D01*
Y446912D01*
X1273556D01*
X719376Y805434D02*
X721408Y807466D01*
X723440Y805434D01*
X721408Y803402D01*
X719376Y805434D01*
X715518Y509016D02*
Y513080D01*
X719582D01*
Y509016D01*
X715518D01*
X716534Y510032D02*
Y512064D01*
X718566D01*
Y510032D01*
X716534D01*
X707390Y410972D02*
Y415036D01*
X711454D01*
Y410972D01*
X707390D01*
X708406Y411988D02*
Y414020D01*
X710438D01*
Y411988D01*
X708406D01*
X1278128Y472948D02*
X1280160Y474980D01*
X1282192Y472948D01*
X1280160Y470916D01*
X1278128Y472948D01*
X273558Y698090D02*
X275590Y700122D01*
X277622Y698090D01*
X275590Y696058D01*
X273558Y698090D01*
X905256Y434340D02*
Y438404D01*
X909320D01*
Y434340D01*
X905256D01*
X906272Y435356D02*
Y437388D01*
X908304D01*
Y435356D01*
X906272D01*
X843398Y536956D02*
Y541020D01*
X847462D01*
Y536956D01*
X843398D01*
X844414Y537972D02*
Y540004D01*
X846446D01*
Y537972D01*
X844414D01*
X1087882Y481268D02*
Y485332D01*
X1091946D01*
Y481268D01*
X1087882D01*
X1088898Y482284D02*
Y484316D01*
X1090930D01*
Y482284D01*
X1088898D01*
X951738Y425268D02*
Y429332D01*
X955802D01*
Y425268D01*
X951738D01*
X952754Y426284D02*
Y428316D01*
X954786D01*
Y426284D01*
X952754D01*
X648970Y640588D02*
X651002Y642620D01*
X653034Y640588D01*
X651002Y638556D01*
X648970Y640588D01*
X1191514Y455930D02*
X1193546Y457962D01*
X1195578Y455930D01*
X1193546Y453898D01*
X1191514Y455930D01*
X827398Y441840D02*
X829430Y443872D01*
X831462Y441840D01*
X829430Y439808D01*
X827398Y441840D01*
X453644Y510348D02*
Y514412D01*
X457708D01*
Y510348D01*
X453644D01*
X454660Y511364D02*
Y513396D01*
X456692D01*
Y511364D01*
X454660D01*
X430276Y503724D02*
Y507788D01*
X434340D01*
Y503724D01*
X430276D01*
X431292Y504740D02*
Y506772D01*
X433324D01*
Y504740D01*
X431292D01*
X453644Y486348D02*
Y490412D01*
X457708D01*
Y486348D01*
X453644D01*
X454660Y487364D02*
Y489396D01*
X456692D01*
Y487364D01*
X454660D01*
X715518Y519176D02*
X717550Y521208D01*
X719582Y519176D01*
X717550Y517144D01*
X715518Y519176D01*
X873506Y412750D02*
Y416814D01*
X877570D01*
Y412750D01*
X873506D01*
X874522Y413766D02*
Y415798D01*
X876554D01*
Y413766D01*
X874522D01*
X836930Y406654D02*
Y410718D01*
X840994D01*
Y406654D01*
X836930D01*
X837946Y407670D02*
Y409702D01*
X839978D01*
Y407670D01*
X837946D01*
X1012952Y449268D02*
Y453332D01*
X1017016D01*
Y449268D01*
X1012952D01*
X1013968Y450284D02*
Y452316D01*
X1016000D01*
Y450284D01*
X1013968D01*
X1198286Y517838D02*
Y521902D01*
X1202350D01*
Y517838D01*
X1198286D01*
X1199302Y518854D02*
Y520886D01*
X1201334D01*
Y518854D01*
X1199302D01*
X176022Y446024D02*
X178054Y448056D01*
X180086Y446024D01*
X178054Y443992D01*
X176022Y446024D01*
X811398Y510538D02*
Y514602D01*
X815462D01*
Y510538D01*
X811398D01*
X812414Y511554D02*
Y513586D01*
X814446D01*
Y511554D01*
X812414D01*
X795274Y565268D02*
Y569332D01*
X799338D01*
Y565268D01*
X795274D01*
X796290Y566284D02*
Y568316D01*
X798322D01*
Y566284D01*
X796290D01*
X708006Y381890D02*
X710038Y383922D01*
X712070Y381890D01*
X710038Y379858D01*
X708006Y381890D01*
X1208532Y450596D02*
Y454660D01*
X1212596D01*
Y450596D01*
X1208532D01*
X1209548Y451612D02*
Y453644D01*
X1211580D01*
Y451612D01*
X1209548D01*
X843534Y437896D02*
Y441960D01*
X847598D01*
Y437896D01*
X843534D01*
X844550Y438912D02*
Y440944D01*
X846582D01*
Y438912D01*
X844550D01*
X1255522Y656082D02*
Y660146D01*
X1259586D01*
Y656082D01*
X1255522D01*
X1256538Y657098D02*
Y659130D01*
X1258570D01*
Y657098D01*
X1256538D01*
X472372Y462348D02*
Y466412D01*
X476436D01*
Y462348D01*
X472372D01*
X473388Y463364D02*
Y465396D01*
X475420D01*
Y463364D01*
X473388D01*
X1275080Y488188D02*
Y492252D01*
X1279144D01*
Y488188D01*
X1275080D01*
X1276096Y489204D02*
Y491236D01*
X1278128D01*
Y489204D01*
X1276096D01*
X509270Y470348D02*
Y474412D01*
X513334D01*
Y470348D01*
X509270D01*
X510286Y471364D02*
Y473396D01*
X512318D01*
Y471364D01*
X510286D01*
X897128Y409268D02*
Y413332D01*
X901192D01*
Y409268D01*
X897128D01*
X898144Y410284D02*
Y412316D01*
X900176D01*
Y410284D01*
X898144D01*
X1280414Y448816D02*
Y452880D01*
X1284478D01*
Y448816D01*
X1280414D01*
X1281430Y449832D02*
Y451864D01*
X1283462D01*
Y449832D01*
X1281430D01*
X1002792Y572770D02*
Y576834D01*
X1006856D01*
Y572770D01*
X1002792D01*
X1003808Y573786D02*
Y575818D01*
X1005840D01*
Y573786D01*
X1003808D01*
X563824Y558348D02*
Y562412D01*
X567888D01*
Y558348D01*
X563824D01*
X564840Y559364D02*
Y561396D01*
X566872D01*
Y559364D01*
X564840D01*
X803909Y478027D02*
Y482091D01*
X807973D01*
Y478027D01*
X803909D01*
X804925Y479043D02*
Y481075D01*
X806957D01*
Y479043D01*
X804925D01*
X1078738Y623824D02*
Y627888D01*
X1082802D01*
Y623824D01*
X1078738D01*
X1079754Y624840D02*
Y626872D01*
X1081786D01*
Y624840D01*
X1079754D01*
X90678Y553720D02*
Y557784D01*
X94742D01*
Y553720D01*
X90678D01*
X91694Y554736D02*
Y556768D01*
X93726D01*
Y554736D01*
X91694D01*
X745998Y568452D02*
X748030Y570484D01*
X750062Y568452D01*
X748030Y566420D01*
X745998Y568452D01*
X1283462Y432816D02*
X1285494Y434848D01*
X1287526Y432816D01*
X1285494Y430784D01*
X1283462Y432816D01*
X1275078Y451358D02*
Y455422D01*
X1279142D01*
Y451358D01*
X1275078D01*
X1276094Y452374D02*
Y454406D01*
X1278126D01*
Y452374D01*
X1276094D01*
X563880Y443738D02*
Y447802D01*
X567944D01*
Y443738D01*
X563880D01*
X564896Y444754D02*
Y446786D01*
X566928D01*
Y444754D01*
X564896D01*
X621284Y406908D02*
Y410972D01*
X625348D01*
Y406908D01*
X621284D01*
X622300Y407924D02*
Y409956D01*
X624332D01*
Y407924D01*
X622300D01*
X1184656Y439928D02*
X1186688Y441960D01*
X1188720Y439928D01*
X1186688Y437896D01*
X1184656Y439928D01*
X831261Y403098D02*
Y407162D01*
X835325D01*
Y403098D01*
X831261D01*
X832277Y404114D02*
Y406146D01*
X834309D01*
Y404114D01*
X832277D01*
X1149858Y403098D02*
Y407162D01*
X1153922D01*
Y403098D01*
X1149858D01*
X1150874Y404114D02*
Y406146D01*
X1152906D01*
Y404114D01*
X1150874D01*
X1066038Y409268D02*
Y413332D01*
X1070102D01*
Y409268D01*
X1066038D01*
X1067054Y410284D02*
Y412316D01*
X1069086D01*
Y410284D01*
X1067054D01*
X1020318Y449326D02*
Y453390D01*
X1024382D01*
Y449326D01*
X1020318D01*
X1021334Y450342D02*
Y452374D01*
X1023366D01*
Y450342D01*
X1021334D01*
X965200Y685292D02*
X967232Y687324D01*
X969264Y685292D01*
X967232Y683260D01*
X965200Y685292D01*
X1031494Y761530D02*
X1033526Y763562D01*
X1035558Y761530D01*
X1033526Y759498D01*
X1031494Y761530D01*
X1295272Y495300D02*
Y499364D01*
X1299336D01*
Y495300D01*
X1295272D01*
X1296288Y496316D02*
Y498348D01*
X1298320D01*
Y496316D01*
X1296288D01*
X1189990Y477774D02*
Y481838D01*
X1194054D01*
Y477774D01*
X1189990D01*
X1191006Y478790D02*
Y480822D01*
X1193038D01*
Y478790D01*
X1191006D01*
X828040Y508000D02*
Y512064D01*
X832104D01*
Y508000D01*
X828040D01*
X829056Y509016D02*
Y511048D01*
X831088D01*
Y509016D01*
X829056D01*
X568528Y944412D02*
X570560Y946444D01*
X572592Y944412D01*
X570560Y942380D01*
X568528Y944412D01*
X626110Y918718D02*
X628142Y920750D01*
X630174Y918718D01*
X628142Y916686D01*
X626110Y918718D01*
X621068Y944372D02*
X623100Y946404D01*
X625132Y944372D01*
X623100Y942340D01*
X621068Y944372D01*
X611124Y951992D02*
X613156Y954024D01*
X615188Y951992D01*
X613156Y949960D01*
X611124Y951992D01*
X1096010Y591566D02*
Y595630D01*
X1100074D01*
Y591566D01*
X1096010D01*
X1097026Y592582D02*
Y594614D01*
X1099058D01*
Y592582D01*
X1097026D01*
X819398Y536570D02*
X821430Y538602D01*
X823462Y536570D01*
X821430Y534538D01*
X819398Y536570D01*
Y510538D02*
Y514602D01*
X823462D01*
Y510538D01*
X819398D01*
X820414Y511554D02*
Y513586D01*
X822446D01*
Y511554D01*
X820414D01*
X819404Y472564D02*
X821436Y474596D01*
X823468Y472564D01*
X821436Y470532D01*
X819404Y472564D01*
X811276Y456692D02*
X813308Y458724D01*
X815340Y456692D01*
X813308Y454660D01*
X811276Y456692D01*
X545338Y486410D02*
Y490474D01*
X549402D01*
Y486410D01*
X545338D01*
X546354Y487426D02*
Y489458D01*
X548386D01*
Y487426D01*
X546354D01*
X910844Y459994D02*
Y464058D01*
X914908D01*
Y459994D01*
X910844D01*
X911860Y461010D02*
Y463042D01*
X913892D01*
Y461010D01*
X911860D01*
X1199388Y243078D02*
Y247142D01*
X1203452D01*
Y243078D01*
X1199388D01*
X1200404Y244094D02*
Y246126D01*
X1202436D01*
Y244094D01*
X1200404D01*
X1157224Y166878D02*
Y170942D01*
X1161288D01*
Y166878D01*
X1157224D01*
X1158240Y167894D02*
Y169926D01*
X1160272D01*
Y167894D01*
X1158240D01*
X1194308Y154178D02*
Y158242D01*
X1198372D01*
Y154178D01*
X1194308D01*
X1195324Y155194D02*
Y157226D01*
X1197356D01*
Y155194D01*
X1195324D01*
X90678Y492760D02*
Y496824D01*
X94742D01*
Y492760D01*
X90678D01*
X91694Y493776D02*
Y495808D01*
X93726D01*
Y493776D01*
X91694D01*
X561068Y918718D02*
X563100Y920750D01*
X565132Y918718D01*
X563100Y916686D01*
X561068Y918718D01*
X596068Y911352D02*
X598100Y913384D01*
X600132Y911352D01*
X598100Y909320D01*
X596068Y911352D01*
X1200658Y493776D02*
Y497840D01*
X1204722D01*
Y493776D01*
X1200658D01*
X1201674Y494792D02*
Y496824D01*
X1203706D01*
Y494792D01*
X1201674D01*
X81124Y678590D02*
X83156Y680622D01*
X85188Y678590D01*
X83156Y676558D01*
X81124Y678590D01*
X699902Y463042D02*
Y467106D01*
X703966D01*
Y463042D01*
X699902D01*
X700918Y464058D02*
Y466090D01*
X702950D01*
Y464058D01*
X700918D01*
X711398Y586994D02*
X713430Y589026D01*
X715462Y586994D01*
X713430Y584962D01*
X711398Y586994D01*
X700786Y501894D02*
Y505958D01*
X704850D01*
Y501894D01*
X700786D01*
X701802Y502910D02*
Y504942D01*
X703834D01*
Y502910D01*
X701802D01*
X795274Y558546D02*
Y562610D01*
X799338D01*
Y558546D01*
X795274D01*
X796290Y559562D02*
Y561594D01*
X798322D01*
Y559562D01*
X796290D01*
X103378Y608440D02*
X105410Y610472D01*
X107442Y608440D01*
X105410Y606408D01*
X103378Y608440D01*
X1122534Y757159D02*
X1124566Y759191D01*
X1126598Y757159D01*
X1124566Y755127D01*
X1122534Y757159D01*
X559562Y372872D02*
X561594Y374904D01*
X563626Y372872D01*
X561594Y370840D01*
X559562Y372872D01*
X274320Y691590D02*
X276352Y693622D01*
X278384Y691590D01*
X276352Y689558D01*
X274320Y691590D01*
X739648Y372088D02*
X741680Y374120D01*
X743712Y372088D01*
X741680Y370056D01*
X739648Y372088D01*
X430276Y454406D02*
Y458470D01*
X434340D01*
Y454406D01*
X430276D01*
X431292Y455422D02*
Y457454D01*
X433324D01*
Y455422D01*
X431292D01*
X519176Y286766D02*
X521208Y288798D01*
X523240Y286766D01*
X521208Y284734D01*
X519176Y286766D01*
X1200658Y453898D02*
Y457962D01*
X1204722D01*
Y453898D01*
X1200658D01*
X1201674Y454914D02*
Y456946D01*
X1203706D01*
Y454914D01*
X1201674D01*
X485648Y764540D02*
X487680Y766572D01*
X489712Y764540D01*
X487680Y762508D01*
X485648Y764540D01*
X808336Y612520D02*
X810368Y614552D01*
X812400Y612520D01*
X810368Y610488D01*
X808336Y612520D01*
X835914Y513842D02*
Y517906D01*
X839978D01*
Y513842D01*
X835914D01*
X836930Y514858D02*
Y516890D01*
X838962D01*
Y514858D01*
X836930D01*
X1184656Y525780D02*
Y529844D01*
X1188720D01*
Y525780D01*
X1184656D01*
X1185672Y526796D02*
Y528828D01*
X1187704D01*
Y526796D01*
X1185672D01*
X723392Y432562D02*
X725424Y434594D01*
X727456Y432562D01*
X725424Y430530D01*
X723392Y432562D01*
X1252598Y534474D02*
Y538538D01*
X1256662D01*
Y534474D01*
X1252598D01*
X1253614Y535490D02*
Y537522D01*
X1255646D01*
Y535490D01*
X1253614D01*
X799208Y432570D02*
X801240Y434602D01*
X803272Y432570D01*
X801240Y430538D01*
X799208Y432570D01*
X1184656Y494626D02*
Y498690D01*
X1188720D01*
Y494626D01*
X1184656D01*
X1185672Y495642D02*
Y497674D01*
X1187704D01*
Y495642D01*
X1185672D01*
X828376Y475636D02*
Y479700D01*
X832440D01*
Y475636D01*
X828376D01*
X829392Y476652D02*
Y478684D01*
X831424D01*
Y476652D01*
X829392D01*
X1200150Y485394D02*
Y489458D01*
X1204214D01*
Y485394D01*
X1200150D01*
X1201166Y486410D02*
Y488442D01*
X1203198D01*
Y486410D01*
X1201166D01*
X1240598Y513140D02*
X1242630Y515172D01*
X1244662Y513140D01*
X1242630Y511108D01*
X1240598Y513140D01*
X1145794Y675132D02*
Y679196D01*
X1149858D01*
Y675132D01*
X1145794D01*
X1146810Y676148D02*
Y678180D01*
X1148842D01*
Y676148D01*
X1146810D01*
X1235710Y699770D02*
Y703834D01*
X1239774D01*
Y699770D01*
X1235710D01*
X1236726Y700786D02*
Y702818D01*
X1238758D01*
Y700786D01*
X1236726D01*
X835398Y520570D02*
X837430Y522602D01*
X839462Y520570D01*
X837430Y518538D01*
X835398Y520570D01*
X839978Y370818D02*
X842010Y372850D01*
X844042Y370818D01*
X842010Y368786D01*
X839978Y370818D01*
X737998Y42418D02*
X740030Y44450D01*
X742062Y42418D01*
X740030Y40386D01*
X737998Y42418D01*
X743078Y42544D02*
X745110Y44576D01*
X747142Y42544D01*
X745110Y40512D01*
X743078Y42544D01*
X1068760Y425268D02*
Y429332D01*
X1072824D01*
Y425268D01*
X1068760D01*
X1069776Y426284D02*
Y428316D01*
X1071808D01*
Y426284D01*
X1069776D01*
X763652Y478030D02*
X765684Y480062D01*
X767716Y478030D01*
X765684Y475998D01*
X763652Y478030D01*
X731520Y471932D02*
Y475996D01*
X735584D01*
Y471932D01*
X731520D01*
X732536Y472948D02*
Y474980D01*
X734568D01*
Y472948D01*
X732536D01*
X1048766Y612648D02*
Y616712D01*
X1052830D01*
Y612648D01*
X1048766D01*
X1049782Y613664D02*
Y615696D01*
X1051814D01*
Y613664D01*
X1049782D01*
X722630Y478536D02*
Y482600D01*
X726694D01*
Y478536D01*
X722630D01*
X723646Y479552D02*
Y481584D01*
X725678D01*
Y479552D01*
X723646D01*
X848478Y424570D02*
X850510Y426602D01*
X852542Y424570D01*
X850510Y422538D01*
X848478Y424570D01*
X889618Y483958D02*
X891650Y485990D01*
X893682Y483958D01*
X891650Y481926D01*
X889618Y483958D01*
X1205738Y528698D02*
Y532762D01*
X1209802D01*
Y528698D01*
X1205738D01*
X1206754Y529714D02*
Y531746D01*
X1208786D01*
Y529714D01*
X1206754D01*
X1200598Y470600D02*
X1202630Y472632D01*
X1204662Y470600D01*
X1202630Y468568D01*
X1200598Y470600D01*
X731398Y536570D02*
X733430Y538602D01*
X735462Y536570D01*
X733430Y534538D01*
X731398Y536570D01*
X1256598Y470600D02*
X1258630Y472632D01*
X1260662Y470600D01*
X1258630Y468568D01*
X1256598Y470600D01*
X972058Y445262D02*
Y449326D01*
X976122D01*
Y445262D01*
X972058D01*
X973074Y446278D02*
Y448310D01*
X975106D01*
Y446278D01*
X973074D01*
X747398Y563110D02*
X749430Y565142D01*
X751462Y563110D01*
X749430Y561078D01*
X747398Y563110D01*
X384810Y438150D02*
Y442214D01*
X388874D01*
Y438150D01*
X384810D01*
X385826Y439166D02*
Y441198D01*
X387858D01*
Y439166D01*
X385826D01*
X373748Y446348D02*
Y450412D01*
X377812D01*
Y446348D01*
X373748D01*
X374764Y447364D02*
Y449396D01*
X376796D01*
Y447364D01*
X374764D01*
X430276Y422348D02*
Y426412D01*
X434340D01*
Y422348D01*
X430276D01*
X431292Y423364D02*
Y425396D01*
X433324D01*
Y423364D01*
X431292D01*
X373126Y414348D02*
Y418412D01*
X377190D01*
Y414348D01*
X373126D01*
X374142Y415364D02*
Y417396D01*
X376174D01*
Y415364D01*
X374142D01*
X462618Y355120D02*
X464650Y357152D01*
X466682Y355120D01*
X464650Y353088D01*
X462618Y355120D01*
X656718Y488842D02*
X658750Y490874D01*
X660782Y488842D01*
X658750Y486810D01*
X656718Y488842D01*
X723398Y443490D02*
X725430Y445522D01*
X727462Y443490D01*
X725430Y441458D01*
X723398Y443490D01*
X731398Y504570D02*
X733430Y506602D01*
X735462Y504570D01*
X733430Y502538D01*
X731398Y504570D01*
X448818Y558038D02*
Y562102D01*
X452882D01*
Y558038D01*
X448818D01*
X449834Y559054D02*
Y561086D01*
X451866D01*
Y559054D01*
X449834D01*
X1155553Y775970D02*
X1157585Y778002D01*
X1159617Y775970D01*
X1157585Y773938D01*
X1155553Y775970D01*
X1122578Y864980D02*
X1124610Y867012D01*
X1126642Y864980D01*
X1124610Y862948D01*
X1122578Y864980D01*
X357378Y477450D02*
Y481514D01*
X361442D01*
Y477450D01*
X357378D01*
X358394Y478466D02*
Y480498D01*
X360426D01*
Y478466D01*
X358394D01*
X1206353Y765961D02*
X1208385Y767993D01*
X1210417Y765961D01*
X1208385Y763929D01*
X1206353Y765961D01*
X953516Y574294D02*
Y578358D01*
X957580D01*
Y574294D01*
X953516D01*
X954532Y575310D02*
Y577342D01*
X956564D01*
Y575310D01*
X954532D01*
X949154Y779272D02*
X951186Y781304D01*
X953218Y779272D01*
X951186Y777240D01*
X949154Y779272D01*
X448818Y574294D02*
Y578358D01*
X452882D01*
Y574294D01*
X448818D01*
X449834Y575310D02*
Y577342D01*
X451866D01*
Y575310D01*
X449834D01*
X1297068Y430618D02*
X1299100Y432650D01*
X1301132Y430618D01*
X1299100Y428586D01*
X1297068Y430618D01*
X430276Y582422D02*
Y586486D01*
X434340D01*
Y582422D01*
X430276D01*
X431292Y583438D02*
Y585470D01*
X433324D01*
Y583438D01*
X431292D01*
X647828Y17700D02*
X649860Y19732D01*
X651892Y17700D01*
X649860Y15668D01*
X647828Y17700D01*
X1288034Y775961D02*
X1290066Y777993D01*
X1292098Y775961D01*
X1290066Y773929D01*
X1288034Y775961D01*
X828668Y448570D02*
X830700Y450602D01*
X832732Y448570D01*
X830700Y446538D01*
X828668Y448570D01*
X1343453Y775961D02*
X1345485Y777993D01*
X1347517Y775961D01*
X1345485Y773929D01*
X1343453Y775961D01*
X890270Y871330D02*
X892302Y873362D01*
X894334Y871330D01*
X892302Y869298D01*
X890270Y871330D01*
X1307338Y433070D02*
X1309370Y435102D01*
X1311402Y433070D01*
X1309370Y431038D01*
X1307338Y433070D01*
X1095756Y457268D02*
Y461332D01*
X1099820D01*
Y457268D01*
X1095756D01*
X1096772Y458284D02*
Y460316D01*
X1098804D01*
Y458284D01*
X1096772D01*
X739398Y433840D02*
X741430Y435872D01*
X743462Y433840D01*
X741430Y431808D01*
X739398Y433840D01*
X787398Y478030D02*
X789430Y480062D01*
X791462Y478030D01*
X789430Y475998D01*
X787398Y478030D01*
X1192598Y507238D02*
Y511302D01*
X1196662D01*
Y507238D01*
X1192598D01*
X1193614Y508254D02*
Y510286D01*
X1195646D01*
Y508254D01*
X1193614D01*
X1087120Y618744D02*
Y622808D01*
X1091184D01*
Y618744D01*
X1087120D01*
X1088136Y619760D02*
Y621792D01*
X1090168D01*
Y619760D01*
X1088136D01*
X1260348Y425472D02*
X1262380Y427504D01*
X1264412Y425472D01*
X1262380Y423440D01*
X1260348Y425472D01*
X813938Y448570D02*
X815970Y450602D01*
X818002Y448570D01*
X815970Y446538D01*
X813938Y448570D01*
X760858D02*
X762890Y450602D01*
X764922Y448570D01*
X762890Y446538D01*
X760858Y448570D01*
X826128Y552570D02*
X828160Y554602D01*
X830192Y552570D01*
X828160Y550538D01*
X826128Y552570D01*
X728858Y544570D02*
X730890Y546602D01*
X732922Y544570D01*
X730890Y542538D01*
X728858Y544570D01*
X79502Y700024D02*
X81534Y702056D01*
X83566Y700024D01*
X81534Y697992D01*
X79502Y700024D01*
X154178Y723646D02*
X156210Y725678D01*
X158242Y723646D01*
X156210Y721614D01*
X154178Y723646D01*
X42926Y737870D02*
X44958Y739902D01*
X46990Y737870D01*
X44958Y735838D01*
X42926Y737870D01*
X229108Y729234D02*
X231140Y731266D01*
X233172Y729234D01*
X231140Y727202D01*
X229108Y729234D01*
X400304Y810768D02*
X402336Y812800D01*
X404368Y810768D01*
X402336Y808736D01*
X400304Y810768D01*
X10668Y134788D02*
X12700Y136820D01*
X14732Y134788D01*
X12700Y132756D01*
X10668Y134788D01*
X55668D02*
X57700Y136820D01*
X59732Y134788D01*
X57700Y132756D01*
X55668Y134788D01*
X303870Y12700D02*
X305902Y14732D01*
X307934Y12700D01*
X305902Y10668D01*
X303870Y12700D01*
Y57700D02*
X305902Y59732D01*
X307934Y57700D01*
X305902Y55668D01*
X303870Y57700D01*
X485480Y13970D02*
X487512Y16002D01*
X489544Y13970D01*
X487512Y11938D01*
X485480Y13970D01*
Y58970D02*
X487512Y61002D01*
X489544Y58970D01*
X487512Y56938D01*
X485480Y58970D01*
X121038Y453248D02*
X123070Y455280D01*
X125102Y453248D01*
X123070Y451216D01*
X121038Y453248D01*
X37338Y495278D02*
X39370Y497310D01*
X41402Y495278D01*
X39370Y493246D01*
X37338Y495278D01*
X168148Y509248D02*
X170180Y511280D01*
X172212Y509248D01*
X170180Y507216D01*
X168148Y509248D01*
X77978Y584402D02*
X80010Y586434D01*
X82042Y584402D01*
X80010Y582370D01*
X77978Y584402D01*
X169418Y581638D02*
X171450Y583670D01*
X173482Y581638D01*
X171450Y579606D01*
X169418Y581638D01*
X43688Y629942D02*
X45720Y631974D01*
X47752Y629942D01*
X45720Y627910D01*
X43688Y629942D01*
X628918Y7098D02*
X630950Y9130D01*
X632982Y7098D01*
X630950Y5066D01*
X628918Y7098D01*
X222758Y626132D02*
X224790Y628164D01*
X226822Y626132D01*
X224790Y624100D01*
X222758Y626132D01*
X430276Y496380D02*
X432308Y498412D01*
X434340Y496380D01*
X432308Y494348D01*
X430276Y496380D01*
X20886Y691590D02*
X22918Y693622D01*
X24950Y691590D01*
X22918Y689558D01*
X20886Y691590D01*
X189796D02*
X191828Y693622D01*
X193860Y691590D01*
X191828Y689558D01*
X189796Y691590D01*
X545276Y544380D02*
X547308Y546412D01*
X549340Y544380D01*
X547308Y542348D01*
X545276Y544380D01*
X563880Y552380D02*
X565912Y554412D01*
X567944Y552380D01*
X565912Y550348D01*
X563880Y552380D01*
X653178Y440602D02*
X655210Y442634D01*
X657242Y440602D01*
X655210Y438570D01*
X653178Y440602D01*
Y463462D02*
X655210Y465494D01*
X657242Y463462D01*
X655210Y461430D01*
X653178Y463462D01*
X654448Y511722D02*
X656480Y513754D01*
X658512Y511722D01*
X656480Y509690D01*
X654448Y511722D01*
Y534582D02*
X656480Y536614D01*
X658512Y534582D01*
X656480Y532550D01*
X654448Y534582D01*
X767588Y372088D02*
X769620Y374120D01*
X771652Y372088D01*
X769620Y370056D01*
X767588Y372088D01*
X672448Y557442D02*
X674480Y559474D01*
X676512Y557442D01*
X674480Y555410D01*
X672448Y557442D01*
X794258Y372088D02*
X796290Y374120D01*
X798322Y372088D01*
X796290Y370056D01*
X794258Y372088D01*
X672448Y581572D02*
X674480Y583604D01*
X676512Y581572D01*
X674480Y579540D01*
X672448Y581572D01*
X731398Y520570D02*
X733430Y522602D01*
X735462Y520570D01*
X733430Y518538D01*
X731398Y520570D01*
X807066Y384430D02*
X809098Y386462D01*
X811130Y384430D01*
X809098Y382398D01*
X807066Y384430D01*
X715398Y552570D02*
X717430Y554602D01*
X719462Y552570D01*
X717430Y550538D01*
X715398Y552570D01*
X755398Y488570D02*
X757430Y490602D01*
X759462Y488570D01*
X757430Y486538D01*
X755398Y488570D01*
Y512570D02*
X757430Y514602D01*
X759462Y512570D01*
X757430Y510538D01*
X755398Y512570D01*
X803398Y464570D02*
X805430Y466602D01*
X807462Y464570D01*
X805430Y462538D01*
X803398Y464570D01*
X697738Y619782D02*
X699770Y621814D01*
X701802Y619782D01*
X699770Y617750D01*
X697738Y619782D01*
X730650Y593980D02*
X732682Y596012D01*
X734714Y593980D01*
X732682Y591948D01*
X730650Y593980D01*
X843398Y448570D02*
X845430Y450602D01*
X847462Y448570D01*
X845430Y446538D01*
X843398Y448570D01*
X744728Y622322D02*
X746760Y624354D01*
X748792Y622322D01*
X746760Y620290D01*
X744728Y622322D01*
X770128Y623592D02*
X772160Y625624D01*
X774192Y623592D01*
X772160Y621560D01*
X770128Y623592D01*
X887078Y454572D02*
X889110Y456604D01*
X891142Y454572D01*
X889110Y452540D01*
X887078Y454572D01*
X796798Y623592D02*
X798830Y625624D01*
X800862Y623592D01*
X798830Y621560D01*
X796798Y623592D01*
X845058Y626132D02*
X847090Y628164D01*
X849122Y626132D01*
X847090Y624100D01*
X845058Y626132D01*
X556068Y918808D02*
X558100Y920840D01*
X560132Y918808D01*
X558100Y916776D01*
X556068Y918808D01*
X586068D02*
X588100Y920840D01*
X590132Y918808D01*
X588100Y916776D01*
X586068Y918808D01*
X601068Y944412D02*
X603100Y946444D01*
X605132Y944412D01*
X603100Y942380D01*
X601068Y944412D01*
X616068Y918808D02*
X618100Y920840D01*
X620132Y918808D01*
X618100Y916776D01*
X616068Y918808D01*
X631068Y944412D02*
X633100Y946444D01*
X635132Y944412D01*
X633100Y942380D01*
X631068Y944412D01*
X1087120Y499300D02*
X1089152Y501332D01*
X1091184Y499300D01*
X1089152Y497268D01*
X1087120Y499300D01*
X930764Y734079D02*
X932796Y736111D01*
X934828Y734079D01*
X932796Y732047D01*
X930764Y734079D01*
X1087120Y547300D02*
X1089152Y549332D01*
X1091184Y547300D01*
X1089152Y545268D01*
X1087120Y547300D01*
X859028Y844528D02*
X861060Y846560D01*
X863092Y844528D01*
X861060Y842496D01*
X859028Y844528D01*
X1224400Y168910D02*
X1226432Y170942D01*
X1228464Y168910D01*
X1226432Y166878D01*
X1224400Y168910D01*
X1157588Y440602D02*
X1159620Y442634D01*
X1161652Y440602D01*
X1159620Y438570D01*
X1157588Y440602D01*
X881748Y852048D02*
X883780Y854080D01*
X885812Y852048D01*
X883780Y850016D01*
X881748Y852048D01*
X1156318Y464732D02*
X1158350Y466764D01*
X1160382Y464732D01*
X1158350Y462700D01*
X1156318Y464732D01*
Y471258D02*
X1158350Y473290D01*
X1160382Y471258D01*
X1158350Y469226D01*
X1156318Y471258D01*
X1184148Y424202D02*
X1186180Y426234D01*
X1188212Y424202D01*
X1186180Y422170D01*
X1184148Y424202D01*
X1013313Y739849D02*
X1015345Y741881D01*
X1017377Y739849D01*
X1015345Y737817D01*
X1013313Y739849D01*
X1156318Y519518D02*
X1158350Y521550D01*
X1160382Y519518D01*
X1158350Y517486D01*
X1156318Y519518D01*
X1209548Y425472D02*
X1211580Y427504D01*
X1213612Y425472D01*
X1211580Y423440D01*
X1209548Y425472D01*
X954278Y844528D02*
X956310Y846560D01*
X958342Y844528D01*
X956310Y842496D01*
X954278Y844528D01*
X1208598Y447870D02*
X1210630Y449902D01*
X1212662Y447870D01*
X1210630Y445838D01*
X1208598Y447870D01*
X1045063Y757159D02*
X1047095Y759191D01*
X1049127Y757159D01*
X1047095Y755127D01*
X1045063Y757159D01*
X1234948Y425472D02*
X1236980Y427504D01*
X1239012Y425472D01*
X1236980Y423440D01*
X1234948Y425472D01*
X1208598Y503870D02*
X1210630Y505902D01*
X1212662Y503870D01*
X1210630Y501838D01*
X1208598Y503870D01*
X1240598Y439870D02*
X1242630Y441902D01*
X1244662Y439870D01*
X1242630Y437838D01*
X1240598Y439870D01*
X1224598Y463870D02*
X1226630Y465902D01*
X1228662Y463870D01*
X1226630Y461838D01*
X1224598Y463870D01*
X1240598Y447870D02*
X1242630Y449902D01*
X1244662Y447870D01*
X1242630Y445838D01*
X1240598Y447870D01*
X1264598D02*
X1266630Y449902D01*
X1268662Y447870D01*
X1266630Y445838D01*
X1264598Y447870D01*
X1256598Y479870D02*
X1258630Y481902D01*
X1260662Y479870D01*
X1258630Y477838D01*
X1256598Y479870D01*
X1281938Y424202D02*
X1283970Y426234D01*
X1286002Y424202D01*
X1283970Y422170D01*
X1281938Y424202D01*
X1122534Y739159D02*
X1124566Y741191D01*
X1126598Y739159D01*
X1124566Y737127D01*
X1122534Y739159D01*
X1300878Y457288D02*
X1302910Y459320D01*
X1304942Y457288D01*
X1302910Y455256D01*
X1300878Y457288D01*
X1095248Y838178D02*
X1097280Y840210D01*
X1099312Y838178D01*
X1097280Y836146D01*
X1095248Y838178D01*
X1303418Y510628D02*
X1305450Y512660D01*
X1307482Y510628D01*
X1305450Y508596D01*
X1303418Y510628D01*
X1320148Y481418D02*
X1322180Y483450D01*
X1324212Y481418D01*
X1322180Y479386D01*
X1320148Y481418D01*
X1206353Y736039D02*
X1208385Y738071D01*
X1210417Y736039D01*
X1208385Y734007D01*
X1206353Y736039D01*
X1132078Y864658D02*
X1134110Y866690D01*
X1136142Y864658D01*
X1134110Y862626D01*
X1132078Y864658D01*
X1170178Y840718D02*
X1172210Y842750D01*
X1174242Y840718D01*
X1172210Y838686D01*
X1170178Y840718D01*
X1240644Y740429D02*
X1242676Y742461D01*
X1244708Y740429D01*
X1242676Y738397D01*
X1240644Y740429D01*
X1273663Y773493D02*
X1275695Y775525D01*
X1277727Y773493D01*
X1275695Y771461D01*
X1273663Y773493D01*
X1322961Y756961D02*
X1324993Y758993D01*
X1327025Y756961D01*
X1324993Y754929D01*
X1322961Y756961D01*
X1450848Y551842D02*
X1452880Y553874D01*
X1454912Y551842D01*
X1452880Y549810D01*
X1450848Y551842D01*
X1373993Y772223D02*
X1376025Y774255D01*
X1378057Y772223D01*
X1376025Y770191D01*
X1373993Y772223D01*
X1495848Y551842D02*
X1497880Y553874D01*
X1499912Y551842D01*
X1497880Y549810D01*
X1495848Y551842D01*
X779568Y446718D02*
Y450782D01*
X783632D01*
Y446718D01*
X779568D01*
X780584Y447734D02*
Y449766D01*
X782616D01*
Y447734D01*
X780584D01*
X802018Y448694D02*
X804050Y450726D01*
X806082Y448694D01*
X804050Y446662D01*
X802018Y448694D01*
X763268Y424450D02*
X765300Y426482D01*
X767332Y424450D01*
X765300Y422418D01*
X763268Y424450D01*
X731018Y424418D02*
Y428482D01*
X735082D01*
Y424418D01*
X731018D01*
X732034Y425434D02*
Y427466D01*
X734066D01*
Y425434D01*
X732034D01*
X731068Y462868D02*
Y466932D01*
X735132D01*
Y462868D01*
X731068D01*
X732084Y463884D02*
Y465916D01*
X734116D01*
Y463884D01*
X732084D01*
X706828Y437968D02*
Y442032D01*
X710892D01*
Y437968D01*
X706828D01*
X707844Y438984D02*
Y441016D01*
X709876D01*
Y438984D01*
X707844D01*
X707168Y486568D02*
Y490632D01*
X711232D01*
Y486568D01*
X707168D01*
X708184Y487584D02*
Y489616D01*
X710216D01*
Y487584D01*
X708184D01*
X763918Y545090D02*
X765950Y547122D01*
X767982Y545090D01*
X765950Y543058D01*
X763918Y545090D01*
X826368Y535568D02*
Y539632D01*
X830432D01*
Y535568D01*
X826368D01*
X827384Y536584D02*
Y538616D01*
X829416D01*
Y536584D01*
X827384D01*
X826974Y525068D02*
Y529132D01*
X831038D01*
Y525068D01*
X826974D01*
X827990Y526084D02*
Y528116D01*
X830022D01*
Y526084D01*
X827990D01*
X812680Y520192D02*
Y524256D01*
X816744D01*
Y520192D01*
X812680D01*
X813696Y521208D02*
Y523240D01*
X815728D01*
Y521208D01*
X813696D01*
X696722Y567436D02*
X698754Y569468D01*
X700786Y567436D01*
X698754Y565404D01*
X696722Y567436D01*
X722376Y558292D02*
Y562356D01*
X726440D01*
Y558292D01*
X722376D01*
X723392Y559308D02*
Y561340D01*
X725424D01*
Y559308D01*
X723392D01*
X695960Y554482D02*
Y558546D01*
X700024D01*
Y554482D01*
X695960D01*
X696976Y555498D02*
Y557530D01*
X699008D01*
Y555498D01*
X696976D01*
X697484Y582930D02*
X699516Y584962D01*
X701548Y582930D01*
X699516Y580898D01*
X697484Y582930D01*
X723392Y524764D02*
X725424Y526796D01*
X727456Y524764D01*
X725424Y522732D01*
X723392Y524764D01*
X728472Y510286D02*
Y514350D01*
X732536D01*
Y510286D01*
X728472D01*
X729488Y511302D02*
Y513334D01*
X731520D01*
Y511302D01*
X729488D01*
X739394Y503174D02*
Y507238D01*
X743458D01*
Y503174D01*
X739394D01*
X740410Y504190D02*
Y506222D01*
X742442D01*
Y504190D01*
X740410D01*
X755650Y493906D02*
Y497970D01*
X759714D01*
Y493906D01*
X755650D01*
X756666Y494922D02*
Y496954D01*
X758698D01*
Y494922D01*
X756666D01*
X772414Y489458D02*
X774446Y491490D01*
X776478Y489458D01*
X774446Y487426D01*
X772414Y489458D01*
X786824Y503174D02*
X788856Y505206D01*
X790888Y503174D01*
X788856Y501142D01*
X786824Y503174D01*
X781558Y544830D02*
X783590Y546862D01*
X785622Y544830D01*
X783590Y542798D01*
X781558Y544830D01*
X779568Y556260D02*
Y560324D01*
X783632D01*
Y556260D01*
X779568D01*
X780584Y557276D02*
Y559308D01*
X782616D01*
Y557276D01*
X780584D01*
X779272Y560832D02*
Y564896D01*
X783336D01*
Y560832D01*
X779272D01*
X780288Y561848D02*
Y563880D01*
X782320D01*
Y561848D01*
X780288D01*
X774446Y566674D02*
Y570738D01*
X778510D01*
Y566674D01*
X774446D01*
X775462Y567690D02*
Y569722D01*
X777494D01*
Y567690D01*
X775462D01*
X777558Y550418D02*
Y554482D01*
X781622D01*
Y550418D01*
X777558D01*
X778574Y551434D02*
Y553466D01*
X780606D01*
Y551434D01*
X778574D01*
X796798Y552450D02*
X798830Y554482D01*
X800862Y552450D01*
X798830Y550418D01*
X796798Y552450D01*
X797814Y542290D02*
Y546354D01*
X801878D01*
Y542290D01*
X797814D01*
X798830Y543306D02*
Y545338D01*
X800862D01*
Y543306D01*
X798830D01*
X819150Y546354D02*
Y550418D01*
X823214D01*
Y546354D01*
X819150D01*
X820166Y547370D02*
Y549402D01*
X822198D01*
Y547370D01*
X820166D01*
X882396Y561340D02*
Y565404D01*
X886460D01*
Y561340D01*
X882396D01*
X883412Y562356D02*
Y564388D01*
X885444D01*
Y562356D01*
X883412D01*
X842010Y557530D02*
Y561594D01*
X846074D01*
Y557530D01*
X842010D01*
X843026Y558546D02*
Y560578D01*
X845058D01*
Y558546D01*
X843026D01*
X801370Y518668D02*
Y522732D01*
X805434D01*
Y518668D01*
X801370D01*
X802386Y519684D02*
Y521716D01*
X804418D01*
Y519684D01*
X802386D01*
X835914Y490474D02*
Y494538D01*
X839978D01*
Y490474D01*
X835914D01*
X836930Y491490D02*
Y493522D01*
X838962D01*
Y491490D01*
X836930D01*
X848988Y468630D02*
Y472694D01*
X853052D01*
Y468630D01*
X848988D01*
X850004Y469646D02*
Y471678D01*
X852036D01*
Y469646D01*
X850004D01*
X876300Y465836D02*
Y469900D01*
X880364D01*
Y465836D01*
X876300D01*
X877316Y466852D02*
Y468884D01*
X879348D01*
Y466852D01*
X877316D01*
X884682Y483616D02*
X886714Y485648D01*
X888746Y483616D01*
X886714Y481584D01*
X884682Y483616D01*
X852170Y488950D02*
Y493014D01*
X856234D01*
Y488950D01*
X852170D01*
X853186Y489966D02*
Y491998D01*
X855218D01*
Y489966D01*
X853186D01*
X837438Y478790D02*
Y482854D01*
X841502D01*
Y478790D01*
X837438D01*
X838454Y479806D02*
Y481838D01*
X840486D01*
Y479806D01*
X838454D01*
X846074Y479552D02*
Y483616D01*
X850138D01*
Y479552D01*
X846074D01*
X847090Y480568D02*
Y482600D01*
X849122D01*
Y480568D01*
X847090D01*
X865378Y477520D02*
Y481584D01*
X869442D01*
Y477520D01*
X865378D01*
X866394Y478536D02*
Y480568D01*
X868426D01*
Y478536D01*
X866394D01*
X797052Y480060D02*
Y484124D01*
X801116D01*
Y480060D01*
X797052D01*
X798068Y481076D02*
Y483108D01*
X800100D01*
Y481076D01*
X798068D01*
X696214Y490982D02*
Y495046D01*
X700278D01*
Y490982D01*
X696214D01*
X697230Y491998D02*
Y494030D01*
X699262D01*
Y491998D01*
X697230D01*
X717296Y478536D02*
Y482600D01*
X721360D01*
Y478536D01*
X717296D01*
X718312Y479552D02*
Y481584D01*
X720344D01*
Y479552D01*
X718312D01*
X720344Y485648D02*
Y489712D01*
X724408D01*
Y485648D01*
X720344D01*
X721360Y486664D02*
Y488696D01*
X723392D01*
Y486664D01*
X721360D01*
X725170Y487934D02*
Y491998D01*
X729234D01*
Y487934D01*
X725170D01*
X726186Y488950D02*
Y490982D01*
X728218D01*
Y488950D01*
X726186D01*
X736092Y478536D02*
Y482600D01*
X740156D01*
Y478536D01*
X736092D01*
X737108Y479552D02*
Y481584D01*
X739140D01*
Y479552D01*
X737108D01*
X696976Y468116D02*
Y472180D01*
X701040D01*
Y468116D01*
X696976D01*
X697992Y469132D02*
Y471164D01*
X700024D01*
Y469132D01*
X697992D01*
X681482Y455422D02*
Y459486D01*
X685546D01*
Y455422D01*
X681482D01*
X682498Y456438D02*
Y458470D01*
X684530D01*
Y456438D01*
X682498D01*
X722122Y454660D02*
Y458724D01*
X726186D01*
Y454660D01*
X722122D01*
X723138Y455676D02*
Y457708D01*
X725170D01*
Y455676D01*
X723138D01*
X722884Y463550D02*
Y467614D01*
X726948D01*
Y463550D01*
X722884D01*
X723900Y464566D02*
Y466598D01*
X725932D01*
Y464566D01*
X723900D01*
X708406Y452501D02*
Y456565D01*
X712470D01*
Y452501D01*
X708406D01*
X709422Y453517D02*
Y455549D01*
X711454D01*
Y453517D01*
X709422D01*
X690880Y437388D02*
Y441452D01*
X694944D01*
Y437388D01*
X690880D01*
X691896Y438404D02*
Y440436D01*
X693928D01*
Y438404D01*
X691896D01*
X691134Y443738D02*
Y447802D01*
X695198D01*
Y443738D01*
X691134D01*
X692150Y444754D02*
Y446786D01*
X694182D01*
Y444754D01*
X692150D01*
X708408Y448564D02*
X710440Y450596D01*
X712472Y448564D01*
X710440Y446532D01*
X708408Y448564D01*
X697230Y450850D02*
X699262Y452882D01*
X701294Y450850D01*
X699262Y448818D01*
X697230Y450850D01*
X662940Y432562D02*
Y436626D01*
X667004D01*
Y432562D01*
X662940D01*
X663956Y433578D02*
Y435610D01*
X665988D01*
Y433578D01*
X663956D01*
X686308Y417830D02*
Y421894D01*
X690372D01*
Y417830D01*
X686308D01*
X687324Y418846D02*
Y420878D01*
X689356D01*
Y418846D01*
X687324D01*
X697992Y425450D02*
X700024Y427482D01*
X702056Y425450D01*
X700024Y423418D01*
X697992Y425450D01*
X696976Y407162D02*
Y411226D01*
X701040D01*
Y407162D01*
X696976D01*
X697992Y408178D02*
Y410210D01*
X700024D01*
Y408178D01*
X697992D01*
X796036Y492506D02*
Y496570D01*
X800100D01*
Y492506D01*
X796036D01*
X797052Y493522D02*
Y495554D01*
X799084D01*
Y493522D01*
X797052D01*
X802640Y500634D02*
Y504698D01*
X806704D01*
Y500634D01*
X802640D01*
X803656Y501650D02*
Y503682D01*
X805688D01*
Y501650D01*
X803656D01*
X848360Y529844D02*
Y533908D01*
X852424D01*
Y529844D01*
X848360D01*
X849376Y530860D02*
Y532892D01*
X851408D01*
Y530860D01*
X849376D01*
X847598Y536702D02*
Y540766D01*
X851662D01*
Y536702D01*
X847598D01*
X848614Y537718D02*
Y539750D01*
X850646D01*
Y537718D01*
X848614D01*
X845312Y541528D02*
Y545592D01*
X849376D01*
Y541528D01*
X845312D01*
X846328Y542544D02*
Y544576D01*
X848360D01*
Y542544D01*
X846328D01*
X832104Y541782D02*
Y545846D01*
X836168D01*
Y541782D01*
X832104D01*
X833120Y542798D02*
Y544830D01*
X835152D01*
Y542798D01*
X833120D01*
X836930Y569722D02*
X838962Y571754D01*
X840994Y569722D01*
X838962Y567690D01*
X836930Y569722D01*
X835406Y558292D02*
Y562356D01*
X839470D01*
Y558292D01*
X835406D01*
X836422Y559308D02*
Y561340D01*
X838454D01*
Y559308D01*
X836422D01*
X876046Y568198D02*
Y572262D01*
X880110D01*
Y568198D01*
X876046D01*
X877062Y569214D02*
Y571246D01*
X879094D01*
Y569214D01*
X877062D01*
X845058Y514538D02*
Y518602D01*
X849122D01*
Y514538D01*
X845058D01*
X846074Y515554D02*
Y517586D01*
X848106D01*
Y515554D01*
X846074D01*
X928878Y531368D02*
Y535432D01*
X932942D01*
Y531368D01*
X928878D01*
X929894Y532384D02*
Y534416D01*
X931926D01*
Y532384D01*
X929894D01*
X899668Y527812D02*
Y531876D01*
X903732D01*
Y527812D01*
X899668D01*
X900684Y528828D02*
Y530860D01*
X902716D01*
Y528828D01*
X900684D01*
X974598Y679958D02*
Y684022D01*
X978662D01*
Y679958D01*
X974598D01*
X975614Y680974D02*
Y683006D01*
X977646D01*
Y680974D01*
X975614D01*
X930148Y525780D02*
X932180Y527812D01*
X934212Y525780D01*
X932180Y523748D01*
X930148Y525780D01*
X953262Y445770D02*
Y449834D01*
X957326D01*
Y445770D01*
X953262D01*
X954278Y446786D02*
Y448818D01*
X956310D01*
Y446786D01*
X954278D01*
X1009142Y465074D02*
Y469138D01*
X1013206D01*
Y465074D01*
X1009142D01*
X1010158Y466090D02*
Y468122D01*
X1012190D01*
Y466090D01*
X1010158D01*
X1086358Y455168D02*
Y459232D01*
X1090422D01*
Y455168D01*
X1086358D01*
X1087374Y456184D02*
Y458216D01*
X1089406D01*
Y456184D01*
X1087374D01*
X1092962Y472948D02*
Y477012D01*
X1097026D01*
Y472948D01*
X1092962D01*
X1093978Y473964D02*
Y475996D01*
X1096010D01*
Y473964D01*
X1093978D01*
X1099058Y479806D02*
X1101090Y481838D01*
X1103122Y479806D01*
X1101090Y477774D01*
X1099058Y479806D01*
X1146556Y498094D02*
X1148588Y500126D01*
X1150620Y498094D01*
X1148588Y496062D01*
X1146556Y498094D01*
X1121410Y513080D02*
Y517144D01*
X1125474D01*
Y513080D01*
X1121410D01*
X1122426Y514096D02*
Y516128D01*
X1124458D01*
Y514096D01*
X1122426D01*
X1163320Y505714D02*
Y509778D01*
X1167384D01*
Y505714D01*
X1163320D01*
X1164336Y506730D02*
Y508762D01*
X1166368D01*
Y506730D01*
X1164336D01*
Y518160D02*
Y522224D01*
X1168400D01*
Y518160D01*
X1164336D01*
X1165352Y519176D02*
Y521208D01*
X1167384D01*
Y519176D01*
X1165352D01*
X1164336Y554228D02*
Y558292D01*
X1168400D01*
Y554228D01*
X1164336D01*
X1165352Y555244D02*
Y557276D01*
X1167384D01*
Y555244D01*
X1165352D01*
X1180846Y521462D02*
Y525526D01*
X1184910D01*
Y521462D01*
X1180846D01*
X1181862Y522478D02*
Y524510D01*
X1183894D01*
Y522478D01*
X1181862D01*
X1179830Y537972D02*
Y542036D01*
X1183894D01*
Y537972D01*
X1179830D01*
X1180846Y538988D02*
Y541020D01*
X1182878D01*
Y538988D01*
X1180846D01*
X1168400Y537972D02*
Y542036D01*
X1172464D01*
Y537972D01*
X1168400D01*
X1169416Y538988D02*
Y541020D01*
X1171448D01*
Y538988D01*
X1169416D01*
X1184656Y511810D02*
Y515874D01*
X1188720D01*
Y511810D01*
X1184656D01*
X1185672Y512826D02*
Y514858D01*
X1187704D01*
Y512826D01*
X1185672D01*
X1180084Y479806D02*
Y483870D01*
X1184148D01*
Y479806D01*
X1180084D01*
X1181100Y480822D02*
Y482854D01*
X1183132D01*
Y480822D01*
X1181100D01*
X1195324Y486156D02*
Y490220D01*
X1199388D01*
Y486156D01*
X1195324D01*
X1196340Y487172D02*
Y489204D01*
X1198372D01*
Y487172D01*
X1196340D01*
X1179576Y503428D02*
Y507492D01*
X1183640D01*
Y503428D01*
X1179576D01*
X1180592Y504444D02*
Y506476D01*
X1182624D01*
Y504444D01*
X1180592D01*
X1186180Y501396D02*
Y505460D01*
X1190244D01*
Y501396D01*
X1186180D01*
X1187196Y502412D02*
Y504444D01*
X1189228D01*
Y502412D01*
X1187196D01*
X1192022Y511302D02*
Y515366D01*
X1196086D01*
Y511302D01*
X1192022D01*
X1193038Y512318D02*
Y514350D01*
X1195070D01*
Y512318D01*
X1193038D01*
X1175258Y521970D02*
Y526034D01*
X1179322D01*
Y521970D01*
X1175258D01*
X1176274Y522986D02*
Y525018D01*
X1178306D01*
Y522986D01*
X1176274D01*
X1191772Y519430D02*
Y523494D01*
X1195836D01*
Y519430D01*
X1191772D01*
X1192788Y520446D02*
Y522478D01*
X1194820D01*
Y520446D01*
X1192788D01*
X1196340Y529336D02*
Y533400D01*
X1200404D01*
Y529336D01*
X1196340D01*
X1197356Y530352D02*
Y532384D01*
X1199388D01*
Y530352D01*
X1197356D01*
X1189736Y528828D02*
Y532892D01*
X1193800D01*
Y528828D01*
X1189736D01*
X1190752Y529844D02*
Y531876D01*
X1192784D01*
Y529844D01*
X1190752D01*
X1208532Y522478D02*
Y526542D01*
X1212596D01*
Y522478D01*
X1208532D01*
X1209548Y523494D02*
Y525526D01*
X1211580D01*
Y523494D01*
X1209548D01*
X1194054Y550164D02*
Y554228D01*
X1198118D01*
Y550164D01*
X1194054D01*
X1195070Y551180D02*
Y553212D01*
X1197102D01*
Y551180D01*
X1195070D01*
X1240028Y565150D02*
Y569214D01*
X1244092D01*
Y565150D01*
X1240028D01*
X1241044Y566166D02*
Y568198D01*
X1243076D01*
Y566166D01*
X1241044D01*
X1272286Y524764D02*
Y528828D01*
X1276350D01*
Y524764D01*
X1272286D01*
X1273302Y525780D02*
Y527812D01*
X1275334D01*
Y525780D01*
X1273302D01*
X1279906Y497332D02*
Y501396D01*
X1283970D01*
Y497332D01*
X1279906D01*
X1280922Y498348D02*
Y500380D01*
X1282954D01*
Y498348D01*
X1280922D01*
X1272032Y495808D02*
Y499872D01*
X1276096D01*
Y495808D01*
X1272032D01*
X1273048Y496824D02*
Y498856D01*
X1275080D01*
Y496824D01*
X1273048D01*
X1264158Y502412D02*
Y506476D01*
X1268222D01*
Y502412D01*
X1264158D01*
X1265174Y503428D02*
Y505460D01*
X1267206D01*
Y503428D01*
X1265174D01*
X1228344Y493522D02*
Y497586D01*
X1232408D01*
Y493522D01*
X1228344D01*
X1229360Y494538D02*
Y496570D01*
X1231392D01*
Y494538D01*
X1229360D01*
X1208596Y489712D02*
Y493776D01*
X1212660D01*
Y489712D01*
X1208596D01*
X1209612Y490728D02*
Y492760D01*
X1211644D01*
Y490728D01*
X1209612D01*
X1277874Y476378D02*
Y480442D01*
X1281938D01*
Y476378D01*
X1277874D01*
X1278890Y477394D02*
Y479426D01*
X1280922D01*
Y477394D01*
X1278890D01*
X1250696Y453644D02*
Y457708D01*
X1254760D01*
Y453644D01*
X1250696D01*
X1251712Y454660D02*
Y456692D01*
X1253744D01*
Y454660D01*
X1251712D01*
X1216660Y431292D02*
Y435356D01*
X1220724D01*
Y431292D01*
X1216660D01*
X1217676Y432308D02*
Y434340D01*
X1219708D01*
Y432308D01*
X1217676D01*
X1180338Y528828D02*
Y532892D01*
X1184402D01*
Y528828D01*
X1180338D01*
X1181354Y529844D02*
Y531876D01*
X1183386D01*
Y529844D01*
X1181354D01*
X600710Y394462D02*
X602742Y396494D01*
X604774Y394462D01*
X602742Y392430D01*
X600710Y394462D01*
X397256Y349504D02*
X399288Y351536D01*
X401320Y349504D01*
X399288Y347472D01*
X397256Y349504D01*
X613410Y293116D02*
X615442Y295148D01*
X617474Y293116D01*
X615442Y291084D01*
X613410Y293116D01*
X845566Y506730D02*
X847598Y508762D01*
X849630Y506730D01*
X847598Y504698D01*
X845566Y506730D01*
X945896Y499364D02*
X947928Y501396D01*
X949960Y499364D01*
X947928Y497332D01*
X945896Y499364D01*
X918464Y561340D02*
X920496Y563372D01*
X922528Y561340D01*
X920496Y559308D01*
X918464Y561340D01*
X1167638Y415798D02*
Y419862D01*
X1171702D01*
Y415798D01*
X1167638D01*
X1168654Y416814D02*
Y418846D01*
X1170686D01*
Y416814D01*
X1168654D01*
X1181354Y436372D02*
X1183386Y438404D01*
X1185418Y436372D01*
X1183386Y434340D01*
X1181354Y436372D01*
X1102360Y506476D02*
Y510540D01*
X1106424D01*
Y506476D01*
X1102360D01*
X1103376Y507492D02*
Y509524D01*
X1105408D01*
Y507492D01*
X1103376D01*
X1010666Y544830D02*
Y548894D01*
X1014730D01*
Y544830D01*
X1010666D01*
X1011682Y545846D02*
Y547878D01*
X1013714D01*
Y545846D01*
X1011682D01*
X1065784Y530352D02*
X1067816Y532384D01*
X1069848Y530352D01*
X1067816Y528320D01*
X1065784Y530352D01*
X1040638Y505206D02*
Y509270D01*
X1044702D01*
Y505206D01*
X1040638D01*
X1041654Y506222D02*
Y508254D01*
X1043686D01*
Y506222D01*
X1041654D01*
X1116838Y496316D02*
Y500380D01*
X1120902D01*
Y496316D01*
X1116838D01*
X1117854Y497332D02*
Y499364D01*
X1119886D01*
Y497332D01*
X1117854D01*
X1121156Y528828D02*
Y532892D01*
X1125220D01*
Y528828D01*
X1121156D01*
X1122172Y529844D02*
Y531876D01*
X1124204D01*
Y529844D01*
X1122172D01*
X1042670Y579882D02*
Y583946D01*
X1046734D01*
Y579882D01*
X1042670D01*
X1043686Y580898D02*
Y582930D01*
X1045718D01*
Y580898D01*
X1043686D01*
X1136396Y647700D02*
Y651764D01*
X1140460D01*
Y647700D01*
X1136396D01*
X1137412Y648716D02*
Y650748D01*
X1139444D01*
Y648716D01*
X1137412D01*
X1224534Y678688D02*
Y682752D01*
X1228598D01*
Y678688D01*
X1224534D01*
X1225550Y679704D02*
Y681736D01*
X1227582D01*
Y679704D01*
X1225550D01*
X1199134Y232410D02*
X1201166Y234442D01*
X1203198Y232410D01*
X1201166Y230378D01*
X1199134Y232410D01*
X818642Y340868D02*
Y344932D01*
X822706D01*
Y340868D01*
X818642D01*
X819658Y341884D02*
Y343916D01*
X821690D01*
Y341884D01*
X819658D01*
X857504Y344932D02*
Y348996D01*
X861568D01*
Y344932D01*
X857504D01*
X858520Y345948D02*
Y347980D01*
X860552D01*
Y345948D01*
X858520D01*
X846582Y367792D02*
Y371856D01*
X850646D01*
Y367792D01*
X846582D01*
X847598Y368808D02*
Y370840D01*
X849630D01*
Y368808D01*
X847598D01*
X833628Y376174D02*
Y380238D01*
X837692D01*
Y376174D01*
X833628D01*
X834644Y377190D02*
Y379222D01*
X836676D01*
Y377190D01*
X834644D01*
X842518Y386334D02*
Y390398D01*
X846582D01*
Y386334D01*
X842518D01*
X843534Y387350D02*
Y389382D01*
X845566D01*
Y387350D01*
X843534D01*
X897128Y418592D02*
Y422656D01*
X901192D01*
Y418592D01*
X897128D01*
X898144Y419608D02*
Y421640D01*
X900176D01*
Y419608D01*
X898144D01*
X891286Y436372D02*
Y440436D01*
X895350D01*
Y436372D01*
X891286D01*
X892302Y437388D02*
Y439420D01*
X894334D01*
Y437388D01*
X892302D01*
X1040892Y521208D02*
Y525272D01*
X1044956D01*
Y521208D01*
X1040892D01*
X1041908Y522224D02*
Y524256D01*
X1043940D01*
Y522224D01*
X1041908D01*
X1040892Y529082D02*
Y533146D01*
X1044956D01*
Y529082D01*
X1040892D01*
X1041908Y530098D02*
Y532130D01*
X1043940D01*
Y530098D01*
X1041908D01*
X546608Y507492D02*
Y511556D01*
X550672D01*
Y507492D01*
X546608D01*
X547624Y508508D02*
Y510540D01*
X549656D01*
Y508508D01*
X547624D01*
X298958Y417322D02*
Y421386D01*
X303022D01*
Y417322D01*
X298958D01*
X299974Y418338D02*
Y420370D01*
X302006D01*
Y418338D01*
X299974D01*
X545338Y438658D02*
Y442722D01*
X549402D01*
Y438658D01*
X545338D01*
X546354Y439674D02*
Y441706D01*
X548386D01*
Y439674D01*
X546354D01*
X546100Y458724D02*
Y462788D01*
X550164D01*
Y458724D01*
X546100D01*
X547116Y459740D02*
Y461772D01*
X549148D01*
Y459740D01*
X547116D01*
X398272Y776732D02*
X400304Y778764D01*
X402336Y776732D01*
X400304Y774700D01*
X398272Y776732D01*
X402336Y781304D02*
X404368Y783336D01*
X406400Y781304D01*
X404368Y779272D01*
X402336Y781304D01*
X385826Y806450D02*
X387858Y808482D01*
X389890Y806450D01*
X387858Y804418D01*
X385826Y806450D01*
X328422Y877316D02*
X330454Y879348D01*
X332486Y877316D01*
X330454Y875284D01*
X328422Y877316D01*
X150876D02*
X152908Y879348D01*
X154940Y877316D01*
X152908Y875284D01*
X150876Y877316D01*
X37846Y774700D02*
X39878Y776732D01*
X41910Y774700D01*
X39878Y772668D01*
X37846Y774700D01*
X231648Y801370D02*
X233680Y803402D01*
X235712Y801370D01*
X233680Y799338D01*
X231648Y801370D01*
X489966Y806450D02*
X491998Y808482D01*
X494030Y806450D01*
X491998Y804418D01*
X489966Y806450D01*
X543814Y760730D02*
Y764794D01*
X547878D01*
Y760730D01*
X543814D01*
X544830Y761746D02*
Y763778D01*
X546862D01*
Y761746D01*
X544830D01*
X588518Y944372D02*
X590550Y946404D01*
X592582Y944372D01*
X590550Y942340D01*
X588518Y944372D01*
X781050Y587248D02*
X783082Y589280D01*
X785114Y587248D01*
X783082Y585216D01*
X781050Y587248D01*
X687832Y518922D02*
X689864Y520954D01*
X691896Y518922D01*
X689864Y516890D01*
X687832Y518922D01*
X739394Y488950D02*
Y493014D01*
X743458D01*
Y488950D01*
X739394D01*
X740410Y489966D02*
Y491998D01*
X742442D01*
Y489966D01*
X740410D01*
X747776Y489712D02*
Y493776D01*
X751840D01*
Y489712D01*
X747776D01*
X748792Y490728D02*
Y492760D01*
X750824D01*
Y490728D01*
X748792D01*
X947674Y961390D02*
X949706Y963422D01*
X951738Y961390D01*
X949706Y959358D01*
X947674Y961390D01*
X1092708Y962660D02*
X1094740Y964692D01*
X1096772Y962660D01*
X1094740Y960628D01*
X1092708Y962660D01*
X1333246Y956310D02*
X1335278Y958342D01*
X1337310Y956310D01*
X1335278Y954278D01*
X1333246Y956310D01*
X1224530Y509770D02*
Y513834D01*
X1228594D01*
Y509770D01*
X1224530D01*
X1225546Y510786D02*
Y512818D01*
X1227578D01*
Y510786D01*
X1225546D01*
X243840Y729742D02*
X245872Y731774D01*
X247904Y729742D01*
X245872Y727710D01*
X243840Y729742D01*
X836930Y549148D02*
Y553212D01*
X840994D01*
Y549148D01*
X836930D01*
X837946Y550164D02*
Y552196D01*
X839978D01*
Y550164D01*
X837946D01*
X827024Y512572D02*
Y516636D01*
X831088D01*
Y512572D01*
X827024D01*
X828040Y513588D02*
Y515620D01*
X830072D01*
Y513588D01*
X828040D01*
X42926Y710184D02*
X44958Y712216D01*
X46990Y710184D01*
X44958Y708152D01*
X42926Y710184D01*
X600964Y735076D02*
X602996Y737108D01*
X605028Y735076D01*
X602996Y733044D01*
X600964Y735076D01*
X823722Y647192D02*
X825754Y649224D01*
X827786Y647192D01*
X825754Y645160D01*
X823722Y647192D01*
X212344Y688340D02*
X214376Y690372D01*
X216408Y688340D01*
X214376Y686308D01*
X212344Y688340D01*
X215392Y708406D02*
X217424Y710438D01*
X219456Y708406D01*
X217424Y706374D01*
X215392Y708406D01*
X811276Y487680D02*
Y491744D01*
X815340D01*
Y487680D01*
X811276D01*
X812292Y488696D02*
Y490728D01*
X814324D01*
Y488696D01*
X812292D01*
X826008Y486410D02*
Y490474D01*
X830072D01*
Y486410D01*
X826008D01*
X827024Y487426D02*
Y489458D01*
X829056D01*
Y487426D01*
X827024D01*
X811784Y550926D02*
Y554990D01*
X815848D01*
Y550926D01*
X811784D01*
X812800Y551942D02*
Y553974D01*
X814832D01*
Y551942D01*
X812800D01*
X821938Y504570D02*
X823970Y506602D01*
X826002Y504570D01*
X823970Y502538D01*
X821938Y504570D01*
X834390Y502666D02*
Y506730D01*
X838454D01*
Y502666D01*
X834390D01*
X835406Y503682D02*
Y505714D01*
X837438D01*
Y503682D01*
X835406D01*
X787654Y515112D02*
Y519176D01*
X791718D01*
Y515112D01*
X787654D01*
X788670Y516128D02*
Y518160D01*
X790702D01*
Y516128D01*
X788670D01*
X812546Y524764D02*
Y528828D01*
X816610D01*
Y524764D01*
X812546D01*
X813562Y525780D02*
Y527812D01*
X815594D01*
Y525780D01*
X813562D01*
X819658Y525018D02*
Y529082D01*
X823722D01*
Y525018D01*
X819658D01*
X820674Y526034D02*
Y528066D01*
X822706D01*
Y526034D01*
X820674D01*
X707898Y511302D02*
Y515366D01*
X711962D01*
Y511302D01*
X707898D01*
X708914Y512318D02*
Y514350D01*
X710946D01*
Y512318D01*
X708914D01*
X1219708Y454152D02*
Y458216D01*
X1223772D01*
Y454152D01*
X1219708D01*
X1220724Y455168D02*
Y457200D01*
X1222756D01*
Y455168D01*
X1220724D01*
X1224918Y453898D02*
Y457962D01*
X1228982D01*
Y453898D01*
X1224918D01*
X1225934Y454914D02*
Y456946D01*
X1227966D01*
Y454914D01*
X1225934D01*
X1218438Y461518D02*
Y465582D01*
X1222502D01*
Y461518D01*
X1218438D01*
X1219454Y462534D02*
Y464566D01*
X1221486D01*
Y462534D01*
X1219454D01*
X1230122Y453390D02*
Y457454D01*
X1234186D01*
Y453390D01*
X1230122D01*
X1231138Y454406D02*
Y456438D01*
X1233170D01*
Y454406D01*
X1231138D01*
X1208278Y818642D02*
Y822706D01*
X1212342D01*
Y818642D01*
X1208278D01*
X1209294Y819658D02*
Y821690D01*
X1211326D01*
Y819658D01*
X1209294D01*
X1208786Y461518D02*
Y465582D01*
X1212850D01*
Y461518D01*
X1208786D01*
X1209802Y462534D02*
Y464566D01*
X1211834D01*
Y462534D01*
X1209802D01*
X850392Y430530D02*
Y434594D01*
X854456D01*
Y430530D01*
X850392D01*
X851408Y431546D02*
Y433578D01*
X853440D01*
Y431546D01*
X851408D01*
X889254Y398780D02*
Y402844D01*
X893318D01*
Y398780D01*
X889254D01*
X890270Y399796D02*
Y401828D01*
X892302D01*
Y399796D01*
X890270D01*
X779780Y479044D02*
Y483108D01*
X783844D01*
Y479044D01*
X779780D01*
X780796Y480060D02*
Y482092D01*
X782828D01*
Y480060D01*
X780796D01*
X781304Y719074D02*
Y723138D01*
X785368D01*
Y719074D01*
X781304D01*
X782320Y720090D02*
Y722122D01*
X784352D01*
Y720090D01*
X782320D01*
X1299464Y831088D02*
Y835152D01*
X1303528D01*
Y831088D01*
X1299464D01*
X1300480Y832104D02*
Y834136D01*
X1302512D01*
Y832104D01*
X1300480D01*
X779780Y462920D02*
Y466984D01*
X783844D01*
Y462920D01*
X779780D01*
X780796Y463936D02*
Y465968D01*
X782828D01*
Y463936D01*
X780796D01*
X758952Y576580D02*
Y580644D01*
X763016D01*
Y576580D01*
X758952D01*
X759968Y577596D02*
Y579628D01*
X762000D01*
Y577596D01*
X759968D01*
X947674Y636524D02*
Y640588D01*
X951738D01*
Y636524D01*
X947674D01*
X948690Y637540D02*
Y639572D01*
X950722D01*
Y637540D01*
X948690D01*
X1102360Y780542D02*
Y784606D01*
X1106424D01*
Y780542D01*
X1102360D01*
X1103376Y781558D02*
Y783590D01*
X1105408D01*
Y781558D01*
X1103376D01*
X1316482Y845566D02*
Y849630D01*
X1320546D01*
Y845566D01*
X1316482D01*
X1317498Y846582D02*
Y848614D01*
X1319530D01*
Y846582D01*
X1317498D01*
X787654Y438150D02*
Y442214D01*
X791718D01*
Y438150D01*
X787654D01*
X788670Y439166D02*
Y441198D01*
X790702D01*
Y439166D01*
X788670D01*
X860044Y494030D02*
Y498094D01*
X864108D01*
Y494030D01*
X860044D01*
X861060Y495046D02*
Y497078D01*
X863092D01*
Y495046D01*
X861060D01*
X1342136Y848614D02*
Y852678D01*
X1346200D01*
Y848614D01*
X1342136D01*
X1343152Y849630D02*
Y851662D01*
X1345184D01*
Y849630D01*
X1343152D01*
X771398Y422148D02*
Y426212D01*
X775462D01*
Y422148D01*
X771398D01*
X772414Y423164D02*
Y425196D01*
X774446D01*
Y423164D01*
X772414D01*
X748538Y576834D02*
Y580898D01*
X752602D01*
Y576834D01*
X748538D01*
X749554Y577850D02*
Y579882D01*
X751586D01*
Y577850D01*
X749554D01*
X916178Y634492D02*
Y638556D01*
X920242D01*
Y634492D01*
X916178D01*
X917194Y635508D02*
Y637540D01*
X919226D01*
Y635508D01*
X917194D01*
X1320038Y919226D02*
Y923290D01*
X1324102D01*
Y919226D01*
X1320038D01*
X1321054Y920242D02*
Y922274D01*
X1323086D01*
Y920242D01*
X1321054D01*
X680212Y536194D02*
X682244Y538226D01*
X684276Y536194D01*
X682244Y534162D01*
X680212Y536194D01*
D102*
X1045330Y953544D02*
G03*
X1045330Y953544I-2032J0D01*
G01*
X996830Y953544D02*
G03*
X996830Y953544I-2032J0D01*
G01*
M02*
