G04 Layer_Color=128*
%FSLAX44Y44*%
%MOMM*%
G71*
G01*
G75*
%ADD63C,0.0508*%
G36*
X998298Y963044D02*
X980048D01*
Y970044D01*
X985298D01*
Y994544D01*
X998298D01*
Y963044D01*
D02*
G37*
G36*
X1052798Y970044D02*
X1058048D01*
Y963044D01*
X1039798D01*
Y994544D01*
X1052798D01*
Y970044D01*
D02*
G37*
D63*
X988298Y983844D02*
X995298D01*
X991798Y980344D02*
Y987344D01*
X1040048Y953544D02*
X1046548D01*
X1043298Y950294D02*
Y956794D01*
X991548Y953544D02*
X998048D01*
X994798Y950294D02*
Y956794D01*
X1042798Y983844D02*
X1049798D01*
X1046298Y980344D02*
Y987344D01*
X924485Y430571D02*
X933485D01*
X928985Y426071D02*
Y435071D01*
X924485Y455971D02*
X933485D01*
X928985Y451471D02*
Y460471D01*
X39000Y340500D02*
X48000D01*
X43500Y336000D02*
Y345000D01*
X13600Y340500D02*
X22600D01*
X18100Y336000D02*
Y345000D01*
X39000Y365900D02*
X48000D01*
X43500Y361400D02*
Y370400D01*
X13600Y365900D02*
X22600D01*
X18100Y361400D02*
Y370400D01*
X39000Y391300D02*
X48000D01*
X43500Y386800D02*
Y395800D01*
X13600Y391300D02*
X22600D01*
X18100Y386800D02*
Y395800D01*
X39000Y416700D02*
X48000D01*
X43500Y412200D02*
Y421200D01*
X13600Y416700D02*
X22600D01*
X18100Y412200D02*
Y421200D01*
X39000Y442100D02*
X48000D01*
X43500Y437600D02*
Y446600D01*
X13600Y442100D02*
X22600D01*
X18100Y437600D02*
Y446600D01*
X1483940Y99060D02*
X1492940D01*
X1488440Y94560D02*
Y103560D01*
X1458540Y99060D02*
X1467540D01*
X1463040Y94560D02*
Y103560D01*
X1483940Y124460D02*
X1492940D01*
X1488440Y119960D02*
Y128960D01*
X1458540Y124460D02*
X1467540D01*
X1463040Y119960D02*
Y128960D01*
X1483940Y149860D02*
X1492940D01*
X1488440Y145360D02*
Y154360D01*
X1458540Y149860D02*
X1467540D01*
X1463040Y145360D02*
Y154360D01*
X1483940Y175260D02*
X1492940D01*
X1488440Y170760D02*
Y179760D01*
X1458540Y175260D02*
X1467540D01*
X1463040Y170760D02*
Y179760D01*
X1483940Y200660D02*
X1492940D01*
X1488440Y196160D02*
Y205160D01*
X1458540Y200660D02*
X1467540D01*
X1463040Y196160D02*
Y205160D01*
X1483940Y226060D02*
X1492940D01*
X1488440Y221560D02*
Y230560D01*
X1458540Y226060D02*
X1467540D01*
X1463040Y221560D02*
Y230560D01*
X1483940Y251460D02*
X1492940D01*
X1488440Y246960D02*
Y255960D01*
X1458540Y251460D02*
X1467540D01*
X1463040Y246960D02*
Y255960D01*
X1483940Y276860D02*
X1492940D01*
X1488440Y272360D02*
Y281360D01*
X1458540Y276860D02*
X1467540D01*
X1463040Y272360D02*
Y281360D01*
X1483940Y302260D02*
X1492940D01*
X1488440Y297760D02*
Y306760D01*
X1458540Y302260D02*
X1467540D01*
X1463040Y297760D02*
Y306760D01*
X1483940Y327660D02*
X1492940D01*
X1488440Y323160D02*
Y332160D01*
X1458540Y327660D02*
X1467540D01*
X1463040Y323160D02*
Y332160D01*
X666600Y943610D02*
X679600D01*
X673100Y937110D02*
Y950110D01*
X521600Y943610D02*
X534600D01*
X528100Y937110D02*
Y950110D01*
X672600Y992610D02*
X685600D01*
X679100Y986110D02*
Y999110D01*
X515600Y992610D02*
X528600D01*
X522100Y986110D02*
Y999110D01*
X178160Y928570D02*
X198160D01*
X188160Y918570D02*
Y938570D01*
X76160Y928570D02*
X96160D01*
X86160Y918570D02*
Y938570D01*
X107660Y877570D02*
X116660D01*
X112160Y873070D02*
Y882070D01*
X132660Y877570D02*
X141660D01*
X137160Y873070D02*
Y882070D01*
X357230Y928570D02*
X377230D01*
X367230Y918570D02*
Y938570D01*
X255230Y928570D02*
X275230D01*
X265230Y918570D02*
Y938570D01*
X286730Y877570D02*
X295730D01*
X291230Y873070D02*
Y882070D01*
X311730Y877570D02*
X320730D01*
X316230Y873070D02*
Y882070D01*
X1393770Y693420D02*
X1402770D01*
X1398270Y688920D02*
Y697920D01*
X1393770Y668020D02*
X1402770D01*
X1398270Y663520D02*
Y672520D01*
X1368370Y693420D02*
X1377370D01*
X1372870Y688920D02*
Y697920D01*
X1368370Y668020D02*
X1377370D01*
X1372870Y663520D02*
Y672520D01*
X1342970Y693420D02*
X1351970D01*
X1347470Y688920D02*
Y697920D01*
X1342970Y668020D02*
X1351970D01*
X1347470Y663520D02*
Y672520D01*
X1317570Y693420D02*
X1326570D01*
X1322070Y688920D02*
Y697920D01*
X1317570Y668020D02*
X1326570D01*
X1322070Y663520D02*
Y672520D01*
X1292170Y693420D02*
X1301170D01*
X1296670Y688920D02*
Y697920D01*
X1292170Y668020D02*
X1301170D01*
X1296670Y663520D02*
Y672520D01*
X1266770Y693420D02*
X1275770D01*
X1271270Y688920D02*
Y697920D01*
X1266770Y668020D02*
X1275770D01*
X1271270Y663520D02*
Y672520D01*
X1241370Y693420D02*
X1250370D01*
X1245870Y688920D02*
Y697920D01*
X1241370Y668020D02*
X1250370D01*
X1245870Y663520D02*
Y672520D01*
X1215970Y693420D02*
X1224970D01*
X1220470Y688920D02*
Y697920D01*
X1215970Y668020D02*
X1224970D01*
X1220470Y663520D02*
Y672520D01*
X1190570Y693420D02*
X1199570D01*
X1195070Y688920D02*
Y697920D01*
X1190570Y668020D02*
X1199570D01*
X1195070Y663520D02*
Y672520D01*
X1165170Y693420D02*
X1174170D01*
X1169670Y688920D02*
Y697920D01*
X1165170Y668020D02*
X1174170D01*
X1169670Y663520D02*
Y672520D01*
X1139770Y693420D02*
X1148770D01*
X1144270Y688920D02*
Y697920D01*
X1139770Y668020D02*
X1148770D01*
X1144270Y663520D02*
Y672520D01*
X1114370Y693420D02*
X1123370D01*
X1118870Y688920D02*
Y697920D01*
X1114370Y668020D02*
X1123370D01*
X1118870Y663520D02*
Y672520D01*
X1088970Y693420D02*
X1097970D01*
X1093470Y688920D02*
Y697920D01*
X1088970Y668020D02*
X1097970D01*
X1093470Y663520D02*
Y672520D01*
X1063570Y693420D02*
X1072570D01*
X1068070Y688920D02*
Y697920D01*
X1063570Y668020D02*
X1072570D01*
X1068070Y663520D02*
Y672520D01*
X1038170Y693420D02*
X1047170D01*
X1042670Y688920D02*
Y697920D01*
X1038170Y668020D02*
X1047170D01*
X1042670Y663520D02*
Y672520D01*
X1012770Y693420D02*
X1021770D01*
X1017270Y688920D02*
Y697920D01*
X1012770Y668020D02*
X1021770D01*
X1017270Y663520D02*
Y672520D01*
X934050Y691650D02*
X943050D01*
X938550Y687150D02*
Y696150D01*
X934050Y666250D02*
X943050D01*
X938550Y661750D02*
Y670750D01*
X908650Y691650D02*
X917650D01*
X913150Y687150D02*
Y696150D01*
X908650Y666250D02*
X917650D01*
X913150Y661750D02*
Y670750D01*
X883250Y691650D02*
X892250D01*
X887750Y687150D02*
Y696150D01*
X883250Y666250D02*
X892250D01*
X887750Y661750D02*
Y670750D01*
X857850Y691650D02*
X866850D01*
X862350Y687150D02*
Y696150D01*
X857850Y666250D02*
X866850D01*
X862350Y661750D02*
Y670750D01*
X832450Y691650D02*
X841450D01*
X836950Y687150D02*
Y696150D01*
X832450Y666250D02*
X841450D01*
X836950Y661750D02*
Y670750D01*
X807050Y691650D02*
X816050D01*
X811550Y687150D02*
Y696150D01*
X807050Y666250D02*
X816050D01*
X811550Y661750D02*
Y670750D01*
X781650Y691650D02*
X790650D01*
X786150Y687150D02*
Y696150D01*
X781650Y666250D02*
X790650D01*
X786150Y661750D02*
Y670750D01*
X756250Y691650D02*
X765250D01*
X760750Y687150D02*
Y696150D01*
X756250Y666250D02*
X765250D01*
X760750Y661750D02*
Y670750D01*
X730850Y691650D02*
X739850D01*
X735350Y687150D02*
Y696150D01*
X730850Y666250D02*
X739850D01*
X735350Y661750D02*
Y670750D01*
X705450Y691650D02*
X714450D01*
X709950Y687150D02*
Y696150D01*
X705450Y666250D02*
X714450D01*
X709950Y661750D02*
Y670750D01*
X680050Y691650D02*
X689050D01*
X684550Y687150D02*
Y696150D01*
X680050Y666250D02*
X689050D01*
X684550Y661750D02*
Y670750D01*
X654650Y691650D02*
X663650D01*
X659150Y687150D02*
Y696150D01*
X654650Y666250D02*
X663650D01*
X659150Y661750D02*
Y670750D01*
X629250Y691650D02*
X638250D01*
X633750Y687150D02*
Y696150D01*
X629250Y666250D02*
X638250D01*
X633750Y661750D02*
Y670750D01*
X603850Y691650D02*
X612850D01*
X608350Y687150D02*
Y696150D01*
X603850Y666250D02*
X612850D01*
X608350Y661750D02*
Y670750D01*
X578450Y691650D02*
X587450D01*
X582950Y687150D02*
Y696150D01*
X578450Y666250D02*
X587450D01*
X582950Y661750D02*
Y670750D01*
X553050Y691650D02*
X562050D01*
X557550Y687150D02*
Y696150D01*
X553050Y666250D02*
X562050D01*
X557550Y661750D02*
Y670750D01*
X527650Y691650D02*
X536650D01*
X532150Y687150D02*
Y696150D01*
X527650Y666250D02*
X536650D01*
X532150Y661750D02*
Y670750D01*
X502250Y691650D02*
X511250D01*
X506750Y687150D02*
Y696150D01*
X502250Y666250D02*
X511250D01*
X506750Y661750D02*
Y670750D01*
X476850Y691650D02*
X485850D01*
X481350Y687150D02*
Y696150D01*
X476850Y666250D02*
X485850D01*
X481350Y661750D02*
Y670750D01*
X1242640Y607060D02*
X1251640D01*
X1247140Y602560D02*
Y611560D01*
X1242640Y581660D02*
X1251640D01*
X1247140Y577160D02*
Y586160D01*
X1217240Y607060D02*
X1226240D01*
X1221740Y602560D02*
Y611560D01*
X1217240Y581660D02*
X1226240D01*
X1221740Y577160D02*
Y586160D01*
X1191840Y607060D02*
X1200840D01*
X1196340Y602560D02*
Y611560D01*
X1191840Y581660D02*
X1200840D01*
X1196340Y577160D02*
Y586160D01*
X930220Y961390D02*
X939220D01*
X934720Y956890D02*
Y965890D01*
X904820Y961390D02*
X913820D01*
X909320Y956890D02*
Y965890D01*
X879420Y961390D02*
X888420D01*
X883920Y956890D02*
Y965890D01*
X1403930Y956310D02*
X1412930D01*
X1408430Y951810D02*
Y960810D01*
X1378530Y956310D02*
X1387530D01*
X1383030Y951810D02*
Y960810D01*
X1353130Y956310D02*
X1362130D01*
X1357630Y951810D02*
Y960810D01*
X1109290Y962660D02*
X1118290D01*
X1113790Y958160D02*
Y967160D01*
X1134690Y962660D02*
X1143690D01*
X1139190Y958160D02*
Y967160D01*
X1160090Y962660D02*
X1169090D01*
X1164590Y958160D02*
Y967160D01*
X1067380Y48260D02*
X1076380D01*
X1071880Y43760D02*
Y52760D01*
X1067380Y22860D02*
X1076380D01*
X1071880Y18360D02*
Y27360D01*
X1041980Y48260D02*
X1050980D01*
X1046480Y43760D02*
Y52760D01*
X1041980Y22860D02*
X1050980D01*
X1046480Y18360D02*
Y27360D01*
X1016580Y48260D02*
X1025580D01*
X1021080Y43760D02*
Y52760D01*
X1016580Y22860D02*
X1025580D01*
X1021080Y18360D02*
Y27360D01*
X991180Y48260D02*
X1000180D01*
X995680Y43760D02*
Y52760D01*
X991180Y22860D02*
X1000180D01*
X995680Y18360D02*
Y27360D01*
X965780Y48260D02*
X974780D01*
X970280Y43760D02*
Y52760D01*
X965780Y22860D02*
X974780D01*
X970280Y18360D02*
Y27360D01*
X940380Y48260D02*
X949380D01*
X944880Y43760D02*
Y52760D01*
X940380Y22860D02*
X949380D01*
X944880Y18360D02*
Y27360D01*
X1321010Y48090D02*
X1331010D01*
X1326010Y43090D02*
Y53090D01*
X1218010Y48090D02*
X1228010D01*
X1223010Y43090D02*
Y53090D01*
X1320010Y85090D02*
X1332010D01*
X1326010Y79090D02*
Y91090D01*
X1320010Y20090D02*
X1332010D01*
X1326010Y14090D02*
Y26090D01*
X1217010Y20090D02*
X1229010D01*
X1223010Y14090D02*
Y26090D01*
X1217010Y85090D02*
X1229010D01*
X1223010Y79090D02*
Y91090D01*
X523820Y46990D02*
X532820D01*
X528320Y42490D02*
Y51490D01*
X549220Y46990D02*
X558220D01*
X553720Y42490D02*
Y51490D01*
X126310Y43180D02*
X135310D01*
X130810Y38680D02*
Y47680D01*
X100910Y43180D02*
X109910D01*
X105410Y38680D02*
Y47680D01*
X691460Y767080D02*
X700460D01*
X695960Y762580D02*
Y771580D01*
X691460Y792480D02*
X700460D01*
X695960Y787980D02*
Y796980D01*
X716860Y767080D02*
X725860D01*
X721360Y762580D02*
Y771580D01*
X716860Y792480D02*
X725860D01*
X721360Y787980D02*
Y796980D01*
X742260Y767080D02*
X751260D01*
X746760Y762580D02*
Y771580D01*
X742260Y792480D02*
X751260D01*
X746760Y787980D02*
Y796980D01*
X767660Y767080D02*
X776660D01*
X772160Y762580D02*
Y771580D01*
X767660Y792480D02*
X776660D01*
X772160Y787980D02*
Y796980D01*
X793060Y767080D02*
X802060D01*
X797560Y762580D02*
Y771580D01*
X793060Y792480D02*
X802060D01*
X797560Y787980D02*
Y796980D01*
X818460Y767080D02*
X827460D01*
X822960Y762580D02*
Y771580D01*
X818460Y792480D02*
X827460D01*
X822960Y787980D02*
Y796980D01*
X843860Y767080D02*
X852860D01*
X848360Y762580D02*
Y771580D01*
X843860Y792480D02*
X852860D01*
X848360Y787980D02*
Y796980D01*
X869260Y767080D02*
X878260D01*
X873760Y762580D02*
Y771580D01*
X869260Y792480D02*
X878260D01*
X873760Y787980D02*
Y796980D01*
X465400Y853440D02*
X474400D01*
X469900Y848940D02*
Y857940D01*
X465400Y878840D02*
X474400D01*
X469900Y874340D02*
Y883340D01*
X791790Y951230D02*
X800790D01*
X796290Y946730D02*
Y955730D01*
X791790Y925830D02*
X800790D01*
X796290Y921330D02*
Y930330D01*
X766390Y951230D02*
X775390D01*
X770890Y946730D02*
Y955730D01*
X766390Y925830D02*
X775390D01*
X770890Y921330D02*
Y930330D01*
X465400Y938530D02*
X474400D01*
X469900Y934030D02*
Y943030D01*
X465400Y963930D02*
X474400D01*
X469900Y959430D02*
Y968430D01*
X1047060Y332740D02*
X1056060D01*
X1051560Y328240D02*
Y337240D01*
X1047060Y307340D02*
X1056060D01*
X1051560Y302840D02*
Y311840D01*
X1021660Y332740D02*
X1030660D01*
X1026160Y328240D02*
Y337240D01*
X1021660Y307340D02*
X1030660D01*
X1026160Y302840D02*
Y311840D01*
X996260Y332740D02*
X1005260D01*
X1000760Y328240D02*
Y337240D01*
X996260Y307340D02*
X1005260D01*
X1000760Y302840D02*
Y311840D01*
X970860Y332740D02*
X979860D01*
X975360Y328240D02*
Y337240D01*
X970860Y307340D02*
X979860D01*
X975360Y302840D02*
Y311840D01*
X945460Y332740D02*
X954460D01*
X949960Y328240D02*
Y337240D01*
X945460Y307340D02*
X954460D01*
X949960Y302840D02*
Y311840D01*
X920060Y332740D02*
X929060D01*
X924560Y328240D02*
Y337240D01*
X920060Y307340D02*
X929060D01*
X924560Y302840D02*
Y311840D01*
X894660Y332740D02*
X903660D01*
X899160Y328240D02*
Y337240D01*
X894660Y307340D02*
X903660D01*
X899160Y302840D02*
Y311840D01*
X869260Y332740D02*
X878260D01*
X873760Y328240D02*
Y337240D01*
X869260Y307340D02*
X878260D01*
X873760Y302840D02*
Y311840D01*
X843860Y332740D02*
X852860D01*
X848360Y328240D02*
Y337240D01*
X843860Y307340D02*
X852860D01*
X848360Y302840D02*
Y311840D01*
X818460Y332740D02*
X827460D01*
X822960Y328240D02*
Y337240D01*
X818460Y307340D02*
X827460D01*
X822960Y302840D02*
Y311840D01*
X793060Y332740D02*
X802060D01*
X797560Y328240D02*
Y337240D01*
X793060Y307340D02*
X802060D01*
X797560Y302840D02*
Y311840D01*
X767660Y332740D02*
X776660D01*
X772160Y328240D02*
Y337240D01*
X767660Y307340D02*
X776660D01*
X772160Y302840D02*
Y311840D01*
X742260Y332740D02*
X751260D01*
X746760Y328240D02*
Y337240D01*
X742260Y307340D02*
X751260D01*
X746760Y302840D02*
Y311840D01*
X716860Y332740D02*
X725860D01*
X721360Y328240D02*
Y337240D01*
X716860Y307340D02*
X725860D01*
X721360Y302840D02*
Y311840D01*
X691460Y332740D02*
X700460D01*
X695960Y328240D02*
Y337240D01*
X691460Y307340D02*
X700460D01*
X695960Y302840D02*
Y311840D01*
X666060Y332740D02*
X675060D01*
X670560Y328240D02*
Y337240D01*
X666060Y307340D02*
X675060D01*
X670560Y302840D02*
Y311840D01*
X587150Y334050D02*
X596150D01*
X591650Y329550D02*
Y338550D01*
X587150Y308650D02*
X596150D01*
X591650Y304150D02*
Y313150D01*
X561750Y334050D02*
X570750D01*
X566250Y329550D02*
Y338550D01*
X561750Y308650D02*
X570750D01*
X566250Y304150D02*
Y313150D01*
X536350Y334050D02*
X545350D01*
X540850Y329550D02*
Y338550D01*
X536350Y308650D02*
X545350D01*
X540850Y304150D02*
Y313150D01*
X510950Y334050D02*
X519950D01*
X515450Y329550D02*
Y338550D01*
X510950Y308650D02*
X519950D01*
X515450Y304150D02*
Y313150D01*
X485550Y334050D02*
X494550D01*
X490050Y329550D02*
Y338550D01*
X485550Y308650D02*
X494550D01*
X490050Y304150D02*
Y313150D01*
X460150Y334050D02*
X469150D01*
X464650Y329550D02*
Y338550D01*
X460150Y308650D02*
X469150D01*
X464650Y304150D02*
Y313150D01*
X434750Y334050D02*
X443750D01*
X439250Y329550D02*
Y338550D01*
X434750Y308650D02*
X443750D01*
X439250Y304150D02*
Y313150D01*
X409350Y334050D02*
X418350D01*
X413850Y329550D02*
Y338550D01*
X409350Y308650D02*
X418350D01*
X413850Y304150D02*
Y313150D01*
X383950Y334050D02*
X392950D01*
X388450Y329550D02*
Y338550D01*
X383950Y308650D02*
X392950D01*
X388450Y304150D02*
Y313150D01*
X358550Y334050D02*
X367550D01*
X363050Y329550D02*
Y338550D01*
X358550Y308650D02*
X367550D01*
X363050Y304150D02*
Y313150D01*
X333150Y334050D02*
X342150D01*
X337650Y329550D02*
Y338550D01*
X333150Y308650D02*
X342150D01*
X337650Y304150D02*
Y313150D01*
X307750Y334050D02*
X316750D01*
X312250Y329550D02*
Y338550D01*
X307750Y308650D02*
X316750D01*
X312250Y304150D02*
Y313150D01*
X282350Y334050D02*
X291350D01*
X286850Y329550D02*
Y338550D01*
X282350Y308650D02*
X291350D01*
X286850Y304150D02*
Y313150D01*
X256950Y334050D02*
X265950D01*
X261450Y329550D02*
Y338550D01*
X256950Y308650D02*
X265950D01*
X261450Y304150D02*
Y313150D01*
X231550Y334050D02*
X240550D01*
X236050Y329550D02*
Y338550D01*
X231550Y308650D02*
X240550D01*
X236050Y304150D02*
Y313150D01*
X206150Y334050D02*
X215150D01*
X210650Y329550D02*
Y338550D01*
X206150Y308650D02*
X215150D01*
X210650Y304150D02*
Y313150D01*
X180750Y334050D02*
X189750D01*
X185250Y329550D02*
Y338550D01*
X180750Y308650D02*
X189750D01*
X185250Y304150D02*
Y313150D01*
X155350Y334050D02*
X164350D01*
X159850Y329550D02*
Y338550D01*
X155350Y308650D02*
X164350D01*
X159850Y304150D02*
Y313150D01*
X129950Y334050D02*
X138950D01*
X134450Y329550D02*
Y338550D01*
X129950Y308650D02*
X138950D01*
X134450Y304150D02*
Y313150D01*
X1124530Y311150D02*
X1133530D01*
X1129030Y306650D02*
Y315650D01*
X1124530Y336550D02*
X1133530D01*
X1129030Y332050D02*
Y341050D01*
X1149930Y311150D02*
X1158930D01*
X1154430Y306650D02*
Y315650D01*
X1149930Y336550D02*
X1158930D01*
X1154430Y332050D02*
Y341050D01*
X1175330Y311150D02*
X1184330D01*
X1179830Y306650D02*
Y315650D01*
X1175330Y336550D02*
X1184330D01*
X1179830Y332050D02*
Y341050D01*
X1290900Y306070D02*
X1299900D01*
X1295400Y301570D02*
Y310570D01*
X1290900Y331470D02*
X1299900D01*
X1295400Y326970D02*
Y335970D01*
X1316300Y306070D02*
X1325300D01*
X1320800Y301570D02*
Y310570D01*
X1316300Y331470D02*
X1325300D01*
X1320800Y326970D02*
Y335970D01*
X1341700Y306070D02*
X1350700D01*
X1346200Y301570D02*
Y310570D01*
X1341700Y331470D02*
X1350700D01*
X1346200Y326970D02*
Y335970D01*
X1367100Y306070D02*
X1376100D01*
X1371600Y301570D02*
Y310570D01*
X1367100Y331470D02*
X1376100D01*
X1371600Y326970D02*
Y335970D01*
X283790Y541020D02*
X292790D01*
X288290Y536520D02*
Y545520D01*
X309190Y541020D02*
X318190D01*
X313690Y536520D02*
Y545520D01*
X283790Y515620D02*
X292790D01*
X288290Y511120D02*
Y520120D01*
X309190Y515620D02*
X318190D01*
X313690Y511120D02*
Y520120D01*
X283790Y490220D02*
X292790D01*
X288290Y485720D02*
Y494720D01*
X309190Y490220D02*
X318190D01*
X313690Y485720D02*
Y494720D01*
X283790Y464820D02*
X292790D01*
X288290Y460320D02*
Y469320D01*
X309190Y464820D02*
X318190D01*
X313690Y460320D02*
Y469320D01*
X575890Y806450D02*
X584890D01*
X580390Y801950D02*
Y810950D01*
X601290Y806450D02*
X610290D01*
X605790Y801950D02*
Y810950D01*
X626690Y806450D02*
X635690D01*
X631190Y801950D02*
Y810950D01*
X1123875Y610911D02*
X1132875D01*
X1128375Y606411D02*
Y615411D01*
X1123875Y585511D02*
X1132875D01*
X1128375Y581011D02*
Y590011D01*
X1327075Y614721D02*
X1336075D01*
X1331575Y610221D02*
Y619221D01*
X1327075Y589321D02*
X1336075D01*
X1331575Y584821D02*
Y593821D01*
X907360Y556260D02*
X916360D01*
X911860Y551760D02*
Y560760D01*
X907360Y530860D02*
X916360D01*
X911860Y526360D02*
Y535360D01*
X818460Y85090D02*
X827460D01*
X822960Y80590D02*
Y89590D01*
X818460Y59690D02*
X827460D01*
X822960Y55190D02*
Y64190D01*
X818460Y34290D02*
X827460D01*
X822960Y29790D02*
Y38790D01*
X467940Y806450D02*
X479940D01*
X473940Y800450D02*
Y812450D01*
X363340Y806450D02*
X375340D01*
X369340Y800450D02*
Y812450D01*
X51380Y774700D02*
X60380D01*
X55880Y770200D02*
Y779200D01*
X51380Y800100D02*
X60380D01*
X55880Y795600D02*
Y804600D01*
X76780Y774700D02*
X85780D01*
X81280Y770200D02*
Y779200D01*
X76780Y800100D02*
X85780D01*
X81280Y795600D02*
Y804600D01*
X245690Y801370D02*
X254690D01*
X250190Y796870D02*
Y805870D01*
X245690Y826770D02*
X254690D01*
X250190Y822270D02*
Y831270D01*
X271090Y801370D02*
X280090D01*
X275590Y796870D02*
Y805870D01*
X271090Y826770D02*
X280090D01*
X275590Y822270D02*
Y831270D01*
X1281248Y870712D02*
X1290248D01*
X1285748Y866212D02*
Y875212D01*
X1281248Y896112D02*
X1290248D01*
X1285748Y891612D02*
Y900612D01*
X1306648Y870712D02*
X1315648D01*
X1311148Y866212D02*
Y875212D01*
X1306648Y896112D02*
X1315648D01*
X1311148Y891612D02*
Y900612D01*
X1332048Y870712D02*
X1341048D01*
X1336548Y866212D02*
Y875212D01*
X1332048Y896112D02*
X1341048D01*
X1336548Y891612D02*
Y900612D01*
X1357448Y870712D02*
X1366448D01*
X1361948Y866212D02*
Y875212D01*
X1357448Y896112D02*
X1366448D01*
X1361948Y891612D02*
Y900612D01*
X1382848Y870712D02*
X1391848D01*
X1387348Y866212D02*
Y875212D01*
X1382848Y896112D02*
X1391848D01*
X1387348Y891612D02*
Y900612D01*
X1005078Y969264D02*
X1007110D01*
X1006094Y968248D02*
Y970280D01*
X1163066Y411988D02*
X1164590D01*
X1163828Y411226D02*
Y412750D01*
X708660Y479806D02*
X710692D01*
X709676Y478790D02*
Y480822D01*
X795528Y520700D02*
X797560D01*
X796544Y519684D02*
Y521716D01*
X708406Y569214D02*
X710438D01*
X709422Y568198D02*
Y570230D01*
X723138Y504952D02*
X725170D01*
X724154Y503936D02*
Y505968D01*
X766572Y520700D02*
X768604D01*
X767588Y519684D02*
Y521716D01*
X708406Y528828D02*
X710438D01*
X709422Y527812D02*
Y529844D01*
X740664Y465074D02*
X742696D01*
X741680Y464058D02*
Y466090D01*
X798322Y456692D02*
X800354D01*
X799338Y455676D02*
Y457708D01*
X565912Y503428D02*
X567944D01*
X566928Y502412D02*
Y504444D01*
X952754Y496316D02*
X954786D01*
X953770Y495300D02*
Y497332D01*
X212852Y697992D02*
X214884D01*
X213868Y696976D02*
Y699008D01*
X105664Y85090D02*
X107696D01*
X106680Y84074D02*
Y86106D01*
X700532Y520700D02*
X702564D01*
X701548Y519684D02*
Y521716D01*
X750824Y544830D02*
X752856D01*
X751840Y543814D02*
Y545846D01*
X767842Y504698D02*
X769874D01*
X768858Y503682D02*
Y505714D01*
X779526Y581914D02*
X781558D01*
X780542Y580898D02*
Y582930D01*
X693674Y425196D02*
X695198D01*
X694436Y424434D02*
Y425958D01*
X846074Y471678D02*
X847598D01*
X846836Y470916D02*
Y472440D01*
X823344Y520954D02*
X824868D01*
X824106Y520192D02*
Y521716D01*
X818388Y519684D02*
X819912D01*
X819150Y518922D02*
Y520446D01*
X956056Y571246D02*
X957580D01*
X956818Y570484D02*
Y572008D01*
X971296Y678942D02*
X972820D01*
X972058Y678180D02*
Y679704D01*
X1247902Y447802D02*
X1249426D01*
X1248664Y447040D02*
Y448564D01*
X836422Y469900D02*
X838454D01*
X837438Y468884D02*
Y470916D01*
X836676Y474980D02*
X838200D01*
X837438Y474218D02*
Y475742D01*
X1211072Y457454D02*
X1212596D01*
X1211834Y456692D02*
Y458216D01*
X1241806Y452945D02*
X1243330D01*
X1242568Y452183D02*
Y453707D01*
X716534Y467868D02*
X718058D01*
X717296Y467106D02*
Y468630D01*
X1188466Y519430D02*
X1189990D01*
X1189228Y518668D02*
Y520192D01*
X541782Y506984D02*
X543814D01*
X542798Y505968D02*
Y508000D01*
X890016Y430022D02*
X892048D01*
X891032Y429006D02*
Y431038D01*
X566866Y512380D02*
X568390D01*
X567628Y511618D02*
Y513142D01*
X1069848Y420878D02*
X1071372D01*
X1070610Y420116D02*
Y421640D01*
X1273810Y439928D02*
X1275334D01*
X1274572Y439166D02*
Y440690D01*
X598684Y948800D02*
X600716D01*
X599700Y947784D02*
Y949816D01*
X716788Y506970D02*
X718312D01*
X717550Y506208D02*
Y507732D01*
X1146937Y511810D02*
X1148461D01*
X1147699Y511048D02*
Y512572D01*
X885698Y433070D02*
X887222D01*
X886460Y432308D02*
Y433832D01*
X546608Y536448D02*
X548132D01*
X547370Y535686D02*
Y537210D01*
X624840Y296926D02*
X626872D01*
X625856Y295910D02*
Y297942D01*
X565150Y528320D02*
X566674D01*
X565912Y527558D02*
Y529082D01*
X720344Y320040D02*
X722376D01*
X721360Y319024D02*
Y321056D01*
X566420Y480314D02*
X567944D01*
X567182Y479552D02*
Y481076D01*
X565150Y464380D02*
X566674D01*
X565912Y463618D02*
Y465142D01*
X477708Y480380D02*
X479232D01*
X478470Y479618D02*
Y481142D01*
X451358Y520380D02*
X452882D01*
X452120Y519618D02*
Y521142D01*
X450088Y528380D02*
X451612D01*
X450850Y527618D02*
Y529142D01*
X565150Y432380D02*
X566674D01*
X565912Y431618D02*
Y433142D01*
X546354Y424380D02*
X548386D01*
X547370Y423364D02*
Y425396D01*
X409818Y432380D02*
X411342D01*
X410580Y431618D02*
Y433142D01*
X452628Y568380D02*
X454152D01*
X453390Y567618D02*
Y569142D01*
X1123594Y891540D02*
X1125626D01*
X1124610Y890524D02*
Y892556D01*
X1076452Y897890D02*
X1078484D01*
X1077468Y896874D02*
Y898906D01*
X905764Y852170D02*
X907796D01*
X906780Y851154D02*
Y853186D01*
X1177036Y232410D02*
X1179068D01*
X1178052Y231394D02*
Y233426D01*
X708152Y506984D02*
X710184D01*
X709168Y505968D02*
Y508000D01*
X236474Y678590D02*
X238506D01*
X237490Y677574D02*
Y679606D01*
X598706Y573532D02*
X600230D01*
X599468Y572770D02*
Y574294D01*
X1201928Y447802D02*
X1203452D01*
X1202690Y447040D02*
Y448564D01*
X857938Y565840D02*
X859462D01*
X858700Y565078D02*
Y566602D01*
X1133733Y560380D02*
X1135257D01*
X1134495Y559618D02*
Y561142D01*
X1243201Y465203D02*
X1244725D01*
X1243963Y464441D02*
Y465965D01*
X806704Y658114D02*
X808228D01*
X807466Y657352D02*
Y658876D01*
X1259332Y488950D02*
X1260856D01*
X1260094Y488188D02*
Y489712D01*
X1282446Y466598D02*
X1284478D01*
X1283462Y465582D02*
Y467614D01*
X809752Y504698D02*
X811276D01*
X810514Y503936D02*
Y505460D01*
X804668Y532892D02*
X806192D01*
X805430Y532130D02*
Y533654D01*
X804672Y488696D02*
X806196D01*
X805434Y487934D02*
Y489458D01*
X804668Y512570D02*
X806192D01*
X805430Y511808D02*
Y513332D01*
X1201868Y511870D02*
X1203392D01*
X1202630Y511108D02*
Y512632D01*
X855980Y520446D02*
X857504D01*
X856742Y519684D02*
Y521208D01*
X836676Y496570D02*
X838200D01*
X837438Y495808D02*
Y497332D01*
X1193800Y495808D02*
X1195324D01*
X1194562Y495046D02*
Y496570D01*
X838708Y464566D02*
X840232D01*
X839470Y463804D02*
Y465328D01*
X1225804Y561086D02*
X1227328D01*
X1226566Y560324D02*
Y561848D01*
X716788Y452628D02*
X718312D01*
X717550Y451866D02*
Y453390D01*
X288036Y443484D02*
X289560D01*
X288798Y442722D02*
Y444246D01*
X740668Y477774D02*
X742192D01*
X741430Y477012D02*
Y478536D01*
X467360Y437896D02*
X468884D01*
X468122Y437134D02*
Y438658D01*
X716788Y472694D02*
X718312D01*
X717550Y471932D02*
Y473456D01*
X708660Y560578D02*
X710184D01*
X709422Y559816D02*
Y561340D01*
X700024Y372088D02*
X702056D01*
X701040Y371072D02*
Y373104D01*
X567084Y918718D02*
X569116D01*
X568100Y917702D02*
Y919734D01*
X577084Y915670D02*
X579116D01*
X578100Y914654D02*
Y916686D01*
X1249804Y487934D02*
X1251328D01*
X1250566Y487172D02*
Y488696D01*
X1249934Y495804D02*
X1251458D01*
X1250696Y495042D02*
Y496566D01*
X1249934Y503804D02*
X1251458D01*
X1250696Y503042D02*
Y504566D01*
X1225804Y447802D02*
X1227328D01*
X1226566Y447040D02*
Y448564D01*
X1313180Y483870D02*
X1314704D01*
X1313942Y483108D02*
Y484632D01*
X58056Y541528D02*
X59580D01*
X58818Y540766D02*
Y542290D01*
X1249934Y463804D02*
X1251458D01*
X1250696Y463042D02*
Y464566D01*
X1257808Y461264D02*
X1259332D01*
X1258570Y460502D02*
Y462026D01*
X1265936Y459994D02*
X1267460D01*
X1266698Y459232D02*
Y460756D01*
X1273810Y461010D02*
X1275334D01*
X1274572Y460248D02*
Y461772D01*
X1268476Y455930D02*
X1270000D01*
X1269238Y455168D02*
Y456692D01*
X459486Y544380D02*
X461010D01*
X460248Y543618D02*
Y545142D01*
X708406Y352298D02*
X710438D01*
X709422Y351282D02*
Y353314D01*
X1297178Y232410D02*
X1298702D01*
X1297940Y231648D02*
Y233172D01*
X827008Y569976D02*
X829040D01*
X828024Y568960D02*
Y570992D01*
X704596Y394716D02*
X706628D01*
X705612Y393700D02*
Y395732D01*
X899414Y691642D02*
X901446D01*
X900430Y690626D02*
Y692658D01*
X1069848Y435356D02*
X1071372D01*
X1070610Y434594D02*
Y436118D01*
X1068506Y567182D02*
X1070030D01*
X1069268Y566420D02*
Y567944D01*
X1016508Y531300D02*
X1018032D01*
X1017270Y530538D02*
Y532062D01*
X1024128Y515366D02*
X1025652D01*
X1024890Y514604D02*
Y516128D01*
X1054546Y483300D02*
X1056070D01*
X1055308Y482538D02*
Y484062D01*
X1062736Y476570D02*
X1064260D01*
X1063498Y475808D02*
Y477332D01*
X976376Y467300D02*
X977900D01*
X977138Y466538D02*
Y468062D01*
X983302Y459300D02*
X984826D01*
X984064Y458538D02*
Y460062D01*
X1090422Y523300D02*
X1091946D01*
X1091184Y522538D02*
Y524062D01*
X1088390Y555300D02*
X1089914D01*
X1089152Y554538D02*
Y556062D01*
X1183640Y618998D02*
X1185164D01*
X1184402Y618236D02*
Y619760D01*
X56684Y273812D02*
X58716D01*
X57700Y272796D02*
Y274828D01*
X637084Y963930D02*
X639116D01*
X638100Y962914D02*
Y964946D01*
X948379Y547300D02*
X950411D01*
X949395Y546284D02*
Y548316D01*
X741946Y421132D02*
X743470D01*
X742708Y420370D02*
Y421894D01*
X1273810Y447928D02*
X1275334D01*
X1274572Y447166D02*
Y448690D01*
X720392Y805434D02*
X722424D01*
X721408Y804418D02*
Y806450D01*
X716788Y511048D02*
X718312D01*
X717550Y510286D02*
Y511810D01*
X708660Y413004D02*
X710184D01*
X709422Y412242D02*
Y413766D01*
X1279144Y472948D02*
X1281176D01*
X1280160Y471932D02*
Y473964D01*
X274574Y698090D02*
X276606D01*
X275590Y697074D02*
Y699106D01*
X906526Y436372D02*
X908050D01*
X907288Y435610D02*
Y437134D01*
X844668Y538988D02*
X846192D01*
X845430Y538226D02*
Y539750D01*
X1089152Y483300D02*
X1090676D01*
X1089914Y482538D02*
Y484062D01*
X953008Y427300D02*
X954532D01*
X953770Y426538D02*
Y428062D01*
X649986Y640588D02*
X652018D01*
X651002Y639572D02*
Y641604D01*
X1192530Y455930D02*
X1194562D01*
X1193546Y454914D02*
Y456946D01*
X828414Y441840D02*
X830446D01*
X829430Y440824D02*
Y442856D01*
X454914Y512380D02*
X456438D01*
X455676Y511618D02*
Y513142D01*
X431546Y505756D02*
X433070D01*
X432308Y504994D02*
Y506518D01*
X454914Y488380D02*
X456438D01*
X455676Y487618D02*
Y489142D01*
X716534Y519176D02*
X718566D01*
X717550Y518160D02*
Y520192D01*
X874776Y414782D02*
X876300D01*
X875538Y414020D02*
Y415544D01*
X838200Y408686D02*
X839724D01*
X838962Y407924D02*
Y409448D01*
X1014222Y451300D02*
X1015746D01*
X1014984Y450538D02*
Y452062D01*
X1199556Y519870D02*
X1201080D01*
X1200318Y519108D02*
Y520632D01*
X177038Y446024D02*
X179070D01*
X178054Y445008D02*
Y447040D01*
X812668Y512570D02*
X814192D01*
X813430Y511808D02*
Y513332D01*
X796544Y567300D02*
X798068D01*
X797306Y566538D02*
Y568062D01*
X709022Y381890D02*
X711054D01*
X710038Y380874D02*
Y382906D01*
X1209802Y452628D02*
X1211326D01*
X1210564Y451866D02*
Y453390D01*
X844804Y439928D02*
X846328D01*
X845566Y439166D02*
Y440690D01*
X1256792Y658114D02*
X1258316D01*
X1257554Y657352D02*
Y658876D01*
X473642Y464380D02*
X475166D01*
X474404Y463618D02*
Y465142D01*
X1276350Y490220D02*
X1277874D01*
X1277112Y489458D02*
Y490982D01*
X510540Y472380D02*
X512064D01*
X511302Y471618D02*
Y473142D01*
X898398Y411300D02*
X899922D01*
X899160Y410538D02*
Y412062D01*
X1281684Y450848D02*
X1283208D01*
X1282446Y450086D02*
Y451610D01*
X1004062Y574802D02*
X1005586D01*
X1004824Y574040D02*
Y575564D01*
X565094Y560380D02*
X566618D01*
X565856Y559618D02*
Y561142D01*
X805179Y480059D02*
X806703D01*
X805941Y479297D02*
Y480821D01*
X1080008Y625856D02*
X1081532D01*
X1080770Y625094D02*
Y626618D01*
X91948Y555752D02*
X93472D01*
X92710Y554990D02*
Y556514D01*
X747014Y568452D02*
X749046D01*
X748030Y567436D02*
Y569468D01*
X1284478Y432816D02*
X1286510D01*
X1285494Y431800D02*
Y433832D01*
X1276348Y453390D02*
X1277872D01*
X1277110Y452628D02*
Y454152D01*
X565150Y445770D02*
X566674D01*
X565912Y445008D02*
Y446532D01*
X622554Y408940D02*
X624078D01*
X623316Y408178D02*
Y409702D01*
X1185672Y439928D02*
X1187704D01*
X1186688Y438912D02*
Y440944D01*
X832531Y405130D02*
X834055D01*
X833293Y404368D02*
Y405892D01*
X1151128Y405130D02*
X1152652D01*
X1151890Y404368D02*
Y405892D01*
X1067308Y411300D02*
X1068832D01*
X1068070Y410538D02*
Y412062D01*
X1021588Y451358D02*
X1023112D01*
X1022350Y450596D02*
Y452120D01*
X966216Y685292D02*
X968248D01*
X967232Y684276D02*
Y686308D01*
X1032510Y761530D02*
X1034542D01*
X1033526Y760514D02*
Y762546D01*
X1296542Y497332D02*
X1298066D01*
X1297304Y496570D02*
Y498094D01*
X1191260Y479806D02*
X1192784D01*
X1192022Y479044D02*
Y480568D01*
X829310Y510032D02*
X830834D01*
X830072Y509270D02*
Y510794D01*
X569544Y944412D02*
X571576D01*
X570560Y943396D02*
Y945428D01*
X627126Y918718D02*
X629158D01*
X628142Y917702D02*
Y919734D01*
X622084Y944372D02*
X624116D01*
X623100Y943356D02*
Y945388D01*
X612140Y951992D02*
X614172D01*
X613156Y950976D02*
Y953008D01*
X1097280Y593598D02*
X1098804D01*
X1098042Y592836D02*
Y594360D01*
X820414Y536570D02*
X822446D01*
X821430Y535554D02*
Y537586D01*
X820668Y512570D02*
X822192D01*
X821430Y511808D02*
Y513332D01*
X820420Y472564D02*
X822452D01*
X821436Y471548D02*
Y473580D01*
X812292Y456692D02*
X814324D01*
X813308Y455676D02*
Y457708D01*
X546608Y488442D02*
X548132D01*
X547370Y487680D02*
Y489204D01*
X912114Y462026D02*
X913638D01*
X912876Y461264D02*
Y462788D01*
X1200658Y245110D02*
X1202182D01*
X1201420Y244348D02*
Y245872D01*
X1158494Y168910D02*
X1160018D01*
X1159256Y168148D02*
Y169672D01*
X1195578Y156210D02*
X1197102D01*
X1196340Y155448D02*
Y156972D01*
X91948Y494792D02*
X93472D01*
X92710Y494030D02*
Y495554D01*
X562084Y918718D02*
X564116D01*
X563100Y917702D02*
Y919734D01*
X597084Y911352D02*
X599116D01*
X598100Y910336D02*
Y912368D01*
X1201928Y495808D02*
X1203452D01*
X1202690Y495046D02*
Y496570D01*
X82140Y678590D02*
X84172D01*
X83156Y677574D02*
Y679606D01*
X701172Y465074D02*
X702696D01*
X701934Y464312D02*
Y465836D01*
X712414Y586994D02*
X714446D01*
X713430Y585978D02*
Y588010D01*
X702056Y503926D02*
X703580D01*
X702818Y503164D02*
Y504688D01*
X796544Y560578D02*
X798068D01*
X797306Y559816D02*
Y561340D01*
X104394Y608440D02*
X106426D01*
X105410Y607424D02*
Y609456D01*
X1123550Y757159D02*
X1125582D01*
X1124566Y756143D02*
Y758175D01*
X560578Y372872D02*
X562610D01*
X561594Y371856D02*
Y373888D01*
X275336Y691590D02*
X277368D01*
X276352Y690574D02*
Y692606D01*
X740664Y372088D02*
X742696D01*
X741680Y371072D02*
Y373104D01*
X431546Y456438D02*
X433070D01*
X432308Y455676D02*
Y457200D01*
X520192Y286766D02*
X522224D01*
X521208Y285750D02*
Y287782D01*
X1201928Y455930D02*
X1203452D01*
X1202690Y455168D02*
Y456692D01*
X486664Y764540D02*
X488696D01*
X487680Y763524D02*
Y765556D01*
X809352Y612520D02*
X811384D01*
X810368Y611504D02*
Y613536D01*
X837184Y515874D02*
X838708D01*
X837946Y515112D02*
Y516636D01*
X1185926Y527812D02*
X1187450D01*
X1186688Y527050D02*
Y528574D01*
X724408Y432562D02*
X726440D01*
X725424Y431546D02*
Y433578D01*
X1253868Y536506D02*
X1255392D01*
X1254630Y535744D02*
Y537268D01*
X800224Y432570D02*
X802256D01*
X801240Y431554D02*
Y433586D01*
X1185926Y496658D02*
X1187450D01*
X1186688Y495896D02*
Y497420D01*
X829646Y477668D02*
X831170D01*
X830408Y476906D02*
Y478430D01*
X1201420Y487426D02*
X1202944D01*
X1202182Y486664D02*
Y488188D01*
X1241614Y513140D02*
X1243646D01*
X1242630Y512124D02*
Y514156D01*
X1147064Y677164D02*
X1148588D01*
X1147826Y676402D02*
Y677926D01*
X1236980Y701802D02*
X1238504D01*
X1237742Y701040D02*
Y702564D01*
X836414Y520570D02*
X838446D01*
X837430Y519554D02*
Y521586D01*
X840994Y370818D02*
X843026D01*
X842010Y369802D02*
Y371834D01*
X739014Y42418D02*
X741046D01*
X740030Y41402D02*
Y43434D01*
X744094Y42544D02*
X746126D01*
X745110Y41528D02*
Y43560D01*
X1070030Y427300D02*
X1071554D01*
X1070792Y426538D02*
Y428062D01*
X764668Y478030D02*
X766700D01*
X765684Y477014D02*
Y479046D01*
X732790Y473964D02*
X734314D01*
X733552Y473202D02*
Y474726D01*
X1050036Y614680D02*
X1051560D01*
X1050798Y613918D02*
Y615442D01*
X723900Y480568D02*
X725424D01*
X724662Y479806D02*
Y481330D01*
X849494Y424570D02*
X851526D01*
X850510Y423554D02*
Y425586D01*
X890634Y483958D02*
X892666D01*
X891650Y482942D02*
Y484974D01*
X1207008Y530730D02*
X1208532D01*
X1207770Y529968D02*
Y531492D01*
X1201614Y470600D02*
X1203646D01*
X1202630Y469584D02*
Y471616D01*
X732414Y536570D02*
X734446D01*
X733430Y535554D02*
Y537586D01*
X1257614Y470600D02*
X1259646D01*
X1258630Y469584D02*
Y471616D01*
X973328Y447294D02*
X974852D01*
X974090Y446532D02*
Y448056D01*
X748414Y563110D02*
X750446D01*
X749430Y562094D02*
Y564126D01*
X386080Y440182D02*
X387604D01*
X386842Y439420D02*
Y440944D01*
X375018Y448380D02*
X376542D01*
X375780Y447618D02*
Y449142D01*
X431546Y424380D02*
X433070D01*
X432308Y423618D02*
Y425142D01*
X374396Y416380D02*
X375920D01*
X375158Y415618D02*
Y417142D01*
X463634Y355120D02*
X465666D01*
X464650Y354104D02*
Y356136D01*
X657734Y488842D02*
X659766D01*
X658750Y487826D02*
Y489858D01*
X724414Y443490D02*
X726446D01*
X725430Y442474D02*
Y444506D01*
X732414Y504570D02*
X734446D01*
X733430Y503554D02*
Y505586D01*
X450088Y560070D02*
X451612D01*
X450850Y559308D02*
Y560832D01*
X1156569Y775970D02*
X1158601D01*
X1157585Y774954D02*
Y776986D01*
X1123594Y864980D02*
X1125626D01*
X1124610Y863964D02*
Y865996D01*
X358648Y479482D02*
X360172D01*
X359410Y478720D02*
Y480244D01*
X1207369Y765961D02*
X1209401D01*
X1208385Y764945D02*
Y766977D01*
X954786Y576326D02*
X956310D01*
X955548Y575564D02*
Y577088D01*
X950170Y779272D02*
X952202D01*
X951186Y778256D02*
Y780288D01*
X450088Y576326D02*
X451612D01*
X450850Y575564D02*
Y577088D01*
X1298084Y430618D02*
X1300116D01*
X1299100Y429602D02*
Y431634D01*
X431546Y584454D02*
X433070D01*
X432308Y583692D02*
Y585216D01*
X648844Y17700D02*
X650876D01*
X649860Y16684D02*
Y18716D01*
X1289050Y775961D02*
X1291082D01*
X1290066Y774945D02*
Y776977D01*
X829684Y448570D02*
X831716D01*
X830700Y447554D02*
Y449586D01*
X1344469Y775961D02*
X1346501D01*
X1345485Y774945D02*
Y776977D01*
X891286Y871330D02*
X893318D01*
X892302Y870314D02*
Y872346D01*
X1308354Y433070D02*
X1310386D01*
X1309370Y432054D02*
Y434086D01*
X1097026Y459300D02*
X1098550D01*
X1097788Y458538D02*
Y460062D01*
X740414Y433840D02*
X742446D01*
X741430Y432824D02*
Y434856D01*
X788414Y478030D02*
X790446D01*
X789430Y477014D02*
Y479046D01*
X1193868Y509270D02*
X1195392D01*
X1194630Y508508D02*
Y510032D01*
X1088390Y620776D02*
X1089914D01*
X1089152Y620014D02*
Y621538D01*
X1261364Y425472D02*
X1263396D01*
X1262380Y424456D02*
Y426488D01*
X814954Y448570D02*
X816986D01*
X815970Y447554D02*
Y449586D01*
X761874Y448570D02*
X763906D01*
X762890Y447554D02*
Y449586D01*
X827144Y552570D02*
X829176D01*
X828160Y551554D02*
Y553586D01*
X729874Y544570D02*
X731906D01*
X730890Y543554D02*
Y545586D01*
X80518Y700024D02*
X82550D01*
X81534Y699008D02*
Y701040D01*
X155194Y723646D02*
X157226D01*
X156210Y722630D02*
Y724662D01*
X43942Y737870D02*
X45974D01*
X44958Y736854D02*
Y738886D01*
X230124Y729234D02*
X232156D01*
X231140Y728218D02*
Y730250D01*
X401320Y810768D02*
X403352D01*
X402336Y809752D02*
Y811784D01*
X11684Y134788D02*
X13716D01*
X12700Y133772D02*
Y135804D01*
X56684Y134788D02*
X58716D01*
X57700Y133772D02*
Y135804D01*
X304886Y12700D02*
X306918D01*
X305902Y11684D02*
Y13716D01*
X304886Y57700D02*
X306918D01*
X305902Y56684D02*
Y58716D01*
X486496Y13970D02*
X488528D01*
X487512Y12954D02*
Y14986D01*
X486496Y58970D02*
X488528D01*
X487512Y57954D02*
Y59986D01*
X122054Y453248D02*
X124086D01*
X123070Y452232D02*
Y454264D01*
X38354Y495278D02*
X40386D01*
X39370Y494262D02*
Y496294D01*
X169164Y509248D02*
X171196D01*
X170180Y508232D02*
Y510264D01*
X78994Y584402D02*
X81026D01*
X80010Y583386D02*
Y585418D01*
X170434Y581638D02*
X172466D01*
X171450Y580622D02*
Y582654D01*
X44704Y629942D02*
X46736D01*
X45720Y628926D02*
Y630958D01*
X629934Y7098D02*
X631966D01*
X630950Y6082D02*
Y8114D01*
X223774Y626132D02*
X225806D01*
X224790Y625116D02*
Y627148D01*
X431292Y496380D02*
X433324D01*
X432308Y495364D02*
Y497396D01*
X21902Y691590D02*
X23934D01*
X22918Y690574D02*
Y692606D01*
X190812Y691590D02*
X192844D01*
X191828Y690574D02*
Y692606D01*
X546292Y544380D02*
X548324D01*
X547308Y543364D02*
Y545396D01*
X564896Y552380D02*
X566928D01*
X565912Y551364D02*
Y553396D01*
X654194Y440602D02*
X656226D01*
X655210Y439586D02*
Y441618D01*
X654194Y463462D02*
X656226D01*
X655210Y462446D02*
Y464478D01*
X655464Y511722D02*
X657496D01*
X656480Y510706D02*
Y512738D01*
X655464Y534582D02*
X657496D01*
X656480Y533566D02*
Y535598D01*
X768604Y372088D02*
X770636D01*
X769620Y371072D02*
Y373104D01*
X673464Y557442D02*
X675496D01*
X674480Y556426D02*
Y558458D01*
X795274Y372088D02*
X797306D01*
X796290Y371072D02*
Y373104D01*
X673464Y581572D02*
X675496D01*
X674480Y580556D02*
Y582588D01*
X732414Y520570D02*
X734446D01*
X733430Y519554D02*
Y521586D01*
X808082Y384430D02*
X810114D01*
X809098Y383414D02*
Y385446D01*
X716414Y552570D02*
X718446D01*
X717430Y551554D02*
Y553586D01*
X756414Y488570D02*
X758446D01*
X757430Y487554D02*
Y489586D01*
X756414Y512570D02*
X758446D01*
X757430Y511554D02*
Y513586D01*
X804414Y464570D02*
X806446D01*
X805430Y463554D02*
Y465586D01*
X698754Y619782D02*
X700786D01*
X699770Y618766D02*
Y620798D01*
X731666Y593980D02*
X733698D01*
X732682Y592964D02*
Y594996D01*
X844414Y448570D02*
X846446D01*
X845430Y447554D02*
Y449586D01*
X745744Y622322D02*
X747776D01*
X746760Y621306D02*
Y623338D01*
X771144Y623592D02*
X773176D01*
X772160Y622576D02*
Y624608D01*
X888094Y454572D02*
X890126D01*
X889110Y453556D02*
Y455588D01*
X797814Y623592D02*
X799846D01*
X798830Y622576D02*
Y624608D01*
X846074Y626132D02*
X848106D01*
X847090Y625116D02*
Y627148D01*
X557084Y918808D02*
X559116D01*
X558100Y917792D02*
Y919824D01*
X587084Y918808D02*
X589116D01*
X588100Y917792D02*
Y919824D01*
X602084Y944412D02*
X604116D01*
X603100Y943396D02*
Y945428D01*
X617084Y918808D02*
X619116D01*
X618100Y917792D02*
Y919824D01*
X632084Y944412D02*
X634116D01*
X633100Y943396D02*
Y945428D01*
X1088136Y499300D02*
X1090168D01*
X1089152Y498284D02*
Y500316D01*
X931780Y734079D02*
X933812D01*
X932796Y733063D02*
Y735095D01*
X1088136Y547300D02*
X1090168D01*
X1089152Y546284D02*
Y548316D01*
X860044Y844528D02*
X862076D01*
X861060Y843512D02*
Y845544D01*
X1225416Y168910D02*
X1227448D01*
X1226432Y167894D02*
Y169926D01*
X1158604Y440602D02*
X1160636D01*
X1159620Y439586D02*
Y441618D01*
X882764Y852048D02*
X884796D01*
X883780Y851032D02*
Y853064D01*
X1157334Y464732D02*
X1159366D01*
X1158350Y463716D02*
Y465748D01*
X1157334Y471258D02*
X1159366D01*
X1158350Y470242D02*
Y472274D01*
X1185164Y424202D02*
X1187196D01*
X1186180Y423186D02*
Y425218D01*
X1014329Y739849D02*
X1016361D01*
X1015345Y738833D02*
Y740865D01*
X1157334Y519518D02*
X1159366D01*
X1158350Y518502D02*
Y520534D01*
X1210564Y425472D02*
X1212596D01*
X1211580Y424456D02*
Y426488D01*
X955294Y844528D02*
X957326D01*
X956310Y843512D02*
Y845544D01*
X1209614Y447870D02*
X1211646D01*
X1210630Y446854D02*
Y448886D01*
X1046079Y757159D02*
X1048111D01*
X1047095Y756143D02*
Y758175D01*
X1235964Y425472D02*
X1237996D01*
X1236980Y424456D02*
Y426488D01*
X1209614Y503870D02*
X1211646D01*
X1210630Y502854D02*
Y504886D01*
X1241614Y439870D02*
X1243646D01*
X1242630Y438854D02*
Y440886D01*
X1225614Y463870D02*
X1227646D01*
X1226630Y462854D02*
Y464886D01*
X1241614Y447870D02*
X1243646D01*
X1242630Y446854D02*
Y448886D01*
X1265614Y447870D02*
X1267646D01*
X1266630Y446854D02*
Y448886D01*
X1257614Y479870D02*
X1259646D01*
X1258630Y478854D02*
Y480886D01*
X1282954Y424202D02*
X1284986D01*
X1283970Y423186D02*
Y425218D01*
X1123550Y739159D02*
X1125582D01*
X1124566Y738143D02*
Y740175D01*
X1301894Y457288D02*
X1303926D01*
X1302910Y456272D02*
Y458304D01*
X1096264Y838178D02*
X1098296D01*
X1097280Y837162D02*
Y839194D01*
X1304434Y510628D02*
X1306466D01*
X1305450Y509612D02*
Y511644D01*
X1321164Y481418D02*
X1323196D01*
X1322180Y480402D02*
Y482434D01*
X1207369Y736039D02*
X1209401D01*
X1208385Y735023D02*
Y737055D01*
X1133094Y864658D02*
X1135126D01*
X1134110Y863642D02*
Y865674D01*
X1171194Y840718D02*
X1173226D01*
X1172210Y839702D02*
Y841734D01*
X1241660Y740429D02*
X1243692D01*
X1242676Y739413D02*
Y741445D01*
X1274679Y773493D02*
X1276711D01*
X1275695Y772477D02*
Y774509D01*
X1323977Y756961D02*
X1326009D01*
X1324993Y755945D02*
Y757977D01*
X1451864Y551842D02*
X1453896D01*
X1452880Y550826D02*
Y552858D01*
X1375009Y772223D02*
X1377041D01*
X1376025Y771207D02*
Y773239D01*
X1496864Y551842D02*
X1498896D01*
X1497880Y550826D02*
Y552858D01*
X780838Y448750D02*
X782362D01*
X781600Y447988D02*
Y449512D01*
X803034Y448694D02*
X805066D01*
X804050Y447678D02*
Y449710D01*
X764284Y424450D02*
X766316D01*
X765300Y423434D02*
Y425466D01*
X732288Y426450D02*
X733812D01*
X733050Y425688D02*
Y427212D01*
X732338Y464900D02*
X733862D01*
X733100Y464138D02*
Y465662D01*
X708098Y440000D02*
X709622D01*
X708860Y439238D02*
Y440762D01*
X708438Y488600D02*
X709962D01*
X709200Y487838D02*
Y489362D01*
X764934Y545090D02*
X766966D01*
X765950Y544074D02*
Y546106D01*
X827638Y537600D02*
X829162D01*
X828400Y536838D02*
Y538362D01*
X828244Y527100D02*
X829768D01*
X829006Y526338D02*
Y527862D01*
X813950Y522224D02*
X815474D01*
X814712Y521462D02*
Y522986D01*
X697738Y567436D02*
X699770D01*
X698754Y566420D02*
Y568452D01*
X723646Y560324D02*
X725170D01*
X724408Y559562D02*
Y561086D01*
X697230Y556514D02*
X698754D01*
X697992Y555752D02*
Y557276D01*
X698500Y582930D02*
X700532D01*
X699516Y581914D02*
Y583946D01*
X724408Y524764D02*
X726440D01*
X725424Y523748D02*
Y525780D01*
X729742Y512318D02*
X731266D01*
X730504Y511556D02*
Y513080D01*
X740664Y505206D02*
X742188D01*
X741426Y504444D02*
Y505968D01*
X756920Y495938D02*
X758444D01*
X757682Y495176D02*
Y496700D01*
X773430Y489458D02*
X775462D01*
X774446Y488442D02*
Y490474D01*
X787840Y503174D02*
X789872D01*
X788856Y502158D02*
Y504190D01*
X782574Y544830D02*
X784606D01*
X783590Y543814D02*
Y545846D01*
X780838Y558292D02*
X782362D01*
X781600Y557530D02*
Y559054D01*
X780542Y562864D02*
X782066D01*
X781304Y562102D02*
Y563626D01*
X775716Y568706D02*
X777240D01*
X776478Y567944D02*
Y569468D01*
X778828Y552450D02*
X780352D01*
X779590Y551688D02*
Y553212D01*
X797814Y552450D02*
X799846D01*
X798830Y551434D02*
Y553466D01*
X799084Y544322D02*
X800608D01*
X799846Y543560D02*
Y545084D01*
X820420Y548386D02*
X821944D01*
X821182Y547624D02*
Y549148D01*
X883666Y563372D02*
X885190D01*
X884428Y562610D02*
Y564134D01*
X843280Y559562D02*
X844804D01*
X844042Y558800D02*
Y560324D01*
X802640Y520700D02*
X804164D01*
X803402Y519938D02*
Y521462D01*
X837184Y492506D02*
X838708D01*
X837946Y491744D02*
Y493268D01*
X850258Y470662D02*
X851782D01*
X851020Y469900D02*
Y471424D01*
X877570Y467868D02*
X879094D01*
X878332Y467106D02*
Y468630D01*
X885698Y483616D02*
X887730D01*
X886714Y482600D02*
Y484632D01*
X853440Y490982D02*
X854964D01*
X854202Y490220D02*
Y491744D01*
X838708Y480822D02*
X840232D01*
X839470Y480060D02*
Y481584D01*
X847344D02*
X848868D01*
X848106Y480822D02*
Y482346D01*
X866648Y479552D02*
X868172D01*
X867410Y478790D02*
Y480314D01*
X798322Y482092D02*
X799846D01*
X799084Y481330D02*
Y482854D01*
X697484Y493014D02*
X699008D01*
X698246Y492252D02*
Y493776D01*
X718566Y480568D02*
X720090D01*
X719328Y479806D02*
Y481330D01*
X721614Y487680D02*
X723138D01*
X722376Y486918D02*
Y488442D01*
X726440Y489966D02*
X727964D01*
X727202Y489204D02*
Y490728D01*
X737362Y480568D02*
X738886D01*
X738124Y479806D02*
Y481330D01*
X698246Y470148D02*
X699770D01*
X699008Y469386D02*
Y470910D01*
X682752Y457454D02*
X684276D01*
X683514Y456692D02*
Y458216D01*
X723392Y456692D02*
X724916D01*
X724154Y455930D02*
Y457454D01*
Y465582D02*
X725678D01*
X724916Y464820D02*
Y466344D01*
X709676Y454533D02*
X711200D01*
X710438Y453771D02*
Y455295D01*
X692150Y439420D02*
X693674D01*
X692912Y438658D02*
Y440182D01*
X692404Y445770D02*
X693928D01*
X693166Y445008D02*
Y446532D01*
X709424Y448564D02*
X711456D01*
X710440Y447548D02*
Y449580D01*
X698246Y450850D02*
X700278D01*
X699262Y449834D02*
Y451866D01*
X664210Y434594D02*
X665734D01*
X664972Y433832D02*
Y435356D01*
X687578Y419862D02*
X689102D01*
X688340Y419100D02*
Y420624D01*
X699008Y425450D02*
X701040D01*
X700024Y424434D02*
Y426466D01*
X698246Y409194D02*
X699770D01*
X699008Y408432D02*
Y409956D01*
X797306Y494538D02*
X798830D01*
X798068Y493776D02*
Y495300D01*
X803910Y502666D02*
X805434D01*
X804672Y501904D02*
Y503428D01*
X849630Y531876D02*
X851154D01*
X850392Y531114D02*
Y532638D01*
X848868Y538734D02*
X850392D01*
X849630Y537972D02*
Y539496D01*
X846582Y543560D02*
X848106D01*
X847344Y542798D02*
Y544322D01*
X833374Y543814D02*
X834898D01*
X834136Y543052D02*
Y544576D01*
X837946Y569722D02*
X839978D01*
X838962Y568706D02*
Y570738D01*
X836676Y560324D02*
X838200D01*
X837438Y559562D02*
Y561086D01*
X877316Y570230D02*
X878840D01*
X878078Y569468D02*
Y570992D01*
X846328Y516570D02*
X847852D01*
X847090Y515808D02*
Y517332D01*
X930148Y533400D02*
X931672D01*
X930910Y532638D02*
Y534162D01*
X900938Y529844D02*
X902462D01*
X901700Y529082D02*
Y530606D01*
X975868Y681990D02*
X977392D01*
X976630Y681228D02*
Y682752D01*
X931164Y525780D02*
X933196D01*
X932180Y524764D02*
Y526796D01*
X954532Y447802D02*
X956056D01*
X955294Y447040D02*
Y448564D01*
X1010412Y467106D02*
X1011936D01*
X1011174Y466344D02*
Y467868D01*
X1087628Y457200D02*
X1089152D01*
X1088390Y456438D02*
Y457962D01*
X1094232Y474980D02*
X1095756D01*
X1094994Y474218D02*
Y475742D01*
X1100074Y479806D02*
X1102106D01*
X1101090Y478790D02*
Y480822D01*
X1147572Y498094D02*
X1149604D01*
X1148588Y497078D02*
Y499110D01*
X1122680Y515112D02*
X1124204D01*
X1123442Y514350D02*
Y515874D01*
X1164590Y507746D02*
X1166114D01*
X1165352Y506984D02*
Y508508D01*
X1165606Y520192D02*
X1167130D01*
X1166368Y519430D02*
Y520954D01*
X1165606Y556260D02*
X1167130D01*
X1166368Y555498D02*
Y557022D01*
X1182116Y523494D02*
X1183640D01*
X1182878Y522732D02*
Y524256D01*
X1181100Y540004D02*
X1182624D01*
X1181862Y539242D02*
Y540766D01*
X1169670Y540004D02*
X1171194D01*
X1170432Y539242D02*
Y540766D01*
X1185926Y513842D02*
X1187450D01*
X1186688Y513080D02*
Y514604D01*
X1181354Y481838D02*
X1182878D01*
X1182116Y481076D02*
Y482600D01*
X1196594Y488188D02*
X1198118D01*
X1197356Y487426D02*
Y488950D01*
X1180846Y505460D02*
X1182370D01*
X1181608Y504698D02*
Y506222D01*
X1187450Y503428D02*
X1188974D01*
X1188212Y502666D02*
Y504190D01*
X1193292Y513334D02*
X1194816D01*
X1194054Y512572D02*
Y514096D01*
X1176528Y524002D02*
X1178052D01*
X1177290Y523240D02*
Y524764D01*
X1193042Y521462D02*
X1194566D01*
X1193804Y520700D02*
Y522224D01*
X1197610Y531368D02*
X1199134D01*
X1198372Y530606D02*
Y532130D01*
X1191006Y530860D02*
X1192530D01*
X1191768Y530098D02*
Y531622D01*
X1209802Y524510D02*
X1211326D01*
X1210564Y523748D02*
Y525272D01*
X1195324Y552196D02*
X1196848D01*
X1196086Y551434D02*
Y552958D01*
X1241298Y567182D02*
X1242822D01*
X1242060Y566420D02*
Y567944D01*
X1273556Y526796D02*
X1275080D01*
X1274318Y526034D02*
Y527558D01*
X1281176Y499364D02*
X1282700D01*
X1281938Y498602D02*
Y500126D01*
X1273302Y497840D02*
X1274826D01*
X1274064Y497078D02*
Y498602D01*
X1265428Y504444D02*
X1266952D01*
X1266190Y503682D02*
Y505206D01*
X1229614Y495554D02*
X1231138D01*
X1230376Y494792D02*
Y496316D01*
X1209866Y491744D02*
X1211390D01*
X1210628Y490982D02*
Y492506D01*
X1279144Y478410D02*
X1280668D01*
X1279906Y477648D02*
Y479172D01*
X1251966Y455676D02*
X1253490D01*
X1252728Y454914D02*
Y456438D01*
X1217930Y433324D02*
X1219454D01*
X1218692Y432562D02*
Y434086D01*
X1181608Y530860D02*
X1183132D01*
X1182370Y530098D02*
Y531622D01*
X601726Y394462D02*
X603758D01*
X602742Y393446D02*
Y395478D01*
X398272Y349504D02*
X400304D01*
X399288Y348488D02*
Y350520D01*
X614426Y293116D02*
X616458D01*
X615442Y292100D02*
Y294132D01*
X846582Y506730D02*
X848614D01*
X847598Y505714D02*
Y507746D01*
X946912Y499364D02*
X948944D01*
X947928Y498348D02*
Y500380D01*
X919480Y561340D02*
X921512D01*
X920496Y560324D02*
Y562356D01*
X1168908Y417830D02*
X1170432D01*
X1169670Y417068D02*
Y418592D01*
X1182370Y436372D02*
X1184402D01*
X1183386Y435356D02*
Y437388D01*
X1103630Y508508D02*
X1105154D01*
X1104392Y507746D02*
Y509270D01*
X1011936Y546862D02*
X1013460D01*
X1012698Y546100D02*
Y547624D01*
X1066800Y530352D02*
X1068832D01*
X1067816Y529336D02*
Y531368D01*
X1041908Y507238D02*
X1043432D01*
X1042670Y506476D02*
Y508000D01*
X1118108Y498348D02*
X1119632D01*
X1118870Y497586D02*
Y499110D01*
X1122426Y530860D02*
X1123950D01*
X1123188Y530098D02*
Y531622D01*
X1043940Y581914D02*
X1045464D01*
X1044702Y581152D02*
Y582676D01*
X1137666Y649732D02*
X1139190D01*
X1138428Y648970D02*
Y650494D01*
X1225804Y680720D02*
X1227328D01*
X1226566Y679958D02*
Y681482D01*
X1200150Y232410D02*
X1202182D01*
X1201166Y231394D02*
Y233426D01*
X819912Y342900D02*
X821436D01*
X820674Y342138D02*
Y343662D01*
X858774Y346964D02*
X860298D01*
X859536Y346202D02*
Y347726D01*
X847852Y369824D02*
X849376D01*
X848614Y369062D02*
Y370586D01*
X834898Y378206D02*
X836422D01*
X835660Y377444D02*
Y378968D01*
X843788Y388366D02*
X845312D01*
X844550Y387604D02*
Y389128D01*
X898398Y420624D02*
X899922D01*
X899160Y419862D02*
Y421386D01*
X892556Y438404D02*
X894080D01*
X893318Y437642D02*
Y439166D01*
X1042162Y523240D02*
X1043686D01*
X1042924Y522478D02*
Y524002D01*
X1042162Y531114D02*
X1043686D01*
X1042924Y530352D02*
Y531876D01*
X547878Y509524D02*
X549402D01*
X548640Y508762D02*
Y510286D01*
X300228Y419354D02*
X301752D01*
X300990Y418592D02*
Y420116D01*
X546608Y440690D02*
X548132D01*
X547370Y439928D02*
Y441452D01*
Y460756D02*
X548894D01*
X548132Y459994D02*
Y461518D01*
X399288Y776732D02*
X401320D01*
X400304Y775716D02*
Y777748D01*
X403352Y781304D02*
X405384D01*
X404368Y780288D02*
Y782320D01*
X386842Y806450D02*
X388874D01*
X387858Y805434D02*
Y807466D01*
X329438Y877316D02*
X331470D01*
X330454Y876300D02*
Y878332D01*
X151892Y877316D02*
X153924D01*
X152908Y876300D02*
Y878332D01*
X38862Y774700D02*
X40894D01*
X39878Y773684D02*
Y775716D01*
X232664Y801370D02*
X234696D01*
X233680Y800354D02*
Y802386D01*
X490982Y806450D02*
X493014D01*
X491998Y805434D02*
Y807466D01*
X545084Y762762D02*
X546608D01*
X545846Y762000D02*
Y763524D01*
X589534Y944372D02*
X591566D01*
X590550Y943356D02*
Y945388D01*
X782066Y587248D02*
X784098D01*
X783082Y586232D02*
Y588264D01*
X688848Y518922D02*
X690880D01*
X689864Y517906D02*
Y519938D01*
X740664Y490982D02*
X742188D01*
X741426Y490220D02*
Y491744D01*
X749046D02*
X750570D01*
X749808Y490982D02*
Y492506D01*
X948690Y961390D02*
X950722D01*
X949706Y960374D02*
Y962406D01*
X1093724Y962660D02*
X1095756D01*
X1094740Y961644D02*
Y963676D01*
X1334262Y956310D02*
X1336294D01*
X1335278Y955294D02*
Y957326D01*
X1225800Y511802D02*
X1227324D01*
X1226562Y511040D02*
Y512564D01*
X244856Y729742D02*
X246888D01*
X245872Y728726D02*
Y730758D01*
X838200Y551180D02*
X839724D01*
X838962Y550418D02*
Y551942D01*
X828294Y514604D02*
X829818D01*
X829056Y513842D02*
Y515366D01*
X43942Y710184D02*
X45974D01*
X44958Y709168D02*
Y711200D01*
X601980Y735076D02*
X604012D01*
X602996Y734060D02*
Y736092D01*
X824738Y647192D02*
X826770D01*
X825754Y646176D02*
Y648208D01*
X213360Y688340D02*
X215392D01*
X214376Y687324D02*
Y689356D01*
X216408Y708406D02*
X218440D01*
X217424Y707390D02*
Y709422D01*
X812546Y489712D02*
X814070D01*
X813308Y488950D02*
Y490474D01*
X827278Y488442D02*
X828802D01*
X828040Y487680D02*
Y489204D01*
X813054Y552958D02*
X814578D01*
X813816Y552196D02*
Y553720D01*
X822954Y504570D02*
X824986D01*
X823970Y503554D02*
Y505586D01*
X835660Y504698D02*
X837184D01*
X836422Y503936D02*
Y505460D01*
X788924Y517144D02*
X790448D01*
X789686Y516382D02*
Y517906D01*
X813816Y526796D02*
X815340D01*
X814578Y526034D02*
Y527558D01*
X820928Y527050D02*
X822452D01*
X821690Y526288D02*
Y527812D01*
X709168Y513334D02*
X710692D01*
X709930Y512572D02*
Y514096D01*
X1220978Y456184D02*
X1222502D01*
X1221740Y455422D02*
Y456946D01*
X1226188Y455930D02*
X1227712D01*
X1226950Y455168D02*
Y456692D01*
X1219708Y463550D02*
X1221232D01*
X1220470Y462788D02*
Y464312D01*
X1231392Y455422D02*
X1232916D01*
X1232154Y454660D02*
Y456184D01*
X1209548Y820674D02*
X1211072D01*
X1210310Y819912D02*
Y821436D01*
X1210056Y463550D02*
X1211580D01*
X1210818Y462788D02*
Y464312D01*
X851662Y432562D02*
X853186D01*
X852424Y431800D02*
Y433324D01*
X890524Y400812D02*
X892048D01*
X891286Y400050D02*
Y401574D01*
X781050Y481076D02*
X782574D01*
X781812Y480314D02*
Y481838D01*
X782574Y721106D02*
X784098D01*
X783336Y720344D02*
Y721868D01*
X1300734Y833120D02*
X1302258D01*
X1301496Y832358D02*
Y833882D01*
X781050Y464952D02*
X782574D01*
X781812Y464190D02*
Y465714D01*
X760222Y578612D02*
X761746D01*
X760984Y577850D02*
Y579374D01*
X948944Y638556D02*
X950468D01*
X949706Y637794D02*
Y639318D01*
X1103630Y782574D02*
X1105154D01*
X1104392Y781812D02*
Y783336D01*
X1317752Y847598D02*
X1319276D01*
X1318514Y846836D02*
Y848360D01*
X788924Y440182D02*
X790448D01*
X789686Y439420D02*
Y440944D01*
X861314Y496062D02*
X862838D01*
X862076Y495300D02*
Y496824D01*
X1343406Y850646D02*
X1344930D01*
X1344168Y849884D02*
Y851408D01*
X772668Y424180D02*
X774192D01*
X773430Y423418D02*
Y424942D01*
X749808Y578866D02*
X751332D01*
X750570Y578104D02*
Y579628D01*
X917448Y636524D02*
X918972D01*
X918210Y635762D02*
Y637286D01*
X1321308Y921258D02*
X1322832D01*
X1322070Y920496D02*
Y922020D01*
X681228Y536194D02*
X683260D01*
X682244Y535178D02*
Y537210D01*
M02*
