G04 Layer_Physical_Order=4*
G04 Layer_Color=6736896*
%FSLAX44Y44*%
%MOMM*%
G71*
G01*
G75*
%ADD24R,1.5000X1.5000*%
%ADD27C,0.1016*%
%ADD28C,0.2032*%
%ADD29C,0.8890*%
%ADD32C,1.5000*%
%ADD35R,1.5000X1.5000*%
%ADD36O,1.3400X1.3500*%
%ADD40O,0.7000X1.2000*%
%ADD42C,0.4064*%
%ADD43C,0.2540*%
G36*
X998298Y963044D02*
X980048D01*
Y970044D01*
X985298D01*
Y994544D01*
X998298D01*
Y963044D01*
D02*
G37*
G36*
X1052798Y970044D02*
X1058048D01*
Y963044D01*
X1039798D01*
Y994544D01*
X1052798D01*
Y970044D01*
D02*
G37*
D24*
X631190Y806450D02*
D03*
X130810Y43180D02*
D03*
X1247140Y607060D02*
D03*
D27*
X785876Y582168D02*
Y589280D01*
X781812Y593344D02*
X785876Y589280D01*
X773684Y593344D02*
X781812D01*
X773684D02*
Y618490D01*
X776224Y621030D01*
Y624586D01*
X773684Y627126D02*
X776224Y624586D01*
X773684Y627126D02*
Y711454D01*
X776732Y573024D02*
X785876Y582168D01*
X773684Y573024D02*
X776732D01*
X942086Y547878D02*
X947928Y553720D01*
X907288Y547878D02*
X942086D01*
X862076Y502666D02*
X907288Y547878D01*
X741934Y578866D02*
X750570D01*
X737616Y574548D02*
X741934Y578866D01*
X737616Y565912D02*
Y574548D01*
X723138Y551434D02*
X737616Y565912D01*
X723138Y537972D02*
Y551434D01*
Y537972D02*
X729996Y531114D01*
X745744D01*
X762508Y514350D01*
Y489966D02*
Y514350D01*
Y489966D02*
X773430Y479044D01*
Y424180D02*
Y479044D01*
X1335024Y841502D02*
X1344168Y850646D01*
X1208024Y841502D02*
X1335024D01*
X1192276Y825754D02*
X1208024Y841502D01*
X1192276Y745490D02*
Y825754D01*
X1179830Y733044D02*
X1192276Y745490D01*
X1161542Y733044D02*
X1179830D01*
X1130808Y702310D02*
X1161542Y733044D01*
X1130808Y654050D02*
Y702310D01*
X1117600Y640842D02*
X1130808Y654050D01*
X1060958Y640842D02*
X1117600D01*
X973836Y553720D02*
X1060958Y640842D01*
X947928Y553720D02*
X973836D01*
X862076Y496062D02*
Y502666D01*
X758444Y576072D02*
X760984Y578612D01*
X758444Y536448D02*
Y576072D01*
Y536448D02*
X779526Y515366D01*
Y476504D02*
Y515366D01*
Y476504D02*
X781812Y474218D01*
Y464952D02*
Y474218D01*
X773684Y711454D02*
X783336Y721106D01*
X759968Y559308D02*
X773684Y573024D01*
X759968Y538480D02*
Y559308D01*
Y538480D02*
X781812Y516636D01*
Y481076D02*
Y516636D01*
X1232154Y458470D02*
X1235964D01*
X1166382Y392698D02*
X1232154Y458470D01*
X845834Y392698D02*
X1166382D01*
X1238758Y455676D02*
X1252728D01*
X1235964Y458470D02*
X1238758Y455676D01*
X828040Y496316D02*
X832612Y500888D01*
Y506984D01*
X835301Y488083D02*
Y497332D01*
X842159Y506476D02*
X851662Y515979D01*
X835301Y497332D02*
X842159Y504190D01*
Y506476D01*
X828040Y488442D02*
Y496316D01*
X831596Y484378D02*
X835301Y488083D01*
X801116Y484378D02*
X831596D01*
X808228Y512104D02*
X813308Y507024D01*
Y489712D02*
Y507024D01*
X798576Y490728D02*
X809117D01*
X819658Y489712D02*
Y490728D01*
X815594Y485648D02*
X819658Y489712D01*
X811022Y485648D02*
X815594D01*
X809117Y487553D02*
X811022Y485648D01*
X809117Y487553D02*
Y490728D01*
X819658D02*
X826516Y497586D01*
X796798Y488950D02*
X798576Y490728D01*
X1012698Y546862D02*
X1064260D01*
X1065784Y545338D01*
X1104392Y508508D02*
X1107632D01*
X1144458Y545334D01*
X615442Y293116D02*
Y293624D01*
X711200Y389382D01*
X399288Y349504D02*
X500634Y450850D01*
X602742Y394462D02*
X705358D01*
X705612Y394716D01*
X1098626Y394208D02*
X1196416Y491998D01*
X1202182D01*
X1205738Y495554D01*
X1230376D01*
X1277366Y482092D02*
X1281938Y486664D01*
Y499364D01*
X1186688Y496658D02*
X1186776D01*
X1188974Y498856D01*
X1200404D01*
X1360170Y658622D01*
X1182878Y523494D02*
X1183640D01*
X1185418Y525272D01*
X1123442Y515112D02*
X1123508D01*
X1141666Y533270D01*
X1011174Y484378D02*
X1123950Y597154D01*
X1011174Y467106D02*
Y484378D01*
X905002Y679450D02*
X907796Y682244D01*
X969518D01*
X971296Y684022D01*
X1007872D01*
X1017270Y693420D01*
X798068Y494538D02*
X799592Y496062D01*
Y514096D01*
X671576Y402082D02*
X688340Y418846D01*
Y419862D01*
X664972Y434594D02*
X665226Y434848D01*
X675894D01*
X706628Y465582D01*
X709803Y454533D02*
X710438D01*
X697484Y442214D02*
X709803Y454533D01*
X706628Y465582D02*
X724916D01*
X717550Y472694D02*
X721614D01*
X726948Y467360D01*
Y464566D02*
Y467360D01*
X725932Y463550D02*
X726948Y464566D01*
X724276Y463550D02*
X725932D01*
X713486Y452760D02*
X724276Y463550D01*
X732028Y475488D02*
X733552Y473964D01*
X522732Y475488D02*
X732028D01*
X404622Y357378D02*
X522732Y475488D01*
X799084Y482092D02*
Y482346D01*
X801116Y484378D01*
X851020Y470662D02*
X851274Y470916D01*
X900938D01*
X837946Y492506D02*
X842010D01*
X902462Y552958D01*
X808228Y564434D02*
X905002Y661208D01*
X808228Y512104D02*
Y564434D01*
X843026Y559562D02*
X844042D01*
X840994Y557530D02*
X843026Y559562D01*
X884174Y563118D02*
X884428Y563372D01*
X834898Y563118D02*
X884174D01*
X821182Y549402D02*
X834898Y563118D01*
X821182Y548386D02*
Y549402D01*
X765950Y540118D02*
Y545090D01*
Y540118D02*
X786130Y519938D01*
X700532Y421894D02*
X708860Y430222D01*
Y440000D01*
X733050Y464950D02*
X733100Y464900D01*
X733050Y426450D02*
Y464950D01*
X418846Y570992D02*
X432308Y584454D01*
X418846Y551942D02*
Y570992D01*
X305816Y438912D02*
X418846Y551942D01*
X239312Y438912D02*
X305816D01*
X134450Y334050D02*
X239312Y438912D01*
X271780Y397256D02*
X450850Y576326D01*
X223056Y397256D02*
X271780D01*
X159850Y334050D02*
X223056Y397256D01*
X1360170Y658622D02*
X1385570D01*
X1388364Y661416D01*
Y683514D01*
X1398270Y693420D01*
X210650Y334050D02*
X342182Y465582D01*
X356362D01*
X450850Y560070D01*
X995680Y22860D02*
X1003808Y30988D01*
Y82550D01*
X1006348Y85090D01*
X1223010D01*
X261450Y334050D02*
X375780Y448380D01*
X286850Y334050D02*
Y357208D01*
X369824Y440182D01*
X386842D01*
X347980Y357378D02*
X404622D01*
X312166Y321564D02*
X347980Y357378D01*
X274364Y321564D02*
X312166D01*
X261450Y308650D02*
X274364Y321564D01*
X469900Y853440D02*
X568452Y951992D01*
X613156D01*
X1280160Y427482D02*
X1285494Y432816D01*
X1280160Y181610D02*
Y427482D01*
X1276350Y177800D02*
X1280160Y181610D01*
X974090Y177800D02*
X1276350D01*
X970280Y173990D02*
X974090Y177800D01*
X970280Y48260D02*
Y173990D01*
X1050290Y625856D02*
X1080770D01*
X899160Y474726D02*
X1050290Y625856D01*
X853694Y474726D02*
X899160D01*
X850392Y478028D02*
X853694Y474726D01*
X846836Y478028D02*
X850392D01*
X841756Y483108D02*
X846836Y478028D01*
X808990Y483108D02*
X841756D01*
X805941Y480059D02*
X808990Y483108D01*
X900938Y470916D02*
X1004824Y574802D01*
X1027938Y678688D02*
X1042670Y693420D01*
X1006348Y678688D02*
X1027938D01*
X851662Y524002D02*
X1006348Y678688D01*
X851662Y515979D02*
Y524002D01*
X786150Y666250D02*
X802894Y649506D01*
Y542544D02*
Y649506D01*
X1141666Y533270D02*
X1212215D01*
X1239574Y560629D01*
Y561340D01*
X1340612Y662378D01*
Y668020D02*
X1347470D01*
X1234694Y594614D02*
X1247140Y607060D01*
X1234694Y579882D02*
Y594614D01*
X1203452Y548640D02*
X1234694Y579882D01*
X1112324Y548640D02*
X1203452D01*
X1014984Y451300D02*
X1112324Y548640D01*
X786130Y461518D02*
Y519938D01*
Y461518D02*
X838962Y408686D01*
X1085342Y701548D02*
X1093470Y693420D01*
X1038606Y701548D02*
X1085342D01*
X1022350Y685292D02*
X1038606Y701548D01*
X1010920Y685292D02*
X1022350D01*
X832612Y506984D02*
X1010920Y685292D01*
X1296670Y635000D02*
Y668020D01*
X1258570Y596900D02*
X1296670Y635000D01*
X1243330Y596900D02*
X1258570D01*
X1236980Y590550D02*
X1243330Y596900D01*
X1236980Y578866D02*
Y590550D01*
X1205484Y547370D02*
X1236980Y578866D01*
X1116584Y547370D02*
X1205484D01*
X1100074Y530860D02*
X1116584Y547370D01*
X1100074Y493460D02*
Y530860D01*
X1089914Y483300D02*
X1100074Y493460D01*
X711200Y389382D02*
X828294D01*
X844550Y405638D01*
Y413258D01*
X825500Y432308D02*
X844550Y413258D01*
X825500Y432308D02*
Y456946D01*
X821690Y460756D02*
X825500Y456946D01*
X799592Y460756D02*
X821690D01*
X796798Y463550D02*
X799592Y460756D01*
X796798Y463550D02*
Y488950D01*
X826516Y497586D02*
Y521970D01*
X840994Y536448D01*
Y557530D01*
X905002Y661208D02*
Y679450D01*
X902462Y552958D02*
Y571500D01*
X988060Y657098D01*
X1106170D01*
X1110234Y661162D01*
Y684784D01*
X1118870Y693420D01*
X1209930Y383286D02*
X1274572Y447928D01*
X1089914Y383286D02*
X1209930D01*
X753618Y46990D02*
X1089914Y383286D01*
X553720Y46990D02*
X753618D01*
X1204468Y626618D02*
X1245870Y668020D01*
X1204468Y600710D02*
Y626618D01*
X1200912Y597154D02*
X1204468Y600710D01*
X1123950Y597154D02*
X1200912D01*
X1123696Y618998D02*
X1184402D01*
X1120140Y615442D02*
X1123696Y618998D01*
X1120140Y599694D02*
Y615442D01*
X1065784Y545338D02*
X1120140Y599694D01*
X1089152Y555300D02*
X1135944D01*
X1175004Y594360D01*
X1209040D01*
X1221740Y607060D01*
X1322070Y646938D02*
Y668020D01*
X1265682Y590550D02*
X1322070Y646938D01*
X1241552Y590550D02*
X1265682D01*
X1238558Y587556D02*
X1241552Y590550D01*
X1238558Y562664D02*
Y587556D01*
X1221228Y545334D02*
X1238558Y562664D01*
X1144458Y545334D02*
X1221228D01*
X984064Y459300D02*
X1126236Y601472D01*
X1184910D01*
X1187704Y604266D01*
Y660654D01*
X1195070Y668020D01*
X1097788Y596138D02*
X1169670Y668020D01*
X1030986Y596138D02*
X1097788D01*
X977138Y542290D02*
X1030986Y596138D01*
X977138Y467300D02*
Y542290D01*
X573278Y120142D02*
X845834Y392698D01*
X207772Y120142D02*
X573278D01*
X130810Y43180D02*
X207772Y120142D01*
X713486Y394970D02*
Y452760D01*
X644398Y325882D02*
X713486Y394970D01*
X507282Y325882D02*
X644398D01*
X490050Y308650D02*
X507282Y325882D01*
X571754Y402082D02*
X671576D01*
X486918Y317246D02*
X571754Y402082D01*
X447846Y317246D02*
X486918D01*
X439250Y308650D02*
X447846Y317246D01*
X500634Y450850D02*
X630174D01*
X648716Y432308D01*
X694690D01*
X697484Y435102D01*
Y442214D01*
X337650Y308650D02*
X345818Y300482D01*
X418846D01*
X466344Y347980D01*
X496062D01*
X569976Y421894D01*
X700532D01*
X312250Y308650D02*
X325418Y321818D01*
X413766D01*
X441706Y349758D01*
X485648D01*
X561594Y425704D01*
X740416Y476760D02*
X741430Y477774D01*
X429262Y476760D02*
X740416D01*
X299466Y346964D02*
X429262Y476760D01*
X299466Y328930D02*
Y346964D01*
X296164Y325628D02*
X299466Y328930D01*
X253028Y325628D02*
X296164D01*
X236050Y308650D02*
X253028Y325628D01*
X909828Y394208D02*
X1098626D01*
X839470Y464566D02*
X909828Y394208D01*
X1356614Y677164D02*
X1372870Y693420D01*
X1356614Y657098D02*
Y677164D01*
X1206246Y506730D02*
X1356614Y657098D01*
X1189802Y507680D02*
X1206246Y506730D01*
X1187450Y507680D02*
X1189802D01*
X1184148Y504378D02*
X1187450Y507680D01*
X1184148Y493776D02*
Y504378D01*
Y493776D02*
X1186942Y490982D01*
X1189736D01*
X1194562Y495808D01*
X185250Y334050D02*
X193418Y325882D01*
X220472D01*
X223520Y328930D01*
Y339090D01*
X226568Y342138D01*
X242062D01*
X453390Y553466D01*
Y568380D01*
X312250Y334050D02*
X410580Y432380D01*
X504180Y424380D02*
X547370D01*
X413850Y334050D02*
X504180Y424380D01*
X1277366Y458214D02*
Y482092D01*
Y458214D02*
X1279652Y455928D01*
Y450848D02*
Y455928D01*
X1277366Y448562D02*
X1279652Y450848D01*
X1277366Y423418D02*
Y448562D01*
X1220978Y367030D02*
X1277366Y423418D01*
X1123442Y367030D02*
X1220978D01*
X1120902Y364490D02*
X1123442Y367030D01*
X1120902Y332232D02*
Y364490D01*
X822960Y34290D02*
X1120902Y332232D01*
X1340612Y662378D02*
Y668020D01*
X1185418Y525272D02*
X1189228Y521462D01*
Y519430D02*
Y521462D01*
X562102Y425196D02*
X694436D01*
X561594Y425704D02*
X562102Y425196D01*
X799592Y514096D02*
X801370Y515874D01*
Y541020D01*
X802894Y542544D01*
D28*
X678942Y522986D02*
X743204Y587248D01*
X682244Y536194D02*
X691642D01*
X798322Y735076D02*
X825754Y707644D01*
Y647192D02*
Y707644D01*
X602996Y735076D02*
X798322D01*
X743204Y587248D02*
X783082D01*
X804050Y448694D02*
X805310D01*
X813308Y456692D01*
X429514Y522986D02*
X678942D01*
X248666Y342138D02*
X429514Y522986D01*
X248666Y326390D02*
Y342138D01*
X245872Y323596D02*
X248666Y326390D01*
X107484Y323596D02*
X245872D01*
X57700Y273812D02*
X107484Y323596D01*
X733430Y536570D02*
X741685Y544825D01*
X741680Y544830D02*
X741685Y544825D01*
X741680Y544830D02*
X751840D01*
D29*
X747522Y824992D02*
X883920Y961390D01*
X649732Y824992D02*
X747522D01*
X631190Y806450D02*
X649732Y824992D01*
D32*
X134450Y334050D02*
D03*
X159850D02*
D03*
X185250D02*
D03*
X210650D02*
D03*
X236050Y308650D02*
D03*
X261450D02*
D03*
Y334050D02*
D03*
X286850D02*
D03*
X312250Y308650D02*
D03*
Y334050D02*
D03*
X337650Y308650D02*
D03*
X413850Y334050D02*
D03*
X439250Y308650D02*
D03*
X490050D02*
D03*
X553720Y46990D02*
D03*
X970280Y48260D02*
D03*
X995680Y22860D02*
D03*
X883920Y961390D02*
D03*
X1221740Y607060D02*
D03*
X786150Y666250D02*
D03*
X1017270Y693420D02*
D03*
X1042670D02*
D03*
X1093470D02*
D03*
X1118870D02*
D03*
X1169670Y668020D02*
D03*
X1195070D02*
D03*
X1245870D02*
D03*
X1296670D02*
D03*
X1322070D02*
D03*
X1347470D02*
D03*
X1372870Y693420D02*
D03*
X1398270D02*
D03*
D35*
X822960Y34290D02*
D03*
X469900Y853440D02*
D03*
D36*
X1223010Y85090D02*
D03*
D40*
X1046298Y983844D02*
D03*
X991798Y983844D02*
D03*
D42*
X682244Y536194D02*
D03*
X825754Y647192D02*
D03*
X602996Y735076D02*
D03*
X783082Y587248D02*
D03*
X615442Y293116D02*
D03*
X399288Y349504D02*
D03*
X602742Y394462D02*
D03*
X765950Y545090D02*
D03*
X804050Y448694D02*
D03*
X733430Y536570D02*
D03*
X813308Y456692D02*
D03*
X613156Y951992D02*
D03*
X1285494Y432816D02*
D03*
X57700Y273812D02*
D03*
X705612Y394716D02*
D03*
X547370Y424380D02*
D03*
X751840Y544830D02*
D03*
D43*
X750570Y578866D02*
D03*
X773430Y424180D02*
D03*
X1344168Y850646D02*
D03*
X862076Y496062D02*
D03*
X760984Y578612D02*
D03*
X781812Y464952D02*
D03*
X783336Y721106D02*
D03*
X781812Y481076D02*
D03*
X828040Y488442D02*
D03*
X813308Y489712D02*
D03*
X1012698Y546862D02*
D03*
X1104392Y508508D02*
D03*
X1252728Y455676D02*
D03*
X1230376Y495554D02*
D03*
X1281938Y499364D02*
D03*
X1182878Y523494D02*
D03*
X1123442Y515112D02*
D03*
X1011174Y467106D02*
D03*
X798068Y494538D02*
D03*
X688340Y419862D02*
D03*
X664972Y434594D02*
D03*
X710438Y454533D02*
D03*
X724916Y465582D02*
D03*
X799084Y482092D02*
D03*
X851020Y470662D02*
D03*
X837946Y492506D02*
D03*
X844042Y559562D02*
D03*
X884428Y563372D02*
D03*
X821182Y548386D02*
D03*
X708860Y440000D02*
D03*
X733100Y464900D02*
D03*
X733050Y426450D02*
D03*
X432308Y584454D02*
D03*
X450850Y576326D02*
D03*
Y560070D02*
D03*
X375780Y448380D02*
D03*
X386842Y440182D02*
D03*
X733552Y473964D02*
D03*
X1186688Y496658D02*
D03*
X1080770Y625856D02*
D03*
X805941Y480059D02*
D03*
X1004824Y574802D02*
D03*
X1014984Y451300D02*
D03*
X838962Y408686D02*
D03*
X1089914Y483300D02*
D03*
X1274572Y447928D02*
D03*
X1184402Y618998D02*
D03*
X1089152Y555300D02*
D03*
X984064Y459300D02*
D03*
X977138Y467300D02*
D03*
X717550Y472694D02*
D03*
X741430Y477774D02*
D03*
X839470Y464566D02*
D03*
X1194562Y495808D02*
D03*
X453390Y568380D02*
D03*
X410580Y432380D02*
D03*
X1189228Y519430D02*
D03*
X694436Y425196D02*
D03*
M02*
