G04 Layer_Physical_Order=2*
G04 Layer_Color=36540*
%FSLAX44Y44*%
%MOMM*%
G71*
G01*
G75*
%ADD12R,1.5000X1.5000*%
%ADD27C,0.2032*%
%ADD28C,0.1016*%
%ADD29O,0.7000X1.2000*%
%ADD31R,1.5000X1.5000*%
%ADD32C,1.5000*%
%ADD34C,3.3000*%
%ADD35C,1.1500*%
%ADD36O,1.3400X1.3500*%
%ADD39C,0.4064*%
%ADD40C,0.2540*%
G36*
X998298Y963044D02*
X980048D01*
Y970044D01*
X985298D01*
Y994544D01*
X998298D01*
Y963044D01*
D02*
G37*
G36*
X1052798Y970044D02*
X1058048D01*
Y963044D01*
X1039798D01*
Y994544D01*
X1052798D01*
Y970044D01*
D02*
G37*
D12*
X944880Y22860D02*
D03*
X528320Y46990D02*
D03*
X134450Y308650D02*
D03*
X1129030Y311150D02*
D03*
D27*
X722126Y515874D02*
X733430Y504570D01*
X690626Y515874D02*
X722126D01*
X689864Y516636D02*
X690626Y515874D01*
X542798Y506984D02*
X709168D01*
X469900Y963930D02*
X638100D01*
X1370330Y969010D02*
X1383030Y956310D01*
X1170940Y969010D02*
X1370330D01*
X1164590Y962660D02*
X1170940Y969010D01*
X1145794Y943864D02*
X1164590Y962660D01*
X901446Y943864D02*
X1145794D01*
X883920Y961390D02*
X901446Y943864D01*
X730504Y57150D02*
X745110Y42544D01*
X538480Y57150D02*
X730504D01*
X528320Y46990D02*
X538480Y57150D01*
X689864Y516636D02*
Y518922D01*
D28*
X761492Y547878D02*
X776478Y562864D01*
X456184Y547878D02*
X761492D01*
X454914Y549148D02*
X456184Y547878D01*
X848614Y473456D02*
X853440D01*
X846836Y471678D02*
X848614Y473456D01*
X813816Y519684D02*
X819150D01*
X956818Y571246D02*
X967486Y581914D01*
X956818Y571246D02*
Y574040D01*
X958088Y575310D01*
Y640334D01*
X506750Y691650D02*
X519458Y678942D01*
X972058D01*
X837438Y474980D02*
X837692Y474726D01*
X1211834Y457074D02*
Y457454D01*
X1207388Y452628D02*
X1211834Y457074D01*
X1242568Y451992D02*
Y452945D01*
X1205358Y414782D02*
X1242568Y451992D01*
X721360Y465836D02*
X723268Y467744D01*
X707644Y465836D02*
X721360D01*
X705736Y467744D02*
X707644Y465836D01*
X723268Y467744D02*
X816604D01*
X700538D02*
X705736D01*
X262694Y457650D02*
X265684Y454660D01*
X15150Y457650D02*
X262694D01*
X8750Y451250D02*
X15150Y457650D01*
X8750Y432750D02*
Y451250D01*
X49342Y432750D02*
X51562Y430530D01*
X8750Y432750D02*
X49342D01*
X7650Y540034D02*
X13716Y546100D01*
X7650Y431650D02*
Y540034D01*
Y431650D02*
X28550D01*
X43500Y416700D01*
X1205356Y450596D02*
X1207388Y452628D01*
X1210564D01*
X1192530D02*
X1207388D01*
X1170686Y430784D02*
X1172464D01*
X954024D02*
X1170686D01*
X949452D02*
X954024D01*
X940308Y439928D02*
X944880D01*
X1155788Y496658D02*
X1186688D01*
X953008Y14732D02*
X1223010D01*
X305562Y472948D02*
X313690Y464820D01*
X305562Y472948D02*
Y493776D01*
X321818Y510032D01*
Y527050D01*
X319024Y529844D02*
X321818Y527050D01*
X309626Y529844D02*
X319024D01*
X305682Y533788D02*
X309626Y529844D01*
X305682Y533788D02*
Y544696D01*
X310134Y549148D01*
X454914D01*
X852678Y511810D02*
X1147699D01*
X886460Y420370D02*
X890524Y416306D01*
X886460Y420370D02*
Y433070D01*
X625856Y296926D02*
X1041146D01*
X1051560Y307340D01*
X721360Y320040D02*
X1013460D01*
X1026160Y307340D01*
X825500Y530606D02*
Y557530D01*
X832866Y564896D01*
Y570230D01*
X829564Y573532D02*
X832866Y570230D01*
X599468Y573532D02*
X829564D01*
X1177998Y423110D02*
X1202690Y447802D01*
X947366Y423110D02*
X1177998D01*
X945896Y652526D02*
X958088Y640334D01*
X545874Y652526D02*
X945896D01*
X532150Y666250D02*
X545874Y652526D01*
X858700Y565840D02*
X922664D01*
X928124Y560380D01*
X1134495D01*
X557550Y666250D02*
X565686Y658114D01*
X807466D01*
X939038Y544068D02*
X1276604D01*
X1278382Y542290D01*
Y508635D02*
Y542290D01*
X938276Y542036D02*
X1268984D01*
X1277112Y533908D01*
Y496062D02*
Y533908D01*
X1273810Y492760D02*
X1277112Y496062D01*
X1263904Y492760D02*
X1273810D01*
X1260094Y488950D02*
X1263904Y492760D01*
X1258570Y466598D02*
X1283462D01*
X1254760Y470408D02*
X1258570Y466598D01*
X1254760Y470408D02*
Y505460D01*
X1238250Y521970D02*
X1254760Y505460D01*
X1208278Y521970D02*
X1238250D01*
X1205230Y525018D02*
X1208278Y521970D01*
X1188466Y525018D02*
X1205230D01*
X1180338Y516890D02*
X1188466Y525018D01*
X1148334Y516890D02*
X1180338D01*
X854456Y517906D02*
X1148334Y516890D01*
X845566Y519176D02*
X854456Y517906D01*
X833882Y507492D02*
X845566Y519176D01*
X813308Y507492D02*
X833882D01*
X810514Y504698D02*
X813308Y507492D01*
X1244024Y535490D02*
X1274572Y504942D01*
X990488Y674258D02*
X996950Y680720D01*
X844958Y674258D02*
X990488D01*
X836950Y666250D02*
X844958Y674258D01*
X930910Y533400D02*
X1067568D01*
X1072648Y533840D01*
X1198880Y533400D01*
X1204373Y527906D01*
X1242728D01*
X856742Y520446D02*
X1103122D01*
X1184973Y490791D02*
X1195324Y501650D01*
X1157987Y490791D02*
X1184973D01*
X1156208Y492570D02*
X1157987Y490791D01*
X889000Y477266D02*
X892556Y480822D01*
X853440Y473456D02*
X1065530Y472694D01*
X1067181Y474345D01*
X1090803D01*
X1100328Y483870D01*
X1215386D01*
X1226562Y495046D01*
X134450Y308650D02*
X142618Y300482D01*
X606298D01*
X385572Y446024D02*
X505714D01*
X383032Y443484D02*
X385572Y446024D01*
X288798Y443484D02*
X383032D01*
X468122Y437896D02*
X657860D01*
X910336Y372364D02*
X949960Y332740D01*
X955040Y378460D02*
X1000760Y332740D01*
X709422Y352298D02*
X918584D01*
X946150Y324732D01*
X956684D01*
X960120Y328168D01*
Y337058D01*
X963930Y340868D01*
X979170D01*
X995680Y324358D01*
X1166622D01*
X1179830Y311150D01*
X1297940Y232410D02*
X1371600Y306070D01*
X13716Y546100D02*
X134620D01*
X146050Y557530D01*
X588264D01*
X591566Y554228D01*
X786130Y568452D02*
X794766D01*
X796290Y569976D01*
X828024D01*
X892302Y699770D02*
X900430Y691642D01*
X540270Y699770D02*
X892302D01*
X532150Y691650D02*
X540270Y699770D01*
X1184402Y618998D02*
X1196340Y607060D01*
X1280136Y20090D02*
X1326010D01*
X1268476Y31750D02*
X1280136Y20090D01*
X1080770Y31750D02*
X1268476D01*
X1071880Y22860D02*
X1080770Y31750D01*
X386053Y443484D02*
X720356D01*
X742708Y421132D01*
X43500Y391300D02*
X51562Y399362D01*
Y430530D01*
X265684Y454660D02*
X321056D01*
X350520Y484124D01*
X530098D01*
X544830Y498856D01*
X797560D01*
X860806Y805434D02*
X873760Y792480D01*
X721408Y805434D02*
X860806D01*
X665988Y438658D02*
X677438D01*
X703092Y413004D01*
X709422D01*
X920242Y549910D02*
X1280922D01*
X769112Y436372D02*
X907288D01*
X1182116Y444500D02*
X1193546Y455930D01*
X776986Y444500D02*
X1182116D01*
X703072Y462534D02*
X704088Y463550D01*
X662305Y462534D02*
X703072D01*
X657987Y466852D02*
X662305Y462534D01*
X484886Y466852D02*
X657987D01*
X469392Y451358D02*
X484886Y466852D01*
X224536Y451358D02*
X469392D01*
X219456Y456438D02*
X224536Y451358D01*
X32438Y456438D02*
X219456D01*
X18100Y442100D02*
X32438Y456438D01*
X1202690Y522478D02*
X1205230Y519938D01*
Y485059D02*
Y519938D01*
X1061532Y479110D02*
X1090234D01*
X875538Y414782D02*
X1205358D01*
X1268984Y408686D02*
X1346200Y331470D01*
X838962Y408686D02*
X1268984D01*
X508254Y455422D02*
X689356D01*
X501396Y448564D02*
X508254Y455422D01*
X383794Y448564D02*
X501396D01*
X380238Y445008D02*
X383794Y448564D01*
X339852Y445008D02*
X380238D01*
X338836Y446024D02*
X339852Y445008D01*
X178054Y446024D02*
X338836D01*
X313690Y541020D02*
X766572D01*
X767334Y541782D01*
X1170686Y430784D02*
X1192530Y452628D01*
X944880Y439928D02*
X954024Y430784D01*
X819686Y658114D02*
X1257554D01*
X811550Y666250D02*
X819686Y658114D01*
X836414Y467106D02*
X852170D01*
X854964Y469900D01*
X1144270D01*
X1146810Y467360D01*
X1174242D01*
X1189228Y482346D01*
X1217168D01*
X1248666Y450848D01*
X1282446D01*
X1189482Y574802D02*
X1196340Y581660D01*
X1004824Y574802D02*
X1189482D01*
X92710Y555752D02*
X100584Y563626D01*
X743204D01*
X748030Y568452D01*
X86540Y408940D02*
X623316D01*
X43500Y365900D02*
X86540Y408940D01*
X833293Y405130D02*
X1151890D01*
X1154430Y336550D02*
Y344932D01*
X1110742Y388620D02*
X1154430Y344932D01*
X943864Y708660D02*
X967232Y685292D01*
X605536Y708660D02*
X943864D01*
X523240Y790956D02*
X605536Y708660D01*
X65024Y790956D02*
X523240D01*
X55880Y800100D02*
X65024Y790956D01*
X1159002Y446786D02*
X1192022Y479806D01*
X989330Y446786D02*
X1159002D01*
X788162Y943102D02*
X796290Y951230D01*
X701294Y943102D02*
X788162D01*
X676910Y918718D02*
X701294Y943102D01*
X628142Y918718D02*
X676910D01*
X758698Y951230D02*
X770890D01*
X756412Y953516D02*
X758698Y951230D01*
X632244Y953516D02*
X756412D01*
X623100Y944372D02*
X632244Y953516D01*
X1098042Y593598D02*
X1138174Y633730D01*
X1363980D01*
X1398270Y668020D01*
X547370Y488442D02*
X567814Y467998D01*
X694566D01*
X695712Y466852D01*
X699646D01*
X700538Y467744D01*
X816604D02*
X822322Y462026D01*
X912876D01*
X1262380Y306070D02*
X1295400D01*
X1201420Y245110D02*
X1262380Y306070D01*
X1278128Y263398D02*
X1320800Y306070D01*
X1253744Y263398D02*
X1278128D01*
X1159256Y168910D02*
X1253744Y263398D01*
X838200Y802640D02*
X848360Y792480D01*
X706812Y802640D02*
X838200D01*
X598100Y911352D02*
X706812Y802640D01*
X159850Y308650D02*
X168192Y316992D01*
X605536D01*
X675894Y387350D01*
X313690Y490220D02*
X324040Y500570D01*
X792141D01*
X793496Y501925D01*
Y556768D01*
X797306Y560578D01*
X307206Y554990D02*
X568452D01*
X574040Y549402D01*
X753872D01*
X388450Y334050D02*
X396240D01*
X435062Y372872D01*
X561594D01*
X521208Y286766D02*
X1104646D01*
X1129030Y311150D01*
X1192276Y450596D02*
X1205356D01*
X1172464Y430784D02*
X1192276Y450596D01*
X940308Y439928D02*
X949452Y430784D01*
X837946Y515874D02*
X846328Y524256D01*
X898398D01*
X900818Y521836D01*
X1014096D01*
X1018734Y526474D01*
X1185350D01*
X1186688Y527812D01*
X1152716Y493586D02*
X1155788Y496658D01*
X846326Y493586D02*
X1152716D01*
X830408Y477668D02*
X846326Y493586D01*
X1198626Y490982D02*
X1202182Y487426D01*
X1186815Y490982D02*
X1198626D01*
X1185291Y489458D02*
X1186815Y490982D01*
X1061212Y489458D02*
X1185291D01*
X1059180Y487426D02*
X1061212Y489458D01*
X938550Y666250D02*
X987560D01*
X998474Y677164D01*
X1147826D01*
X1002030Y701802D02*
X1237742D01*
X1167384Y508762D02*
X1187196D01*
X1165606Y510540D02*
X1167384Y508762D01*
X1161796Y510540D02*
X1165606D01*
X1160018Y508762D02*
X1161796Y510540D01*
X1111758Y508762D02*
X1160018D01*
X1109980Y510540D02*
X1111758Y508762D01*
X839470Y510540D02*
X1109980D01*
X561086Y576326D02*
X955548D01*
X494030Y643382D02*
X561086Y576326D01*
X494030Y643382D02*
Y678970D01*
X481350Y691650D02*
X494030Y678970D01*
X970280Y22860D02*
X987672Y40252D01*
Y52070D01*
X991870Y56268D01*
X1214832D01*
X1223010Y48090D01*
X1270134Y85090D02*
X1326010D01*
X1224788Y39744D02*
X1270134Y85090D01*
X1037964Y39744D02*
X1224788D01*
X1021080Y22860D02*
X1037964Y39744D01*
X1223010Y14732D02*
Y20090D01*
X944880Y22860D02*
X953008Y14732D01*
X86160Y928570D02*
X188160D01*
X265230D02*
X367230D01*
X606298Y300482D02*
X732266Y426450D01*
X733050D01*
X767334Y541782D02*
X773832D01*
X797306Y565256D01*
Y567300D01*
X828400Y537600D02*
X832092Y533908D01*
X825500Y530606D02*
X829006Y527100D01*
X591566Y554228D02*
X706628D01*
X710184Y557784D01*
X755650D01*
X776478Y562864D02*
X781304D01*
X773176Y568706D02*
X776478D01*
X753872Y549402D02*
X773176Y568706D01*
X755650Y557784D02*
X769620Y571754D01*
X782828D01*
X786130Y568452D01*
X821182Y548132D02*
Y548386D01*
X884428Y563372D02*
X888492D01*
X801370Y502150D02*
Y516382D01*
X803402Y518414D01*
Y520700D01*
X812546Y539496D02*
X821182Y548132D01*
X837692Y474726D02*
X1057148D01*
X1061532Y479110D01*
X968248Y467868D02*
X989330Y446786D01*
X878332Y467868D02*
X968248D01*
X1154620Y490982D02*
X1156208Y492570D01*
X854202Y490982D02*
X1154620D01*
X839470Y480822D02*
X840740Y479552D01*
X884682Y481584D02*
X889000Y477266D01*
X848106Y481584D02*
X884682D01*
X840740Y479552D02*
X843026D01*
X850900Y487426D01*
X1059180D01*
X690626Y456692D02*
X724154D01*
X689356Y455422D02*
X690626Y456692D01*
X505714Y446024D02*
X513842Y454152D01*
X706882D01*
X708406Y452628D01*
X717550D01*
X665226Y398018D02*
X675894Y387350D01*
X665226Y398018D02*
Y434340D01*
X664972Y434594D02*
X665226Y434340D01*
X657860Y437896D02*
X661416Y441452D01*
X690880D01*
X692912Y439420D01*
X797560Y498856D02*
X799846Y501142D01*
Y544322D01*
X850392Y531876D02*
X899668D01*
X849630Y538734D02*
X853934D01*
X847918Y516570D02*
X852678Y511810D01*
X847090Y516570D02*
X847918D01*
X853934Y538734D02*
X857236Y542036D01*
X918852D01*
X922916Y537972D01*
X1253164D01*
X1254630Y536506D01*
X899668Y531876D02*
X901700Y529844D01*
X918718Y540258D02*
X923486Y535490D01*
X1244024D01*
X832092Y533908D02*
X898398D01*
X904748Y540258D01*
X918718D01*
X557550Y691650D02*
X567210Y681990D01*
X976630D01*
X786150Y666250D02*
X795540Y675640D01*
X975868D01*
X1002030Y701802D01*
X1090234Y479110D02*
X1096183Y485059D01*
X1205230D01*
X1160018Y504698D02*
X1163066Y507746D01*
X1165352D01*
X1170432Y540004D02*
X1181862D01*
X1069848Y488188D02*
X1197356D01*
X1181608Y505460D02*
X1191514D01*
X1195324Y501650D01*
X844296Y503428D02*
X1188212D01*
X837438Y496570D02*
X844296Y503428D01*
X1187196Y508762D02*
X1191768Y513334D01*
X1194054D01*
X1106678Y524002D02*
X1177290D01*
X1103122Y520446D02*
X1106678Y524002D01*
X1194820Y522478D02*
X1202690D01*
X1193804Y521462D02*
X1194820Y522478D01*
X1182370Y530860D02*
X1191768D01*
X1280160Y472948D02*
X1284224Y477012D01*
Y546608D01*
X1280922Y549910D02*
X1284224Y546608D01*
X1274064Y504434D02*
X1274572Y504942D01*
X1274064Y497840D02*
Y504434D01*
X1242728Y527906D02*
X1266190Y504444D01*
X1278382Y508635D02*
X1279906Y507111D01*
Y478410D02*
Y507111D01*
X303276Y526034D02*
X313690Y515620D01*
X303276Y526034D02*
Y551060D01*
X307206Y554990D01*
X90884Y293116D02*
X615442D01*
X43500Y340500D02*
X90884Y293116D01*
X890524Y416306D02*
X892048Y417830D01*
X1169670D01*
X847598Y506730D02*
X849630Y504698D01*
X1160018D01*
X967486Y581914D02*
X1044702D01*
X1138428Y649732D02*
X1354582D01*
X1372870Y668020D01*
X996950Y680720D02*
X1226566D01*
X1046480Y22860D02*
X1061466Y37846D01*
X1315766D01*
X1326010Y48090D01*
X844296Y323342D02*
X965962D01*
X975360Y332740D01*
X824738Y342900D02*
X844296Y323342D01*
X820674Y342900D02*
X824738D01*
X907796Y369824D02*
X910336Y372364D01*
X848614Y369824D02*
X907796D01*
X954786Y378206D02*
X955040Y378460D01*
X835660Y378206D02*
X954786D01*
X1110488Y388366D02*
X1110742Y388620D01*
X844550Y388366D02*
X1110488D01*
X899160Y420624D02*
X944880D01*
X947366Y423110D01*
X845566Y439928D02*
X847344Y438150D01*
X847598Y438404D01*
X893318D01*
X895096Y440182D01*
X936498D01*
X936752Y439928D02*
X940308D01*
X936498Y440182D02*
X936752Y439928D01*
X300990Y419354D02*
X646684D01*
X665988Y438658D01*
X43500Y442100D02*
X45164Y440436D01*
X383005D01*
X386053Y443484D01*
X548132Y460756D02*
X744728D01*
X769112Y436372D01*
X704088Y463550D02*
X724662D01*
X726186Y462026D01*
X759460D01*
X776986Y444500D01*
X892556Y480822D02*
X1062482D01*
X1069848Y488188D01*
X1226562Y495046D02*
Y511802D01*
X936752Y543560D02*
X938276Y542036D01*
X847344Y543560D02*
X936752D01*
X937514Y545592D02*
X939038Y544068D01*
X857504Y545592D02*
X937514D01*
X851916Y551180D02*
X857504Y545592D01*
X838962Y551180D02*
X851916D01*
X812546Y520954D02*
X813816Y519684D01*
X812546Y520954D02*
Y539496D01*
X808228Y495292D02*
X813316D01*
X817618Y490990D01*
Y485902D02*
Y490990D01*
X801370Y502150D02*
X808228Y495292D01*
X817618Y485902D02*
X836414Y467106D01*
X836422Y504698D02*
Y507492D01*
X839470Y510540D01*
X760984Y578612D02*
X889762D01*
X949706Y638556D01*
X750570Y578866D02*
Y589280D01*
X797814Y636524D01*
X918210D01*
X888492Y563372D02*
X904240Y547624D01*
X917956D01*
X920242Y549910D01*
D29*
X991798Y983844D02*
D03*
X1046298Y983844D02*
D03*
D31*
X18100Y442100D02*
D03*
X313690Y464820D02*
D03*
D32*
X43500Y340500D02*
D03*
Y365900D02*
D03*
Y391300D02*
D03*
Y416700D02*
D03*
Y442100D02*
D03*
X1398270Y668020D02*
D03*
X1372870D02*
D03*
X938550Y666250D02*
D03*
X836950D02*
D03*
X811550D02*
D03*
X786150D02*
D03*
X557550Y691650D02*
D03*
Y666250D02*
D03*
X532150Y691650D02*
D03*
Y666250D02*
D03*
X506750Y691650D02*
D03*
X481350D02*
D03*
X1196340Y607060D02*
D03*
Y581660D02*
D03*
X883920Y961390D02*
D03*
X1383030Y956310D02*
D03*
X1164590Y962660D02*
D03*
X1071880Y22860D02*
D03*
X1046480D02*
D03*
X1021080D02*
D03*
X970280D02*
D03*
X848360Y792480D02*
D03*
X873760D02*
D03*
X796290Y951230D02*
D03*
X770890D02*
D03*
X469900Y963930D02*
D03*
X1051560Y307340D02*
D03*
X1026160D02*
D03*
X1000760Y332740D02*
D03*
X975360D02*
D03*
X949960D02*
D03*
X388450Y334050D02*
D03*
X159850Y308650D02*
D03*
X1154430Y336550D02*
D03*
X1179830Y311150D02*
D03*
X1295400Y306070D02*
D03*
X1320800D02*
D03*
X1346200Y331470D02*
D03*
X1371600Y306070D02*
D03*
X313690Y541020D02*
D03*
Y515620D02*
D03*
Y490220D02*
D03*
X55880Y800100D02*
D03*
D34*
X188160Y928570D02*
D03*
X86160D02*
D03*
X367230D02*
D03*
X265230D02*
D03*
D35*
X1326010Y48090D02*
D03*
X1223010D02*
D03*
D36*
X1326010Y85090D02*
D03*
Y20090D02*
D03*
X1223010D02*
D03*
D39*
X542798Y506984D02*
D03*
X625856Y296926D02*
D03*
X721360Y320040D02*
D03*
X709168Y506984D02*
D03*
X1283462Y466598D02*
D03*
X709422Y352298D02*
D03*
X828024Y569976D02*
D03*
X900430Y691642D02*
D03*
X638100Y963930D02*
D03*
X721408Y805434D02*
D03*
X1280160Y472948D02*
D03*
X1193546Y455930D02*
D03*
X178054Y446024D02*
D03*
X748030Y568452D02*
D03*
X967232Y685292D02*
D03*
X628142Y918718D02*
D03*
X623100Y944372D02*
D03*
X598100Y911352D02*
D03*
X561594Y372872D02*
D03*
X521208Y286766D02*
D03*
X745110Y42544D02*
D03*
X733430Y504570D02*
D03*
X615442Y293116D02*
D03*
X847598Y506730D02*
D03*
X689864Y518922D02*
D03*
D40*
X846836Y471678D02*
D03*
X819150Y519684D02*
D03*
X956818Y571246D02*
D03*
X972058Y678942D02*
D03*
X837438Y474980D02*
D03*
X1211834Y457454D02*
D03*
X1242568Y452945D02*
D03*
X1147699Y511810D02*
D03*
X886460Y433070D02*
D03*
X599468Y573532D02*
D03*
X1202690Y447802D02*
D03*
X858700Y565840D02*
D03*
X1134495Y560380D02*
D03*
X807466Y658114D02*
D03*
X1260094Y488950D02*
D03*
X810514Y504698D02*
D03*
X856742Y520446D02*
D03*
X837438Y496570D02*
D03*
X717550Y452628D02*
D03*
X288798Y443484D02*
D03*
X468122Y437896D02*
D03*
X1297940Y232410D02*
D03*
X1184402Y618998D02*
D03*
X742708Y421132D02*
D03*
X709422Y413004D02*
D03*
X907288Y436372D02*
D03*
X875538Y414782D02*
D03*
X838962Y408686D02*
D03*
X797306Y567300D02*
D03*
X1210564Y452628D02*
D03*
X845566Y439928D02*
D03*
X1257554Y658114D02*
D03*
X1282446Y450848D02*
D03*
X1004824Y574802D02*
D03*
X92710Y555752D02*
D03*
X623316Y408940D02*
D03*
X833293Y405130D02*
D03*
X1151890D02*
D03*
X1192022Y479806D02*
D03*
X1098042Y593598D02*
D03*
X547370Y488442D02*
D03*
X912876Y462026D02*
D03*
X1201420Y245110D02*
D03*
X1159256Y168910D02*
D03*
X797306Y560578D02*
D03*
X837946Y515874D02*
D03*
X1186688Y527812D02*
D03*
X1254630Y536506D02*
D03*
X1186688Y496658D02*
D03*
X830408Y477668D02*
D03*
X1202182Y487426D02*
D03*
X1147826Y677164D02*
D03*
X1237742Y701802D02*
D03*
X955548Y576326D02*
D03*
X733050Y426450D02*
D03*
X828400Y537600D02*
D03*
X829006Y527100D02*
D03*
X781304Y562864D02*
D03*
X776478Y568706D02*
D03*
X799846Y544322D02*
D03*
X821182Y548386D02*
D03*
X884428Y563372D02*
D03*
X803402Y520700D02*
D03*
X878332Y467868D02*
D03*
X854202Y490982D02*
D03*
X839470Y480822D02*
D03*
X848106Y481584D02*
D03*
X724154Y456692D02*
D03*
X692912Y439420D02*
D03*
X664972Y434594D02*
D03*
X850392Y531876D02*
D03*
X849630Y538734D02*
D03*
X847344Y543560D02*
D03*
X847090Y516570D02*
D03*
X930910Y533400D02*
D03*
X901700Y529844D02*
D03*
X976630Y681990D02*
D03*
X1165352Y507746D02*
D03*
X1181862Y540004D02*
D03*
X1170432D02*
D03*
X1197356Y488188D02*
D03*
X1181608Y505460D02*
D03*
X1188212Y503428D02*
D03*
X1194054Y513334D02*
D03*
X1177290Y524002D02*
D03*
X1193804Y521462D02*
D03*
X1191768Y530860D02*
D03*
X1274064Y497840D02*
D03*
X1266190Y504444D02*
D03*
X1279906Y478410D02*
D03*
X1182370Y530860D02*
D03*
X1169670Y417830D02*
D03*
X1044702Y581914D02*
D03*
X1138428Y649732D02*
D03*
X1226566Y680720D02*
D03*
X820674Y342900D02*
D03*
X848614Y369824D02*
D03*
X835660Y378206D02*
D03*
X844550Y388366D02*
D03*
X899160Y420624D02*
D03*
X893318Y438404D02*
D03*
X300990Y419354D02*
D03*
X548132Y460756D02*
D03*
X1226562Y511802D02*
D03*
X838962Y551180D02*
D03*
X836422Y504698D02*
D03*
X760984Y578612D02*
D03*
X949706Y638556D02*
D03*
X750570Y578866D02*
D03*
X918210Y636524D02*
D03*
M02*
