M48
;Layer_Color=9474304
;FILE_FORMAT=4:4
METRIC,LZ
;TYPE=PLATED
T1F00S00C0.1524
T2F00S00C0.2032
T3F00S00C0.5080
T4F00S00C0.8890
T5F00S00C0.9000
T6F00S00C1.0000
T7F00S00C1.2000
T8F00S00C1.3000
T9F00S00C2.0000
;TYPE=NON_PLATED
%
T01
X01159256Y0016891
X0119634Y0015621
X0120142Y0024511
X0129794Y0023241
X01274572Y00439928
Y00447928
X0127711Y0045339
X01282446Y00450848
X01274572Y0046101
X01266698Y00459994
X01269238Y0045593
X0125857Y00461264
X01250696Y00463804
X01243963Y00465203
X01242568Y00452945
X01248664Y00447802
X01252728Y00455676
X01232154Y00455422
X0122695Y0045593
X0122174Y00456184
X0122047Y0046355
X01210818
X01211834Y00457454
X01210564Y00452628
X0120269Y0045593
Y00447802
X01226566
X01218692Y00433324
X0116967Y0041783
X01163828Y00411988
X0115189Y0040513
X0106807Y004113
X0107061Y00420878
X01070792Y004273
X0107061Y00435356
X0108839Y004572
X01097788Y004593
X01094994Y0047498
X01089914Y004833
X01063498Y0047657
X01055308Y004833
X0104267Y00507238
X01042924Y0052324
Y00531114
X0101727Y005313
X0102489Y00515366
X01011174Y00467106
X01014984Y004513
X0102235Y00451358
X00984064Y004593
X00977138Y004673
X0097409Y00447294
X00955294Y00447802
X0095377Y004273
X01104392Y00508508
X0111887Y00498348
X01123442Y00515112
X01123188Y0053086
X01091184Y005233
X01147699Y0051181
X01165352Y00507746
X01166368Y00520192
X0117729Y00524002
X01182878Y00523494
X0118237Y0053086
X01186688Y00527812
X01191768Y0053086
X01198372Y00531368
X0120777Y0053073
X01210564Y0052451
X01200318Y0051987
X01193804Y00521462
X01189228Y0051943
X01186688Y00513842
X01194054Y00513334
X0119463Y0050927
X0120263Y0051187
X0120269Y00495808
X01194562
X01186688Y00496658
X01188212Y00503428
X01181608Y0050546
X01182116Y00481838
X01192022Y00479806
X01197356Y00488188
X01202182Y00487426
X01210628Y00491744
X01230376Y00495554
X01226562Y00511802
X01250696Y00503804
Y00495804
X01250566Y00487934
X01260094Y0048895
X01277112Y0049022
X01274064Y0049784
X01281938Y00499364
X01297304Y00497332
X01313942Y0048387
X01279906Y0047841
X0126619Y00504444
X01274318Y00526796
X009017Y00529844
X00850392Y00531876
X00856742Y00520446
X0084709Y0051657
X00837946Y00515874
X00829056Y00514604
X00830072Y00510032
X0082143Y0051257
X0081343
X0080543
X00803402Y005207
X00814712Y00522224
X00814578Y00526796
X0082169Y0052705
X00829006Y005271
X00824106Y00520954
X0081915Y00519684
X00810514Y00504698
X00804672Y00502666
X00798068Y00494538
X00805434Y00488696
X00813308Y00489712
X0082804Y00488442
X00830408Y00477668
X00837438Y0047498
X0083947Y00480822
X00848106Y00481584
X00846836Y00471678
X0085102Y00470662
X0083947Y00464566
X00837946Y00492506
X00837438Y0049657
X00836422Y00504698
X00854202Y00490982
X00862076Y00496062
X0086741Y00479552
X00878332Y00467868
X00912876Y00462026
X00907288Y00436372
X00893318Y00438404
X0088646Y0043307
X0089916Y00420624
Y004113
X00891286Y00400812
X00875538Y00414782
X00852424Y00432562
X00845566Y00439928
X00838962Y00408686
X00833293Y0040513
X0084455Y00388366
X0083566Y00378206
X00848614Y00369824
X00859536Y00346964
X00820674Y003429
X00789686Y00440182
X007816Y0044875
X00781812Y00464952
Y00481076
X00799084Y00482092
X00805941Y00480059
X00789686Y00517144
X0080543Y00532892
X00757682Y00495938
X00749808Y00491744
X00741426Y00490982
X0074143Y00477774
X00738124Y00480568
X00733552Y00473964
X007331Y004649
X00724916Y00465582
X00724154Y00456692
X0071755Y00452628
X00710438Y00454533
X0070886Y0044
X00692912Y0043942
X00693166Y0044577
X00683514Y00457454
X00701934Y00465074
X00699008Y00470148
X00717296Y00467868
X0071755Y00472694
X00719328Y00480568
X00724662
X00722376Y0048768
X00727202Y00489966
X007092Y004886
X00698246Y00493014
X00702818Y00503926
X0070993Y00513334
X0071755Y00511048
Y0050697
X00730504Y00512318
X00741426Y00505206
X00742708Y00421132
X0073305Y0042645
X00709422Y00413004
X00699008Y00409194
X00694436Y00425196
X0068834Y00419862
X00664972Y00434594
X00623316Y0040894
X00565912Y0043238
Y0044577
Y0046438
X00567182Y00480314
X0054737Y00488442
X0054864Y00509524
X00567628Y0051238
X00565912Y0052832
X00548132Y00460756
X0054737Y0044069
X0077343Y0042418
X00511302Y0047238
X0047847Y0048038
X00474404Y0046438
X00468122Y00437896
X00432308Y0042438
X0041058Y0043238
X00386842Y00440182
X0037578Y0044838
X00375158Y0041638
X0030099Y00419354
X00288798Y00443484
X0035941Y00479482
X00432308Y00456438
Y00505756
X00455676Y0051238
X0045212Y0052038
X0045085Y0052838
X00455676Y0048838
X0009271Y00494792
Y00555752
X00058818Y00541528
X00460248Y0054438
X0045085Y0056007
X0045339Y0056838
X0045085Y00576326
X00432308Y00584454
X00565856Y0056038
X0054737Y00536448
X00599468Y00573532
X00697992Y00556514
X00709422Y00560578
X00724408Y00560324
X0075057Y00578866
X00760984Y00578612
X00776478Y00568706
X00781304Y00562864
X007816Y00558292
X0077959Y0055245
X00797306Y00560578
Y005673
X00799846Y00544322
X00813816Y00552958
X00821182Y00548386
X00834136Y00543814
X008284Y005376
X0084543Y00538988
X0084963Y00538734
X00847344Y0054356
X00838962Y0055118
X00837438Y00560324
X00844042Y00559562
X008587Y0056584
X00878078Y0057023
X00884428Y00563372
X0091821Y00636524
X00807466Y00658114
X00783336Y00721106
X00972058Y00678942
X0097663Y0068199
X00949706Y00638556
X00955548Y00576326
X00956818Y00571246
X01004824Y00574802
X01012698Y00546862
X01044702Y00581914
X01050798Y0061468
X0108077Y00625856
X01089152Y00620776
X01098042Y00593598
X01089152Y005553
X01069268Y00567182
X01134495Y0056038
X01166368Y0055626
X01170432Y00540004
X01181862
X01196086Y00552196
X01226566Y00561086
X0124206Y00567182
X0125463Y00536506
X01257554Y00658114
X01226566Y0068072
X01237742Y00701802
X01147826Y00677164
X01138428Y00649732
X01184402Y00618998
X0121031Y00820674
X01301496Y0083312
X01318514Y00847598
X0132207Y00921258
X01104392Y00782574
X0093091Y005334
X01344168Y00850646
T02
X000127Y00134788
X000577
X0010668Y0008509
X00305902Y000577
Y000127
X00487512Y0001397
Y0005897
X0063095Y00007098
X0064986Y000177
X0074003Y00042418
X0074511Y00042544
X01226432Y0016891
X01201166Y0023241
X01178052
X0118618Y00424202
X01183386Y00436372
X01186688Y00439928
X01193546Y0045593
X0120263Y004706
X0122663Y0046387
X0124263Y0044787
Y0043987
X0123698Y00425472
X0121158
X0121063Y0044787
X0126663
X0126238Y00425472
X0128397Y00424202
X01285494Y00432816
X012991Y00430618
X0130937Y0043307
X0130291Y00457288
X01283462Y00466598
X0128016Y00472948
X0125863Y004706
Y0047987
X0124263Y0051314
X0121063Y0050387
X01148588Y00498094
X0115835Y00519518
Y00471258
Y00464732
X0115962Y00440602
X0110109Y00479806
X01089152Y004993
X01067816Y00530352
X0093218Y0052578
X00947928Y00499364
X0095377Y00496316
X0130545Y00510628
X0132218Y00481418
X0089165Y00483958
X00886714Y00483616
X0088911Y00454572
X00891032Y00430022
X0085051Y0042457
X0084543Y0044857
X008307
X0082943Y0044184
X0081597Y0044857
X00813308Y00456692
X00799338
X0080405Y00448694
X0080543Y0046457
X00821436Y00472564
X00837438Y004699
X00847598Y0050673
X0083743Y0052057
X0082397Y0050457
X00788856Y00503174
X00768858Y00504698
X00767588Y005207
X0075743Y0051257
Y0048857
X00774446Y00489458
X00765684Y0047803
X0078943
X00796544Y005207
X0073343Y0052057
X00725424Y00524764
X0071755Y00519176
X00701548Y005207
X00689864Y00518922
X00709422Y00528828
X00709168Y00506984
X00724154Y00504952
X0073343Y0050457
X0074168Y00465074
X0074143Y0043384
X00725424Y00432562
X0072543Y0044349
X0071044Y00448564
X00699262Y0045085
X00700024Y0042545
X00705612Y00394716
X00710038Y0038189
X0070104Y00372088
X00709422Y00352298
X0072136Y0032004
X0074168Y00372088
X0076962
X0079629
X00809098Y0038443
X0084201Y00370818
X0080124Y0043257
X007653Y0042445
X0076289Y0044857
X00709676Y00479806
X0065875Y00488842
X0065648Y00511722
X0065521Y00463462
Y00440602
X00602742Y00394462
X00561594Y00372872
X0054737Y0042438
X00542798Y00506984
X00566928Y00503428
X00615442Y00293116
X00625856Y00296926
X00521208Y00286766
X0046465Y0035512
X00399288Y00349504
X00432308Y0049638
X0017018Y00509248
X00178054Y00446024
X0012307Y00453248
X0003937Y00495278
X000577Y00273812
X0008001Y00584402
X0010541Y0060844
X0004572Y00629942
X00044958Y00710184
Y0073787
X00039878Y007747
X00022918Y0069159
X00081534Y00700024
X00083156Y0067859
X0015621Y00723646
X00191828Y0069159
X00214376Y0068834
X00213868Y00697992
X00217424Y00708406
X0023114Y00729234
X00245872Y00729742
X0023749Y0067859
X00276352Y0069159
X0027559Y0069809
X0022479Y00626132
X0017145Y00581638
X0023368Y0080137
X00152908Y00877316
X00330454
X00387858Y0080645
X00491998
X005581Y00918808
X005631Y00918718
X005681
X005781Y0091567
X005881Y00918808
X005981Y00911352
X006181Y00918808
X00628142Y00918718
X00721408Y00805434
X00602996Y00735076
X00651002Y00640588
X0069977Y00619782
X00699516Y0058293
X00698754Y00567436
X00709422Y00569214
X0071343Y00586994
X00732682Y0059398
X0074803Y00568452
X0074943Y0056311
X0075184Y0054483
X0076595Y0054509
X0078359Y0054483
X0079883Y0055245
X0082816Y0055257
X00828024Y00569976
X00838962Y00569722
X0082143Y0053657
X00780542Y00581914
X00783082Y00587248
X0077216Y00623592
X0079883
X00825754Y00647192
X0084709Y00626132
X0074676Y00622322
X0073089Y0054457
X0073343Y0053657
X0071743Y0055257
X0067448Y00557442
Y00581572
X00682244Y00536194
X0065648Y00534582
X00565912Y0055238
X00547308Y0054438
X00920496Y0056134
X0090043Y00691642
X00967232Y00685292
X01015345Y00739849
X01033526Y0076153
X01047095Y00757159
X01124566Y00757159
Y00739159
X01208385Y00736039
Y00765961
X01275695Y00773493
X01290066Y00775961
X01324993Y00756961
X0112461Y0089154
X01089152Y005473
X00949395
X0145288Y00551842
X0149788
X01376025Y00772223
X01345485Y00775961
X006331Y00944412
X006231Y00944372
X00613156Y00951992
X005997Y009488
X006031Y00944412
X0059055Y00944372
X0057056Y00944412
T03
X00388112Y00756666
X00402336Y00810768
X00487934Y00768604
X00545846Y00762762
X00901446Y00742188
X00823976Y00628904
X00951186Y00779272
X01157585Y0077597
X01171956Y00839978
X0106934Y00897636
X0124206Y00735076
T04
X00354838Y00733806
X00404368Y00781304
X00861568Y00823468
X0088392Y00837692
X0090678Y00829818
X00895096Y0087757
X0098933Y00852678
X01006094Y0090297
X01114298Y00854964
X01135888Y00851154
X0109728Y00830326
X01335278Y0095631
X01077214Y00985266
X00959358Y0096139
X006381Y0096393
T05
X0010541Y0004318
X0013081
X0052832Y0004699
X0055372
X0082296Y0003429
Y0005969
Y0008509
X0094488Y0004826
Y0002286
X0097028
Y0004826
X0099568
Y0002286
X0102108
Y0004826
X0104648
Y0002286
X0107188
Y0004826
X0146304Y0009906
Y0012446
X0148844
Y0009906
Y0014986
Y0017526
Y0020066
Y0022606
Y0025146
Y0027686
Y0030226
Y0032766
X0146304
Y0030226
Y0027686
Y0025146
Y0022606
Y0020066
Y0017526
Y0014986
X013716Y0030607
Y0033147
X013462
Y0030607
X013208
Y0033147
X012954
Y0030607
X0117983Y0031115
Y0033655
X0115443
Y0031115
X0112903
Y0033655
X0105156Y0033274
X0102616
X0100076
X0097536
X0094996
Y0030734
X0097536
X0100076
X0102616
X0105156
X0092456
X0089916
X0087376
X0084836
X0082296
X0079756
X0077216
X0074676
X0072136
X0069596
X0067056
Y0033274
X0069596
X0072136
X0074676
X0077216
X0079756
X0082296
X0084836
X0087376
X0089916
X0092456
X00928985Y00430571
Y00455971
X0091186Y0053086
X0059165Y0033405
X0056625
X0054085
Y0030865
X0056625
X0059165
X0051545
X0049005
X0046465
X0043925
X0041385
X0038845
X0036305
X0033765
X0031225
X0028685
X0026145
X0023605
X0021065
X0018525
X0015985
Y0033405
X0018525
X0021065
X0023605
X0026145
X0028685
X0031225
X0033765
X0036305
X0038845
X0041385
X0043925
X0046465
X0049005
X0051545
X0031369Y0046482
X0028829
Y0049022
X0031369
Y0051562
X0028829
X000435Y004421
X000181
Y004167
X000435
Y003913
X000181
Y003659
X000435
Y003405
X000181
X0013445Y0033405
Y0030865
X0008128Y007747
Y008001
X0005588
Y007747
X0011216Y0087757
X0013716
X0029123
X0031623
X0027559Y0082677
Y0080137
X0025019
Y0082677
X004699Y0085344
Y0087884
X0048135Y0069165
Y0066625
X0050675
Y0069165
X0053215
Y0066625
X0031369Y0054102
X0028829
X0055755Y0066625
Y0069165
X0058295
Y0066625
X0060835
Y0069165
X0063375
Y0066625
X0065915
Y0069165
X0068455
Y0066625
X0070995
Y0069165
X0073535
Y0066625
X0076075
Y0069165
X0078615
Y0066625
X0081155
Y0069165
X0083695
Y0066625
X0086235
Y0069165
X0088775
Y0066625
X0091315
Y0069165
X0087376Y0076708
Y0079248
X0084836
Y0076708
X0082296
Y0079248
X0079756
Y0076708
X0077216
Y0079248
X0074676
Y0076708
X0072136
Y0079248
X0069596
Y0076708
X0063119Y0080645
X0060579
X0058039
X0077089Y0092583
X0079629
X0091186Y0055626
X0093855Y0066625
Y0069165
X0101727Y0069342
Y0066802
X0104267
Y0069342
X0106807
Y0066802
X0109347
Y0069342
X0111887
Y0066802
X0114427
Y0069342
X0116967
Y0066802
X0119507
Y0069342
X0122047
Y0066802
X0124587
Y0069342
X0127127
Y0066802
X0129667
Y0069342
X0132207
Y0066802
X0124714Y0060706
X0122174
X0119634
Y0058166
X0122174
X0124714
X01128375Y00585511
Y00610911
X01285748Y00870712
X01311148
Y00896112
X01285748
X01336548
X01361948
X01387348
Y00870712
X01361948
X01336548
X0134747Y0069342
Y0066802
X0137287
Y0069342
X0139827
Y0066802
X01331575Y00614721
Y00589321
X0135763Y0095631
X0138303
X0140843
X0116459Y0096266
X0113919
X0111379
X0093472Y0096139
X0090932
X0088392
X0079629Y0095123
X0077089
X004699Y0096393
Y0093853
T06
X0122301Y0004809
X0132601
T07
X0122301Y0002009
Y0008509
X0132601
Y0002009
X0047394Y0080645
X0036934
T08
X006731Y0094361
X006791Y0099261
X005221
X005281Y0094361
T09
X0008616Y0092857
X0018816
X0026523
X0036723
M30
