G04 Layer_Physical_Order=8*
G04 Layer_Color=16711680*
%FSLAX44Y44*%
%MOMM*%
G71*
G01*
G75*
%ADD12R,1.5000X1.5000*%
%ADD27C,0.2032*%
%ADD28C,0.1016*%
%ADD29O,0.7000X1.2000*%
%ADD30R,2.0000X1.4000*%
%ADD31R,1.5000X1.5000*%
%ADD32C,1.5000*%
%ADD33C,1.5240*%
%ADD34C,3.3000*%
%ADD35C,1.1500*%
%ADD36O,1.3400X1.3500*%
%ADD37R,2.0000X2.0000*%
%ADD38C,2.0000*%
%ADD39C,0.4064*%
%ADD40C,0.2540*%
%ADD52R,1.3500X0.9500*%
%ADD53R,1.1000X1.1000*%
%ADD54R,1.1000X1.1000*%
%ADD55R,1.1000X1.4000*%
%ADD56R,0.9500X1.3500*%
G36*
X998298Y963044D02*
X980048D01*
Y970044D01*
X985298D01*
Y994544D01*
X998298D01*
Y963044D01*
D02*
G37*
G36*
X1052798Y970044D02*
X1058048D01*
Y963044D01*
X1039798D01*
Y994544D01*
X1052798D01*
Y970044D01*
D02*
G37*
D12*
X1017270Y668020D02*
D03*
X481350Y666250D02*
D03*
X1247140Y607060D02*
D03*
X934720Y961390D02*
D03*
X1408430Y956310D02*
D03*
X1113790Y962660D02*
D03*
X944880Y22860D02*
D03*
X528320Y46990D02*
D03*
X130810Y43180D02*
D03*
X695960Y767080D02*
D03*
X770890Y925830D02*
D03*
X670560Y307340D02*
D03*
X134450Y308650D02*
D03*
X1129030Y311150D02*
D03*
X1371600Y331470D02*
D03*
X631190Y806450D02*
D03*
X55880Y774700D02*
D03*
X250190Y801370D02*
D03*
X1285748Y870712D02*
D03*
D27*
X822960Y596520D02*
X871220D01*
X207772Y708406D02*
X213868Y702310D01*
Y697992D02*
Y702310D01*
X827532Y383142D02*
X843280Y398890D01*
X827532Y358394D02*
Y383142D01*
X807466Y338328D02*
X827532Y358394D01*
X166116Y723646D02*
X232664Y657098D01*
Y607204D02*
Y657098D01*
X224790Y599330D02*
X232664Y607204D01*
X497078Y745634D02*
Y756666D01*
X496752Y756992D02*
X497078Y756666D01*
X496752Y756992D02*
X528320Y788560D01*
X493776Y743856D02*
X497078Y745634D01*
X783954Y581914D02*
X798830Y596790D01*
X780542Y581914D02*
X783954D01*
X891032Y423562D02*
Y430022D01*
X889110Y421640D02*
X891032Y423562D01*
X207772Y775462D02*
X233680Y801370D01*
X207772Y708406D02*
Y775462D01*
X191828Y659094D02*
X224790Y626132D01*
X191828Y659094D02*
Y691590D01*
X1148190Y891540D02*
X1172210Y867520D01*
X1124610Y891540D02*
X1148190D01*
X1077468Y842772D02*
Y897890D01*
X943864Y709168D02*
X1077468Y842772D01*
X880110Y709168D02*
X943864D01*
X877570Y706628D02*
X880110Y709168D01*
X877570Y602870D02*
Y706628D01*
X871220Y596520D02*
X877570Y602870D01*
X906780Y852170D02*
X925940Y871330D01*
X956310D01*
X1178052Y232410D02*
X1283970Y338328D01*
Y397400D01*
X618870Y378460D02*
Y415290D01*
X621410Y417830D01*
X659240D01*
X673210Y431800D01*
X487680Y737760D02*
X493776Y743856D01*
X697230Y375898D02*
X701040Y372088D01*
X697230Y375898D02*
Y380890D01*
X722630Y609980D02*
X732300D01*
X746760Y595520D01*
X164084Y601074D02*
X171450Y608440D01*
X164084Y542146D02*
Y601074D01*
Y542146D02*
X170180Y536050D01*
X710038Y381890D02*
X711308Y383160D01*
X721360D01*
X821436Y464820D02*
Y472564D01*
X813308Y456692D02*
X821436Y464820D01*
X105410Y608440D02*
X171450D01*
X741680Y372088D02*
X744220Y374628D01*
Y380890D01*
X810368Y612520D02*
X822960D01*
X842010Y370818D02*
X843280Y372088D01*
Y380890D01*
X753110Y42544D02*
X756030Y45464D01*
X745110Y42544D02*
X753110D01*
X765556Y398890D02*
X769620D01*
X889110Y486498D02*
X891650Y483958D01*
X889110Y486498D02*
Y492760D01*
X658495Y488842D02*
X658750D01*
X657480Y487827D02*
X658495Y488842D01*
X657480Y478790D02*
Y487827D01*
X1157585Y775970D02*
X1233937D01*
X1242676Y767231D01*
X932796Y760881D02*
X951186Y779272D01*
X1299100Y430618D02*
X1301640Y433158D01*
Y439420D01*
X1283970Y397400D02*
X1319640Y433070D01*
Y439420D01*
X871110Y402590D02*
Y421640D01*
X867410Y398890D02*
X871110Y402590D01*
X843280Y398890D02*
X867410D01*
X656480Y541892D02*
Y548640D01*
Y541892D02*
X657860Y540512D01*
X659748D01*
X674480Y525780D01*
X1290066Y761062D02*
Y775961D01*
X1275695Y746691D02*
X1290066Y761062D01*
X699770Y592980D02*
X707644Y600854D01*
Y605790D01*
X711834Y609980D01*
X722630D01*
X656480Y572770D02*
X676690Y592980D01*
X699770D01*
X1309370Y433070D02*
X1313290D01*
X1319640Y439420D01*
X1261110Y425472D02*
X1262380D01*
X1259840Y424202D02*
X1261110Y425472D01*
X1259840Y416670D02*
Y424202D01*
X1242676Y767231D02*
X1263216Y746691D01*
X1275695D01*
X772160Y596790D02*
X798830D01*
X810784Y596520D02*
X822960D01*
X810514Y596790D02*
X810784Y596520D01*
X798830Y596790D02*
X810514D01*
X1140350Y504190D02*
Y528320D01*
Y444500D02*
Y455930D01*
Y444500D02*
X1141620Y443230D01*
Y431800D02*
Y443230D01*
X1140350Y480060D02*
Y504190D01*
Y455930D02*
Y480060D01*
X1199389Y398670D02*
X1211580D01*
X1198118Y397400D02*
X1199389Y398670D01*
X1186180Y397400D02*
X1198118D01*
X1211580Y398670D02*
X1236980D01*
X1272540Y397400D02*
X1283970D01*
X1271270Y398670D02*
X1272540Y397400D01*
X1259840Y398670D02*
X1271270D01*
X1236980D02*
X1259840D01*
X656480Y548640D02*
Y572770D01*
X673480Y466614D02*
Y478790D01*
X673210Y466344D02*
X673480Y466614D01*
X673210Y454660D02*
Y466344D01*
Y431800D02*
Y454660D01*
X674480Y491220D02*
Y502920D01*
X673480Y490220D02*
X674480Y491220D01*
X673480Y478790D02*
Y490220D01*
X674480Y502920D02*
Y525780D01*
X871110Y421640D02*
Y445770D01*
X870840Y457724D02*
Y469900D01*
Y457724D02*
X871110Y457454D01*
Y445770D02*
Y457454D01*
Y481346D02*
Y492760D01*
X870840Y481076D02*
X871110Y481346D01*
X870840Y469900D02*
Y481076D01*
X709184Y399160D02*
X721360D01*
X708914Y398890D02*
X709184Y399160D01*
X697230Y398890D02*
X708914D01*
X744220D02*
X765556D01*
X732806D02*
X744220D01*
X732536Y399160D02*
X732806Y398890D01*
X721360Y399160D02*
X732536D01*
X769620Y398890D02*
X796290D01*
X831866D02*
X843280D01*
X830326Y400430D02*
X831866Y398890D01*
X819150Y400430D02*
X830326D01*
X808244D02*
X819150D01*
X806704Y398890D02*
X808244Y400430D01*
X796290Y398890D02*
X806704D01*
X72390Y700024D02*
X81534D01*
X69596Y697230D02*
X72390Y700024D01*
X69596Y627016D02*
Y697230D01*
X45720Y603140D02*
X69596Y627016D01*
X156210Y723646D02*
X166116D01*
X402336Y810768D02*
X411988Y820420D01*
X514460D01*
X528320Y806560D01*
X400304Y776732D02*
X448708D01*
X487680Y737760D01*
X528320Y766970D02*
Y788560D01*
Y766970D02*
X560070Y735220D01*
X665860Y38688D02*
Y46990D01*
X123070Y453248D02*
Y463550D01*
X39370Y495278D02*
Y504080D01*
X170180Y509248D02*
Y518050D01*
X171450Y581638D02*
Y590440D01*
X45720Y621140D02*
Y629942D01*
X224790Y617330D02*
Y626132D01*
X655210Y431800D02*
Y440602D01*
Y454660D02*
Y463462D01*
X656480Y502920D02*
Y511722D01*
Y525780D02*
Y534582D01*
X769620Y372088D02*
Y380890D01*
X674480Y548640D02*
Y557442D01*
X796290Y372088D02*
Y380890D01*
X674480Y572770D02*
Y581572D01*
X809098Y384430D02*
X819150D01*
X699770Y610980D02*
Y619782D01*
X722630Y593980D02*
X732682D01*
X746760Y613520D02*
Y622322D01*
X772160Y614790D02*
Y623592D01*
X889110Y445770D02*
Y454572D01*
X798830Y614790D02*
Y623592D01*
X847090Y617330D02*
Y626132D01*
X932796Y734079D02*
Y742881D01*
X861060Y844528D02*
Y853330D01*
X1159620Y431800D02*
Y440602D01*
X1158350Y455930D02*
Y464732D01*
Y471258D02*
Y480060D01*
X1186180Y415400D02*
Y424202D01*
X1158350Y519518D02*
Y528320D01*
X1211580Y416670D02*
Y425472D01*
X956310Y844528D02*
Y853330D01*
X1047095Y757159D02*
Y765961D01*
X1236980Y416670D02*
Y425472D01*
X1283970Y415400D02*
Y424202D01*
X1124566Y739159D02*
Y747961D01*
X1302910Y457288D02*
Y466090D01*
X1097280Y838178D02*
Y846980D01*
X1305450Y510628D02*
Y519430D01*
X1322180Y481418D02*
Y490220D01*
X1172210Y840718D02*
Y849520D01*
X1242676Y740429D02*
Y749231D01*
X1275695Y764691D02*
Y773493D01*
X1376025Y763421D02*
Y772223D01*
X764550Y399896D02*
X765556Y398890D01*
X764550Y399896D02*
X765800Y401146D01*
X765300Y401646D02*
X765800Y401146D01*
X765300Y401646D02*
Y424450D01*
X699516Y592726D02*
X699770Y592980D01*
X699516Y582930D02*
Y592726D01*
X725424Y524764D02*
Y528564D01*
X733430Y536570D01*
X886714Y470026D02*
X886840Y469900D01*
X886714Y470026D02*
Y483616D01*
X1140096Y479806D02*
X1140350Y480060D01*
X1101090Y479806D02*
X1140096D01*
X1148588Y498094D02*
X1156914D01*
X1158350Y499530D02*
Y504190D01*
X1156914Y498094D02*
X1158350Y499530D01*
X1118870Y498348D02*
Y506476D01*
X1125982Y513588D01*
Y528066D01*
X1123188Y530860D02*
X1125982Y528066D01*
X661336Y38688D02*
X665860D01*
X656590Y43434D02*
X661336Y38688D01*
X656590Y43434D02*
Y52324D01*
X605790Y103124D02*
X656590Y52324D01*
X263652Y103124D02*
X605790D01*
X121158Y245618D02*
X263652Y103124D01*
X121158Y245618D02*
Y411226D01*
X245872Y535940D01*
Y729742D01*
X560214Y735076D02*
X602996D01*
X44958Y737870D02*
X69596Y713232D01*
Y697230D02*
Y713232D01*
X45720Y629942D02*
Y642874D01*
X22918Y665676D02*
X45720Y642874D01*
X22918Y665676D02*
Y691590D01*
X214376Y688340D02*
Y691388D01*
X217424Y694436D01*
Y708406D01*
X756030Y56514D02*
X807466Y107950D01*
Y338328D01*
X756030Y45464D02*
Y56514D01*
X674480Y528430D02*
X682244Y536194D01*
D28*
X106680Y85090D02*
Y462160D01*
X108070Y463550D01*
X717296Y455930D02*
Y467868D01*
X713994Y452628D02*
X717296Y455930D01*
X1189482Y524510D02*
X1196340D01*
X1184090Y519118D02*
X1189482Y524510D01*
X1184090Y512690D02*
Y519118D01*
X691134Y362966D02*
X721360Y332740D01*
X691134Y362966D02*
Y405130D01*
X720090Y434086D01*
X565912Y432380D02*
X568452Y434920D01*
Y451866D01*
X565150Y455168D02*
X568452Y451866D01*
X526796Y455168D02*
X565150D01*
X439250Y367622D02*
X526796Y455168D01*
X439250Y334050D02*
Y367622D01*
X800100Y494030D02*
X805434Y488696D01*
X777494Y602996D02*
X780288Y605790D01*
Y634988D01*
X811550Y666250D01*
X887750Y604032D02*
Y666250D01*
X859028Y575310D02*
X887750Y604032D01*
X813050Y575310D02*
X859028D01*
X810510Y572770D02*
X813050Y575310D01*
X810510Y531492D02*
Y572770D01*
X1220470Y693420D02*
X1229868Y684022D01*
Y603504D02*
Y684022D01*
X1175258Y548894D02*
X1229868Y603504D01*
X1184090Y512690D02*
X1187764Y509330D01*
X1196340Y524510D02*
X1232408Y560578D01*
Y679958D01*
X1245870Y693420D01*
X1261364Y683514D02*
X1271270Y693420D01*
X1261364Y579164D02*
Y683514D01*
X1209120Y526920D02*
X1261364Y579164D01*
X1203772Y526920D02*
X1209120D01*
X1197696Y520844D02*
X1203772Y526920D01*
X1195070Y517048D02*
X1197696Y520844D01*
X1191046Y517048D02*
X1195070D01*
X1186630Y513140D02*
X1191046Y517048D01*
X227838Y382524D02*
X288798Y443484D01*
X227838Y325838D02*
Y382524D01*
X210650Y308650D02*
X227838Y325838D01*
X363050Y308650D02*
X375710Y321310D01*
X393954D01*
X396494Y323850D01*
Y366268D01*
X468122Y437896D01*
X553466Y318770D02*
X594614D01*
X550926Y316230D02*
X553466Y318770D01*
X550926Y300990D02*
Y316230D01*
X548386Y298450D02*
X550926Y300990D01*
X424050Y298450D02*
X548386D01*
X413850Y308650D02*
X424050Y298450D01*
X515450Y308650D02*
X526796Y319996D01*
Y363728D01*
X529590Y366522D01*
X630682D01*
X679450Y415290D01*
Y464312D01*
X706374Y463550D02*
Y488442D01*
X703834Y461010D02*
X706374Y463550D01*
X694690Y461010D02*
X703834D01*
X686308Y452628D02*
X694690Y461010D01*
X686308Y403308D02*
Y452628D01*
X591650Y308650D02*
X686308Y403308D01*
X709422Y560578D02*
X734314Y585470D01*
X756920D01*
X759460Y588010D01*
Y616966D01*
X798830Y656336D01*
Y717550D01*
X848360Y767080D01*
X1313942Y483870D02*
Y509922D01*
X1323450Y519430D01*
X39370Y522080D02*
X58818Y541528D01*
X1244258Y461264D02*
X1258570D01*
X1221547Y438553D02*
X1244258Y461264D01*
X1141730Y406146D02*
X1144270Y408686D01*
X1141730Y194310D02*
Y406146D01*
X995680Y48260D02*
X1141730Y194310D01*
X1021080Y48260D02*
X1167130Y194310D01*
Y392938D01*
X1272032Y458470D02*
X1274572Y461010D01*
X1272032Y407670D02*
Y458470D01*
X1269238Y404876D02*
X1272032Y407670D01*
X1181354Y404876D02*
X1269238D01*
X1171448Y394970D02*
X1181354Y404876D01*
X1171448Y173228D02*
Y394970D01*
X1046480Y48260D02*
X1171448Y173228D01*
X1269238Y455930D02*
Y463550D01*
X1266698Y466090D02*
X1269238Y463550D01*
X1252220Y466090D02*
X1266698D01*
X1249680Y468630D02*
X1252220Y466090D01*
X1180084Y424942D02*
X1191768Y436626D01*
X1138682Y424942D02*
X1180084D01*
X1120902Y407162D02*
X1138682Y424942D01*
X1120902Y353822D02*
Y407162D01*
X944880Y177800D02*
X1120902Y353822D01*
X944880Y48260D02*
Y177800D01*
X1017270Y531300D02*
Y668020D01*
X1024890Y515366D02*
Y624840D01*
X1068070Y668020D01*
X1046988Y508570D02*
Y599694D01*
X1093470Y646176D01*
Y668020D01*
X1055308Y604458D02*
X1118870Y668020D01*
X1055308Y483300D02*
Y604458D01*
X1063498Y476570D02*
Y587248D01*
X1144270Y668020D01*
X1091184Y523300D02*
X1138682Y570798D01*
X944626Y645492D02*
X1047095Y747961D01*
X944626Y446212D02*
Y645492D01*
X928985Y430571D02*
X944626Y446212D01*
X275590Y698090D02*
Y801370D01*
X177038Y445008D02*
X178054Y446024D01*
X177038Y316862D02*
Y445008D01*
Y316862D02*
X185250Y308650D01*
X813430Y512570D02*
X817242Y516382D01*
X823590D01*
X913150Y598698D02*
Y666250D01*
X1277112Y490220D02*
X1304180D01*
X556514Y436372D02*
X565912Y445770D01*
X556514Y400514D02*
Y436372D01*
X490050Y334050D02*
X556514Y400514D01*
X810890Y508386D02*
X815594Y503682D01*
Y481330D02*
Y503682D01*
X812038Y477774D02*
X815594Y481330D01*
X802386Y477774D02*
X812038D01*
X769366Y444754D02*
X802386Y477774D01*
X732790Y444754D02*
X769366D01*
X1186688Y439928D02*
X1190752D01*
X1314704Y563880D01*
Y597850D01*
X1331575Y614721D01*
X806450Y471932D02*
X810260D01*
X822198Y483870D01*
X833882D01*
X848868Y498856D01*
X897890D01*
X902462Y494284D01*
Y482494D02*
Y494284D01*
Y482494D02*
X928985Y455971D01*
X1033526Y761530D02*
X1047095Y747961D01*
X1310386Y476614D02*
X1320910Y466090D01*
X1092962Y522732D02*
X1139952Y569722D01*
Y596646D01*
X1203198Y659892D01*
Y702564D01*
X1207770Y707136D01*
X1276350D01*
X1279398Y704088D01*
Y676148D02*
Y704088D01*
X1271270Y668020D02*
X1279398Y676148D01*
X938550Y610894D02*
Y666250D01*
X851912Y524256D02*
X938550Y610894D01*
X833116Y524256D02*
X851912D01*
X821430Y512570D02*
X833116Y524256D01*
X1196340Y156210D02*
X1346200Y306070D01*
X92710Y494792D02*
X108070Y479432D01*
Y463550D02*
Y479432D01*
X1202690Y495808D02*
Y500761D01*
X1337564Y635635D01*
Y683514D01*
X1347470Y693420D01*
X464650Y308650D02*
X472818Y300482D01*
X520446D01*
X571246Y351282D01*
X618236D01*
X684530Y465074D02*
X701934D01*
X713430Y586994D02*
X750570D01*
X753872Y590296D01*
Y617728D01*
X794258Y658114D01*
Y716788D01*
X810260Y732790D01*
Y773430D01*
X813054Y776224D01*
X864616D01*
X873760Y767080D01*
X1124566Y757159D02*
Y765961D01*
X487680Y755760D02*
Y764540D01*
X740030Y42418D02*
Y50800D01*
X1312164Y683514D02*
X1322070Y693420D01*
X1312164Y611820D02*
Y683514D01*
X1204788Y504444D02*
X1312164Y611820D01*
X722122Y483108D02*
X724662Y480568D01*
X717550Y483108D02*
X722122D01*
X713994Y479552D02*
X717550Y483108D01*
X713994Y462404D02*
Y479552D01*
X688340Y340360D02*
X695960Y332740D01*
X337650Y334050D02*
X350390Y321310D01*
X363982D01*
X385064Y342392D01*
Y377136D01*
X432308Y424380D01*
X363050Y334050D02*
X375158Y346158D01*
Y416380D01*
X464650Y334050D02*
Y355120D01*
X1097280Y864980D02*
X1124610D01*
X359410Y457410D02*
Y479482D01*
X236050Y334050D02*
X359410Y457410D01*
X1124566Y765961D02*
X1208385D01*
X649860Y17700D02*
Y46990D01*
X112160Y830980D02*
Y877570D01*
X81280Y800100D02*
X112160Y830980D01*
X1345485Y775961D02*
X1376025Y745421D01*
X861060Y871330D02*
X892302D01*
X1097788Y459300D02*
Y515366D01*
X1286764Y683514D02*
X1296670Y693420D01*
X1286764Y588010D02*
Y683514D01*
X1208024Y509270D02*
X1286764Y588010D01*
X1194630Y509270D02*
X1208024D01*
X783268Y448750D02*
X806450Y471932D01*
X781600Y448750D02*
X783268D01*
X706374Y488442D02*
X706532Y488600D01*
X709200D01*
X788400Y563950D02*
Y567850D01*
X785258Y570992D02*
X788400Y567850D01*
X778002Y570992D02*
X785258D01*
X805430Y512570D02*
X808850Y515990D01*
Y529832D01*
X810510Y531492D01*
X788400Y563950D02*
X796036Y556314D01*
Y540540D02*
Y556314D01*
Y540540D02*
X800100Y530154D01*
Y494030D02*
Y530154D01*
X823590Y516382D02*
X832988Y525780D01*
X840232D01*
X913150Y598698D01*
X719328Y480568D02*
X720090Y479806D01*
Y434086D02*
Y479806D01*
X685286Y470148D02*
X699008D01*
X679450Y464312D02*
X685286Y470148D01*
X618236Y351282D02*
X681482Y414528D01*
Y462026D01*
X684530Y465074D01*
X707898Y452628D02*
X713994D01*
X701040Y445770D02*
X707898Y452628D01*
X693166Y445770D02*
X701040D01*
X690118Y448310D02*
X695452Y453644D01*
X705234D01*
X713994Y462404D01*
X594614Y318770D02*
X683514Y407670D01*
Y457454D01*
X699008Y410972D02*
X732790Y444754D01*
X699008Y409194D02*
Y410972D01*
X690118Y422402D02*
Y448310D01*
Y422402D02*
X690880Y421640D01*
Y410464D02*
Y421640D01*
X688340Y407924D02*
X690880Y410464D01*
X688340Y340360D02*
Y407924D01*
X837438Y560324D02*
X841248D01*
X851154Y570230D01*
X878078D01*
X919480Y521970D02*
X930910Y533400D01*
X904240Y521970D02*
X919480D01*
X901700Y524510D02*
X904240Y521970D01*
X901700Y524510D02*
Y529844D01*
X764032Y584962D02*
X778002Y570992D01*
X764032Y584962D02*
Y600710D01*
X766318Y602996D01*
X777494D01*
X1092962Y522732D02*
X1094994Y520700D01*
Y474980D02*
Y520700D01*
X1166368Y520192D02*
Y556260D01*
X1186630Y513140D02*
X1186688Y513198D01*
Y513842D01*
X1203772Y505460D02*
X1204788Y504444D01*
X1181608Y505460D02*
X1203772D01*
X1187764Y509330D02*
X1191768Y513334D01*
X1194054D01*
X1175258Y548894D02*
X1177290Y546862D01*
Y524002D02*
Y546862D01*
X1297304Y497332D02*
X1309116D01*
X1310386Y496062D01*
Y476614D02*
Y496062D01*
X602742Y378588D02*
X602870Y378460D01*
X602742Y378588D02*
Y394462D01*
X399288Y319488D02*
Y349504D01*
X388450Y308650D02*
X399288Y319488D01*
X1167130Y392938D02*
X1180846Y406654D01*
X1221232D01*
X1243330Y428752D02*
X1266698Y452120D01*
X1235710Y428752D02*
X1243330D01*
X1229614Y422656D02*
X1235710Y428752D01*
X1229614Y415036D02*
Y422656D01*
X1221232Y406654D02*
X1229614Y415036D01*
X1266698Y452120D02*
Y459994D01*
X1144270Y408686D02*
X1217676D01*
X1221547Y412557D01*
Y438553D01*
X1042670Y507238D02*
X1045656D01*
X1046988Y508570D01*
X1097788Y515366D02*
X1182370Y599948D01*
Y629920D01*
X1220470Y668020D01*
X1138428Y571052D02*
X1138682Y570798D01*
X1138428Y571052D02*
Y649732D01*
X1042924Y523240D02*
Y531114D01*
X550528Y762762D02*
X560070Y753220D01*
X545846Y762762D02*
X550528D01*
X810890Y508386D02*
Y527426D01*
X813816Y530352D01*
Y552958D01*
X1226950Y455930D02*
X1257430Y486410D01*
X1268984D01*
X1279398Y496824D01*
Y500888D01*
X1297686Y519176D01*
Y526034D01*
X1412240Y640588D01*
Y895096D01*
X1399286Y908050D02*
X1412240Y895096D01*
X1373886Y908050D02*
X1399286D01*
X1361948Y896112D02*
X1373886Y908050D01*
X1220470Y463550D02*
X1232154Y475234D01*
X1242568D01*
X1258316Y490982D01*
X1264158D01*
X1295400Y522224D01*
Y527050D01*
X1409954Y641604D01*
Y879094D01*
X1402588Y886460D02*
X1409954Y879094D01*
X1346200Y886460D02*
X1402588D01*
X1336548Y896112D02*
X1346200Y886460D01*
X1191768Y436626D02*
X1210564D01*
X1242568Y468630D01*
X1249680D01*
X1210818Y463550D02*
Y486410D01*
X1225296Y500888D01*
Y521716D02*
X1338834Y635254D01*
Y680974D01*
X1340866Y683006D01*
X1351026D01*
X1357884Y689864D01*
Y696976D01*
X1346200Y708660D02*
X1357884Y696976D01*
X1299210Y708660D02*
X1346200D01*
X1296416Y711454D02*
X1299210Y708660D01*
X1296416Y711454D02*
Y805434D01*
X1212850D02*
X1296416D01*
X1210310Y807974D02*
Y820674D01*
Y807974D02*
X1212850Y805434D01*
X891286Y400812D02*
X900176D01*
X907034Y407670D01*
Y430276D01*
X915924D01*
X917448Y431800D01*
Y441198D01*
X919988Y443738D01*
X937768D01*
X941832Y447802D01*
Y649732D01*
X1029970Y737870D02*
Y788924D01*
X1081532Y840486D01*
Y919480D01*
X1087120Y925068D01*
X1233678D01*
X1285748Y872998D01*
Y870712D02*
Y872998D01*
X1104392Y782574D02*
X1114806D01*
X1163574Y831342D01*
X1283970D01*
X1300226Y847598D02*
X1318514D01*
X1283970Y831342D02*
X1300226Y847598D01*
X789686Y440182D02*
X817880D01*
X824230Y433832D01*
X847090D01*
X854202Y440944D01*
Y470662D01*
X862076Y478536D01*
Y496062D01*
X1225042Y514096D02*
X1225296D01*
X1223010Y512064D02*
X1225042Y514096D01*
X1223010Y510032D02*
Y512064D01*
Y510032D02*
X1225296Y507746D01*
Y500888D02*
Y507746D01*
Y514096D02*
Y521716D01*
X970026Y677926D02*
Y680212D01*
X971042Y681228D01*
X973328D01*
X941832Y649732D02*
X970026Y677926D01*
X973328Y681228D02*
X1029970Y737870D01*
X674480Y525780D02*
Y528430D01*
D29*
X991798Y983844D02*
D03*
X1046298Y983844D02*
D03*
D30*
X1048048Y953544D02*
D03*
X990048Y953544D02*
D03*
D31*
X928985Y430571D02*
D03*
X18100Y442100D02*
D03*
X1488440Y99060D02*
D03*
X137160Y877570D02*
D03*
X316230D02*
D03*
X469900Y853440D02*
D03*
Y938530D02*
D03*
X313690Y464820D02*
D03*
X1128375Y585511D02*
D03*
X1331575Y589321D02*
D03*
X911860Y530860D02*
D03*
X822960Y34290D02*
D03*
D32*
X928985Y455971D02*
D03*
X43500Y340500D02*
D03*
X18100D02*
D03*
X43500Y365900D02*
D03*
X18100D02*
D03*
X43500Y391300D02*
D03*
X18100D02*
D03*
X43500Y416700D02*
D03*
X18100D02*
D03*
X43500Y442100D02*
D03*
X1463040Y99060D02*
D03*
X1488440Y124460D02*
D03*
X1463040D02*
D03*
X1488440Y149860D02*
D03*
X1463040D02*
D03*
X1488440Y175260D02*
D03*
X1463040D02*
D03*
X1488440Y200660D02*
D03*
X1463040D02*
D03*
X1488440Y226060D02*
D03*
X1463040D02*
D03*
X1488440Y251460D02*
D03*
X1463040D02*
D03*
X1488440Y276860D02*
D03*
X1463040D02*
D03*
X1488440Y302260D02*
D03*
X1463040D02*
D03*
X1488440Y327660D02*
D03*
X1463040D02*
D03*
X112160Y877570D02*
D03*
X291230D02*
D03*
X1398270Y693420D02*
D03*
Y668020D02*
D03*
X1372870Y693420D02*
D03*
Y668020D02*
D03*
X1347470Y693420D02*
D03*
Y668020D02*
D03*
X1322070Y693420D02*
D03*
Y668020D02*
D03*
X1296670Y693420D02*
D03*
Y668020D02*
D03*
X1271270Y693420D02*
D03*
Y668020D02*
D03*
X1245870Y693420D02*
D03*
Y668020D02*
D03*
X1220470Y693420D02*
D03*
Y668020D02*
D03*
X1195070Y693420D02*
D03*
Y668020D02*
D03*
X1169670Y693420D02*
D03*
Y668020D02*
D03*
X1144270Y693420D02*
D03*
Y668020D02*
D03*
X1118870Y693420D02*
D03*
Y668020D02*
D03*
X1093470Y693420D02*
D03*
Y668020D02*
D03*
X1068070Y693420D02*
D03*
Y668020D02*
D03*
X1042670Y693420D02*
D03*
Y668020D02*
D03*
X1017270Y693420D02*
D03*
X938550Y691650D02*
D03*
Y666250D02*
D03*
X913150Y691650D02*
D03*
Y666250D02*
D03*
X887750Y691650D02*
D03*
Y666250D02*
D03*
X862350Y691650D02*
D03*
Y666250D02*
D03*
X836950Y691650D02*
D03*
Y666250D02*
D03*
X811550Y691650D02*
D03*
Y666250D02*
D03*
X786150Y691650D02*
D03*
Y666250D02*
D03*
X760750Y691650D02*
D03*
Y666250D02*
D03*
X735350Y691650D02*
D03*
Y666250D02*
D03*
X709950Y691650D02*
D03*
Y666250D02*
D03*
X684550Y691650D02*
D03*
Y666250D02*
D03*
X659150Y691650D02*
D03*
Y666250D02*
D03*
X633750Y691650D02*
D03*
Y666250D02*
D03*
X608350Y691650D02*
D03*
Y666250D02*
D03*
X582950Y691650D02*
D03*
Y666250D02*
D03*
X557550Y691650D02*
D03*
Y666250D02*
D03*
X532150Y691650D02*
D03*
Y666250D02*
D03*
X506750Y691650D02*
D03*
Y666250D02*
D03*
X481350Y691650D02*
D03*
X1247140Y581660D02*
D03*
X1221740Y607060D02*
D03*
Y581660D02*
D03*
X1196340Y607060D02*
D03*
Y581660D02*
D03*
X909320Y961390D02*
D03*
X883920D02*
D03*
X1383030Y956310D02*
D03*
X1357630D02*
D03*
X1139190Y962660D02*
D03*
X1164590D02*
D03*
X1071880Y48260D02*
D03*
Y22860D02*
D03*
X1046480Y48260D02*
D03*
Y22860D02*
D03*
X1021080Y48260D02*
D03*
Y22860D02*
D03*
X995680Y48260D02*
D03*
Y22860D02*
D03*
X970280Y48260D02*
D03*
Y22860D02*
D03*
X944880Y48260D02*
D03*
X553720Y46990D02*
D03*
X105410Y43180D02*
D03*
X695960Y792480D02*
D03*
X721360Y767080D02*
D03*
Y792480D02*
D03*
X746760Y767080D02*
D03*
Y792480D02*
D03*
X772160Y767080D02*
D03*
Y792480D02*
D03*
X797560Y767080D02*
D03*
Y792480D02*
D03*
X822960Y767080D02*
D03*
Y792480D02*
D03*
X848360Y767080D02*
D03*
Y792480D02*
D03*
X873760Y767080D02*
D03*
Y792480D02*
D03*
X469900Y878840D02*
D03*
X796290Y951230D02*
D03*
Y925830D02*
D03*
X770890Y951230D02*
D03*
X469900Y963930D02*
D03*
X1051560Y332740D02*
D03*
Y307340D02*
D03*
X1026160Y332740D02*
D03*
Y307340D02*
D03*
X1000760Y332740D02*
D03*
Y307340D02*
D03*
X975360Y332740D02*
D03*
Y307340D02*
D03*
X949960Y332740D02*
D03*
Y307340D02*
D03*
X924560Y332740D02*
D03*
Y307340D02*
D03*
X899160Y332740D02*
D03*
Y307340D02*
D03*
X873760Y332740D02*
D03*
Y307340D02*
D03*
X848360Y332740D02*
D03*
Y307340D02*
D03*
X822960Y332740D02*
D03*
Y307340D02*
D03*
X797560Y332740D02*
D03*
Y307340D02*
D03*
X772160Y332740D02*
D03*
Y307340D02*
D03*
X746760Y332740D02*
D03*
Y307340D02*
D03*
X721360Y332740D02*
D03*
Y307340D02*
D03*
X695960Y332740D02*
D03*
Y307340D02*
D03*
X670560Y332740D02*
D03*
X591650Y334050D02*
D03*
Y308650D02*
D03*
X566250Y334050D02*
D03*
Y308650D02*
D03*
X540850Y334050D02*
D03*
Y308650D02*
D03*
X515450Y334050D02*
D03*
Y308650D02*
D03*
X490050Y334050D02*
D03*
Y308650D02*
D03*
X464650Y334050D02*
D03*
Y308650D02*
D03*
X439250Y334050D02*
D03*
Y308650D02*
D03*
X413850Y334050D02*
D03*
Y308650D02*
D03*
X388450Y334050D02*
D03*
Y308650D02*
D03*
X363050Y334050D02*
D03*
Y308650D02*
D03*
X337650Y334050D02*
D03*
Y308650D02*
D03*
X312250Y334050D02*
D03*
Y308650D02*
D03*
X286850Y334050D02*
D03*
Y308650D02*
D03*
X261450Y334050D02*
D03*
Y308650D02*
D03*
X236050Y334050D02*
D03*
Y308650D02*
D03*
X210650Y334050D02*
D03*
Y308650D02*
D03*
X185250Y334050D02*
D03*
Y308650D02*
D03*
X159850Y334050D02*
D03*
Y308650D02*
D03*
X134450Y334050D02*
D03*
X1129030Y336550D02*
D03*
X1154430Y311150D02*
D03*
Y336550D02*
D03*
X1179830Y311150D02*
D03*
Y336550D02*
D03*
X1295400Y306070D02*
D03*
Y331470D02*
D03*
X1320800Y306070D02*
D03*
Y331470D02*
D03*
X1346200Y306070D02*
D03*
Y331470D02*
D03*
X1371600Y306070D02*
D03*
X288290Y541020D02*
D03*
X313690D02*
D03*
X288290Y515620D02*
D03*
X313690D02*
D03*
X288290Y490220D02*
D03*
X313690D02*
D03*
X288290Y464820D02*
D03*
X580390Y806450D02*
D03*
X605790D02*
D03*
X1128375Y610911D02*
D03*
X1331575Y614721D02*
D03*
X911860Y556260D02*
D03*
X822960Y85090D02*
D03*
Y59690D02*
D03*
X55880Y800100D02*
D03*
X81280Y774700D02*
D03*
Y800100D02*
D03*
X250190Y826770D02*
D03*
X275590Y801370D02*
D03*
Y826770D02*
D03*
X1285748Y896112D02*
D03*
X1311148Y870712D02*
D03*
Y896112D02*
D03*
X1336548Y870712D02*
D03*
Y896112D02*
D03*
X1361948Y870712D02*
D03*
Y896112D02*
D03*
X1387348Y870712D02*
D03*
Y896112D02*
D03*
D33*
X673100Y943610D02*
D03*
X528100D02*
D03*
X679100Y992610D02*
D03*
X522100D02*
D03*
D34*
X188160Y928570D02*
D03*
X86160D02*
D03*
X367230D02*
D03*
X265230D02*
D03*
D35*
X1326010Y48090D02*
D03*
X1223010D02*
D03*
D36*
X1326010Y85090D02*
D03*
Y20090D02*
D03*
X1223010D02*
D03*
Y85090D02*
D03*
D37*
X473940Y806450D02*
D03*
D38*
X369340D02*
D03*
D39*
X1006094Y969264D02*
D03*
X709676Y479806D02*
D03*
X796544Y520700D02*
D03*
X709422Y569214D02*
D03*
X724154Y504952D02*
D03*
X767588Y520700D02*
D03*
X709422Y528828D02*
D03*
X741680Y465074D02*
D03*
X799338Y456692D02*
D03*
X566928Y503428D02*
D03*
X953770Y496316D02*
D03*
X213868Y697992D02*
D03*
X106680Y85090D02*
D03*
X701548Y520700D02*
D03*
X751840Y544830D02*
D03*
X768858Y504698D02*
D03*
X780542Y581914D02*
D03*
X837438Y469900D02*
D03*
X542798Y506984D02*
D03*
X891032Y430022D02*
D03*
X599700Y948800D02*
D03*
X625856Y296926D02*
D03*
X721360Y320040D02*
D03*
X547370Y424380D02*
D03*
X1124610Y891540D02*
D03*
X1077468Y897890D02*
D03*
X906780Y852170D02*
D03*
X1178052Y232410D02*
D03*
X709168Y506984D02*
D03*
X237490Y678590D02*
D03*
X1283462Y466598D02*
D03*
X701040Y372088D02*
D03*
X568100Y918718D02*
D03*
X578100Y915670D02*
D03*
X709422Y352298D02*
D03*
X828024Y569976D02*
D03*
X705612Y394716D02*
D03*
X900430Y691642D02*
D03*
X57700Y273812D02*
D03*
X638100Y963930D02*
D03*
X949395Y547300D02*
D03*
X721408Y805434D02*
D03*
X1280160Y472948D02*
D03*
X275590Y698090D02*
D03*
X651002Y640588D02*
D03*
X1193546Y455930D02*
D03*
X829430Y441840D02*
D03*
X717550Y519176D02*
D03*
X178054Y446024D02*
D03*
X710038Y381890D02*
D03*
X748030Y568452D02*
D03*
X1285494Y432816D02*
D03*
X1186688Y439928D02*
D03*
X967232Y685292D02*
D03*
X1033526Y761530D02*
D03*
X570560Y944412D02*
D03*
X628142Y918718D02*
D03*
X623100Y944372D02*
D03*
X613156Y951992D02*
D03*
X821430Y536570D02*
D03*
X821436Y472564D02*
D03*
X813308Y456692D02*
D03*
X563100Y918718D02*
D03*
X598100Y911352D02*
D03*
X83156Y678590D02*
D03*
X713430Y586994D02*
D03*
X105410Y608440D02*
D03*
X1124566Y757159D02*
D03*
X561594Y372872D02*
D03*
X276352Y691590D02*
D03*
X741680Y372088D02*
D03*
X521208Y286766D02*
D03*
X487680Y764540D02*
D03*
X810368Y612520D02*
D03*
X725424Y432562D02*
D03*
X801240Y432570D02*
D03*
X1242630Y513140D02*
D03*
X837430Y520570D02*
D03*
X842010Y370818D02*
D03*
X740030Y42418D02*
D03*
X745110Y42544D02*
D03*
X765684Y478030D02*
D03*
X850510Y424570D02*
D03*
X891650Y483958D02*
D03*
X1202630Y470600D02*
D03*
X733430Y536570D02*
D03*
X1258630Y470600D02*
D03*
X749430Y563110D02*
D03*
X464650Y355120D02*
D03*
X658750Y488842D02*
D03*
X725430Y443490D02*
D03*
X733430Y504570D02*
D03*
X1157585Y775970D02*
D03*
X1124610Y864980D02*
D03*
X1208385Y765961D02*
D03*
X951186Y779272D02*
D03*
X1299100Y430618D02*
D03*
X649860Y17700D02*
D03*
X1290066Y775961D02*
D03*
X830700Y448570D02*
D03*
X1345485Y775961D02*
D03*
X892302Y871330D02*
D03*
X1309370Y433070D02*
D03*
X741430Y433840D02*
D03*
X789430Y478030D02*
D03*
X1262380Y425472D02*
D03*
X815970Y448570D02*
D03*
X762890D02*
D03*
X828160Y552570D02*
D03*
X730890Y544570D02*
D03*
X81534Y700024D02*
D03*
X156210Y723646D02*
D03*
X44958Y737870D02*
D03*
X231140Y729234D02*
D03*
X402336Y810768D02*
D03*
X12700Y134788D02*
D03*
X57700D02*
D03*
X305902Y12700D02*
D03*
Y57700D02*
D03*
X487512Y13970D02*
D03*
Y58970D02*
D03*
X123070Y453248D02*
D03*
X39370Y495278D02*
D03*
X170180Y509248D02*
D03*
X80010Y584402D02*
D03*
X171450Y581638D02*
D03*
X45720Y629942D02*
D03*
X630950Y7098D02*
D03*
X224790Y626132D02*
D03*
X432308Y496380D02*
D03*
X22918Y691590D02*
D03*
X191828D02*
D03*
X547308Y544380D02*
D03*
X565912Y552380D02*
D03*
X655210Y440602D02*
D03*
Y463462D02*
D03*
X656480Y511722D02*
D03*
Y534582D02*
D03*
X769620Y372088D02*
D03*
X674480Y557442D02*
D03*
X796290Y372088D02*
D03*
X674480Y581572D02*
D03*
X733430Y520570D02*
D03*
X809098Y384430D02*
D03*
X717430Y552570D02*
D03*
X757430Y488570D02*
D03*
Y512570D02*
D03*
X805430Y464570D02*
D03*
X699770Y619782D02*
D03*
X732682Y593980D02*
D03*
X845430Y448570D02*
D03*
X746760Y622322D02*
D03*
X772160Y623592D02*
D03*
X889110Y454572D02*
D03*
X798830Y623592D02*
D03*
X847090Y626132D02*
D03*
X558100Y918808D02*
D03*
X588100D02*
D03*
X603100Y944412D02*
D03*
X618100Y918808D02*
D03*
X633100Y944412D02*
D03*
X1089152Y499300D02*
D03*
X932796Y734079D02*
D03*
X1089152Y547300D02*
D03*
X861060Y844528D02*
D03*
X1226432Y168910D02*
D03*
X1159620Y440602D02*
D03*
X883780Y852048D02*
D03*
X1158350Y464732D02*
D03*
Y471258D02*
D03*
X1186180Y424202D02*
D03*
X1015345Y739849D02*
D03*
X1158350Y519518D02*
D03*
X1211580Y425472D02*
D03*
X956310Y844528D02*
D03*
X1210630Y447870D02*
D03*
X1047095Y757159D02*
D03*
X1236980Y425472D02*
D03*
X1210630Y503870D02*
D03*
X1242630Y439870D02*
D03*
X1226630Y463870D02*
D03*
X1242630Y447870D02*
D03*
X1266630D02*
D03*
X1258630Y479870D02*
D03*
X1283970Y424202D02*
D03*
X1124566Y739159D02*
D03*
X1302910Y457288D02*
D03*
X1097280Y838178D02*
D03*
X1305450Y510628D02*
D03*
X1322180Y481418D02*
D03*
X1208385Y736039D02*
D03*
X1134110Y864658D02*
D03*
X1172210Y840718D02*
D03*
X1242676Y740429D02*
D03*
X1275695Y773493D02*
D03*
X1324993Y756961D02*
D03*
X1452880Y551842D02*
D03*
X1376025Y772223D02*
D03*
X1497880Y551842D02*
D03*
X804050Y448694D02*
D03*
X765300Y424450D02*
D03*
X765950Y545090D02*
D03*
X698754Y567436D02*
D03*
X699516Y582930D02*
D03*
X725424Y524764D02*
D03*
X774446Y489458D02*
D03*
X788856Y503174D02*
D03*
X783590Y544830D02*
D03*
X798830Y552450D02*
D03*
X886714Y483616D02*
D03*
X710440Y448564D02*
D03*
X699262Y450850D02*
D03*
X700024Y425450D02*
D03*
X838962Y569722D02*
D03*
X932180Y525780D02*
D03*
X1101090Y479806D02*
D03*
X1148588Y498094D02*
D03*
X602742Y394462D02*
D03*
X399288Y349504D02*
D03*
X615442Y293116D02*
D03*
X847598Y506730D02*
D03*
X947928Y499364D02*
D03*
X920496Y561340D02*
D03*
X1183386Y436372D02*
D03*
X1067816Y530352D02*
D03*
X1201166Y232410D02*
D03*
X400304Y776732D02*
D03*
X404368Y781304D02*
D03*
X387858Y806450D02*
D03*
X330454Y877316D02*
D03*
X152908D02*
D03*
X39878Y774700D02*
D03*
X233680Y801370D02*
D03*
X491998Y806450D02*
D03*
X590550Y944372D02*
D03*
X783082Y587248D02*
D03*
X689864Y518922D02*
D03*
X949706Y961390D02*
D03*
X1094740Y962660D02*
D03*
X1335278Y956310D02*
D03*
X245872Y729742D02*
D03*
X44958Y710184D02*
D03*
X602996Y735076D02*
D03*
X825754Y647192D02*
D03*
X214376Y688340D02*
D03*
X217424Y708406D02*
D03*
X823970Y504570D02*
D03*
X682244Y536194D02*
D03*
D40*
X1163828Y411988D02*
D03*
X694436Y425196D02*
D03*
X846836Y471678D02*
D03*
X824106Y520954D02*
D03*
X819150Y519684D02*
D03*
X956818Y571246D02*
D03*
X972058Y678942D02*
D03*
X1248664Y447802D02*
D03*
X837438Y474980D02*
D03*
X1211834Y457454D02*
D03*
X1242568Y452945D02*
D03*
X717296Y467868D02*
D03*
X1189228Y519430D02*
D03*
X567628Y512380D02*
D03*
X1070610Y420878D02*
D03*
X1274572Y439928D02*
D03*
X717550Y506970D02*
D03*
X1147699Y511810D02*
D03*
X886460Y433070D02*
D03*
X547370Y536448D02*
D03*
X565912Y528320D02*
D03*
X567182Y480314D02*
D03*
X565912Y464380D02*
D03*
X478470Y480380D02*
D03*
X452120Y520380D02*
D03*
X450850Y528380D02*
D03*
X565912Y432380D02*
D03*
X410580D02*
D03*
X453390Y568380D02*
D03*
X599468Y573532D02*
D03*
X1202690Y447802D02*
D03*
X858700Y565840D02*
D03*
X1134495Y560380D02*
D03*
X1243963Y465203D02*
D03*
X807466Y658114D02*
D03*
X1260094Y488950D02*
D03*
X810514Y504698D02*
D03*
X805430Y532892D02*
D03*
X805434Y488696D02*
D03*
X805430Y512570D02*
D03*
X1202630Y511870D02*
D03*
X856742Y520446D02*
D03*
X837438Y496570D02*
D03*
X1194562Y495808D02*
D03*
X839470Y464566D02*
D03*
X1226566Y561086D02*
D03*
X717550Y452628D02*
D03*
X288798Y443484D02*
D03*
X741430Y477774D02*
D03*
X468122Y437896D02*
D03*
X717550Y472694D02*
D03*
X709422Y560578D02*
D03*
X1250566Y487934D02*
D03*
X1250696Y495804D02*
D03*
Y503804D02*
D03*
X1226566Y447802D02*
D03*
X1313942Y483870D02*
D03*
X58818Y541528D02*
D03*
X1250696Y463804D02*
D03*
X1258570Y461264D02*
D03*
X1266698Y459994D02*
D03*
X1274572Y461010D02*
D03*
X1269238Y455930D02*
D03*
X460248Y544380D02*
D03*
X1297940Y232410D02*
D03*
X1070610Y435356D02*
D03*
X1069268Y567182D02*
D03*
X1017270Y531300D02*
D03*
X1024890Y515366D02*
D03*
X1055308Y483300D02*
D03*
X1063498Y476570D02*
D03*
X977138Y467300D02*
D03*
X984064Y459300D02*
D03*
X1091184Y523300D02*
D03*
X1089152Y555300D02*
D03*
X1184402Y618998D02*
D03*
X742708Y421132D02*
D03*
X1274572Y447928D02*
D03*
X717550Y511048D02*
D03*
X709422Y413004D02*
D03*
X907288Y436372D02*
D03*
X845430Y538988D02*
D03*
X1089914Y483300D02*
D03*
X953770Y427300D02*
D03*
X455676Y512380D02*
D03*
X432308Y505756D02*
D03*
X455676Y488380D02*
D03*
X875538Y414782D02*
D03*
X838962Y408686D02*
D03*
X1014984Y451300D02*
D03*
X1200318Y519870D02*
D03*
X813430Y512570D02*
D03*
X797306Y567300D02*
D03*
X1210564Y452628D02*
D03*
X845566Y439928D02*
D03*
X1257554Y658114D02*
D03*
X474404Y464380D02*
D03*
X1277112Y490220D02*
D03*
X511302Y472380D02*
D03*
X899160Y411300D02*
D03*
X1282446Y450848D02*
D03*
X1004824Y574802D02*
D03*
X565856Y560380D02*
D03*
X805941Y480059D02*
D03*
X1080770Y625856D02*
D03*
X92710Y555752D02*
D03*
X1277110Y453390D02*
D03*
X565912Y445770D02*
D03*
X623316Y408940D02*
D03*
X833293Y405130D02*
D03*
X1151890D02*
D03*
X1068070Y411300D02*
D03*
X1022350Y451358D02*
D03*
X1297304Y497332D02*
D03*
X1192022Y479806D02*
D03*
X830072Y510032D02*
D03*
X1098042Y593598D02*
D03*
X821430Y512570D02*
D03*
X547370Y488442D02*
D03*
X912876Y462026D02*
D03*
X1201420Y245110D02*
D03*
X1159256Y168910D02*
D03*
X1196340Y156210D02*
D03*
X92710Y494792D02*
D03*
X1202690Y495808D02*
D03*
X701934Y465074D02*
D03*
X702818Y503926D02*
D03*
X797306Y560578D02*
D03*
X432308Y456438D02*
D03*
X1202690Y455930D02*
D03*
X837946Y515874D02*
D03*
X1186688Y527812D02*
D03*
X1254630Y536506D02*
D03*
X1186688Y496658D02*
D03*
X830408Y477668D02*
D03*
X1202182Y487426D02*
D03*
X1147826Y677164D02*
D03*
X1237742Y701802D02*
D03*
X1070792Y427300D02*
D03*
X733552Y473964D02*
D03*
X1050798Y614680D02*
D03*
X724662Y480568D02*
D03*
X1207770Y530730D02*
D03*
X974090Y447294D02*
D03*
X386842Y440182D02*
D03*
X375780Y448380D02*
D03*
X432308Y424380D02*
D03*
X375158Y416380D02*
D03*
X450850Y560070D02*
D03*
X359410Y479482D02*
D03*
X955548Y576326D02*
D03*
X450850D02*
D03*
X432308Y584454D02*
D03*
X1097788Y459300D02*
D03*
X1194630Y509270D02*
D03*
X1089152Y620776D02*
D03*
X781600Y448750D02*
D03*
X733050Y426450D02*
D03*
X733100Y464900D02*
D03*
X708860Y440000D02*
D03*
X709200Y488600D02*
D03*
X828400Y537600D02*
D03*
X829006Y527100D02*
D03*
X814712Y522224D02*
D03*
X724408Y560324D02*
D03*
X697992Y556514D02*
D03*
X730504Y512318D02*
D03*
X741426Y505206D02*
D03*
X757682Y495938D02*
D03*
X781600Y558292D02*
D03*
X781304Y562864D02*
D03*
X776478Y568706D02*
D03*
X779590Y552450D02*
D03*
X799846Y544322D02*
D03*
X821182Y548386D02*
D03*
X884428Y563372D02*
D03*
X844042Y559562D02*
D03*
X803402Y520700D02*
D03*
X837946Y492506D02*
D03*
X851020Y470662D02*
D03*
X878332Y467868D02*
D03*
X854202Y490982D02*
D03*
X839470Y480822D02*
D03*
X848106Y481584D02*
D03*
X867410Y479552D02*
D03*
X799084Y482092D02*
D03*
X698246Y493014D02*
D03*
X719328Y480568D02*
D03*
X722376Y487680D02*
D03*
X727202Y489966D02*
D03*
X738124Y480568D02*
D03*
X699008Y470148D02*
D03*
X683514Y457454D02*
D03*
X724154Y456692D02*
D03*
X724916Y465582D02*
D03*
X710438Y454533D02*
D03*
X692912Y439420D02*
D03*
X693166Y445770D02*
D03*
X664972Y434594D02*
D03*
X688340Y419862D02*
D03*
X699008Y409194D02*
D03*
X798068Y494538D02*
D03*
X804672Y502666D02*
D03*
X850392Y531876D02*
D03*
X849630Y538734D02*
D03*
X847344Y543560D02*
D03*
X834136Y543814D02*
D03*
X837438Y560324D02*
D03*
X878078Y570230D02*
D03*
X847090Y516570D02*
D03*
X930910Y533400D02*
D03*
X901700Y529844D02*
D03*
X976630Y681990D02*
D03*
X955294Y447802D02*
D03*
X1011174Y467106D02*
D03*
X1088390Y457200D02*
D03*
X1094994Y474980D02*
D03*
X1123442Y515112D02*
D03*
X1165352Y507746D02*
D03*
X1166368Y520192D02*
D03*
Y556260D02*
D03*
X1182878Y523494D02*
D03*
X1181862Y540004D02*
D03*
X1170432D02*
D03*
X1186688Y513842D02*
D03*
X1182116Y481838D02*
D03*
X1197356Y488188D02*
D03*
X1181608Y505460D02*
D03*
X1188212Y503428D02*
D03*
X1194054Y513334D02*
D03*
X1177290Y524002D02*
D03*
X1193804Y521462D02*
D03*
X1198372Y531368D02*
D03*
X1191768Y530860D02*
D03*
X1210564Y524510D02*
D03*
X1196086Y552196D02*
D03*
X1242060Y567182D02*
D03*
X1274318Y526796D02*
D03*
X1281938Y499364D02*
D03*
X1274064Y497840D02*
D03*
X1266190Y504444D02*
D03*
X1230376Y495554D02*
D03*
X1210628Y491744D02*
D03*
X1279906Y478410D02*
D03*
X1252728Y455676D02*
D03*
X1218692Y433324D02*
D03*
X1182370Y530860D02*
D03*
X1169670Y417830D02*
D03*
X1104392Y508508D02*
D03*
X1012698Y546862D02*
D03*
X1042670Y507238D02*
D03*
X1118870Y498348D02*
D03*
X1123188Y530860D02*
D03*
X1044702Y581914D02*
D03*
X1138428Y649732D02*
D03*
X1226566Y680720D02*
D03*
X820674Y342900D02*
D03*
X859536Y346964D02*
D03*
X848614Y369824D02*
D03*
X835660Y378206D02*
D03*
X844550Y388366D02*
D03*
X899160Y420624D02*
D03*
X893318Y438404D02*
D03*
X1042924Y523240D02*
D03*
Y531114D02*
D03*
X548640Y509524D02*
D03*
X300990Y419354D02*
D03*
X547370Y440690D02*
D03*
X548132Y460756D02*
D03*
X545846Y762762D02*
D03*
X741426Y490982D02*
D03*
X749808Y491744D02*
D03*
X1226562Y511802D02*
D03*
X838962Y551180D02*
D03*
X829056Y514604D02*
D03*
X813308Y489712D02*
D03*
X828040Y488442D02*
D03*
X813816Y552958D02*
D03*
X836422Y504698D02*
D03*
X789686Y517144D02*
D03*
X814578Y526796D02*
D03*
X821690Y527050D02*
D03*
X709930Y513334D02*
D03*
X1221740Y456184D02*
D03*
X1226950Y455930D02*
D03*
X1220470Y463550D02*
D03*
X1232154Y455422D02*
D03*
X1210310Y820674D02*
D03*
X1210818Y463550D02*
D03*
X852424Y432562D02*
D03*
X891286Y400812D02*
D03*
X781812Y481076D02*
D03*
X783336Y721106D02*
D03*
X1301496Y833120D02*
D03*
X781812Y464952D02*
D03*
X760984Y578612D02*
D03*
X949706Y638556D02*
D03*
X1104392Y782574D02*
D03*
X1318514Y847598D02*
D03*
X789686Y440182D02*
D03*
X862076Y496062D02*
D03*
X1344168Y850646D02*
D03*
X773430Y424180D02*
D03*
X750570Y578866D02*
D03*
X918210Y636524D02*
D03*
X1322070Y921258D02*
D03*
D52*
X822960Y596520D02*
D03*
Y612520D02*
D03*
X819150Y400430D02*
D03*
Y384430D02*
D03*
X721360Y399160D02*
D03*
Y383160D02*
D03*
X722630Y609980D02*
D03*
Y593980D02*
D03*
D53*
X528320Y788560D02*
D03*
Y806560D02*
D03*
X560070Y735220D02*
D03*
Y753220D02*
D03*
X487680Y737760D02*
D03*
Y755760D02*
D03*
X1047095Y765961D02*
D03*
Y747961D02*
D03*
X932796Y742881D02*
D03*
Y760881D02*
D03*
X1124566Y747961D02*
D03*
Y765961D02*
D03*
X1242676Y749231D02*
D03*
Y767231D02*
D03*
X1376025Y763421D02*
D03*
Y745421D02*
D03*
X1275695Y764691D02*
D03*
Y746691D02*
D03*
X39370Y504080D02*
D03*
Y522080D02*
D03*
X170180Y518050D02*
D03*
Y536050D02*
D03*
X171450Y590440D02*
D03*
Y608440D02*
D03*
X224790Y599330D02*
D03*
Y617330D02*
D03*
X45720Y603140D02*
D03*
Y621140D02*
D03*
X1172210Y849520D02*
D03*
Y867520D02*
D03*
X1097280Y846980D02*
D03*
Y864980D02*
D03*
X956310Y853330D02*
D03*
Y871330D02*
D03*
X861060Y853330D02*
D03*
Y871330D02*
D03*
X1283970Y397400D02*
D03*
Y415400D02*
D03*
X1259840Y398670D02*
D03*
Y416670D02*
D03*
X1236980Y398670D02*
D03*
Y416670D02*
D03*
X1211580Y398670D02*
D03*
Y416670D02*
D03*
X1186180Y415400D02*
D03*
Y397400D02*
D03*
X843280Y380890D02*
D03*
Y398890D02*
D03*
X796290Y380890D02*
D03*
Y398890D02*
D03*
X769620Y380890D02*
D03*
Y398890D02*
D03*
X744220Y380890D02*
D03*
Y398890D02*
D03*
X697230Y380890D02*
D03*
Y398890D02*
D03*
X699770Y610980D02*
D03*
Y592980D02*
D03*
X746760Y613520D02*
D03*
Y595520D02*
D03*
X772160Y614790D02*
D03*
Y596790D02*
D03*
X798830Y614790D02*
D03*
Y596790D02*
D03*
X847090Y617330D02*
D03*
Y599330D02*
D03*
D54*
X1323450Y519430D02*
D03*
X1305450D02*
D03*
X1322180Y490220D02*
D03*
X1304180D02*
D03*
X1320910Y466090D02*
D03*
X1302910D02*
D03*
X1319640Y439420D02*
D03*
X1301640D02*
D03*
X1159620Y431800D02*
D03*
X1141620D02*
D03*
X1158350Y455930D02*
D03*
X1140350D02*
D03*
X1158350Y480060D02*
D03*
X1140350D02*
D03*
X1158350Y504190D02*
D03*
X1140350D02*
D03*
X1158350Y528320D02*
D03*
X1140350D02*
D03*
X889110Y492760D02*
D03*
X871110D02*
D03*
X889110Y445770D02*
D03*
X871110D02*
D03*
X889110Y421640D02*
D03*
X871110D02*
D03*
X655210Y431800D02*
D03*
X673210D02*
D03*
X655210Y454660D02*
D03*
X673210D02*
D03*
X656480Y502920D02*
D03*
X674480D02*
D03*
X656480Y525780D02*
D03*
X674480D02*
D03*
Y548640D02*
D03*
X656480D02*
D03*
X674480Y572770D02*
D03*
X656480D02*
D03*
X601870Y378460D02*
D03*
X619870D02*
D03*
X648860Y46990D02*
D03*
X666860D02*
D03*
X739030Y50800D02*
D03*
X757030D02*
D03*
D55*
X108070Y463550D02*
D03*
X123070D02*
D03*
D56*
X870840Y469900D02*
D03*
X886840D02*
D03*
X673480Y478790D02*
D03*
X657480D02*
D03*
M02*
