G04 Layer_Color=128*
%FSLAX44Y44*%
%MOMM*%
G71*
G01*
G75*
%ADD52R,1.3500X0.9500*%
%ADD53R,1.1000X1.1000*%
%ADD54R,1.1000X1.1000*%
%ADD55R,1.1000X1.4000*%
%ADD56R,0.9500X1.3500*%
G36*
X998298Y963044D02*
X980048D01*
Y970044D01*
X985298D01*
Y994544D01*
X998298D01*
Y963044D01*
D02*
G37*
G36*
X1052798Y970044D02*
X1058048D01*
Y963044D01*
X1039798D01*
Y994544D01*
X1052798D01*
Y970044D01*
D02*
G37*
D52*
X822960Y596520D02*
D03*
Y612520D02*
D03*
X819150Y400430D02*
D03*
Y384430D02*
D03*
X721360Y399160D02*
D03*
Y383160D02*
D03*
X722630Y609980D02*
D03*
Y593980D02*
D03*
D53*
X528320Y788560D02*
D03*
Y806560D02*
D03*
X560070Y735220D02*
D03*
Y753220D02*
D03*
X487680Y737760D02*
D03*
Y755760D02*
D03*
X1047095Y765961D02*
D03*
Y747961D02*
D03*
X932796Y742881D02*
D03*
Y760881D02*
D03*
X1124566Y747961D02*
D03*
Y765961D02*
D03*
X1242676Y749231D02*
D03*
Y767231D02*
D03*
X1376025Y763421D02*
D03*
Y745421D02*
D03*
X1275695Y764691D02*
D03*
Y746691D02*
D03*
X39370Y504080D02*
D03*
Y522080D02*
D03*
X170180Y518050D02*
D03*
Y536050D02*
D03*
X171450Y590440D02*
D03*
Y608440D02*
D03*
X224790Y599330D02*
D03*
Y617330D02*
D03*
X45720Y603140D02*
D03*
Y621140D02*
D03*
X1172210Y849520D02*
D03*
Y867520D02*
D03*
X1097280Y846980D02*
D03*
Y864980D02*
D03*
X956310Y853330D02*
D03*
Y871330D02*
D03*
X861060Y853330D02*
D03*
Y871330D02*
D03*
X1283970Y397400D02*
D03*
Y415400D02*
D03*
X1259840Y398670D02*
D03*
Y416670D02*
D03*
X1236980Y398670D02*
D03*
Y416670D02*
D03*
X1211580Y398670D02*
D03*
Y416670D02*
D03*
X1186180Y415400D02*
D03*
Y397400D02*
D03*
X843280Y380890D02*
D03*
Y398890D02*
D03*
X796290Y380890D02*
D03*
Y398890D02*
D03*
X769620Y380890D02*
D03*
Y398890D02*
D03*
X744220Y380890D02*
D03*
Y398890D02*
D03*
X697230Y380890D02*
D03*
Y398890D02*
D03*
X699770Y610980D02*
D03*
Y592980D02*
D03*
X746760Y613520D02*
D03*
Y595520D02*
D03*
X772160Y614790D02*
D03*
Y596790D02*
D03*
X798830Y614790D02*
D03*
Y596790D02*
D03*
X847090Y617330D02*
D03*
Y599330D02*
D03*
D54*
X1323450Y519430D02*
D03*
X1305450D02*
D03*
X1322180Y490220D02*
D03*
X1304180D02*
D03*
X1320910Y466090D02*
D03*
X1302910D02*
D03*
X1319640Y439420D02*
D03*
X1301640D02*
D03*
X1159620Y431800D02*
D03*
X1141620D02*
D03*
X1158350Y455930D02*
D03*
X1140350D02*
D03*
X1158350Y480060D02*
D03*
X1140350D02*
D03*
X1158350Y504190D02*
D03*
X1140350D02*
D03*
X1158350Y528320D02*
D03*
X1140350D02*
D03*
X889110Y492760D02*
D03*
X871110D02*
D03*
X889110Y445770D02*
D03*
X871110D02*
D03*
X889110Y421640D02*
D03*
X871110D02*
D03*
X655210Y431800D02*
D03*
X673210D02*
D03*
X655210Y454660D02*
D03*
X673210D02*
D03*
X656480Y502920D02*
D03*
X674480D02*
D03*
X656480Y525780D02*
D03*
X674480D02*
D03*
Y548640D02*
D03*
X656480D02*
D03*
X674480Y572770D02*
D03*
X656480D02*
D03*
X601870Y378460D02*
D03*
X619870D02*
D03*
X648860Y46990D02*
D03*
X666860D02*
D03*
X739030Y50800D02*
D03*
X757030D02*
D03*
D55*
X108070Y463550D02*
D03*
X123070D02*
D03*
D56*
X870840Y469900D02*
D03*
X886840D02*
D03*
X673480Y478790D02*
D03*
X657480D02*
D03*
M02*
