G04 Layer_Physical_Order=3*
G04 Layer_Color=16440176*
%FSLAX44Y44*%
%MOMM*%
G71*
G01*
G75*
%ADD24R,1.5000X1.5000*%
%ADD27C,0.1016*%
%ADD28C,0.2032*%
%ADD32C,1.5000*%
%ADD38C,3.3000*%
%ADD40O,0.7000X1.2000*%
%ADD42C,0.4064*%
%ADD43C,0.2540*%
G36*
X998298Y963044D02*
X980048D01*
Y970044D01*
X985298D01*
Y994544D01*
X998298D01*
Y963044D01*
D02*
G37*
G36*
X1052798Y970044D02*
X1058048D01*
Y963044D01*
X1039798D01*
Y994544D01*
X1052798D01*
Y970044D01*
D02*
G37*
D24*
X1371600Y331470D02*
D03*
D27*
X863854Y497840D02*
Y564896D01*
Y480060D02*
Y494030D01*
X864616Y494792D01*
Y497078D01*
X863854Y497840D02*
X864616Y497078D01*
X1276350Y921258D02*
X1322070D01*
X1201166Y846074D02*
X1276350Y921258D01*
X1143000Y846074D02*
X1201166D01*
X1090422Y793496D02*
X1143000Y846074D01*
X1090422Y732282D02*
Y793496D01*
X1075944Y717804D02*
X1090422Y732282D01*
X917702Y717804D02*
X1075944D01*
X903986Y704088D02*
X917702Y717804D01*
X903986Y650748D02*
Y704088D01*
Y650748D02*
X918210Y636524D01*
X1233678Y455422D02*
Y483870D01*
X1311148Y884174D02*
Y896112D01*
X1310386Y883412D02*
X1311148Y884174D01*
X1257554Y883412D02*
X1310386D01*
X1206500Y832358D02*
X1257554Y883412D01*
X1139190Y832358D02*
X1206500D01*
X1096772Y789940D02*
X1139190Y832358D01*
X1096772Y716788D02*
Y789940D01*
X1084072Y704088D02*
X1096772Y716788D01*
X1084072Y690372D02*
Y704088D01*
Y690372D02*
X1090676Y683768D01*
X1096010D01*
X1104900Y674878D01*
Y560070D02*
Y674878D01*
Y560070D02*
X1110742Y554228D01*
X1157224D01*
Y537972D02*
Y554228D01*
Y537972D02*
X1177798Y517398D01*
X1204214D01*
X1225042Y496570D01*
Y492506D02*
Y496570D01*
Y492506D02*
X1233678Y483870D01*
X1232154Y455422D02*
X1233678D01*
X1187958Y490220D02*
X1221740Y456438D01*
Y456184D02*
Y456438D01*
X700024Y505206D02*
X708152Y513334D01*
X709930D01*
X714996Y509524D02*
X717550Y506970D01*
X714996Y509524D02*
Y512078D01*
X711708Y515366D02*
X714996Y512078D01*
X821690Y527050D02*
X823595Y525145D01*
Y525135D02*
Y525145D01*
X810768Y515366D02*
X817118Y521716D01*
X814578Y526796D02*
X817118Y524256D01*
Y521716D02*
Y524256D01*
X796290Y530098D02*
X803656D01*
X811530Y522224D01*
X814712D01*
X729742Y512318D02*
X737568Y504492D01*
X684550Y666250D02*
X789686Y561114D01*
Y517144D02*
Y561114D01*
X834898Y480568D02*
X894842Y420624D01*
X829099Y480568D02*
X834898D01*
X818642Y491025D02*
X829099Y480568D01*
X827786Y499872D02*
Y513334D01*
X829056Y514604D01*
X749808Y469354D02*
Y491744D01*
X749700Y469246D02*
X749808Y469354D01*
X738720Y504458D02*
X740004Y503174D01*
X745490D01*
X756158Y492506D01*
X757936D01*
X762890Y487552D01*
X749700Y469246D02*
X835660Y383286D01*
X762890Y458088D02*
Y487552D01*
X737568Y504492D02*
X738720Y504458D01*
X747522Y469335D02*
Y488696D01*
X742188Y494030D02*
X747522Y488696D01*
X739648Y494030D02*
X742188D01*
X722630Y511048D02*
X739648Y494030D01*
X717550Y511048D02*
X722630D01*
X744220Y471170D02*
Y482346D01*
X733806Y492760D02*
X744220Y482346D01*
X728819Y492760D02*
X733806D01*
X590550Y942594D02*
Y944372D01*
Y942594D02*
X725678Y807466D01*
X547370Y440690D02*
X549402D01*
X554228Y435864D01*
X893318Y438404D02*
Y439420D01*
X841502Y491236D02*
X893318Y439420D01*
X894842Y420624D02*
X899160D01*
X836168Y388366D02*
X844550D01*
X794258Y430276D02*
X836168Y388366D01*
X835660Y378206D02*
Y383286D01*
X848614Y369824D02*
Y372364D01*
X762890Y458088D02*
X848614Y372364D01*
X820674Y342900D02*
Y395167D01*
X821182Y395675D01*
X1044702Y581660D02*
Y581914D01*
Y581660D02*
X1129030Y497332D01*
X1183386Y436372D02*
Y447294D01*
X1172464Y458216D02*
X1183386Y447294D01*
X920496Y561340D02*
Y562538D01*
X900430Y582604D02*
X920496Y562538D01*
X1230376Y495554D02*
Y572516D01*
X1230630Y572770D01*
X1238758Y567182D02*
X1242060D01*
X1237488Y565912D02*
X1238758Y567182D01*
X1230630Y572770D02*
X1237488Y565912D01*
X1196086Y552196D02*
Y581406D01*
X1196340Y581660D01*
X1198372Y531368D02*
Y532128D01*
X1162558Y567942D02*
X1198372Y532128D01*
X953516Y447802D02*
X955294D01*
X868680Y532638D02*
X953516Y447802D01*
X804672Y500126D02*
Y502666D01*
X801878Y497332D02*
X804672Y500126D01*
X728472Y487680D02*
X736346Y479806D01*
X722376Y487680D02*
X728472D01*
X698246Y493014D02*
X699698D01*
X699734Y493050D01*
X714756Y415544D02*
Y487934D01*
X700024Y502666D02*
X714756Y487934D01*
X700024Y502666D02*
Y505206D01*
X795528Y494792D02*
X798068Y497332D01*
X795528Y442895D02*
Y494792D01*
Y442895D02*
X833293Y405130D01*
X864362Y479552D02*
X867410D01*
X863854Y480060D02*
X864362Y479552D01*
X823595Y525135D02*
X841502Y507228D01*
X810768Y509564D02*
Y515366D01*
X790194Y500380D02*
X793496Y503682D01*
X758444Y500380D02*
X790194D01*
X717550Y541274D02*
X758444Y500380D01*
X793496Y503682D02*
Y527304D01*
X757682Y495938D02*
X794258Y459362D01*
X729742Y512318D02*
X730504D01*
X697992Y556514D02*
X710184D01*
X713994Y560324D01*
X724408D01*
X824738Y541262D02*
X828400Y537600D01*
X699734Y493050D02*
X706882Y485902D01*
X265230Y903570D02*
Y928570D01*
Y903570D02*
X291230Y877570D01*
X86160Y903570D02*
X112160Y877570D01*
X86160Y903570D02*
Y928570D01*
X1371600Y331470D02*
Y342900D01*
X1128375Y610911D02*
X1148588Y590698D01*
Y577596D02*
Y590698D01*
Y577596D02*
X1227534Y498650D01*
Y494236D02*
Y498650D01*
X962406Y703072D02*
X1050798Y614680D01*
X924572Y703072D02*
X962406D01*
X913150Y691650D02*
X924572Y703072D01*
X736346Y417830D02*
Y479806D01*
Y417830D02*
X813308Y340868D01*
Y327914D02*
Y340868D01*
Y327914D02*
X816490Y324732D01*
X840352D01*
X848360Y332740D01*
X735350Y666250D02*
X775208Y626392D01*
Y606298D02*
Y626392D01*
Y606298D02*
X824738Y556768D01*
Y541262D02*
Y556768D01*
X684550Y691650D02*
X700306Y675894D01*
X775716D01*
X778002Y673608D01*
Y650748D02*
Y673608D01*
Y650748D02*
X863854Y564896D01*
X841502Y491236D02*
Y507228D01*
X507238Y300736D02*
X521208Y286766D01*
X507238Y300736D02*
Y381508D01*
X432308Y456438D02*
X507238Y381508D01*
X579467Y303183D02*
X822960Y59690D01*
X579467Y303183D02*
Y341030D01*
X294132Y626364D02*
X579467Y341030D01*
X294132Y626364D02*
Y673810D01*
X276352Y691590D02*
X294132Y673810D01*
X554228Y371472D02*
Y435864D01*
Y371472D02*
X591650Y334050D01*
X702818Y503418D02*
Y503926D01*
Y503418D02*
X713222Y493014D01*
X728565D01*
X728819Y492760D01*
X744220Y471170D02*
X792480Y422910D01*
Y363220D02*
Y422910D01*
Y363220D02*
X822960Y332740D01*
X725678Y807466D02*
X782574D01*
X797560Y792480D01*
X932688Y324612D02*
X949960Y307340D01*
X932688Y324612D02*
Y390652D01*
X912876Y410464D02*
X932688Y390652D01*
X912876Y410464D02*
Y462026D01*
X714756Y415544D02*
X797560Y332740D01*
X967232Y665226D02*
Y685292D01*
Y665226D02*
X1142238Y490220D01*
X1187958D01*
X938550Y691650D02*
X1022350Y607850D01*
Y451358D02*
Y607850D01*
X794258Y430276D02*
Y459362D01*
X798068Y497332D02*
X801878D01*
X1068070Y693420D02*
X1080770Y680720D01*
X896620Y413840D02*
X899160Y411300D01*
X866140Y522732D02*
X896620Y492252D01*
X866140Y522732D02*
Y573786D01*
X794258Y645668D02*
X866140Y573786D01*
X794258Y645668D02*
Y674370D01*
X787908Y680720D02*
X794258Y674370D01*
X720880Y680720D02*
X787908D01*
X709950Y691650D02*
X720880Y680720D01*
X1093470Y693420D02*
X1108710Y678180D01*
Y558672D02*
Y678180D01*
Y558672D02*
X1111250Y556132D01*
X1162304D01*
X1195722Y522714D01*
X1197474D01*
X1200318Y519870D01*
X874392Y414782D02*
X875538D01*
X810768Y478406D02*
X874392Y414782D01*
X810768Y478406D02*
Y499872D01*
X813054Y502158D01*
Y507278D01*
X810768Y509564D02*
X813054Y507278D01*
X760750Y666250D02*
X786328Y640672D01*
Y598090D02*
Y640672D01*
Y598090D02*
X845430Y538988D01*
X899160Y307340D02*
X907288Y315468D01*
Y436372D01*
X793496Y527304D02*
X796290Y530098D01*
X677164Y541274D02*
X717550D01*
X608350Y610088D02*
X677164Y541274D01*
X608350Y610088D02*
Y666250D01*
X747522Y469335D02*
X821182Y395675D01*
X633750Y691650D02*
X641870Y699770D01*
X817118D01*
X868680Y648208D01*
Y532638D02*
Y648208D01*
X900430Y582604D02*
Y691642D01*
X1250696Y227076D02*
Y463804D01*
X1071880Y48260D02*
X1250696Y227076D01*
X1480312Y259588D02*
X1488440Y251460D01*
X1480312Y259588D02*
Y409194D01*
X1401826Y487680D02*
X1480312Y409194D01*
X1266820Y487680D02*
X1401826D01*
X1250696Y503804D02*
X1266820Y487680D01*
X1250696Y494388D02*
Y495804D01*
Y494388D02*
X1260202Y484882D01*
X1297944D01*
X1317244Y465582D01*
X1376426D01*
X1478534Y363474D01*
Y210566D02*
Y363474D01*
Y210566D02*
X1488440Y200660D01*
X1250566Y487934D02*
X1255900Y482600D01*
Y358016D02*
Y482600D01*
Y358016D02*
X1428750Y185166D01*
X1478534D01*
X1488440Y175260D01*
X568100Y918718D02*
X686210Y800608D01*
X738632D01*
X746760Y792480D01*
X1221740Y581660D02*
X1230630Y572770D01*
X1118870Y693420D02*
X1131570Y680720D01*
Y659892D02*
Y680720D01*
Y659892D02*
X1162558Y628904D01*
Y567942D02*
Y628904D01*
X1198626Y515874D02*
X1202630Y511870D01*
X1126744Y515874D02*
X1198626D01*
X1102868Y539750D02*
X1126744Y515874D01*
X1102868Y539750D02*
Y627380D01*
X1080770Y649478D02*
X1102868Y627380D01*
X805430Y532892D02*
Y570770D01*
X709950Y666250D02*
X805430Y570770D01*
X1131570Y458216D02*
X1172464D01*
X1129030Y460756D02*
X1131570Y458216D01*
X1129030Y460756D02*
Y497332D01*
X818642Y491025D02*
Y514350D01*
X237490Y541020D02*
Y678590D01*
Y541020D02*
X288290Y490220D01*
X682498Y293878D02*
X695960Y307340D01*
X623570Y293878D02*
X682498D01*
X602488Y314960D02*
X623570Y293878D01*
X602488Y314960D02*
Y352044D01*
X586232Y368300D02*
X602488Y352044D01*
X586232Y368300D02*
Y418592D01*
X476444Y528380D02*
X586232Y418592D01*
X450850Y528380D02*
X476444D01*
X452120Y471170D02*
Y520380D01*
Y471170D02*
X583642Y339648D01*
Y329757D02*
Y339648D01*
Y329757D02*
X622568Y290830D01*
X704850D01*
X721360Y307340D01*
X667004Y374396D02*
X721360Y320040D01*
X667004Y374396D02*
Y525526D01*
X664210Y528320D02*
X667004Y525526D01*
X565912Y528320D02*
X664210D01*
X625856Y296926D02*
Y457962D01*
X547370Y536448D02*
X625856Y457962D01*
X827786Y499872D02*
X845820Y481838D01*
Y478790D02*
Y481838D01*
Y478790D02*
X886460Y438150D01*
Y433070D02*
Y438150D01*
X695712Y467608D02*
Y511308D01*
X699770Y515366D01*
X711708D01*
X706882Y398018D02*
X772160Y332740D01*
X706882Y398018D02*
Y485902D01*
X1080770Y625856D02*
Y649478D01*
Y680720D01*
X1274572Y439928D02*
X1371600Y342900D01*
X896620Y413840D02*
Y414528D01*
X901700Y419608D01*
Y423926D01*
X896620Y429006D02*
X901700Y423926D01*
X896620Y429006D02*
Y492252D01*
X1227534Y494236D02*
X1248918Y472851D01*
X1248664Y472598D02*
X1248918Y472851D01*
X1248664Y447802D02*
Y472598D01*
X824106Y519814D02*
Y520954D01*
X818642Y514350D02*
X824106Y519814D01*
X695712Y467608D02*
X696415Y430985D01*
X692404Y387096D02*
X746760Y332740D01*
X692404Y387096D02*
Y426974D01*
X696415Y430985D01*
D28*
X947928Y499364D02*
Y510032D01*
X932180Y525780D02*
X947928Y510032D01*
X698754Y567436D02*
Y582168D01*
X699516Y582930D01*
D32*
X1311148Y896112D02*
D03*
X822960Y59690D02*
D03*
X1128375Y610911D02*
D03*
X288290Y490220D02*
D03*
X591650Y334050D02*
D03*
X695960Y307340D02*
D03*
X721360D02*
D03*
X746760Y332740D02*
D03*
X772160D02*
D03*
X797560D02*
D03*
X822960D02*
D03*
X848360D02*
D03*
X899160Y307340D02*
D03*
X949960D02*
D03*
X797560Y792480D02*
D03*
X746760D02*
D03*
X1071880Y48260D02*
D03*
X1196340Y581660D02*
D03*
X1221740D02*
D03*
X608350Y666250D02*
D03*
X633750Y691650D02*
D03*
X684550Y666250D02*
D03*
Y691650D02*
D03*
X709950Y666250D02*
D03*
Y691650D02*
D03*
X735350Y666250D02*
D03*
X760750D02*
D03*
X913150Y691650D02*
D03*
X938550D02*
D03*
X1068070Y693420D02*
D03*
X1093470D02*
D03*
X1118870D02*
D03*
X291230Y877570D02*
D03*
X112160D02*
D03*
X1488440Y251460D02*
D03*
Y200660D02*
D03*
Y175260D02*
D03*
D38*
X265230Y928570D02*
D03*
X86160D02*
D03*
D40*
X1046298Y983844D02*
D03*
X991798Y983844D02*
D03*
D42*
X590550Y944372D02*
D03*
X1183386Y436372D02*
D03*
X920496Y561340D02*
D03*
X947928Y499364D02*
D03*
X932180Y525780D02*
D03*
X699516Y582930D02*
D03*
X698754Y567436D02*
D03*
X521208Y286766D02*
D03*
X276352Y691590D02*
D03*
X967232Y685292D02*
D03*
X900430Y691642D02*
D03*
X568100Y918718D02*
D03*
X237490Y678590D02*
D03*
X721360Y320040D02*
D03*
X625856Y296926D02*
D03*
D43*
X1322070Y921258D02*
D03*
X918210Y636524D02*
D03*
X1232154Y455422D02*
D03*
X1221740Y456184D02*
D03*
X709930Y513334D02*
D03*
X821690Y527050D02*
D03*
X814578Y526796D02*
D03*
X789686Y517144D02*
D03*
X829056Y514604D02*
D03*
X749808Y491744D02*
D03*
X547370Y440690D02*
D03*
X893318Y438404D02*
D03*
X899160Y420624D02*
D03*
X844550Y388366D02*
D03*
X835660Y378206D02*
D03*
X848614Y369824D02*
D03*
X820674Y342900D02*
D03*
X1044702Y581914D02*
D03*
X1230376Y495554D02*
D03*
X1242060Y567182D02*
D03*
X1196086Y552196D02*
D03*
X1198372Y531368D02*
D03*
X955294Y447802D02*
D03*
X804672Y502666D02*
D03*
X722376Y487680D02*
D03*
X698246Y493014D02*
D03*
X867410Y479552D02*
D03*
X757682Y495938D02*
D03*
X730504Y512318D02*
D03*
X697992Y556514D02*
D03*
X724408Y560324D02*
D03*
X814712Y522224D02*
D03*
X828400Y537600D02*
D03*
X1050798Y614680D02*
D03*
X432308Y456438D02*
D03*
X702818Y503926D02*
D03*
X912876Y462026D02*
D03*
X1022350Y451358D02*
D03*
X833293Y405130D02*
D03*
X1080770Y625856D02*
D03*
X899160Y411300D02*
D03*
X1200318Y519870D02*
D03*
X875538Y414782D02*
D03*
X845430Y538988D02*
D03*
X907288Y436372D02*
D03*
X717550Y511048D02*
D03*
X1250696Y463804D02*
D03*
Y503804D02*
D03*
Y495804D02*
D03*
X1250566Y487934D02*
D03*
X1202630Y511870D02*
D03*
X805430Y532892D02*
D03*
X450850Y528380D02*
D03*
X452120Y520380D02*
D03*
X565912Y528320D02*
D03*
X547370Y536448D02*
D03*
X886460Y433070D02*
D03*
X717550Y506970D02*
D03*
X1274572Y439928D02*
D03*
X1248664Y447802D02*
D03*
X824106Y520954D02*
D03*
M02*
